G04 #@! TF.GenerationSoftware,KiCad,Pcbnew,(5.0.0)*
G04 #@! TF.CreationDate,2018-10-12T16:46:49-04:00*
G04 #@! TF.ProjectId,DRV8308_BreakoutBoard,445256383330385F427265616B6F7574,rev?*
G04 #@! TF.SameCoordinates,Original*
G04 #@! TF.FileFunction,Soldermask,Top*
G04 #@! TF.FilePolarity,Negative*
%FSLAX46Y46*%
G04 Gerber Fmt 4.6, Leading zero omitted, Abs format (unit mm)*
G04 Created by KiCad (PCBNEW (5.0.0)) date 10/12/18 16:46:49*
%MOMM*%
%LPD*%
G01*
G04 APERTURE LIST*
%ADD10C,0.381600*%
%ADD11C,0.100000*%
%ADD12C,2.721600*%
%ADD13R,1.801600X1.801600*%
%ADD14O,1.801600X1.801600*%
G04 APERTURE END LIST*
D10*
G04 #@! TO.C,U1*
X148077348Y-95365366D03*
D11*
G36*
X148278873Y-95836723D02*
X147605991Y-95163841D01*
X147875823Y-94894009D01*
X148548705Y-95566891D01*
X148278873Y-95836723D01*
X148278873Y-95836723D01*
G37*
D10*
X147723793Y-95718921D03*
D11*
G36*
X147925318Y-96190278D02*
X147252436Y-95517396D01*
X147522268Y-95247564D01*
X148195150Y-95920446D01*
X147925318Y-96190278D01*
X147925318Y-96190278D01*
G37*
D10*
X147370241Y-96072474D03*
D11*
G36*
X147571766Y-96543831D02*
X146898884Y-95870949D01*
X147168716Y-95601117D01*
X147841598Y-96273999D01*
X147571766Y-96543831D01*
X147571766Y-96543831D01*
G37*
D10*
X147016688Y-96426027D03*
D11*
G36*
X147218213Y-96897384D02*
X146545331Y-96224502D01*
X146815163Y-95954670D01*
X147488045Y-96627552D01*
X147218213Y-96897384D01*
X147218213Y-96897384D01*
G37*
D10*
X146663134Y-96779581D03*
D11*
G36*
X146864659Y-97250938D02*
X146191777Y-96578056D01*
X146461609Y-96308224D01*
X147134491Y-96981106D01*
X146864659Y-97250938D01*
X146864659Y-97250938D01*
G37*
D10*
X146309581Y-97133134D03*
D11*
G36*
X146511106Y-97604491D02*
X145838224Y-96931609D01*
X146108056Y-96661777D01*
X146780938Y-97334659D01*
X146511106Y-97604491D01*
X146511106Y-97604491D01*
G37*
D10*
X145956027Y-97486688D03*
D11*
G36*
X146157552Y-97958045D02*
X145484670Y-97285163D01*
X145754502Y-97015331D01*
X146427384Y-97688213D01*
X146157552Y-97958045D01*
X146157552Y-97958045D01*
G37*
D10*
X145602474Y-97840241D03*
D11*
G36*
X145803999Y-98311598D02*
X145131117Y-97638716D01*
X145400949Y-97368884D01*
X146073831Y-98041766D01*
X145803999Y-98311598D01*
X145803999Y-98311598D01*
G37*
D10*
X145248921Y-98193793D03*
D11*
G36*
X145450446Y-98665150D02*
X144777564Y-97992268D01*
X145047396Y-97722436D01*
X145720278Y-98395318D01*
X145450446Y-98665150D01*
X145450446Y-98665150D01*
G37*
D10*
X144895366Y-98547348D03*
D11*
G36*
X145096891Y-99018705D02*
X144424009Y-98345823D01*
X144693841Y-98075991D01*
X145366723Y-98748873D01*
X145096891Y-99018705D01*
X145096891Y-99018705D01*
G37*
D10*
X144894966Y-99572251D03*
D11*
G36*
X144423609Y-99773776D02*
X145096491Y-99100894D01*
X145366323Y-99370726D01*
X144693441Y-100043608D01*
X144423609Y-99773776D01*
X144423609Y-99773776D01*
G37*
D10*
X145248609Y-99925894D03*
D11*
G36*
X144777252Y-100127419D02*
X145450134Y-99454537D01*
X145719966Y-99724369D01*
X145047084Y-100397251D01*
X144777252Y-100127419D01*
X144777252Y-100127419D01*
G37*
D10*
X145602251Y-100279536D03*
D11*
G36*
X145130894Y-100481061D02*
X145803776Y-99808179D01*
X146073608Y-100078011D01*
X145400726Y-100750893D01*
X145130894Y-100481061D01*
X145130894Y-100481061D01*
G37*
D10*
X145955894Y-100633179D03*
D11*
G36*
X145484537Y-100834704D02*
X146157419Y-100161822D01*
X146427251Y-100431654D01*
X145754369Y-101104536D01*
X145484537Y-100834704D01*
X145484537Y-100834704D01*
G37*
D10*
X146309536Y-100986821D03*
D11*
G36*
X145838179Y-101188346D02*
X146511061Y-100515464D01*
X146780893Y-100785296D01*
X146108011Y-101458178D01*
X145838179Y-101188346D01*
X145838179Y-101188346D01*
G37*
D10*
X146663179Y-101340464D03*
D11*
G36*
X146191822Y-101541989D02*
X146864704Y-100869107D01*
X147134536Y-101138939D01*
X146461654Y-101811821D01*
X146191822Y-101541989D01*
X146191822Y-101541989D01*
G37*
D10*
X147016821Y-101694106D03*
D11*
G36*
X146545464Y-101895631D02*
X147218346Y-101222749D01*
X147488178Y-101492581D01*
X146815296Y-102165463D01*
X146545464Y-101895631D01*
X146545464Y-101895631D01*
G37*
D10*
X147370464Y-102047749D03*
D11*
G36*
X146899107Y-102249274D02*
X147571989Y-101576392D01*
X147841821Y-101846224D01*
X147168939Y-102519106D01*
X146899107Y-102249274D01*
X146899107Y-102249274D01*
G37*
D10*
X147724106Y-102401391D03*
D11*
G36*
X147252749Y-102602916D02*
X147925631Y-101930034D01*
X148195463Y-102199866D01*
X147522581Y-102872748D01*
X147252749Y-102602916D01*
X147252749Y-102602916D01*
G37*
D10*
X148077749Y-102755034D03*
D11*
G36*
X147606392Y-102956559D02*
X148279274Y-102283677D01*
X148549106Y-102553509D01*
X147876224Y-103226391D01*
X147606392Y-102956559D01*
X147606392Y-102956559D01*
G37*
D10*
X149102652Y-102754634D03*
D11*
G36*
X149304177Y-103225991D02*
X148631295Y-102553109D01*
X148901127Y-102283277D01*
X149574009Y-102956159D01*
X149304177Y-103225991D01*
X149304177Y-103225991D01*
G37*
D10*
X149456207Y-102401079D03*
D11*
G36*
X149657732Y-102872436D02*
X148984850Y-102199554D01*
X149254682Y-101929722D01*
X149927564Y-102602604D01*
X149657732Y-102872436D01*
X149657732Y-102872436D01*
G37*
D10*
X149809759Y-102047526D03*
D11*
G36*
X150011284Y-102518883D02*
X149338402Y-101846001D01*
X149608234Y-101576169D01*
X150281116Y-102249051D01*
X150011284Y-102518883D01*
X150011284Y-102518883D01*
G37*
D10*
X150163312Y-101693973D03*
D11*
G36*
X150364837Y-102165330D02*
X149691955Y-101492448D01*
X149961787Y-101222616D01*
X150634669Y-101895498D01*
X150364837Y-102165330D01*
X150364837Y-102165330D01*
G37*
D10*
X150516866Y-101340419D03*
D11*
G36*
X150718391Y-101811776D02*
X150045509Y-101138894D01*
X150315341Y-100869062D01*
X150988223Y-101541944D01*
X150718391Y-101811776D01*
X150718391Y-101811776D01*
G37*
D10*
X150870419Y-100986866D03*
D11*
G36*
X151071944Y-101458223D02*
X150399062Y-100785341D01*
X150668894Y-100515509D01*
X151341776Y-101188391D01*
X151071944Y-101458223D01*
X151071944Y-101458223D01*
G37*
D10*
X151223973Y-100633312D03*
D11*
G36*
X151425498Y-101104669D02*
X150752616Y-100431787D01*
X151022448Y-100161955D01*
X151695330Y-100834837D01*
X151425498Y-101104669D01*
X151425498Y-101104669D01*
G37*
D10*
X151577526Y-100279759D03*
D11*
G36*
X151779051Y-100751116D02*
X151106169Y-100078234D01*
X151376001Y-99808402D01*
X152048883Y-100481284D01*
X151779051Y-100751116D01*
X151779051Y-100751116D01*
G37*
D10*
X151931079Y-99926207D03*
D11*
G36*
X152132604Y-100397564D02*
X151459722Y-99724682D01*
X151729554Y-99454850D01*
X152402436Y-100127732D01*
X152132604Y-100397564D01*
X152132604Y-100397564D01*
G37*
D10*
X152284634Y-99572652D03*
D11*
G36*
X152486159Y-100044009D02*
X151813277Y-99371127D01*
X152083109Y-99101295D01*
X152755991Y-99774177D01*
X152486159Y-100044009D01*
X152486159Y-100044009D01*
G37*
D10*
X152285034Y-98547749D03*
D11*
G36*
X151813677Y-98749274D02*
X152486559Y-98076392D01*
X152756391Y-98346224D01*
X152083509Y-99019106D01*
X151813677Y-98749274D01*
X151813677Y-98749274D01*
G37*
D10*
X151931391Y-98194106D03*
D11*
G36*
X151460034Y-98395631D02*
X152132916Y-97722749D01*
X152402748Y-97992581D01*
X151729866Y-98665463D01*
X151460034Y-98395631D01*
X151460034Y-98395631D01*
G37*
D10*
X151577749Y-97840464D03*
D11*
G36*
X151106392Y-98041989D02*
X151779274Y-97369107D01*
X152049106Y-97638939D01*
X151376224Y-98311821D01*
X151106392Y-98041989D01*
X151106392Y-98041989D01*
G37*
D10*
X151224106Y-97486821D03*
D11*
G36*
X150752749Y-97688346D02*
X151425631Y-97015464D01*
X151695463Y-97285296D01*
X151022581Y-97958178D01*
X150752749Y-97688346D01*
X150752749Y-97688346D01*
G37*
D10*
X150870464Y-97133179D03*
D11*
G36*
X150399107Y-97334704D02*
X151071989Y-96661822D01*
X151341821Y-96931654D01*
X150668939Y-97604536D01*
X150399107Y-97334704D01*
X150399107Y-97334704D01*
G37*
D10*
X150516821Y-96779536D03*
D11*
G36*
X150045464Y-96981061D02*
X150718346Y-96308179D01*
X150988178Y-96578011D01*
X150315296Y-97250893D01*
X150045464Y-96981061D01*
X150045464Y-96981061D01*
G37*
D10*
X150163179Y-96425894D03*
D11*
G36*
X149691822Y-96627419D02*
X150364704Y-95954537D01*
X150634536Y-96224369D01*
X149961654Y-96897251D01*
X149691822Y-96627419D01*
X149691822Y-96627419D01*
G37*
D10*
X149809536Y-96072251D03*
D11*
G36*
X149338179Y-96273776D02*
X150011061Y-95600894D01*
X150280893Y-95870726D01*
X149608011Y-96543608D01*
X149338179Y-96273776D01*
X149338179Y-96273776D01*
G37*
D10*
X149455894Y-95718609D03*
D11*
G36*
X148984537Y-95920134D02*
X149657419Y-95247252D01*
X149927251Y-95517084D01*
X149254369Y-96189966D01*
X148984537Y-95920134D01*
X148984537Y-95920134D01*
G37*
D10*
X149102251Y-95364966D03*
D11*
G36*
X148630894Y-95566491D02*
X149303776Y-94893609D01*
X149573608Y-95163441D01*
X148900726Y-95836323D01*
X148630894Y-95566491D01*
X148630894Y-95566491D01*
G37*
D12*
X148590000Y-99060000D03*
D11*
G36*
X146347340Y-98741802D02*
X148271802Y-96817340D01*
X150832660Y-99378198D01*
X148908198Y-101302660D01*
X146347340Y-98741802D01*
X146347340Y-98741802D01*
G37*
G04 #@! TD*
D13*
G04 #@! TO.C,J1*
X139700000Y-76200000D03*
D14*
X139700000Y-78740000D03*
X139700000Y-81280000D03*
X139700000Y-83820000D03*
X139700000Y-86360000D03*
X139700000Y-88900000D03*
X139700000Y-91440000D03*
X139700000Y-93980000D03*
X139700000Y-96520000D03*
X139700000Y-99060000D03*
X139700000Y-101600000D03*
X139700000Y-104140000D03*
X139700000Y-106680000D03*
X139700000Y-109220000D03*
X139700000Y-111760000D03*
X139700000Y-114300000D03*
X139700000Y-116840000D03*
X139700000Y-119380000D03*
X139700000Y-121920000D03*
X139700000Y-124460000D03*
G04 #@! TD*
G04 #@! TO.C,J2*
X157480000Y-73660000D03*
X157480000Y-76200000D03*
X157480000Y-78740000D03*
X157480000Y-81280000D03*
X157480000Y-83820000D03*
X157480000Y-86360000D03*
X157480000Y-88900000D03*
X157480000Y-91440000D03*
X157480000Y-93980000D03*
X157480000Y-96520000D03*
X157480000Y-99060000D03*
X157480000Y-101600000D03*
X157480000Y-104140000D03*
X157480000Y-106680000D03*
X157480000Y-109220000D03*
X157480000Y-111760000D03*
X157480000Y-114300000D03*
X157480000Y-116840000D03*
X157480000Y-119380000D03*
X157480000Y-121920000D03*
D13*
X157480000Y-124460000D03*
G04 #@! TD*
M02*
