G04 #@! TF.GenerationSoftware,KiCad,Pcbnew,(5.0.0)*
G04 #@! TF.CreationDate,2019-03-07T17:14:17-05:00*
G04 #@! TF.ProjectId,DRV8308_pcb,445256383330385F7063622E6B696361,rev?*
G04 #@! TF.SameCoordinates,Original*
G04 #@! TF.FileFunction,Soldermask,Bot*
G04 #@! TF.FilePolarity,Negative*
%FSLAX46Y46*%
G04 Gerber Fmt 4.6, Leading zero omitted, Abs format (unit mm)*
G04 Created by KiCad (PCBNEW (5.0.0)) date 03/07/19 17:14:17*
%MOMM*%
%LPD*%
G01*
G04 APERTURE LIST*
%ADD10C,4.400000*%
%ADD11O,2.900000X2.900000*%
%ADD12C,2.900000*%
%ADD13R,2.900000X2.900000*%
%ADD14O,2.100000X2.100000*%
%ADD15R,2.100000X2.100000*%
%ADD16R,2.000000X2.000000*%
%ADD17C,2.000000*%
%ADD18R,2.575000X2.575000*%
%ADD19C,2.575000*%
%ADD20O,2.400000X2.305000*%
%ADD21R,2.400000X2.305000*%
%ADD22O,2.000000X2.000000*%
%ADD23C,2.800000*%
%ADD24O,2.800000X2.800000*%
%ADD25R,1.695400X1.695400*%
%ADD26C,1.695400*%
G04 APERTURE END LIST*
D10*
G04 #@! TO.C,J5*
X195260000Y-58420000D03*
X195260000Y-66820000D03*
D11*
X187960000Y-66820000D03*
D12*
X187960000Y-62620000D03*
D13*
X187960000Y-58420000D03*
G04 #@! TD*
D10*
G04 #@! TO.C,J3*
X93030000Y-58420000D03*
X93030000Y-66820000D03*
D11*
X100330000Y-66820000D03*
D12*
X100330000Y-62620000D03*
D13*
X100330000Y-58420000D03*
G04 #@! TD*
D14*
G04 #@! TO.C,J4*
X153035000Y-94615000D03*
X137795000Y-94615000D03*
X153035000Y-92075000D03*
X137795000Y-92075000D03*
X153035000Y-89535000D03*
X137795000Y-89535000D03*
X153035000Y-86995000D03*
X137795000Y-86995000D03*
X153035000Y-84455000D03*
X137795000Y-84455000D03*
X153035000Y-81915000D03*
X137795000Y-81915000D03*
X153035000Y-79375000D03*
X137795000Y-79375000D03*
X153035000Y-76835000D03*
X137795000Y-76835000D03*
X153035000Y-74295000D03*
X137795000Y-74295000D03*
X153035000Y-71755000D03*
X137795000Y-71755000D03*
X153035000Y-69215000D03*
X137795000Y-69215000D03*
X153035000Y-66675000D03*
X137795000Y-66675000D03*
X153035000Y-64135000D03*
X137795000Y-64135000D03*
X153035000Y-61595000D03*
D15*
X137795000Y-61595000D03*
G04 #@! TD*
D16*
G04 #@! TO.C,C2*
X113030000Y-59055000D03*
D17*
X113030000Y-64055000D03*
G04 #@! TD*
D18*
G04 #@! TO.C,J1*
X140335000Y-121920000D03*
D19*
X144535000Y-121920000D03*
X148735000Y-121920000D03*
X152935000Y-121920000D03*
X140335000Y-127420000D03*
X144535000Y-127420000D03*
X148735000Y-127420000D03*
X152935000Y-127420000D03*
G04 #@! TD*
D15*
G04 #@! TO.C,J2*
X102870000Y-113030000D03*
D14*
X100330000Y-113030000D03*
X102870000Y-110490000D03*
X100330000Y-110490000D03*
X102870000Y-107950000D03*
X100330000Y-107950000D03*
X102870000Y-105410000D03*
X100330000Y-105410000D03*
X102870000Y-102870000D03*
X100330000Y-102870000D03*
G04 #@! TD*
D15*
G04 #@! TO.C,J7*
X128270000Y-56515000D03*
D14*
X128270000Y-59055000D03*
X128270000Y-61595000D03*
X128270000Y-64135000D03*
X128270000Y-66675000D03*
X128270000Y-69215000D03*
X128270000Y-71755000D03*
X128270000Y-74295000D03*
X128270000Y-76835000D03*
X128270000Y-79375000D03*
X128270000Y-81915000D03*
X128270000Y-84455000D03*
X128270000Y-86995000D03*
X128270000Y-89535000D03*
X128270000Y-92075000D03*
X128270000Y-94615000D03*
X128270000Y-97155000D03*
X128270000Y-99695000D03*
G04 #@! TD*
D15*
G04 #@! TO.C,J8*
X101600000Y-86995000D03*
D14*
X101600000Y-89535000D03*
X101600000Y-92075000D03*
X101600000Y-94615000D03*
G04 #@! TD*
D20*
G04 #@! TO.C,Q1*
X175895000Y-98425000D03*
X175895000Y-95885000D03*
D21*
X175895000Y-93345000D03*
G04 #@! TD*
G04 #@! TO.C,Q2*
X184785000Y-93345000D03*
D20*
X184785000Y-95885000D03*
X184785000Y-98425000D03*
G04 #@! TD*
G04 #@! TO.C,Q3*
X175895000Y-110490000D03*
X175895000Y-107950000D03*
D21*
X175895000Y-105410000D03*
G04 #@! TD*
G04 #@! TO.C,Q4*
X184785000Y-105410000D03*
D20*
X184785000Y-107950000D03*
X184785000Y-110490000D03*
G04 #@! TD*
G04 #@! TO.C,Q5*
X175895000Y-122555000D03*
X175895000Y-120015000D03*
D21*
X175895000Y-117475000D03*
G04 #@! TD*
G04 #@! TO.C,Q6*
X184785000Y-117475000D03*
D20*
X184785000Y-120015000D03*
X184785000Y-122555000D03*
G04 #@! TD*
D22*
G04 #@! TO.C,R1*
X110490000Y-116205000D03*
D17*
X110490000Y-108585000D03*
G04 #@! TD*
G04 #@! TO.C,R2*
X114935000Y-108585000D03*
D22*
X114935000Y-116205000D03*
G04 #@! TD*
G04 #@! TO.C,R3*
X119380000Y-116205000D03*
D17*
X119380000Y-108585000D03*
G04 #@! TD*
G04 #@! TO.C,R4*
X123825000Y-108585000D03*
D22*
X123825000Y-116205000D03*
G04 #@! TD*
G04 #@! TO.C,R5*
X123825000Y-127000000D03*
D17*
X123825000Y-119380000D03*
G04 #@! TD*
D23*
G04 #@! TO.C,R6*
X175260000Y-86995000D03*
D24*
X175260000Y-56515000D03*
G04 #@! TD*
D17*
G04 #@! TO.C,R7*
X110490000Y-119350000D03*
D22*
X110490000Y-126970000D03*
G04 #@! TD*
G04 #@! TO.C,R8*
X113030000Y-97790000D03*
D17*
X120650000Y-97790000D03*
G04 #@! TD*
D25*
G04 #@! TO.C,U2*
X99060000Y-81280000D03*
D26*
X101600000Y-81280000D03*
X104140000Y-81280000D03*
X106680000Y-81280000D03*
X109220000Y-81280000D03*
X111760000Y-81280000D03*
X114300000Y-81280000D03*
X116840000Y-81280000D03*
X119380000Y-81280000D03*
X121920000Y-81280000D03*
X121920000Y-73660000D03*
X119380000Y-73660000D03*
X116840000Y-73660000D03*
X114300000Y-73660000D03*
X111760000Y-73660000D03*
X109220000Y-73660000D03*
X106680000Y-73660000D03*
X104140000Y-73660000D03*
X101600000Y-73660000D03*
X99060000Y-73660000D03*
G04 #@! TD*
D25*
G04 #@! TO.C,U3*
X123825000Y-85725000D03*
D26*
X121285000Y-85725000D03*
X118745000Y-85725000D03*
X116205000Y-85725000D03*
X113665000Y-85725000D03*
X111125000Y-85725000D03*
X108585000Y-85725000D03*
X106045000Y-85725000D03*
X106045000Y-93345000D03*
X108585000Y-93345000D03*
X111125000Y-93345000D03*
X113665000Y-93345000D03*
X116205000Y-93345000D03*
X118745000Y-93345000D03*
X121285000Y-93345000D03*
X123825000Y-93345000D03*
G04 #@! TD*
D15*
G04 #@! TO.C,J9*
X146685000Y-53975000D03*
D14*
X144145000Y-53975000D03*
X146685000Y-56515000D03*
X144145000Y-56515000D03*
G04 #@! TD*
D22*
G04 #@! TO.C,R9*
X164465000Y-72390000D03*
D17*
X164465000Y-80010000D03*
G04 #@! TD*
G04 #@! TO.C,R10*
X160020000Y-80010000D03*
D22*
X160020000Y-72390000D03*
G04 #@! TD*
D17*
G04 #@! TO.C,C1*
X122555000Y-64055000D03*
X122555000Y-59055000D03*
G04 #@! TD*
G04 #@! TO.C,C3*
X156845000Y-103505000D03*
X161845000Y-103505000D03*
G04 #@! TD*
G04 #@! TO.C,C4*
X156845000Y-110871000D03*
X161845000Y-110871000D03*
G04 #@! TD*
G04 #@! TO.C,C5*
X156845000Y-107315000D03*
X161845000Y-107315000D03*
G04 #@! TD*
G04 #@! TO.C,C6*
X156845000Y-114300000D03*
X161845000Y-114300000D03*
G04 #@! TD*
D15*
G04 #@! TO.C,J6*
X130175000Y-107315000D03*
D14*
X130175000Y-109855000D03*
X130175000Y-112395000D03*
X130175000Y-114935000D03*
X130175000Y-117475000D03*
X130175000Y-120015000D03*
X130175000Y-122555000D03*
G04 #@! TD*
M02*
