G04 #@! TF.GenerationSoftware,KiCad,Pcbnew,(5.0.0)*
G04 #@! TF.CreationDate,2019-03-08T19:40:39-05:00*
G04 #@! TF.ProjectId,DRV8308_pcb,445256383330385F7063622E6B696361,rev?*
G04 #@! TF.SameCoordinates,Original*
G04 #@! TF.FileFunction,Soldermask,Top*
G04 #@! TF.FilePolarity,Negative*
%FSLAX46Y46*%
G04 Gerber Fmt 4.6, Leading zero omitted, Abs format (unit mm)*
G04 Created by KiCad (PCBNEW (5.0.0)) date 03/08/19 19:40:39*
%MOMM*%
%LPD*%
G01*
G04 APERTURE LIST*
%ADD10C,4.400000*%
%ADD11O,2.900000X2.900000*%
%ADD12C,2.900000*%
%ADD13R,2.900000X2.900000*%
%ADD14O,2.100000X2.100000*%
%ADD15R,2.100000X2.100000*%
%ADD16R,2.000000X2.000000*%
%ADD17C,2.000000*%
%ADD18R,2.575000X2.575000*%
%ADD19C,2.575000*%
%ADD20O,2.400000X2.305000*%
%ADD21R,2.400000X2.305000*%
%ADD22O,2.000000X2.000000*%
%ADD23C,2.800000*%
%ADD24O,2.800000X2.800000*%
%ADD25C,2.760000*%
%ADD26C,0.100000*%
%ADD27C,0.420000*%
%ADD28R,1.695400X1.695400*%
%ADD29C,1.695400*%
G04 APERTURE END LIST*
D10*
G04 #@! TO.C,J5*
X195260000Y-58420000D03*
X195260000Y-66820000D03*
D11*
X187960000Y-66820000D03*
D12*
X187960000Y-62620000D03*
D13*
X187960000Y-58420000D03*
G04 #@! TD*
D10*
G04 #@! TO.C,J3*
X93030000Y-58420000D03*
X93030000Y-66820000D03*
D11*
X100330000Y-66820000D03*
D12*
X100330000Y-62620000D03*
D13*
X100330000Y-58420000D03*
G04 #@! TD*
D14*
G04 #@! TO.C,J4*
X153035000Y-94615000D03*
X137795000Y-94615000D03*
X153035000Y-92075000D03*
X137795000Y-92075000D03*
X153035000Y-89535000D03*
X137795000Y-89535000D03*
X153035000Y-86995000D03*
X137795000Y-86995000D03*
X153035000Y-84455000D03*
X137795000Y-84455000D03*
X153035000Y-81915000D03*
X137795000Y-81915000D03*
X153035000Y-79375000D03*
X137795000Y-79375000D03*
X153035000Y-76835000D03*
X137795000Y-76835000D03*
X153035000Y-74295000D03*
X137795000Y-74295000D03*
X153035000Y-71755000D03*
X137795000Y-71755000D03*
X153035000Y-69215000D03*
X137795000Y-69215000D03*
X153035000Y-66675000D03*
X137795000Y-66675000D03*
X153035000Y-64135000D03*
X137795000Y-64135000D03*
X153035000Y-61595000D03*
D15*
X137795000Y-61595000D03*
G04 #@! TD*
D16*
G04 #@! TO.C,C2*
X113030000Y-59055000D03*
D17*
X113030000Y-64055000D03*
G04 #@! TD*
D18*
G04 #@! TO.C,J1*
X140335000Y-121920000D03*
D19*
X144535000Y-121920000D03*
X148735000Y-121920000D03*
X152935000Y-121920000D03*
X140335000Y-127420000D03*
X144535000Y-127420000D03*
X148735000Y-127420000D03*
X152935000Y-127420000D03*
G04 #@! TD*
D15*
G04 #@! TO.C,J2*
X102870000Y-113030000D03*
D14*
X100330000Y-113030000D03*
X102870000Y-110490000D03*
X100330000Y-110490000D03*
X102870000Y-107950000D03*
X100330000Y-107950000D03*
X102870000Y-105410000D03*
X100330000Y-105410000D03*
X102870000Y-102870000D03*
X100330000Y-102870000D03*
G04 #@! TD*
D15*
G04 #@! TO.C,J7*
X128270000Y-56515000D03*
D14*
X128270000Y-59055000D03*
X128270000Y-61595000D03*
X128270000Y-64135000D03*
X128270000Y-66675000D03*
X128270000Y-69215000D03*
X128270000Y-71755000D03*
X128270000Y-74295000D03*
X128270000Y-76835000D03*
X128270000Y-79375000D03*
X128270000Y-81915000D03*
X128270000Y-84455000D03*
X128270000Y-86995000D03*
X128270000Y-89535000D03*
X128270000Y-92075000D03*
X128270000Y-94615000D03*
X128270000Y-97155000D03*
X128270000Y-99695000D03*
G04 #@! TD*
D15*
G04 #@! TO.C,J8*
X101600000Y-86995000D03*
D14*
X101600000Y-89535000D03*
X101600000Y-92075000D03*
X101600000Y-94615000D03*
G04 #@! TD*
D20*
G04 #@! TO.C,Q1*
X175895000Y-98425000D03*
X175895000Y-95885000D03*
D21*
X175895000Y-93345000D03*
G04 #@! TD*
G04 #@! TO.C,Q2*
X184785000Y-93345000D03*
D20*
X184785000Y-95885000D03*
X184785000Y-98425000D03*
G04 #@! TD*
G04 #@! TO.C,Q3*
X175895000Y-110490000D03*
X175895000Y-107950000D03*
D21*
X175895000Y-105410000D03*
G04 #@! TD*
G04 #@! TO.C,Q4*
X184785000Y-105410000D03*
D20*
X184785000Y-107950000D03*
X184785000Y-110490000D03*
G04 #@! TD*
G04 #@! TO.C,Q5*
X175895000Y-122555000D03*
X175895000Y-120015000D03*
D21*
X175895000Y-117475000D03*
G04 #@! TD*
G04 #@! TO.C,Q6*
X184785000Y-117475000D03*
D20*
X184785000Y-120015000D03*
X184785000Y-122555000D03*
G04 #@! TD*
D22*
G04 #@! TO.C,R1*
X110490000Y-116205000D03*
D17*
X110490000Y-108585000D03*
G04 #@! TD*
G04 #@! TO.C,R2*
X114935000Y-108585000D03*
D22*
X114935000Y-116205000D03*
G04 #@! TD*
G04 #@! TO.C,R3*
X119380000Y-116205000D03*
D17*
X119380000Y-108585000D03*
G04 #@! TD*
G04 #@! TO.C,R4*
X123825000Y-108585000D03*
D22*
X123825000Y-116205000D03*
G04 #@! TD*
G04 #@! TO.C,R5*
X123825000Y-127000000D03*
D17*
X123825000Y-119380000D03*
G04 #@! TD*
D23*
G04 #@! TO.C,R6*
X175260000Y-86995000D03*
D24*
X175260000Y-56515000D03*
G04 #@! TD*
D17*
G04 #@! TO.C,R7*
X110490000Y-119350000D03*
D22*
X110490000Y-126970000D03*
G04 #@! TD*
G04 #@! TO.C,R8*
X113030000Y-97790000D03*
D17*
X120650000Y-97790000D03*
G04 #@! TD*
D25*
G04 #@! TO.C,U1*
X145415000Y-108585000D03*
D26*
G36*
X143145187Y-108266802D02*
X145096802Y-106315187D01*
X147684813Y-108903198D01*
X145733198Y-110854813D01*
X143145187Y-108266802D01*
X143145187Y-108266802D01*
G37*
D27*
X145726127Y-105091893D03*
X145977150Y-104840870D03*
D26*
G36*
X145528137Y-104992898D02*
X146129178Y-104391857D01*
X146426163Y-104688842D01*
X145825122Y-105289883D01*
X145528137Y-104992898D01*
X145528137Y-104992898D01*
G37*
D27*
X146079680Y-105445446D03*
X146330703Y-105194423D03*
D26*
G36*
X145881690Y-105346451D02*
X146482731Y-104745410D01*
X146779716Y-105042395D01*
X146178675Y-105643436D01*
X145881690Y-105346451D01*
X145881690Y-105346451D01*
G37*
D27*
X146433234Y-105798999D03*
X146684257Y-105547976D03*
D26*
G36*
X146235244Y-105700004D02*
X146836285Y-105098963D01*
X147133270Y-105395948D01*
X146532229Y-105996989D01*
X146235244Y-105700004D01*
X146235244Y-105700004D01*
G37*
D27*
X146786787Y-106152553D03*
X147037810Y-105901530D03*
D26*
G36*
X146588797Y-106053558D02*
X147189838Y-105452517D01*
X147486823Y-105749502D01*
X146885782Y-106350543D01*
X146588797Y-106053558D01*
X146588797Y-106053558D01*
G37*
D27*
X147140341Y-106506106D03*
X147391363Y-106255083D03*
D26*
G36*
X146942350Y-106407111D02*
X147543391Y-105806070D01*
X147840376Y-106103055D01*
X147239335Y-106704096D01*
X146942350Y-106407111D01*
X146942350Y-106407111D01*
G37*
D27*
X147493894Y-106859659D03*
X147744917Y-106608637D03*
D26*
G36*
X147295904Y-106760665D02*
X147896945Y-106159624D01*
X148193930Y-106456609D01*
X147592889Y-107057650D01*
X147295904Y-106760665D01*
X147295904Y-106760665D01*
G37*
D27*
X147847447Y-107213213D03*
X148098470Y-106962190D03*
D26*
G36*
X147649457Y-107114218D02*
X148250498Y-106513177D01*
X148547483Y-106810162D01*
X147946442Y-107411203D01*
X147649457Y-107114218D01*
X147649457Y-107114218D01*
G37*
D27*
X148201001Y-107566766D03*
X148452024Y-107315743D03*
D26*
G36*
X148003011Y-107467771D02*
X148604052Y-106866730D01*
X148901037Y-107163715D01*
X148299996Y-107764756D01*
X148003011Y-107467771D01*
X148003011Y-107467771D01*
G37*
D27*
X148554554Y-107920320D03*
X148805577Y-107669297D03*
D26*
G36*
X148356564Y-107821325D02*
X148957605Y-107220284D01*
X149254590Y-107517269D01*
X148653549Y-108118310D01*
X148356564Y-107821325D01*
X148356564Y-107821325D01*
G37*
D27*
X148908107Y-108273873D03*
X149159130Y-108022850D03*
D26*
G36*
X148710117Y-108174878D02*
X149311158Y-107573837D01*
X149608143Y-107870822D01*
X149007102Y-108471863D01*
X148710117Y-108174878D01*
X148710117Y-108174878D01*
G37*
D27*
X148908107Y-108896127D03*
X149159130Y-109147150D03*
D26*
G36*
X148710117Y-108995122D02*
X149007102Y-108698137D01*
X149608143Y-109299178D01*
X149311158Y-109596163D01*
X148710117Y-108995122D01*
X148710117Y-108995122D01*
G37*
D27*
X148554554Y-109249680D03*
X148805577Y-109500703D03*
D26*
G36*
X148356564Y-109348675D02*
X148653549Y-109051690D01*
X149254590Y-109652731D01*
X148957605Y-109949716D01*
X148356564Y-109348675D01*
X148356564Y-109348675D01*
G37*
D27*
X148201001Y-109603234D03*
X148452024Y-109854257D03*
D26*
G36*
X148003011Y-109702229D02*
X148299996Y-109405244D01*
X148901037Y-110006285D01*
X148604052Y-110303270D01*
X148003011Y-109702229D01*
X148003011Y-109702229D01*
G37*
D27*
X147847447Y-109956787D03*
X148098470Y-110207810D03*
D26*
G36*
X147649457Y-110055782D02*
X147946442Y-109758797D01*
X148547483Y-110359838D01*
X148250498Y-110656823D01*
X147649457Y-110055782D01*
X147649457Y-110055782D01*
G37*
D27*
X147493894Y-110310341D03*
X147744917Y-110561363D03*
D26*
G36*
X147295904Y-110409335D02*
X147592889Y-110112350D01*
X148193930Y-110713391D01*
X147896945Y-111010376D01*
X147295904Y-110409335D01*
X147295904Y-110409335D01*
G37*
D27*
X147140341Y-110663894D03*
X147391363Y-110914917D03*
D26*
G36*
X146942350Y-110762889D02*
X147239335Y-110465904D01*
X147840376Y-111066945D01*
X147543391Y-111363930D01*
X146942350Y-110762889D01*
X146942350Y-110762889D01*
G37*
D27*
X146786787Y-111017447D03*
X147037810Y-111268470D03*
D26*
G36*
X146588797Y-111116442D02*
X146885782Y-110819457D01*
X147486823Y-111420498D01*
X147189838Y-111717483D01*
X146588797Y-111116442D01*
X146588797Y-111116442D01*
G37*
D27*
X146433234Y-111371001D03*
X146684257Y-111622024D03*
D26*
G36*
X146235244Y-111469996D02*
X146532229Y-111173011D01*
X147133270Y-111774052D01*
X146836285Y-112071037D01*
X146235244Y-111469996D01*
X146235244Y-111469996D01*
G37*
D27*
X146079680Y-111724554D03*
X146330703Y-111975577D03*
D26*
G36*
X145881690Y-111823549D02*
X146178675Y-111526564D01*
X146779716Y-112127605D01*
X146482731Y-112424590D01*
X145881690Y-111823549D01*
X145881690Y-111823549D01*
G37*
D27*
X145726127Y-112078107D03*
X145977150Y-112329130D03*
D26*
G36*
X145528137Y-112177102D02*
X145825122Y-111880117D01*
X146426163Y-112481158D01*
X146129178Y-112778143D01*
X145528137Y-112177102D01*
X145528137Y-112177102D01*
G37*
D27*
X145103873Y-112078107D03*
X144852850Y-112329130D03*
D26*
G36*
X144403837Y-112481158D02*
X145004878Y-111880117D01*
X145301863Y-112177102D01*
X144700822Y-112778143D01*
X144403837Y-112481158D01*
X144403837Y-112481158D01*
G37*
D27*
X144750320Y-111724554D03*
X144499297Y-111975577D03*
D26*
G36*
X144050284Y-112127605D02*
X144651325Y-111526564D01*
X144948310Y-111823549D01*
X144347269Y-112424590D01*
X144050284Y-112127605D01*
X144050284Y-112127605D01*
G37*
D27*
X144396766Y-111371001D03*
X144145743Y-111622024D03*
D26*
G36*
X143696730Y-111774052D02*
X144297771Y-111173011D01*
X144594756Y-111469996D01*
X143993715Y-112071037D01*
X143696730Y-111774052D01*
X143696730Y-111774052D01*
G37*
D27*
X144043213Y-111017447D03*
X143792190Y-111268470D03*
D26*
G36*
X143343177Y-111420498D02*
X143944218Y-110819457D01*
X144241203Y-111116442D01*
X143640162Y-111717483D01*
X143343177Y-111420498D01*
X143343177Y-111420498D01*
G37*
D27*
X143689659Y-110663894D03*
X143438637Y-110914917D03*
D26*
G36*
X142989624Y-111066945D02*
X143590665Y-110465904D01*
X143887650Y-110762889D01*
X143286609Y-111363930D01*
X142989624Y-111066945D01*
X142989624Y-111066945D01*
G37*
D27*
X143336106Y-110310341D03*
X143085083Y-110561363D03*
D26*
G36*
X142636070Y-110713391D02*
X143237111Y-110112350D01*
X143534096Y-110409335D01*
X142933055Y-111010376D01*
X142636070Y-110713391D01*
X142636070Y-110713391D01*
G37*
D27*
X142982553Y-109956787D03*
X142731530Y-110207810D03*
D26*
G36*
X142282517Y-110359838D02*
X142883558Y-109758797D01*
X143180543Y-110055782D01*
X142579502Y-110656823D01*
X142282517Y-110359838D01*
X142282517Y-110359838D01*
G37*
D27*
X142628999Y-109603234D03*
X142377976Y-109854257D03*
D26*
G36*
X141928963Y-110006285D02*
X142530004Y-109405244D01*
X142826989Y-109702229D01*
X142225948Y-110303270D01*
X141928963Y-110006285D01*
X141928963Y-110006285D01*
G37*
D27*
X142275446Y-109249680D03*
X142024423Y-109500703D03*
D26*
G36*
X141575410Y-109652731D02*
X142176451Y-109051690D01*
X142473436Y-109348675D01*
X141872395Y-109949716D01*
X141575410Y-109652731D01*
X141575410Y-109652731D01*
G37*
D27*
X141921893Y-108896127D03*
X141670870Y-109147150D03*
D26*
G36*
X141221857Y-109299178D02*
X141822898Y-108698137D01*
X142119883Y-108995122D01*
X141518842Y-109596163D01*
X141221857Y-109299178D01*
X141221857Y-109299178D01*
G37*
D27*
X141921893Y-108273873D03*
X141670870Y-108022850D03*
D26*
G36*
X141221857Y-107870822D02*
X141518842Y-107573837D01*
X142119883Y-108174878D01*
X141822898Y-108471863D01*
X141221857Y-107870822D01*
X141221857Y-107870822D01*
G37*
D27*
X142275446Y-107920320D03*
X142024423Y-107669297D03*
D26*
G36*
X141575410Y-107517269D02*
X141872395Y-107220284D01*
X142473436Y-107821325D01*
X142176451Y-108118310D01*
X141575410Y-107517269D01*
X141575410Y-107517269D01*
G37*
D27*
X142628999Y-107566766D03*
X142377976Y-107315743D03*
D26*
G36*
X141928963Y-107163715D02*
X142225948Y-106866730D01*
X142826989Y-107467771D01*
X142530004Y-107764756D01*
X141928963Y-107163715D01*
X141928963Y-107163715D01*
G37*
D27*
X142982553Y-107213213D03*
X142731530Y-106962190D03*
D26*
G36*
X142282517Y-106810162D02*
X142579502Y-106513177D01*
X143180543Y-107114218D01*
X142883558Y-107411203D01*
X142282517Y-106810162D01*
X142282517Y-106810162D01*
G37*
D27*
X143336106Y-106859659D03*
X143085083Y-106608637D03*
D26*
G36*
X142636070Y-106456609D02*
X142933055Y-106159624D01*
X143534096Y-106760665D01*
X143237111Y-107057650D01*
X142636070Y-106456609D01*
X142636070Y-106456609D01*
G37*
D27*
X143689659Y-106506106D03*
X143438637Y-106255083D03*
D26*
G36*
X142989624Y-106103055D02*
X143286609Y-105806070D01*
X143887650Y-106407111D01*
X143590665Y-106704096D01*
X142989624Y-106103055D01*
X142989624Y-106103055D01*
G37*
D27*
X144043213Y-106152553D03*
X143792190Y-105901530D03*
D26*
G36*
X143343177Y-105749502D02*
X143640162Y-105452517D01*
X144241203Y-106053558D01*
X143944218Y-106350543D01*
X143343177Y-105749502D01*
X143343177Y-105749502D01*
G37*
D27*
X144396766Y-105798999D03*
X144145743Y-105547976D03*
D26*
G36*
X143696730Y-105395948D02*
X143993715Y-105098963D01*
X144594756Y-105700004D01*
X144297771Y-105996989D01*
X143696730Y-105395948D01*
X143696730Y-105395948D01*
G37*
D27*
X144750320Y-105445446D03*
X144499297Y-105194423D03*
D26*
G36*
X144050284Y-105042395D02*
X144347269Y-104745410D01*
X144948310Y-105346451D01*
X144651325Y-105643436D01*
X144050284Y-105042395D01*
X144050284Y-105042395D01*
G37*
D27*
X145103873Y-105091893D03*
X144852850Y-104840870D03*
D26*
G36*
X144403837Y-104688842D02*
X144700822Y-104391857D01*
X145301863Y-104992898D01*
X145004878Y-105289883D01*
X144403837Y-104688842D01*
X144403837Y-104688842D01*
G37*
G04 #@! TD*
D28*
G04 #@! TO.C,U2*
X99060000Y-81280000D03*
D29*
X101600000Y-81280000D03*
X104140000Y-81280000D03*
X106680000Y-81280000D03*
X109220000Y-81280000D03*
X111760000Y-81280000D03*
X114300000Y-81280000D03*
X116840000Y-81280000D03*
X119380000Y-81280000D03*
X121920000Y-81280000D03*
X121920000Y-73660000D03*
X119380000Y-73660000D03*
X116840000Y-73660000D03*
X114300000Y-73660000D03*
X111760000Y-73660000D03*
X109220000Y-73660000D03*
X106680000Y-73660000D03*
X104140000Y-73660000D03*
X101600000Y-73660000D03*
X99060000Y-73660000D03*
G04 #@! TD*
D28*
G04 #@! TO.C,U3*
X123825000Y-85725000D03*
D29*
X121285000Y-85725000D03*
X118745000Y-85725000D03*
X116205000Y-85725000D03*
X113665000Y-85725000D03*
X111125000Y-85725000D03*
X108585000Y-85725000D03*
X106045000Y-85725000D03*
X106045000Y-93345000D03*
X108585000Y-93345000D03*
X111125000Y-93345000D03*
X113665000Y-93345000D03*
X116205000Y-93345000D03*
X118745000Y-93345000D03*
X121285000Y-93345000D03*
X123825000Y-93345000D03*
G04 #@! TD*
D15*
G04 #@! TO.C,J9*
X146685000Y-53975000D03*
D14*
X144145000Y-53975000D03*
X146685000Y-56515000D03*
X144145000Y-56515000D03*
G04 #@! TD*
D22*
G04 #@! TO.C,R9*
X164465000Y-72390000D03*
D17*
X164465000Y-80010000D03*
G04 #@! TD*
G04 #@! TO.C,R10*
X160020000Y-80010000D03*
D22*
X160020000Y-72390000D03*
G04 #@! TD*
D17*
G04 #@! TO.C,C1*
X122555000Y-64055000D03*
X122555000Y-59055000D03*
G04 #@! TD*
G04 #@! TO.C,C3*
X156845000Y-103505000D03*
X161845000Y-103505000D03*
G04 #@! TD*
G04 #@! TO.C,C4*
X156845000Y-110871000D03*
X161845000Y-110871000D03*
G04 #@! TD*
G04 #@! TO.C,C5*
X156845000Y-107315000D03*
X161845000Y-107315000D03*
G04 #@! TD*
G04 #@! TO.C,C6*
X156845000Y-114300000D03*
X161845000Y-114300000D03*
G04 #@! TD*
D15*
G04 #@! TO.C,J6*
X130175000Y-107315000D03*
D14*
X130175000Y-109855000D03*
X130175000Y-112395000D03*
X130175000Y-114935000D03*
X130175000Y-117475000D03*
X130175000Y-120015000D03*
X130175000Y-122555000D03*
G04 #@! TD*
M02*
