M48
INCH,TZ
T1C0.0157
T2C0.0310
T3C0.0315
T4C0.0394
T5C0.0433
T6C0.0472
T7C0.0571
T8C0.0709
%
G90
G05
T1
X38400Y-42200
X52343Y-45453
X53720Y-46969
X55630Y-41161
X55631Y-41568
X56300Y-36550
X56358Y-41161
X56673Y-40925
X58307Y-40689
X58406Y-41476
X59469Y-41201
X59803Y-39291
X59941Y-39705
X60200Y-38750
X60354Y-42283
X60650Y-39035
X61693Y-38740
X62028Y-39006
X62050Y-23250
X62050Y-24600
X62348Y-39703
X62382Y-39311
T2
X41750Y-33750
X41750Y-36750
X42750Y-33750
X42750Y-36750
X43750Y-33750
X43750Y-36750
X44750Y-33750
X44750Y-36750
X45750Y-33750
X45750Y-36750
X46750Y-33750
X46750Y-36750
X47750Y-33750
X47750Y-36750
X48750Y-33750
X48750Y-36750
X39000Y-29000
X39000Y-32000
X40000Y-29000
X40000Y-32000
X41000Y-29000
X41000Y-32000
X42000Y-29000
X42000Y-32000
X43000Y-29000
X43000Y-32000
X44000Y-29000
X44000Y-32000
X45000Y-29000
X45000Y-32000
X46000Y-29000
X46000Y-32000
X47000Y-29000
X47000Y-32000
X48000Y-29000
X48000Y-32000
T3
X65551Y-50118
X75020Y-35906
X47000Y-42750
X47000Y-45750
X61750Y-40750
X63719Y-40750
X44500Y-38500
X47500Y-38500
X48250Y-23250
X48250Y-25219
X61750Y-43650
X63719Y-43650
X43500Y-42750
X43500Y-45750
X63000Y-28500
X63000Y-31500
X45250Y-42750
X45250Y-45750
X61750Y-45000
X63719Y-45000
X64750Y-28500
X64750Y-31500
X43500Y-46988
X43500Y-49988
X61750Y-42250
X63719Y-42250
X48750Y-42750
X48750Y-45750
X48750Y-47000
X48750Y-50000
X44500Y-23250
X44500Y-25219
T4
X50500Y-22250
X50500Y-23250
X50500Y-24250
X50500Y-25250
X50500Y-26250
X50500Y-27250
X50500Y-28250
X50500Y-29250
X50500Y-30250
X50500Y-31250
X50500Y-32250
X50500Y-33250
X50500Y-34250
X50500Y-35250
X50500Y-36250
X50500Y-37250
X50500Y-38250
X50500Y-39250
X39500Y-40500
X39500Y-41500
X39500Y-42500
X39500Y-43500
X39500Y-44500
X40500Y-40500
X40500Y-41500
X40500Y-42500
X40500Y-43500
X40500Y-44500
X54250Y-24250
X54250Y-25250
X54250Y-26250
X54250Y-27250
X54250Y-28250
X54250Y-29250
X54250Y-30250
X54250Y-31250
X54250Y-32250
X54250Y-33250
X54250Y-34250
X54250Y-35250
X54250Y-36250
X54250Y-37250
X60250Y-24250
X60250Y-25250
X60250Y-26250
X60250Y-27250
X60250Y-28250
X60250Y-29250
X60250Y-30250
X60250Y-31250
X60250Y-32250
X60250Y-33250
X60250Y-34250
X60250Y-35250
X60250Y-36250
X60250Y-37250
X51250Y-42250
X51250Y-43250
X51250Y-44250
X51250Y-45250
X51250Y-46250
X51250Y-47250
X51250Y-48250
X56750Y-21250
X56750Y-22250
X57750Y-21250
X57750Y-22250
X40000Y-34250
X40000Y-35250
X40000Y-36250
X40000Y-37250
T5
X69250Y-46250
X69250Y-47250
X69250Y-48250
X69250Y-41500
X69250Y-42500
X69250Y-43500
X72750Y-46250
X72750Y-47250
X72750Y-48250
X72750Y-36750
X72750Y-37750
X72750Y-38750
X72750Y-41500
X72750Y-42500
X72750Y-43500
X69250Y-36750
X69250Y-37750
X69250Y-38750
T6
X69000Y-22250
X69000Y-34250
T7
X55250Y-48000
X55250Y-50165
X56904Y-48000
X56904Y-50165
X58557Y-48000
X58557Y-50165
X60211Y-48000
X60211Y-50165
T8
X74000Y-23000
X74000Y-24654
X74000Y-26307
X39500Y-23000
X39500Y-24654
X39500Y-26307
T0
M30
