G04 #@! TF.GenerationSoftware,KiCad,Pcbnew,(5.0.0)*
G04 #@! TF.CreationDate,2018-10-12T16:46:49-04:00*
G04 #@! TF.ProjectId,DRV8308_BreakoutBoard,445256383330385F427265616B6F7574,rev?*
G04 #@! TF.SameCoordinates,Original*
G04 #@! TF.FileFunction,Legend,Top*
G04 #@! TF.FilePolarity,Positive*
%FSLAX46Y46*%
G04 Gerber Fmt 4.6, Leading zero omitted, Abs format (unit mm)*
G04 Created by KiCad (PCBNEW (5.0.0)) date 10/12/18 16:46:49*
%MOMM*%
%LPD*%
G01*
G04 APERTURE LIST*
%ADD10C,0.200000*%
%ADD11C,0.150000*%
%ADD12C,0.125000*%
%ADD13C,0.152400*%
%ADD14C,0.120000*%
G04 APERTURE END LIST*
D10*
X148640952Y-73221904D02*
X148907619Y-74021904D01*
X149174285Y-73221904D01*
X149860000Y-74021904D02*
X149402857Y-74021904D01*
X149631428Y-74021904D02*
X149631428Y-73221904D01*
X149555238Y-73336190D01*
X149479047Y-73412380D01*
X149402857Y-73450476D01*
X150202857Y-73945714D02*
X150240952Y-73983809D01*
X150202857Y-74021904D01*
X150164761Y-73983809D01*
X150202857Y-73945714D01*
X150202857Y-74021904D01*
X151002857Y-74021904D02*
X150545714Y-74021904D01*
X150774285Y-74021904D02*
X150774285Y-73221904D01*
X150698095Y-73336190D01*
X150621904Y-73412380D01*
X150545714Y-73450476D01*
X138348380Y-72751904D02*
X138348380Y-71951904D01*
X138538857Y-71951904D01*
X138653142Y-71990000D01*
X138729333Y-72066190D01*
X138767428Y-72142380D01*
X138805523Y-72294761D01*
X138805523Y-72409047D01*
X138767428Y-72561428D01*
X138729333Y-72637619D01*
X138653142Y-72713809D01*
X138538857Y-72751904D01*
X138348380Y-72751904D01*
X139605523Y-72751904D02*
X139338857Y-72370952D01*
X139148380Y-72751904D02*
X139148380Y-71951904D01*
X139453142Y-71951904D01*
X139529333Y-71990000D01*
X139567428Y-72028095D01*
X139605523Y-72104285D01*
X139605523Y-72218571D01*
X139567428Y-72294761D01*
X139529333Y-72332857D01*
X139453142Y-72370952D01*
X139148380Y-72370952D01*
X139834095Y-71951904D02*
X140100761Y-72751904D01*
X140367428Y-71951904D01*
X140748380Y-72294761D02*
X140672190Y-72256666D01*
X140634095Y-72218571D01*
X140595999Y-72142380D01*
X140595999Y-72104285D01*
X140634095Y-72028095D01*
X140672190Y-71990000D01*
X140748380Y-71951904D01*
X140900761Y-71951904D01*
X140976952Y-71990000D01*
X141015047Y-72028095D01*
X141053142Y-72104285D01*
X141053142Y-72142380D01*
X141015047Y-72218571D01*
X140976952Y-72256666D01*
X140900761Y-72294761D01*
X140748380Y-72294761D01*
X140672190Y-72332857D01*
X140634095Y-72370952D01*
X140595999Y-72447142D01*
X140595999Y-72599523D01*
X140634095Y-72675714D01*
X140672190Y-72713809D01*
X140748380Y-72751904D01*
X140900761Y-72751904D01*
X140976952Y-72713809D01*
X141015047Y-72675714D01*
X141053142Y-72599523D01*
X141053142Y-72447142D01*
X141015047Y-72370952D01*
X140976952Y-72332857D01*
X140900761Y-72294761D01*
X141319809Y-71951904D02*
X141815047Y-71951904D01*
X141548380Y-72256666D01*
X141662666Y-72256666D01*
X141738857Y-72294761D01*
X141776952Y-72332857D01*
X141815047Y-72409047D01*
X141815047Y-72599523D01*
X141776952Y-72675714D01*
X141738857Y-72713809D01*
X141662666Y-72751904D01*
X141434095Y-72751904D01*
X141357904Y-72713809D01*
X141319809Y-72675714D01*
X142310285Y-71951904D02*
X142386476Y-71951904D01*
X142462666Y-71990000D01*
X142500761Y-72028095D01*
X142538857Y-72104285D01*
X142576952Y-72256666D01*
X142576952Y-72447142D01*
X142538857Y-72599523D01*
X142500761Y-72675714D01*
X142462666Y-72713809D01*
X142386476Y-72751904D01*
X142310285Y-72751904D01*
X142234095Y-72713809D01*
X142195999Y-72675714D01*
X142157904Y-72599523D01*
X142119809Y-72447142D01*
X142119809Y-72256666D01*
X142157904Y-72104285D01*
X142195999Y-72028095D01*
X142234095Y-71990000D01*
X142310285Y-71951904D01*
X143034095Y-72294761D02*
X142957904Y-72256666D01*
X142919809Y-72218571D01*
X142881714Y-72142380D01*
X142881714Y-72104285D01*
X142919809Y-72028095D01*
X142957904Y-71990000D01*
X143034095Y-71951904D01*
X143186476Y-71951904D01*
X143262666Y-71990000D01*
X143300761Y-72028095D01*
X143338857Y-72104285D01*
X143338857Y-72142380D01*
X143300761Y-72218571D01*
X143262666Y-72256666D01*
X143186476Y-72294761D01*
X143034095Y-72294761D01*
X142957904Y-72332857D01*
X142919809Y-72370952D01*
X142881714Y-72447142D01*
X142881714Y-72599523D01*
X142919809Y-72675714D01*
X142957904Y-72713809D01*
X143034095Y-72751904D01*
X143186476Y-72751904D01*
X143262666Y-72713809D01*
X143300761Y-72675714D01*
X143338857Y-72599523D01*
X143338857Y-72447142D01*
X143300761Y-72370952D01*
X143262666Y-72332857D01*
X143186476Y-72294761D01*
X144557904Y-72332857D02*
X144672190Y-72370952D01*
X144710285Y-72409047D01*
X144748380Y-72485238D01*
X144748380Y-72599523D01*
X144710285Y-72675714D01*
X144672190Y-72713809D01*
X144596000Y-72751904D01*
X144291238Y-72751904D01*
X144291238Y-71951904D01*
X144557904Y-71951904D01*
X144634095Y-71990000D01*
X144672190Y-72028095D01*
X144710285Y-72104285D01*
X144710285Y-72180476D01*
X144672190Y-72256666D01*
X144634095Y-72294761D01*
X144557904Y-72332857D01*
X144291238Y-72332857D01*
X145091238Y-72751904D02*
X145091238Y-72218571D01*
X145091238Y-72370952D02*
X145129333Y-72294761D01*
X145167428Y-72256666D01*
X145243619Y-72218571D01*
X145319809Y-72218571D01*
X145891238Y-72713809D02*
X145815047Y-72751904D01*
X145662666Y-72751904D01*
X145586476Y-72713809D01*
X145548380Y-72637619D01*
X145548380Y-72332857D01*
X145586476Y-72256666D01*
X145662666Y-72218571D01*
X145815047Y-72218571D01*
X145891238Y-72256666D01*
X145929333Y-72332857D01*
X145929333Y-72409047D01*
X145548380Y-72485238D01*
X146615047Y-72751904D02*
X146615047Y-72332857D01*
X146576952Y-72256666D01*
X146500761Y-72218571D01*
X146348380Y-72218571D01*
X146272190Y-72256666D01*
X146615047Y-72713809D02*
X146538857Y-72751904D01*
X146348380Y-72751904D01*
X146272190Y-72713809D01*
X146234095Y-72637619D01*
X146234095Y-72561428D01*
X146272190Y-72485238D01*
X146348380Y-72447142D01*
X146538857Y-72447142D01*
X146615047Y-72409047D01*
X146996000Y-72751904D02*
X146996000Y-71951904D01*
X147072190Y-72447142D02*
X147300761Y-72751904D01*
X147300761Y-72218571D02*
X146996000Y-72523333D01*
X147757904Y-72751904D02*
X147681714Y-72713809D01*
X147643619Y-72675714D01*
X147605523Y-72599523D01*
X147605523Y-72370952D01*
X147643619Y-72294761D01*
X147681714Y-72256666D01*
X147757904Y-72218571D01*
X147872190Y-72218571D01*
X147948380Y-72256666D01*
X147986476Y-72294761D01*
X148024571Y-72370952D01*
X148024571Y-72599523D01*
X147986476Y-72675714D01*
X147948380Y-72713809D01*
X147872190Y-72751904D01*
X147757904Y-72751904D01*
X148710285Y-72218571D02*
X148710285Y-72751904D01*
X148367428Y-72218571D02*
X148367428Y-72637619D01*
X148405523Y-72713809D01*
X148481714Y-72751904D01*
X148596000Y-72751904D01*
X148672190Y-72713809D01*
X148710285Y-72675714D01*
X148976952Y-72218571D02*
X149281714Y-72218571D01*
X149091238Y-71951904D02*
X149091238Y-72637619D01*
X149129333Y-72713809D01*
X149205523Y-72751904D01*
X149281714Y-72751904D01*
X150424571Y-72332857D02*
X150538857Y-72370952D01*
X150576952Y-72409047D01*
X150615047Y-72485238D01*
X150615047Y-72599523D01*
X150576952Y-72675714D01*
X150538857Y-72713809D01*
X150462666Y-72751904D01*
X150157904Y-72751904D01*
X150157904Y-71951904D01*
X150424571Y-71951904D01*
X150500761Y-71990000D01*
X150538857Y-72028095D01*
X150576952Y-72104285D01*
X150576952Y-72180476D01*
X150538857Y-72256666D01*
X150500761Y-72294761D01*
X150424571Y-72332857D01*
X150157904Y-72332857D01*
X151072190Y-72751904D02*
X150996000Y-72713809D01*
X150957904Y-72675714D01*
X150919809Y-72599523D01*
X150919809Y-72370952D01*
X150957904Y-72294761D01*
X150996000Y-72256666D01*
X151072190Y-72218571D01*
X151186476Y-72218571D01*
X151262666Y-72256666D01*
X151300761Y-72294761D01*
X151338857Y-72370952D01*
X151338857Y-72599523D01*
X151300761Y-72675714D01*
X151262666Y-72713809D01*
X151186476Y-72751904D01*
X151072190Y-72751904D01*
X152024571Y-72751904D02*
X152024571Y-72332857D01*
X151986476Y-72256666D01*
X151910285Y-72218571D01*
X151757904Y-72218571D01*
X151681714Y-72256666D01*
X152024571Y-72713809D02*
X151948380Y-72751904D01*
X151757904Y-72751904D01*
X151681714Y-72713809D01*
X151643619Y-72637619D01*
X151643619Y-72561428D01*
X151681714Y-72485238D01*
X151757904Y-72447142D01*
X151948380Y-72447142D01*
X152024571Y-72409047D01*
X152405523Y-72751904D02*
X152405523Y-72218571D01*
X152405523Y-72370952D02*
X152443619Y-72294761D01*
X152481714Y-72256666D01*
X152557904Y-72218571D01*
X152634095Y-72218571D01*
X153243619Y-72751904D02*
X153243619Y-71951904D01*
X153243619Y-72713809D02*
X153167428Y-72751904D01*
X153015047Y-72751904D01*
X152938857Y-72713809D01*
X152900761Y-72675714D01*
X152862666Y-72599523D01*
X152862666Y-72370952D01*
X152900761Y-72294761D01*
X152938857Y-72256666D01*
X153015047Y-72218571D01*
X153167428Y-72218571D01*
X153243619Y-72256666D01*
X153060476Y-73260000D02*
X152984285Y-73221904D01*
X152870000Y-73221904D01*
X152755714Y-73260000D01*
X152679523Y-73336190D01*
X152641428Y-73412380D01*
X152603333Y-73564761D01*
X152603333Y-73679047D01*
X152641428Y-73831428D01*
X152679523Y-73907619D01*
X152755714Y-73983809D01*
X152870000Y-74021904D01*
X152946190Y-74021904D01*
X153060476Y-73983809D01*
X153098571Y-73945714D01*
X153098571Y-73679047D01*
X152946190Y-73679047D01*
X153441428Y-74021904D02*
X153441428Y-73221904D01*
X153898571Y-74021904D01*
X153898571Y-73221904D01*
X154279523Y-74021904D02*
X154279523Y-73221904D01*
X154470000Y-73221904D01*
X154584285Y-73260000D01*
X154660476Y-73336190D01*
X154698571Y-73412380D01*
X154736666Y-73564761D01*
X154736666Y-73679047D01*
X154698571Y-73831428D01*
X154660476Y-73907619D01*
X154584285Y-73983809D01*
X154470000Y-74021904D01*
X154279523Y-74021904D01*
X152222380Y-75761904D02*
X152412857Y-76561904D01*
X152565238Y-75990476D01*
X152717619Y-76561904D01*
X152908095Y-75761904D01*
X153593809Y-76561904D02*
X153212857Y-76561904D01*
X153212857Y-75761904D01*
X153822380Y-76523809D02*
X153936666Y-76561904D01*
X154127142Y-76561904D01*
X154203333Y-76523809D01*
X154241428Y-76485714D01*
X154279523Y-76409523D01*
X154279523Y-76333333D01*
X154241428Y-76257142D01*
X154203333Y-76219047D01*
X154127142Y-76180952D01*
X153974761Y-76142857D01*
X153898571Y-76104761D01*
X153860476Y-76066666D01*
X153822380Y-75990476D01*
X153822380Y-75914285D01*
X153860476Y-75838095D01*
X153898571Y-75800000D01*
X153974761Y-75761904D01*
X154165238Y-75761904D01*
X154279523Y-75800000D01*
X155041428Y-75800000D02*
X154965238Y-75761904D01*
X154850952Y-75761904D01*
X154736666Y-75800000D01*
X154660476Y-75876190D01*
X154622380Y-75952380D01*
X154584285Y-76104761D01*
X154584285Y-76219047D01*
X154622380Y-76371428D01*
X154660476Y-76447619D01*
X154736666Y-76523809D01*
X154850952Y-76561904D01*
X154927142Y-76561904D01*
X155041428Y-76523809D01*
X155079523Y-76485714D01*
X155079523Y-76219047D01*
X154927142Y-76219047D01*
X153327142Y-78301904D02*
X153517619Y-79101904D01*
X153670000Y-78530476D01*
X153822380Y-79101904D01*
X154012857Y-78301904D01*
X152127142Y-80841904D02*
X152317619Y-81641904D01*
X152470000Y-81070476D01*
X152622380Y-81641904D01*
X152812857Y-80841904D01*
X153117619Y-81641904D02*
X153117619Y-80841904D01*
X153117619Y-81222857D02*
X153574761Y-81222857D01*
X153574761Y-81641904D02*
X153574761Y-80841904D01*
X153917619Y-81603809D02*
X154031904Y-81641904D01*
X154222380Y-81641904D01*
X154298571Y-81603809D01*
X154336666Y-81565714D01*
X154374761Y-81489523D01*
X154374761Y-81413333D01*
X154336666Y-81337142D01*
X154298571Y-81299047D01*
X154222380Y-81260952D01*
X154070000Y-81222857D01*
X153993809Y-81184761D01*
X153955714Y-81146666D01*
X153917619Y-81070476D01*
X153917619Y-80994285D01*
X153955714Y-80918095D01*
X153993809Y-80880000D01*
X154070000Y-80841904D01*
X154260476Y-80841904D01*
X154374761Y-80880000D01*
X155136666Y-80880000D02*
X155060476Y-80841904D01*
X154946190Y-80841904D01*
X154831904Y-80880000D01*
X154755714Y-80956190D01*
X154717619Y-81032380D01*
X154679523Y-81184761D01*
X154679523Y-81299047D01*
X154717619Y-81451428D01*
X154755714Y-81527619D01*
X154831904Y-81603809D01*
X154946190Y-81641904D01*
X155022380Y-81641904D01*
X155136666Y-81603809D01*
X155174761Y-81565714D01*
X155174761Y-81299047D01*
X155022380Y-81299047D01*
X152298571Y-83381904D02*
X152565238Y-84181904D01*
X152831904Y-83381904D01*
X153479523Y-84181904D02*
X153098571Y-84181904D01*
X153098571Y-83381904D01*
X153708095Y-84143809D02*
X153822380Y-84181904D01*
X154012857Y-84181904D01*
X154089047Y-84143809D01*
X154127142Y-84105714D01*
X154165238Y-84029523D01*
X154165238Y-83953333D01*
X154127142Y-83877142D01*
X154089047Y-83839047D01*
X154012857Y-83800952D01*
X153860476Y-83762857D01*
X153784285Y-83724761D01*
X153746190Y-83686666D01*
X153708095Y-83610476D01*
X153708095Y-83534285D01*
X153746190Y-83458095D01*
X153784285Y-83420000D01*
X153860476Y-83381904D01*
X154050952Y-83381904D01*
X154165238Y-83420000D01*
X154927142Y-83420000D02*
X154850952Y-83381904D01*
X154736666Y-83381904D01*
X154622380Y-83420000D01*
X154546190Y-83496190D01*
X154508095Y-83572380D01*
X154470000Y-83724761D01*
X154470000Y-83839047D01*
X154508095Y-83991428D01*
X154546190Y-84067619D01*
X154622380Y-84143809D01*
X154736666Y-84181904D01*
X154812857Y-84181904D01*
X154927142Y-84143809D01*
X154965238Y-84105714D01*
X154965238Y-83839047D01*
X154812857Y-83839047D01*
X153403333Y-85921904D02*
X153670000Y-86721904D01*
X153936666Y-85921904D01*
X152203333Y-88461904D02*
X152470000Y-89261904D01*
X152736666Y-88461904D01*
X153003333Y-89261904D02*
X153003333Y-88461904D01*
X153003333Y-88842857D02*
X153460476Y-88842857D01*
X153460476Y-89261904D02*
X153460476Y-88461904D01*
X153803333Y-89223809D02*
X153917619Y-89261904D01*
X154108095Y-89261904D01*
X154184285Y-89223809D01*
X154222380Y-89185714D01*
X154260476Y-89109523D01*
X154260476Y-89033333D01*
X154222380Y-88957142D01*
X154184285Y-88919047D01*
X154108095Y-88880952D01*
X153955714Y-88842857D01*
X153879523Y-88804761D01*
X153841428Y-88766666D01*
X153803333Y-88690476D01*
X153803333Y-88614285D01*
X153841428Y-88538095D01*
X153879523Y-88500000D01*
X153955714Y-88461904D01*
X154146190Y-88461904D01*
X154260476Y-88500000D01*
X155022380Y-88500000D02*
X154946190Y-88461904D01*
X154831904Y-88461904D01*
X154717619Y-88500000D01*
X154641428Y-88576190D01*
X154603333Y-88652380D01*
X154565238Y-88804761D01*
X154565238Y-88919047D01*
X154603333Y-89071428D01*
X154641428Y-89147619D01*
X154717619Y-89223809D01*
X154831904Y-89261904D01*
X154908095Y-89261904D01*
X155022380Y-89223809D01*
X155060476Y-89185714D01*
X155060476Y-88919047D01*
X154908095Y-88919047D01*
X152336666Y-91001904D02*
X152336666Y-91649523D01*
X152374761Y-91725714D01*
X152412857Y-91763809D01*
X152489047Y-91801904D01*
X152641428Y-91801904D01*
X152717619Y-91763809D01*
X152755714Y-91725714D01*
X152793809Y-91649523D01*
X152793809Y-91001904D01*
X153555714Y-91801904D02*
X153174761Y-91801904D01*
X153174761Y-91001904D01*
X153784285Y-91763809D02*
X153898571Y-91801904D01*
X154089047Y-91801904D01*
X154165238Y-91763809D01*
X154203333Y-91725714D01*
X154241428Y-91649523D01*
X154241428Y-91573333D01*
X154203333Y-91497142D01*
X154165238Y-91459047D01*
X154089047Y-91420952D01*
X153936666Y-91382857D01*
X153860476Y-91344761D01*
X153822380Y-91306666D01*
X153784285Y-91230476D01*
X153784285Y-91154285D01*
X153822380Y-91078095D01*
X153860476Y-91040000D01*
X153936666Y-91001904D01*
X154127142Y-91001904D01*
X154241428Y-91040000D01*
X155003333Y-91040000D02*
X154927142Y-91001904D01*
X154812857Y-91001904D01*
X154698571Y-91040000D01*
X154622380Y-91116190D01*
X154584285Y-91192380D01*
X154546190Y-91344761D01*
X154546190Y-91459047D01*
X154584285Y-91611428D01*
X154622380Y-91687619D01*
X154698571Y-91763809D01*
X154812857Y-91801904D01*
X154889047Y-91801904D01*
X155003333Y-91763809D01*
X155041428Y-91725714D01*
X155041428Y-91459047D01*
X154889047Y-91459047D01*
X153441428Y-93541904D02*
X153441428Y-94189523D01*
X153479523Y-94265714D01*
X153517619Y-94303809D01*
X153593809Y-94341904D01*
X153746190Y-94341904D01*
X153822380Y-94303809D01*
X153860476Y-94265714D01*
X153898571Y-94189523D01*
X153898571Y-93541904D01*
X152241428Y-96081904D02*
X152241428Y-96729523D01*
X152279523Y-96805714D01*
X152317619Y-96843809D01*
X152393809Y-96881904D01*
X152546190Y-96881904D01*
X152622380Y-96843809D01*
X152660476Y-96805714D01*
X152698571Y-96729523D01*
X152698571Y-96081904D01*
X153079523Y-96881904D02*
X153079523Y-96081904D01*
X153079523Y-96462857D02*
X153536666Y-96462857D01*
X153536666Y-96881904D02*
X153536666Y-96081904D01*
X153879523Y-96843809D02*
X153993809Y-96881904D01*
X154184285Y-96881904D01*
X154260476Y-96843809D01*
X154298571Y-96805714D01*
X154336666Y-96729523D01*
X154336666Y-96653333D01*
X154298571Y-96577142D01*
X154260476Y-96539047D01*
X154184285Y-96500952D01*
X154031904Y-96462857D01*
X153955714Y-96424761D01*
X153917619Y-96386666D01*
X153879523Y-96310476D01*
X153879523Y-96234285D01*
X153917619Y-96158095D01*
X153955714Y-96120000D01*
X154031904Y-96081904D01*
X154222380Y-96081904D01*
X154336666Y-96120000D01*
X155098571Y-96120000D02*
X155022380Y-96081904D01*
X154908095Y-96081904D01*
X154793809Y-96120000D01*
X154717619Y-96196190D01*
X154679523Y-96272380D01*
X154641428Y-96424761D01*
X154641428Y-96539047D01*
X154679523Y-96691428D01*
X154717619Y-96767619D01*
X154793809Y-96843809D01*
X154908095Y-96881904D01*
X154984285Y-96881904D01*
X155098571Y-96843809D01*
X155136666Y-96805714D01*
X155136666Y-96539047D01*
X154984285Y-96539047D01*
D11*
X153814571Y-99331428D02*
X153814571Y-98731428D01*
X154071714Y-99302857D02*
X154157428Y-99331428D01*
X154300285Y-99331428D01*
X154357428Y-99302857D01*
X154386000Y-99274285D01*
X154414571Y-99217142D01*
X154414571Y-99160000D01*
X154386000Y-99102857D01*
X154357428Y-99074285D01*
X154300285Y-99045714D01*
X154186000Y-99017142D01*
X154128857Y-98988571D01*
X154100285Y-98960000D01*
X154071714Y-98902857D01*
X154071714Y-98845714D01*
X154100285Y-98788571D01*
X154128857Y-98760000D01*
X154186000Y-98731428D01*
X154328857Y-98731428D01*
X154414571Y-98760000D01*
X154671714Y-99017142D02*
X154871714Y-99017142D01*
X154957428Y-99331428D02*
X154671714Y-99331428D01*
X154671714Y-98731428D01*
X154957428Y-98731428D01*
X155214571Y-99331428D02*
X155214571Y-98731428D01*
X155557428Y-99331428D01*
X155557428Y-98731428D01*
D10*
X153136666Y-101885714D02*
X153098571Y-101923809D01*
X152984285Y-101961904D01*
X152908095Y-101961904D01*
X152793809Y-101923809D01*
X152717619Y-101847619D01*
X152679523Y-101771428D01*
X152641428Y-101619047D01*
X152641428Y-101504761D01*
X152679523Y-101352380D01*
X152717619Y-101276190D01*
X152793809Y-101200000D01*
X152908095Y-101161904D01*
X152984285Y-101161904D01*
X153098571Y-101200000D01*
X153136666Y-101238095D01*
X153479523Y-101961904D02*
X153479523Y-101161904D01*
X153784285Y-101161904D01*
X153860476Y-101200000D01*
X153898571Y-101238095D01*
X153936666Y-101314285D01*
X153936666Y-101428571D01*
X153898571Y-101504761D01*
X153860476Y-101542857D01*
X153784285Y-101580952D01*
X153479523Y-101580952D01*
X154698571Y-101961904D02*
X154241428Y-101961904D01*
X154470000Y-101961904D02*
X154470000Y-101161904D01*
X154393809Y-101276190D01*
X154317619Y-101352380D01*
X154241428Y-101390476D01*
X153136666Y-104425714D02*
X153098571Y-104463809D01*
X152984285Y-104501904D01*
X152908095Y-104501904D01*
X152793809Y-104463809D01*
X152717619Y-104387619D01*
X152679523Y-104311428D01*
X152641428Y-104159047D01*
X152641428Y-104044761D01*
X152679523Y-103892380D01*
X152717619Y-103816190D01*
X152793809Y-103740000D01*
X152908095Y-103701904D01*
X152984285Y-103701904D01*
X153098571Y-103740000D01*
X153136666Y-103778095D01*
X153479523Y-104501904D02*
X153479523Y-103701904D01*
X153784285Y-103701904D01*
X153860476Y-103740000D01*
X153898571Y-103778095D01*
X153936666Y-103854285D01*
X153936666Y-103968571D01*
X153898571Y-104044761D01*
X153860476Y-104082857D01*
X153784285Y-104120952D01*
X153479523Y-104120952D01*
X154241428Y-103778095D02*
X154279523Y-103740000D01*
X154355714Y-103701904D01*
X154546190Y-103701904D01*
X154622380Y-103740000D01*
X154660476Y-103778095D01*
X154698571Y-103854285D01*
X154698571Y-103930476D01*
X154660476Y-104044761D01*
X154203333Y-104501904D01*
X154698571Y-104501904D01*
X152603333Y-106241904D02*
X152870000Y-107041904D01*
X153136666Y-106241904D01*
X153860476Y-106965714D02*
X153822380Y-107003809D01*
X153708095Y-107041904D01*
X153631904Y-107041904D01*
X153517619Y-107003809D01*
X153441428Y-106927619D01*
X153403333Y-106851428D01*
X153365238Y-106699047D01*
X153365238Y-106584761D01*
X153403333Y-106432380D01*
X153441428Y-106356190D01*
X153517619Y-106280000D01*
X153631904Y-106241904D01*
X153708095Y-106241904D01*
X153822380Y-106280000D01*
X153860476Y-106318095D01*
X154203333Y-107041904D02*
X154203333Y-106241904D01*
X154508095Y-106241904D01*
X154584285Y-106280000D01*
X154622380Y-106318095D01*
X154660476Y-106394285D01*
X154660476Y-106508571D01*
X154622380Y-106584761D01*
X154584285Y-106622857D01*
X154508095Y-106660952D01*
X154203333Y-106660952D01*
X152946190Y-108781904D02*
X153212857Y-109581904D01*
X153479523Y-108781904D01*
X153746190Y-109581904D02*
X153746190Y-108781904D01*
X154012857Y-109353333D01*
X154279523Y-108781904D01*
X154279523Y-109581904D01*
X153060476Y-111360000D02*
X152984285Y-111321904D01*
X152870000Y-111321904D01*
X152755714Y-111360000D01*
X152679523Y-111436190D01*
X152641428Y-111512380D01*
X152603333Y-111664761D01*
X152603333Y-111779047D01*
X152641428Y-111931428D01*
X152679523Y-112007619D01*
X152755714Y-112083809D01*
X152870000Y-112121904D01*
X152946190Y-112121904D01*
X153060476Y-112083809D01*
X153098571Y-112045714D01*
X153098571Y-111779047D01*
X152946190Y-111779047D01*
X153441428Y-112121904D02*
X153441428Y-111321904D01*
X153898571Y-112121904D01*
X153898571Y-111321904D01*
X154279523Y-112121904D02*
X154279523Y-111321904D01*
X154470000Y-111321904D01*
X154584285Y-111360000D01*
X154660476Y-111436190D01*
X154698571Y-111512380D01*
X154736666Y-111664761D01*
X154736666Y-111779047D01*
X154698571Y-111931428D01*
X154660476Y-112007619D01*
X154584285Y-112083809D01*
X154470000Y-112121904D01*
X154279523Y-112121904D01*
X152489047Y-113861904D02*
X152755714Y-114661904D01*
X153022380Y-113861904D01*
X153289047Y-114661904D02*
X153289047Y-113861904D01*
X153670000Y-114661904D02*
X153670000Y-113861904D01*
X154127142Y-114661904D01*
X154127142Y-113861904D01*
X154393809Y-113861904D02*
X154850952Y-113861904D01*
X154622380Y-114661904D02*
X154622380Y-113861904D01*
X152241428Y-116401904D02*
X152508095Y-117201904D01*
X152774761Y-116401904D01*
X153498571Y-117201904D02*
X153231904Y-116820952D01*
X153041428Y-117201904D02*
X153041428Y-116401904D01*
X153346190Y-116401904D01*
X153422380Y-116440000D01*
X153460476Y-116478095D01*
X153498571Y-116554285D01*
X153498571Y-116668571D01*
X153460476Y-116744761D01*
X153422380Y-116782857D01*
X153346190Y-116820952D01*
X153041428Y-116820952D01*
X153841428Y-116782857D02*
X154108095Y-116782857D01*
X154222380Y-117201904D02*
X153841428Y-117201904D01*
X153841428Y-116401904D01*
X154222380Y-116401904D01*
X154984285Y-116440000D02*
X154908095Y-116401904D01*
X154793809Y-116401904D01*
X154679523Y-116440000D01*
X154603333Y-116516190D01*
X154565238Y-116592380D01*
X154527142Y-116744761D01*
X154527142Y-116859047D01*
X154565238Y-117011428D01*
X154603333Y-117087619D01*
X154679523Y-117163809D01*
X154793809Y-117201904D01*
X154870000Y-117201904D01*
X154984285Y-117163809D01*
X155022380Y-117125714D01*
X155022380Y-116859047D01*
X154870000Y-116859047D01*
X152508095Y-119741904D02*
X152241428Y-119360952D01*
X152050952Y-119741904D02*
X152050952Y-118941904D01*
X152355714Y-118941904D01*
X152431904Y-118980000D01*
X152470000Y-119018095D01*
X152508095Y-119094285D01*
X152508095Y-119208571D01*
X152470000Y-119284761D01*
X152431904Y-119322857D01*
X152355714Y-119360952D01*
X152050952Y-119360952D01*
X152850952Y-119322857D02*
X153117619Y-119322857D01*
X153231904Y-119741904D02*
X152850952Y-119741904D01*
X152850952Y-118941904D01*
X153231904Y-118941904D01*
X153536666Y-119703809D02*
X153650952Y-119741904D01*
X153841428Y-119741904D01*
X153917619Y-119703809D01*
X153955714Y-119665714D01*
X153993809Y-119589523D01*
X153993809Y-119513333D01*
X153955714Y-119437142D01*
X153917619Y-119399047D01*
X153841428Y-119360952D01*
X153689047Y-119322857D01*
X153612857Y-119284761D01*
X153574761Y-119246666D01*
X153536666Y-119170476D01*
X153536666Y-119094285D01*
X153574761Y-119018095D01*
X153612857Y-118980000D01*
X153689047Y-118941904D01*
X153879523Y-118941904D01*
X153993809Y-118980000D01*
X154336666Y-119322857D02*
X154603333Y-119322857D01*
X154717619Y-119741904D02*
X154336666Y-119741904D01*
X154336666Y-118941904D01*
X154717619Y-118941904D01*
X154946190Y-118941904D02*
X155403333Y-118941904D01*
X155174761Y-119741904D02*
X155174761Y-118941904D01*
X151396952Y-121862857D02*
X151663619Y-121862857D01*
X151777904Y-122281904D02*
X151396952Y-122281904D01*
X151396952Y-121481904D01*
X151777904Y-121481904D01*
X152120761Y-122281904D02*
X152120761Y-121481904D01*
X152577904Y-122281904D01*
X152577904Y-121481904D01*
X152920761Y-122053333D02*
X153301714Y-122053333D01*
X152844571Y-122281904D02*
X153111238Y-121481904D01*
X153377904Y-122281904D01*
X153911238Y-121862857D02*
X154025523Y-121900952D01*
X154063619Y-121939047D01*
X154101714Y-122015238D01*
X154101714Y-122129523D01*
X154063619Y-122205714D01*
X154025523Y-122243809D01*
X153949333Y-122281904D01*
X153644571Y-122281904D01*
X153644571Y-121481904D01*
X153911238Y-121481904D01*
X153987428Y-121520000D01*
X154025523Y-121558095D01*
X154063619Y-121634285D01*
X154063619Y-121710476D01*
X154025523Y-121786666D01*
X153987428Y-121824761D01*
X153911238Y-121862857D01*
X153644571Y-121862857D01*
X154825523Y-122281904D02*
X154444571Y-122281904D01*
X154444571Y-121481904D01*
X155092190Y-121862857D02*
X155358857Y-121862857D01*
X155473142Y-122281904D02*
X155092190Y-122281904D01*
X155092190Y-121481904D01*
X155473142Y-121481904D01*
X152870000Y-124821904D02*
X152870000Y-124021904D01*
X153060476Y-124021904D01*
X153174761Y-124060000D01*
X153250952Y-124136190D01*
X153289047Y-124212380D01*
X153327142Y-124364761D01*
X153327142Y-124479047D01*
X153289047Y-124631428D01*
X153250952Y-124707619D01*
X153174761Y-124783809D01*
X153060476Y-124821904D01*
X152870000Y-124821904D01*
X153670000Y-124821904D02*
X153670000Y-124021904D01*
X154508095Y-124821904D02*
X154241428Y-124440952D01*
X154050952Y-124821904D02*
X154050952Y-124021904D01*
X154355714Y-124021904D01*
X154431904Y-124060000D01*
X154470000Y-124098095D01*
X154508095Y-124174285D01*
X154508095Y-124288571D01*
X154470000Y-124364761D01*
X154431904Y-124402857D01*
X154355714Y-124440952D01*
X154050952Y-124440952D01*
X142062380Y-124402857D02*
X142176666Y-124440952D01*
X142214761Y-124479047D01*
X142252857Y-124555238D01*
X142252857Y-124669523D01*
X142214761Y-124745714D01*
X142176666Y-124783809D01*
X142100476Y-124821904D01*
X141795714Y-124821904D01*
X141795714Y-124021904D01*
X142062380Y-124021904D01*
X142138571Y-124060000D01*
X142176666Y-124098095D01*
X142214761Y-124174285D01*
X142214761Y-124250476D01*
X142176666Y-124326666D01*
X142138571Y-124364761D01*
X142062380Y-124402857D01*
X141795714Y-124402857D01*
X143052857Y-124821904D02*
X142786190Y-124440952D01*
X142595714Y-124821904D02*
X142595714Y-124021904D01*
X142900476Y-124021904D01*
X142976666Y-124060000D01*
X143014761Y-124098095D01*
X143052857Y-124174285D01*
X143052857Y-124288571D01*
X143014761Y-124364761D01*
X142976666Y-124402857D01*
X142900476Y-124440952D01*
X142595714Y-124440952D01*
X143357619Y-124593333D02*
X143738571Y-124593333D01*
X143281428Y-124821904D02*
X143548095Y-124021904D01*
X143814761Y-124821904D01*
X144081428Y-124821904D02*
X144081428Y-124021904D01*
X144538571Y-124821904D02*
X144195714Y-124364761D01*
X144538571Y-124021904D02*
X144081428Y-124479047D01*
X144881428Y-124402857D02*
X145148095Y-124402857D01*
X145262380Y-124821904D02*
X144881428Y-124821904D01*
X144881428Y-124021904D01*
X145262380Y-124021904D01*
X142424285Y-122205714D02*
X142386190Y-122243809D01*
X142271904Y-122281904D01*
X142195714Y-122281904D01*
X142081428Y-122243809D01*
X142005238Y-122167619D01*
X141967142Y-122091428D01*
X141929047Y-121939047D01*
X141929047Y-121824761D01*
X141967142Y-121672380D01*
X142005238Y-121596190D01*
X142081428Y-121520000D01*
X142195714Y-121481904D01*
X142271904Y-121481904D01*
X142386190Y-121520000D01*
X142424285Y-121558095D01*
X143148095Y-122281904D02*
X142767142Y-122281904D01*
X142767142Y-121481904D01*
X143414761Y-122281904D02*
X143414761Y-121481904D01*
X143871904Y-122281904D02*
X143529047Y-121824761D01*
X143871904Y-121481904D02*
X143414761Y-121939047D01*
X144214761Y-122281904D02*
X144214761Y-121481904D01*
X144595714Y-122281904D02*
X144595714Y-121481904D01*
X145052857Y-122281904D01*
X145052857Y-121481904D01*
X142176666Y-119741904D02*
X141795714Y-119741904D01*
X141795714Y-118941904D01*
X142595714Y-118941904D02*
X142748095Y-118941904D01*
X142824285Y-118980000D01*
X142900476Y-119056190D01*
X142938571Y-119208571D01*
X142938571Y-119475238D01*
X142900476Y-119627619D01*
X142824285Y-119703809D01*
X142748095Y-119741904D01*
X142595714Y-119741904D01*
X142519523Y-119703809D01*
X142443333Y-119627619D01*
X142405238Y-119475238D01*
X142405238Y-119208571D01*
X142443333Y-119056190D01*
X142519523Y-118980000D01*
X142595714Y-118941904D01*
X143738571Y-119665714D02*
X143700476Y-119703809D01*
X143586190Y-119741904D01*
X143510000Y-119741904D01*
X143395714Y-119703809D01*
X143319523Y-119627619D01*
X143281428Y-119551428D01*
X143243333Y-119399047D01*
X143243333Y-119284761D01*
X143281428Y-119132380D01*
X143319523Y-119056190D01*
X143395714Y-118980000D01*
X143510000Y-118941904D01*
X143586190Y-118941904D01*
X143700476Y-118980000D01*
X143738571Y-119018095D01*
X144081428Y-119741904D02*
X144081428Y-118941904D01*
X144538571Y-119741904D02*
X144195714Y-119284761D01*
X144538571Y-118941904D02*
X144081428Y-119399047D01*
X144881428Y-119208571D02*
X144881428Y-119741904D01*
X144881428Y-119284761D02*
X144919523Y-119246666D01*
X144995714Y-119208571D01*
X145110000Y-119208571D01*
X145186190Y-119246666D01*
X145224285Y-119322857D01*
X145224285Y-119741904D01*
X141871904Y-116782857D02*
X141605238Y-116782857D01*
X141605238Y-117201904D02*
X141605238Y-116401904D01*
X141986190Y-116401904D01*
X142252857Y-116973333D02*
X142633809Y-116973333D01*
X142176666Y-117201904D02*
X142443333Y-116401904D01*
X142710000Y-117201904D01*
X142976666Y-116401904D02*
X142976666Y-117049523D01*
X143014761Y-117125714D01*
X143052857Y-117163809D01*
X143129047Y-117201904D01*
X143281428Y-117201904D01*
X143357619Y-117163809D01*
X143395714Y-117125714D01*
X143433809Y-117049523D01*
X143433809Y-116401904D01*
X144195714Y-117201904D02*
X143814761Y-117201904D01*
X143814761Y-116401904D01*
X144348095Y-116401904D02*
X144805238Y-116401904D01*
X144576666Y-117201904D02*
X144576666Y-116401904D01*
X145071904Y-116668571D02*
X145071904Y-117201904D01*
X145071904Y-116744761D02*
X145110000Y-116706666D01*
X145186190Y-116668571D01*
X145300476Y-116668571D01*
X145376666Y-116706666D01*
X145414761Y-116782857D01*
X145414761Y-117201904D01*
X142081428Y-114242857D02*
X141814761Y-114242857D01*
X141814761Y-114661904D02*
X141814761Y-113861904D01*
X142195714Y-113861904D01*
X142919523Y-113900000D02*
X142843333Y-113861904D01*
X142729047Y-113861904D01*
X142614761Y-113900000D01*
X142538571Y-113976190D01*
X142500476Y-114052380D01*
X142462380Y-114204761D01*
X142462380Y-114319047D01*
X142500476Y-114471428D01*
X142538571Y-114547619D01*
X142614761Y-114623809D01*
X142729047Y-114661904D01*
X142805238Y-114661904D01*
X142919523Y-114623809D01*
X142957619Y-114585714D01*
X142957619Y-114319047D01*
X142805238Y-114319047D01*
X143452857Y-113861904D02*
X143605238Y-113861904D01*
X143681428Y-113900000D01*
X143757619Y-113976190D01*
X143795714Y-114128571D01*
X143795714Y-114395238D01*
X143757619Y-114547619D01*
X143681428Y-114623809D01*
X143605238Y-114661904D01*
X143452857Y-114661904D01*
X143376666Y-114623809D01*
X143300476Y-114547619D01*
X143262380Y-114395238D01*
X143262380Y-114128571D01*
X143300476Y-113976190D01*
X143376666Y-113900000D01*
X143452857Y-113861904D01*
X144138571Y-113861904D02*
X144138571Y-114509523D01*
X144176666Y-114585714D01*
X144214761Y-114623809D01*
X144290952Y-114661904D01*
X144443333Y-114661904D01*
X144519523Y-114623809D01*
X144557619Y-114585714D01*
X144595714Y-114509523D01*
X144595714Y-113861904D01*
X144862380Y-113861904D02*
X145319523Y-113861904D01*
X145090952Y-114661904D02*
X145090952Y-113861904D01*
X141598904Y-112083809D02*
X141713190Y-112121904D01*
X141903666Y-112121904D01*
X141979857Y-112083809D01*
X142017952Y-112045714D01*
X142056047Y-111969523D01*
X142056047Y-111893333D01*
X142017952Y-111817142D01*
X141979857Y-111779047D01*
X141903666Y-111740952D01*
X141751285Y-111702857D01*
X141675095Y-111664761D01*
X141637000Y-111626666D01*
X141598904Y-111550476D01*
X141598904Y-111474285D01*
X141637000Y-111398095D01*
X141675095Y-111360000D01*
X141751285Y-111321904D01*
X141941761Y-111321904D01*
X142056047Y-111360000D01*
X142398904Y-112121904D02*
X142398904Y-111321904D01*
X142589380Y-111321904D01*
X142703666Y-111360000D01*
X142779857Y-111436190D01*
X142817952Y-111512380D01*
X142856047Y-111664761D01*
X142856047Y-111779047D01*
X142817952Y-111931428D01*
X142779857Y-112007619D01*
X142703666Y-112083809D01*
X142589380Y-112121904D01*
X142398904Y-112121904D01*
X143160809Y-111893333D02*
X143541761Y-111893333D01*
X143084619Y-112121904D02*
X143351285Y-111321904D01*
X143617952Y-112121904D01*
X143770333Y-111321904D02*
X144227476Y-111321904D01*
X143998904Y-112121904D02*
X143998904Y-111321904D01*
X144456047Y-111893333D02*
X144837000Y-111893333D01*
X144379857Y-112121904D02*
X144646523Y-111321904D01*
X144913190Y-112121904D01*
X145332238Y-111321904D02*
X145484619Y-111321904D01*
X145560809Y-111360000D01*
X145637000Y-111436190D01*
X145675095Y-111588571D01*
X145675095Y-111855238D01*
X145637000Y-112007619D01*
X145560809Y-112083809D01*
X145484619Y-112121904D01*
X145332238Y-112121904D01*
X145256047Y-112083809D01*
X145179857Y-112007619D01*
X145141761Y-111855238D01*
X145141761Y-111588571D01*
X145179857Y-111436190D01*
X145256047Y-111360000D01*
X145332238Y-111321904D01*
X141700476Y-109543809D02*
X141814761Y-109581904D01*
X142005238Y-109581904D01*
X142081428Y-109543809D01*
X142119523Y-109505714D01*
X142157619Y-109429523D01*
X142157619Y-109353333D01*
X142119523Y-109277142D01*
X142081428Y-109239047D01*
X142005238Y-109200952D01*
X141852857Y-109162857D01*
X141776666Y-109124761D01*
X141738571Y-109086666D01*
X141700476Y-109010476D01*
X141700476Y-108934285D01*
X141738571Y-108858095D01*
X141776666Y-108820000D01*
X141852857Y-108781904D01*
X142043333Y-108781904D01*
X142157619Y-108820000D01*
X142500476Y-109581904D02*
X142500476Y-108781904D01*
X142690952Y-108781904D01*
X142805238Y-108820000D01*
X142881428Y-108896190D01*
X142919523Y-108972380D01*
X142957619Y-109124761D01*
X142957619Y-109239047D01*
X142919523Y-109391428D01*
X142881428Y-109467619D01*
X142805238Y-109543809D01*
X142690952Y-109581904D01*
X142500476Y-109581904D01*
X143262380Y-109353333D02*
X143643333Y-109353333D01*
X143186190Y-109581904D02*
X143452857Y-108781904D01*
X143719523Y-109581904D01*
X143871904Y-108781904D02*
X144329047Y-108781904D01*
X144100476Y-109581904D02*
X144100476Y-108781904D01*
X144557619Y-109353333D02*
X144938571Y-109353333D01*
X144481428Y-109581904D02*
X144748095Y-108781904D01*
X145014761Y-109581904D01*
X145281428Y-109581904D02*
X145281428Y-108781904D01*
X141643333Y-107003809D02*
X141757619Y-107041904D01*
X141948095Y-107041904D01*
X142024285Y-107003809D01*
X142062380Y-106965714D01*
X142100476Y-106889523D01*
X142100476Y-106813333D01*
X142062380Y-106737142D01*
X142024285Y-106699047D01*
X141948095Y-106660952D01*
X141795714Y-106622857D01*
X141719523Y-106584761D01*
X141681428Y-106546666D01*
X141643333Y-106470476D01*
X141643333Y-106394285D01*
X141681428Y-106318095D01*
X141719523Y-106280000D01*
X141795714Y-106241904D01*
X141986190Y-106241904D01*
X142100476Y-106280000D01*
X142443333Y-107041904D02*
X142443333Y-106241904D01*
X142710000Y-106813333D01*
X142976666Y-106241904D01*
X142976666Y-107041904D01*
X143510000Y-106241904D02*
X143662380Y-106241904D01*
X143738571Y-106280000D01*
X143814761Y-106356190D01*
X143852857Y-106508571D01*
X143852857Y-106775238D01*
X143814761Y-106927619D01*
X143738571Y-107003809D01*
X143662380Y-107041904D01*
X143510000Y-107041904D01*
X143433809Y-107003809D01*
X143357619Y-106927619D01*
X143319523Y-106775238D01*
X143319523Y-106508571D01*
X143357619Y-106356190D01*
X143433809Y-106280000D01*
X143510000Y-106241904D01*
X144195714Y-107041904D02*
X144195714Y-106241904D01*
X144386190Y-106241904D01*
X144500476Y-106280000D01*
X144576666Y-106356190D01*
X144614761Y-106432380D01*
X144652857Y-106584761D01*
X144652857Y-106699047D01*
X144614761Y-106851428D01*
X144576666Y-106927619D01*
X144500476Y-107003809D01*
X144386190Y-107041904D01*
X144195714Y-107041904D01*
X144995714Y-106622857D02*
X145262380Y-106622857D01*
X145376666Y-107041904D02*
X144995714Y-107041904D01*
X144995714Y-106241904D01*
X145376666Y-106241904D01*
X142500476Y-104463809D02*
X142614761Y-104501904D01*
X142805238Y-104501904D01*
X142881428Y-104463809D01*
X142919523Y-104425714D01*
X142957619Y-104349523D01*
X142957619Y-104273333D01*
X142919523Y-104197142D01*
X142881428Y-104159047D01*
X142805238Y-104120952D01*
X142652857Y-104082857D01*
X142576666Y-104044761D01*
X142538571Y-104006666D01*
X142500476Y-103930476D01*
X142500476Y-103854285D01*
X142538571Y-103778095D01*
X142576666Y-103740000D01*
X142652857Y-103701904D01*
X142843333Y-103701904D01*
X142957619Y-103740000D01*
X143757619Y-104425714D02*
X143719523Y-104463809D01*
X143605238Y-104501904D01*
X143529047Y-104501904D01*
X143414761Y-104463809D01*
X143338571Y-104387619D01*
X143300476Y-104311428D01*
X143262380Y-104159047D01*
X143262380Y-104044761D01*
X143300476Y-103892380D01*
X143338571Y-103816190D01*
X143414761Y-103740000D01*
X143529047Y-103701904D01*
X143605238Y-103701904D01*
X143719523Y-103740000D01*
X143757619Y-103778095D01*
X144062380Y-104463809D02*
X144176666Y-104501904D01*
X144367142Y-104501904D01*
X144443333Y-104463809D01*
X144481428Y-104425714D01*
X144519523Y-104349523D01*
X144519523Y-104273333D01*
X144481428Y-104197142D01*
X144443333Y-104159047D01*
X144367142Y-104120952D01*
X144214761Y-104082857D01*
X144138571Y-104044761D01*
X144100476Y-104006666D01*
X144062380Y-103930476D01*
X144062380Y-103854285D01*
X144100476Y-103778095D01*
X144138571Y-103740000D01*
X144214761Y-103701904D01*
X144405238Y-103701904D01*
X144519523Y-103740000D01*
X142157619Y-101923809D02*
X142271904Y-101961904D01*
X142462380Y-101961904D01*
X142538571Y-101923809D01*
X142576666Y-101885714D01*
X142614761Y-101809523D01*
X142614761Y-101733333D01*
X142576666Y-101657142D01*
X142538571Y-101619047D01*
X142462380Y-101580952D01*
X142310000Y-101542857D01*
X142233809Y-101504761D01*
X142195714Y-101466666D01*
X142157619Y-101390476D01*
X142157619Y-101314285D01*
X142195714Y-101238095D01*
X142233809Y-101200000D01*
X142310000Y-101161904D01*
X142500476Y-101161904D01*
X142614761Y-101200000D01*
X143414761Y-101885714D02*
X143376666Y-101923809D01*
X143262380Y-101961904D01*
X143186190Y-101961904D01*
X143071904Y-101923809D01*
X142995714Y-101847619D01*
X142957619Y-101771428D01*
X142919523Y-101619047D01*
X142919523Y-101504761D01*
X142957619Y-101352380D01*
X142995714Y-101276190D01*
X143071904Y-101200000D01*
X143186190Y-101161904D01*
X143262380Y-101161904D01*
X143376666Y-101200000D01*
X143414761Y-101238095D01*
X144138571Y-101961904D02*
X143757619Y-101961904D01*
X143757619Y-101161904D01*
X144405238Y-101961904D02*
X144405238Y-101161904D01*
X144862380Y-101961904D02*
X144519523Y-101504761D01*
X144862380Y-101161904D02*
X144405238Y-101619047D01*
D12*
X141747976Y-99024285D02*
X141581309Y-99024285D01*
X141581309Y-99286190D02*
X141581309Y-98786190D01*
X141819404Y-98786190D01*
X142271785Y-98810000D02*
X142224166Y-98786190D01*
X142152738Y-98786190D01*
X142081309Y-98810000D01*
X142033690Y-98857619D01*
X142009880Y-98905238D01*
X141986071Y-99000476D01*
X141986071Y-99071904D01*
X142009880Y-99167142D01*
X142033690Y-99214761D01*
X142081309Y-99262380D01*
X142152738Y-99286190D01*
X142200357Y-99286190D01*
X142271785Y-99262380D01*
X142295595Y-99238571D01*
X142295595Y-99071904D01*
X142200357Y-99071904D01*
X142509880Y-99286190D02*
X142509880Y-98786190D01*
X142747976Y-99286190D02*
X142747976Y-98786190D01*
X143033690Y-99286190D01*
X143033690Y-98786190D01*
X143271785Y-99286190D02*
X143271785Y-98786190D01*
X143462261Y-98786190D01*
X143509880Y-98810000D01*
X143533690Y-98833809D01*
X143557500Y-98881428D01*
X143557500Y-98952857D01*
X143533690Y-99000476D01*
X143509880Y-99024285D01*
X143462261Y-99048095D01*
X143271785Y-99048095D01*
D10*
X142119523Y-96081904D02*
X142576666Y-96081904D01*
X142348095Y-96881904D02*
X142348095Y-96081904D01*
X142805238Y-96653333D02*
X143186190Y-96653333D01*
X142729047Y-96881904D02*
X142995714Y-96081904D01*
X143262380Y-96881904D01*
X143986190Y-96805714D02*
X143948095Y-96843809D01*
X143833809Y-96881904D01*
X143757619Y-96881904D01*
X143643333Y-96843809D01*
X143567142Y-96767619D01*
X143529047Y-96691428D01*
X143490952Y-96539047D01*
X143490952Y-96424761D01*
X143529047Y-96272380D01*
X143567142Y-96196190D01*
X143643333Y-96120000D01*
X143757619Y-96081904D01*
X143833809Y-96081904D01*
X143948095Y-96120000D01*
X143986190Y-96158095D01*
X144329047Y-96881904D02*
X144329047Y-96081904D01*
X144329047Y-96462857D02*
X144786190Y-96462857D01*
X144786190Y-96881904D02*
X144786190Y-96081904D01*
X142481428Y-93922857D02*
X142214761Y-93922857D01*
X142214761Y-94341904D02*
X142214761Y-93541904D01*
X142595714Y-93541904D01*
X143319523Y-93580000D02*
X143243333Y-93541904D01*
X143129047Y-93541904D01*
X143014761Y-93580000D01*
X142938571Y-93656190D01*
X142900476Y-93732380D01*
X142862380Y-93884761D01*
X142862380Y-93999047D01*
X142900476Y-94151428D01*
X142938571Y-94227619D01*
X143014761Y-94303809D01*
X143129047Y-94341904D01*
X143205238Y-94341904D01*
X143319523Y-94303809D01*
X143357619Y-94265714D01*
X143357619Y-93999047D01*
X143205238Y-93999047D01*
X143967142Y-93922857D02*
X143700476Y-93922857D01*
X143700476Y-94341904D02*
X143700476Y-93541904D01*
X144081428Y-93541904D01*
X144652857Y-93922857D02*
X144767142Y-93960952D01*
X144805238Y-93999047D01*
X144843333Y-94075238D01*
X144843333Y-94189523D01*
X144805238Y-94265714D01*
X144767142Y-94303809D01*
X144690952Y-94341904D01*
X144386190Y-94341904D01*
X144386190Y-93541904D01*
X144652857Y-93541904D01*
X144729047Y-93580000D01*
X144767142Y-93618095D01*
X144805238Y-93694285D01*
X144805238Y-93770476D01*
X144767142Y-93846666D01*
X144729047Y-93884761D01*
X144652857Y-93922857D01*
X144386190Y-93922857D01*
X142405238Y-91001904D02*
X142671904Y-91801904D01*
X142938571Y-91001904D01*
X143167142Y-91763809D02*
X143281428Y-91801904D01*
X143471904Y-91801904D01*
X143548095Y-91763809D01*
X143586190Y-91725714D01*
X143624285Y-91649523D01*
X143624285Y-91573333D01*
X143586190Y-91497142D01*
X143548095Y-91459047D01*
X143471904Y-91420952D01*
X143319523Y-91382857D01*
X143243333Y-91344761D01*
X143205238Y-91306666D01*
X143167142Y-91230476D01*
X143167142Y-91154285D01*
X143205238Y-91078095D01*
X143243333Y-91040000D01*
X143319523Y-91001904D01*
X143510000Y-91001904D01*
X143624285Y-91040000D01*
X143890952Y-91001904D02*
X144081428Y-91801904D01*
X144233809Y-91230476D01*
X144386190Y-91801904D01*
X144576666Y-91001904D01*
X142329047Y-88461904D02*
X142519523Y-89261904D01*
X142671904Y-88690476D01*
X142824285Y-89261904D01*
X143014761Y-88461904D01*
X143319523Y-89261904D02*
X143319523Y-88461904D01*
X143319523Y-88842857D02*
X143776666Y-88842857D01*
X143776666Y-89261904D02*
X143776666Y-88461904D01*
X144157619Y-89261904D02*
X144157619Y-88461904D01*
X144614761Y-89261904D01*
X144614761Y-88461904D01*
X142348095Y-85921904D02*
X142538571Y-86721904D01*
X142690952Y-86150476D01*
X142843333Y-86721904D01*
X143033809Y-85921904D01*
X143338571Y-86721904D02*
X143338571Y-85921904D01*
X143338571Y-86302857D02*
X143795714Y-86302857D01*
X143795714Y-86721904D02*
X143795714Y-85921904D01*
X144176666Y-86721904D02*
X144176666Y-85921904D01*
X144481428Y-85921904D01*
X144557619Y-85960000D01*
X144595714Y-85998095D01*
X144633809Y-86074285D01*
X144633809Y-86188571D01*
X144595714Y-86264761D01*
X144557619Y-86302857D01*
X144481428Y-86340952D01*
X144176666Y-86340952D01*
X142405238Y-83381904D02*
X142671904Y-84181904D01*
X142938571Y-83381904D01*
X143205238Y-84181904D02*
X143205238Y-83381904D01*
X143205238Y-83762857D02*
X143662380Y-83762857D01*
X143662380Y-84181904D02*
X143662380Y-83381904D01*
X144043333Y-84181904D02*
X144043333Y-83381904D01*
X144500476Y-84181904D01*
X144500476Y-83381904D01*
X142424285Y-80841904D02*
X142690952Y-81641904D01*
X142957619Y-80841904D01*
X143224285Y-81641904D02*
X143224285Y-80841904D01*
X143224285Y-81222857D02*
X143681428Y-81222857D01*
X143681428Y-81641904D02*
X143681428Y-80841904D01*
X144062380Y-81641904D02*
X144062380Y-80841904D01*
X144367142Y-80841904D01*
X144443333Y-80880000D01*
X144481428Y-80918095D01*
X144519523Y-80994285D01*
X144519523Y-81108571D01*
X144481428Y-81184761D01*
X144443333Y-81222857D01*
X144367142Y-81260952D01*
X144062380Y-81260952D01*
X142443333Y-78301904D02*
X142443333Y-78949523D01*
X142481428Y-79025714D01*
X142519523Y-79063809D01*
X142595714Y-79101904D01*
X142748095Y-79101904D01*
X142824285Y-79063809D01*
X142862380Y-79025714D01*
X142900476Y-78949523D01*
X142900476Y-78301904D01*
X143281428Y-79101904D02*
X143281428Y-78301904D01*
X143281428Y-78682857D02*
X143738571Y-78682857D01*
X143738571Y-79101904D02*
X143738571Y-78301904D01*
X144119523Y-79101904D02*
X144119523Y-78301904D01*
X144576666Y-79101904D01*
X144576666Y-78301904D01*
X142462380Y-75761904D02*
X142462380Y-76409523D01*
X142500476Y-76485714D01*
X142538571Y-76523809D01*
X142614761Y-76561904D01*
X142767142Y-76561904D01*
X142843333Y-76523809D01*
X142881428Y-76485714D01*
X142919523Y-76409523D01*
X142919523Y-75761904D01*
X143300476Y-76561904D02*
X143300476Y-75761904D01*
X143300476Y-76142857D02*
X143757619Y-76142857D01*
X143757619Y-76561904D02*
X143757619Y-75761904D01*
X144138571Y-76561904D02*
X144138571Y-75761904D01*
X144443333Y-75761904D01*
X144519523Y-75800000D01*
X144557619Y-75838095D01*
X144595714Y-75914285D01*
X144595714Y-76028571D01*
X144557619Y-76104761D01*
X144519523Y-76142857D01*
X144443333Y-76180952D01*
X144138571Y-76180952D01*
D13*
G04 #@! TO.C,U1*
X143702478Y-99060000D02*
X144223926Y-99581448D01*
X148590000Y-103947522D02*
X149111849Y-103425673D01*
X153477522Y-99060000D02*
X152956074Y-98538552D01*
X148590000Y-94172478D02*
X148068151Y-94694327D01*
X144224327Y-98538151D02*
X143702478Y-99060000D01*
X148068552Y-103426074D02*
X148590000Y-103947522D01*
X152955673Y-99581849D02*
X153477522Y-99060000D01*
X149111448Y-94693926D02*
X148590000Y-94172478D01*
X144370339Y-97752913D02*
X144100931Y-98022321D01*
X144100931Y-98022321D02*
X144280536Y-98201926D01*
X144280536Y-98201926D02*
X144549944Y-97932518D01*
X144549944Y-97932518D02*
X144370339Y-97752913D01*
X147462918Y-103100456D02*
X147283313Y-103280061D01*
X147283313Y-103280061D02*
X147552721Y-103549469D01*
X147552721Y-103549469D02*
X147732326Y-103369864D01*
X147732326Y-103369864D02*
X147462918Y-103100456D01*
X153079069Y-100097679D02*
X152809661Y-100367087D01*
X152809661Y-100367087D02*
X152630056Y-100187482D01*
X152630056Y-100187482D02*
X152899464Y-99918074D01*
X152899464Y-99918074D02*
X153079069Y-100097679D01*
X149447674Y-94750136D02*
X149627279Y-94570531D01*
X149627279Y-94570531D02*
X149896687Y-94839939D01*
X149896687Y-94839939D02*
X149717082Y-95019544D01*
X149717082Y-95019544D02*
X149447674Y-94750136D01*
D14*
G04 #@! TO.C,J1*
X138370000Y-77470000D02*
X141030000Y-77470000D01*
X138370000Y-77470000D02*
X138370000Y-125790000D01*
X138370000Y-125790000D02*
X141030000Y-125790000D01*
X141030000Y-77470000D02*
X141030000Y-125790000D01*
X141030000Y-74870000D02*
X141030000Y-76200000D01*
X139700000Y-74870000D02*
X141030000Y-74870000D01*
G04 #@! TO.C,J2*
X157480000Y-125790000D02*
X156150000Y-125790000D01*
X156150000Y-125790000D02*
X156150000Y-124460000D01*
X156150000Y-123190000D02*
X156150000Y-72330000D01*
X158810000Y-72330000D02*
X156150000Y-72330000D01*
X158810000Y-123190000D02*
X158810000Y-72330000D01*
X158810000Y-123190000D02*
X156150000Y-123190000D01*
G04 #@! TO.C,U1*
D11*
X147828095Y-104862380D02*
X147828095Y-105671904D01*
X147875714Y-105767142D01*
X147923333Y-105814761D01*
X148018571Y-105862380D01*
X148209047Y-105862380D01*
X148304285Y-105814761D01*
X148351904Y-105767142D01*
X148399523Y-105671904D01*
X148399523Y-104862380D01*
X149399523Y-105862380D02*
X148828095Y-105862380D01*
X149113809Y-105862380D02*
X149113809Y-104862380D01*
X149018571Y-105005238D01*
X148923333Y-105100476D01*
X148828095Y-105148095D01*
D12*
X145815428Y-93235428D02*
X145815428Y-92635428D01*
X145958285Y-92635428D01*
X146044000Y-92664000D01*
X146101142Y-92721142D01*
X146129714Y-92778285D01*
X146158285Y-92892571D01*
X146158285Y-92978285D01*
X146129714Y-93092571D01*
X146101142Y-93149714D01*
X146044000Y-93206857D01*
X145958285Y-93235428D01*
X145815428Y-93235428D01*
X146758285Y-93235428D02*
X146558285Y-92949714D01*
X146415428Y-93235428D02*
X146415428Y-92635428D01*
X146644000Y-92635428D01*
X146701142Y-92664000D01*
X146729714Y-92692571D01*
X146758285Y-92749714D01*
X146758285Y-92835428D01*
X146729714Y-92892571D01*
X146701142Y-92921142D01*
X146644000Y-92949714D01*
X146415428Y-92949714D01*
X146929714Y-92635428D02*
X147129714Y-93235428D01*
X147329714Y-92635428D01*
X147615428Y-92892571D02*
X147558285Y-92864000D01*
X147529714Y-92835428D01*
X147501142Y-92778285D01*
X147501142Y-92749714D01*
X147529714Y-92692571D01*
X147558285Y-92664000D01*
X147615428Y-92635428D01*
X147729714Y-92635428D01*
X147786857Y-92664000D01*
X147815428Y-92692571D01*
X147844000Y-92749714D01*
X147844000Y-92778285D01*
X147815428Y-92835428D01*
X147786857Y-92864000D01*
X147729714Y-92892571D01*
X147615428Y-92892571D01*
X147558285Y-92921142D01*
X147529714Y-92949714D01*
X147501142Y-93006857D01*
X147501142Y-93121142D01*
X147529714Y-93178285D01*
X147558285Y-93206857D01*
X147615428Y-93235428D01*
X147729714Y-93235428D01*
X147786857Y-93206857D01*
X147815428Y-93178285D01*
X147844000Y-93121142D01*
X147844000Y-93006857D01*
X147815428Y-92949714D01*
X147786857Y-92921142D01*
X147729714Y-92892571D01*
X148044000Y-92635428D02*
X148415428Y-92635428D01*
X148215428Y-92864000D01*
X148301142Y-92864000D01*
X148358285Y-92892571D01*
X148386857Y-92921142D01*
X148415428Y-92978285D01*
X148415428Y-93121142D01*
X148386857Y-93178285D01*
X148358285Y-93206857D01*
X148301142Y-93235428D01*
X148129714Y-93235428D01*
X148072571Y-93206857D01*
X148044000Y-93178285D01*
X148786857Y-92635428D02*
X148844000Y-92635428D01*
X148901142Y-92664000D01*
X148929714Y-92692571D01*
X148958285Y-92749714D01*
X148986857Y-92864000D01*
X148986857Y-93006857D01*
X148958285Y-93121142D01*
X148929714Y-93178285D01*
X148901142Y-93206857D01*
X148844000Y-93235428D01*
X148786857Y-93235428D01*
X148729714Y-93206857D01*
X148701142Y-93178285D01*
X148672571Y-93121142D01*
X148644000Y-93006857D01*
X148644000Y-92864000D01*
X148672571Y-92749714D01*
X148701142Y-92692571D01*
X148729714Y-92664000D01*
X148786857Y-92635428D01*
X149329714Y-92892571D02*
X149272571Y-92864000D01*
X149244000Y-92835428D01*
X149215428Y-92778285D01*
X149215428Y-92749714D01*
X149244000Y-92692571D01*
X149272571Y-92664000D01*
X149329714Y-92635428D01*
X149444000Y-92635428D01*
X149501142Y-92664000D01*
X149529714Y-92692571D01*
X149558285Y-92749714D01*
X149558285Y-92778285D01*
X149529714Y-92835428D01*
X149501142Y-92864000D01*
X149444000Y-92892571D01*
X149329714Y-92892571D01*
X149272571Y-92921142D01*
X149244000Y-92949714D01*
X149215428Y-93006857D01*
X149215428Y-93121142D01*
X149244000Y-93178285D01*
X149272571Y-93206857D01*
X149329714Y-93235428D01*
X149444000Y-93235428D01*
X149501142Y-93206857D01*
X149529714Y-93178285D01*
X149558285Y-93121142D01*
X149558285Y-93006857D01*
X149529714Y-92949714D01*
X149501142Y-92921142D01*
X149444000Y-92892571D01*
X150158285Y-93235428D02*
X149958285Y-92949714D01*
X149815428Y-93235428D02*
X149815428Y-92635428D01*
X150044000Y-92635428D01*
X150101142Y-92664000D01*
X150129714Y-92692571D01*
X150158285Y-92749714D01*
X150158285Y-92835428D01*
X150129714Y-92892571D01*
X150101142Y-92921142D01*
X150044000Y-92949714D01*
X149815428Y-92949714D01*
X150415428Y-93235428D02*
X150415428Y-92635428D01*
X150415428Y-92921142D02*
X150758285Y-92921142D01*
X150758285Y-93235428D02*
X150758285Y-92635428D01*
X151015428Y-93064000D02*
X151301142Y-93064000D01*
X150958285Y-93235428D02*
X151158285Y-92635428D01*
X151358285Y-93235428D01*
X151901142Y-93235428D02*
X151701142Y-92949714D01*
X151558285Y-93235428D02*
X151558285Y-92635428D01*
X151786857Y-92635428D01*
X151844000Y-92664000D01*
X151872571Y-92692571D01*
X151901142Y-92749714D01*
X151901142Y-92835428D01*
X151872571Y-92892571D01*
X151844000Y-92921142D01*
X151786857Y-92949714D01*
X151558285Y-92949714D01*
D11*
X148161223Y-93782423D02*
X147992864Y-93950782D01*
X147891849Y-93715080D02*
X147992864Y-93950782D01*
X148228566Y-94051797D01*
X147757162Y-93984454D02*
X147992864Y-93950782D01*
X147959192Y-94186484D01*
G04 #@! TO.C,J1*
X141906666Y-73620380D02*
X141906666Y-74334666D01*
X141859047Y-74477523D01*
X141763809Y-74572761D01*
X141620952Y-74620380D01*
X141525714Y-74620380D01*
X142906666Y-74620380D02*
X142335238Y-74620380D01*
X142620952Y-74620380D02*
X142620952Y-73620380D01*
X142525714Y-73763238D01*
X142430476Y-73858476D01*
X142335238Y-73906095D01*
G04 #@! TO.C,J2*
X154606666Y-125182380D02*
X154606666Y-125896666D01*
X154559047Y-126039523D01*
X154463809Y-126134761D01*
X154320952Y-126182380D01*
X154225714Y-126182380D01*
X155035238Y-125277619D02*
X155082857Y-125230000D01*
X155178095Y-125182380D01*
X155416190Y-125182380D01*
X155511428Y-125230000D01*
X155559047Y-125277619D01*
X155606666Y-125372857D01*
X155606666Y-125468095D01*
X155559047Y-125610952D01*
X154987619Y-126182380D01*
X155606666Y-126182380D01*
G04 #@! TD*
M02*
