G04 #@! TF.GenerationSoftware,KiCad,Pcbnew,(5.0.0)*
G04 #@! TF.CreationDate,2018-10-12T16:46:49-04:00*
G04 #@! TF.ProjectId,DRV8308_BreakoutBoard,445256383330385F427265616B6F7574,rev?*
G04 #@! TF.SameCoordinates,Original*
G04 #@! TF.FileFunction,Copper,L1,Top,Signal*
G04 #@! TF.FilePolarity,Positive*
%FSLAX46Y46*%
G04 Gerber Fmt 4.6, Leading zero omitted, Abs format (unit mm)*
G04 Created by KiCad (PCBNEW (5.0.0)) date 10/12/18 16:46:49*
%MOMM*%
%LPD*%
G01*
G04 APERTURE LIST*
G04 #@! TA.AperFunction,SMDPad,CuDef*
%ADD10C,0.280000*%
G04 #@! TD*
G04 #@! TA.AperFunction,Conductor*
%ADD11C,0.100000*%
G04 #@! TD*
G04 #@! TA.AperFunction,SMDPad,CuDef*
%ADD12C,2.620000*%
G04 #@! TD*
G04 #@! TA.AperFunction,ComponentPad*
%ADD13R,1.700000X1.700000*%
G04 #@! TD*
G04 #@! TA.AperFunction,ComponentPad*
%ADD14O,1.700000X1.700000*%
G04 #@! TD*
G04 #@! TA.AperFunction,ViaPad*
%ADD15C,0.685800*%
G04 #@! TD*
G04 #@! TA.AperFunction,Conductor*
%ADD16C,0.152400*%
G04 #@! TD*
G04 APERTURE END LIST*
D10*
G04 #@! TO.P,U1,1*
G04 #@! TO.N,Net-(J1-Pad1)*
X148077348Y-95365366D03*
D11*
G04 #@! TD*
G04 #@! TO.N,Net-(J1-Pad1)*
G04 #@! TO.C,U1*
G36*
X148278873Y-95764881D02*
X147677833Y-95163841D01*
X147875823Y-94965851D01*
X148476863Y-95566891D01*
X148278873Y-95764881D01*
X148278873Y-95764881D01*
G37*
D10*
G04 #@! TO.P,U1,2*
G04 #@! TO.N,Net-(J1-Pad2)*
X147723793Y-95718921D03*
D11*
G04 #@! TD*
G04 #@! TO.N,Net-(J1-Pad2)*
G04 #@! TO.C,U1*
G36*
X147925318Y-96118436D02*
X147324278Y-95517396D01*
X147522268Y-95319406D01*
X148123308Y-95920446D01*
X147925318Y-96118436D01*
X147925318Y-96118436D01*
G37*
D10*
G04 #@! TO.P,U1,3*
G04 #@! TO.N,Net-(J1-Pad3)*
X147370241Y-96072474D03*
D11*
G04 #@! TD*
G04 #@! TO.N,Net-(J1-Pad3)*
G04 #@! TO.C,U1*
G36*
X147571766Y-96471989D02*
X146970726Y-95870949D01*
X147168716Y-95672959D01*
X147769756Y-96273999D01*
X147571766Y-96471989D01*
X147571766Y-96471989D01*
G37*
D10*
G04 #@! TO.P,U1,4*
G04 #@! TO.N,Net-(J1-Pad4)*
X147016688Y-96426027D03*
D11*
G04 #@! TD*
G04 #@! TO.N,Net-(J1-Pad4)*
G04 #@! TO.C,U1*
G36*
X147218213Y-96825542D02*
X146617173Y-96224502D01*
X146815163Y-96026512D01*
X147416203Y-96627552D01*
X147218213Y-96825542D01*
X147218213Y-96825542D01*
G37*
D10*
G04 #@! TO.P,U1,5*
G04 #@! TO.N,Net-(J1-Pad5)*
X146663134Y-96779581D03*
D11*
G04 #@! TD*
G04 #@! TO.N,Net-(J1-Pad5)*
G04 #@! TO.C,U1*
G36*
X146864659Y-97179096D02*
X146263619Y-96578056D01*
X146461609Y-96380066D01*
X147062649Y-96981106D01*
X146864659Y-97179096D01*
X146864659Y-97179096D01*
G37*
D10*
G04 #@! TO.P,U1,6*
G04 #@! TO.N,Net-(J1-Pad6)*
X146309581Y-97133134D03*
D11*
G04 #@! TD*
G04 #@! TO.N,Net-(J1-Pad6)*
G04 #@! TO.C,U1*
G36*
X146511106Y-97532649D02*
X145910066Y-96931609D01*
X146108056Y-96733619D01*
X146709096Y-97334659D01*
X146511106Y-97532649D01*
X146511106Y-97532649D01*
G37*
D10*
G04 #@! TO.P,U1,7*
G04 #@! TO.N,Net-(J1-Pad7)*
X145956027Y-97486688D03*
D11*
G04 #@! TD*
G04 #@! TO.N,Net-(J1-Pad7)*
G04 #@! TO.C,U1*
G36*
X146157552Y-97886203D02*
X145556512Y-97285163D01*
X145754502Y-97087173D01*
X146355542Y-97688213D01*
X146157552Y-97886203D01*
X146157552Y-97886203D01*
G37*
D10*
G04 #@! TO.P,U1,8*
G04 #@! TO.N,Net-(J1-Pad8)*
X145602474Y-97840241D03*
D11*
G04 #@! TD*
G04 #@! TO.N,Net-(J1-Pad8)*
G04 #@! TO.C,U1*
G36*
X145803999Y-98239756D02*
X145202959Y-97638716D01*
X145400949Y-97440726D01*
X146001989Y-98041766D01*
X145803999Y-98239756D01*
X145803999Y-98239756D01*
G37*
D10*
G04 #@! TO.P,U1,9*
G04 #@! TO.N,Net-(J1-Pad9)*
X145248921Y-98193793D03*
D11*
G04 #@! TD*
G04 #@! TO.N,Net-(J1-Pad9)*
G04 #@! TO.C,U1*
G36*
X145450446Y-98593308D02*
X144849406Y-97992268D01*
X145047396Y-97794278D01*
X145648436Y-98395318D01*
X145450446Y-98593308D01*
X145450446Y-98593308D01*
G37*
D10*
G04 #@! TO.P,U1,10*
G04 #@! TO.N,Net-(J1-Pad10)*
X144895366Y-98547348D03*
D11*
G04 #@! TD*
G04 #@! TO.N,Net-(J1-Pad10)*
G04 #@! TO.C,U1*
G36*
X145096891Y-98946863D02*
X144495851Y-98345823D01*
X144693841Y-98147833D01*
X145294881Y-98748873D01*
X145096891Y-98946863D01*
X145096891Y-98946863D01*
G37*
D10*
G04 #@! TO.P,U1,11*
G04 #@! TO.N,Net-(J1-Pad11)*
X144894966Y-99572251D03*
D11*
G04 #@! TD*
G04 #@! TO.N,Net-(J1-Pad11)*
G04 #@! TO.C,U1*
G36*
X144495451Y-99773776D02*
X145096491Y-99172736D01*
X145294481Y-99370726D01*
X144693441Y-99971766D01*
X144495451Y-99773776D01*
X144495451Y-99773776D01*
G37*
D10*
G04 #@! TO.P,U1,12*
G04 #@! TO.N,Net-(J1-Pad12)*
X145248609Y-99925894D03*
D11*
G04 #@! TD*
G04 #@! TO.N,Net-(J1-Pad12)*
G04 #@! TO.C,U1*
G36*
X144849094Y-100127419D02*
X145450134Y-99526379D01*
X145648124Y-99724369D01*
X145047084Y-100325409D01*
X144849094Y-100127419D01*
X144849094Y-100127419D01*
G37*
D10*
G04 #@! TO.P,U1,13*
G04 #@! TO.N,Net-(J1-Pad13)*
X145602251Y-100279536D03*
D11*
G04 #@! TD*
G04 #@! TO.N,Net-(J1-Pad13)*
G04 #@! TO.C,U1*
G36*
X145202736Y-100481061D02*
X145803776Y-99880021D01*
X146001766Y-100078011D01*
X145400726Y-100679051D01*
X145202736Y-100481061D01*
X145202736Y-100481061D01*
G37*
D10*
G04 #@! TO.P,U1,14*
G04 #@! TO.N,Net-(J1-Pad14)*
X145955894Y-100633179D03*
D11*
G04 #@! TD*
G04 #@! TO.N,Net-(J1-Pad14)*
G04 #@! TO.C,U1*
G36*
X145556379Y-100834704D02*
X146157419Y-100233664D01*
X146355409Y-100431654D01*
X145754369Y-101032694D01*
X145556379Y-100834704D01*
X145556379Y-100834704D01*
G37*
D10*
G04 #@! TO.P,U1,15*
G04 #@! TO.N,Net-(J1-Pad15)*
X146309536Y-100986821D03*
D11*
G04 #@! TD*
G04 #@! TO.N,Net-(J1-Pad15)*
G04 #@! TO.C,U1*
G36*
X145910021Y-101188346D02*
X146511061Y-100587306D01*
X146709051Y-100785296D01*
X146108011Y-101386336D01*
X145910021Y-101188346D01*
X145910021Y-101188346D01*
G37*
D10*
G04 #@! TO.P,U1,16*
G04 #@! TO.N,Net-(J1-Pad16)*
X146663179Y-101340464D03*
D11*
G04 #@! TD*
G04 #@! TO.N,Net-(J1-Pad16)*
G04 #@! TO.C,U1*
G36*
X146263664Y-101541989D02*
X146864704Y-100940949D01*
X147062694Y-101138939D01*
X146461654Y-101739979D01*
X146263664Y-101541989D01*
X146263664Y-101541989D01*
G37*
D10*
G04 #@! TO.P,U1,17*
G04 #@! TO.N,Net-(J1-Pad17)*
X147016821Y-101694106D03*
D11*
G04 #@! TD*
G04 #@! TO.N,Net-(J1-Pad17)*
G04 #@! TO.C,U1*
G36*
X146617306Y-101895631D02*
X147218346Y-101294591D01*
X147416336Y-101492581D01*
X146815296Y-102093621D01*
X146617306Y-101895631D01*
X146617306Y-101895631D01*
G37*
D10*
G04 #@! TO.P,U1,18*
G04 #@! TO.N,Net-(J1-Pad18)*
X147370464Y-102047749D03*
D11*
G04 #@! TD*
G04 #@! TO.N,Net-(J1-Pad18)*
G04 #@! TO.C,U1*
G36*
X146970949Y-102249274D02*
X147571989Y-101648234D01*
X147769979Y-101846224D01*
X147168939Y-102447264D01*
X146970949Y-102249274D01*
X146970949Y-102249274D01*
G37*
D10*
G04 #@! TO.P,U1,19*
G04 #@! TO.N,Net-(J1-Pad19)*
X147724106Y-102401391D03*
D11*
G04 #@! TD*
G04 #@! TO.N,Net-(J1-Pad19)*
G04 #@! TO.C,U1*
G36*
X147324591Y-102602916D02*
X147925631Y-102001876D01*
X148123621Y-102199866D01*
X147522581Y-102800906D01*
X147324591Y-102602916D01*
X147324591Y-102602916D01*
G37*
D10*
G04 #@! TO.P,U1,20*
G04 #@! TO.N,Net-(J1-Pad20)*
X148077749Y-102755034D03*
D11*
G04 #@! TD*
G04 #@! TO.N,Net-(J1-Pad20)*
G04 #@! TO.C,U1*
G36*
X147678234Y-102956559D02*
X148279274Y-102355519D01*
X148477264Y-102553509D01*
X147876224Y-103154549D01*
X147678234Y-102956559D01*
X147678234Y-102956559D01*
G37*
D10*
G04 #@! TO.P,U1,21*
G04 #@! TO.N,Net-(J2-Pad1)*
X149102652Y-102754634D03*
D11*
G04 #@! TD*
G04 #@! TO.N,Net-(J2-Pad1)*
G04 #@! TO.C,U1*
G36*
X149304177Y-103154149D02*
X148703137Y-102553109D01*
X148901127Y-102355119D01*
X149502167Y-102956159D01*
X149304177Y-103154149D01*
X149304177Y-103154149D01*
G37*
D10*
G04 #@! TO.P,U1,22*
G04 #@! TO.N,Net-(J2-Pad2)*
X149456207Y-102401079D03*
D11*
G04 #@! TD*
G04 #@! TO.N,Net-(J2-Pad2)*
G04 #@! TO.C,U1*
G36*
X149657732Y-102800594D02*
X149056692Y-102199554D01*
X149254682Y-102001564D01*
X149855722Y-102602604D01*
X149657732Y-102800594D01*
X149657732Y-102800594D01*
G37*
D10*
G04 #@! TO.P,U1,23*
G04 #@! TO.N,Net-(J2-Pad3)*
X149809759Y-102047526D03*
D11*
G04 #@! TD*
G04 #@! TO.N,Net-(J2-Pad3)*
G04 #@! TO.C,U1*
G36*
X150011284Y-102447041D02*
X149410244Y-101846001D01*
X149608234Y-101648011D01*
X150209274Y-102249051D01*
X150011284Y-102447041D01*
X150011284Y-102447041D01*
G37*
D10*
G04 #@! TO.P,U1,24*
G04 #@! TO.N,Net-(J2-Pad4)*
X150163312Y-101693973D03*
D11*
G04 #@! TD*
G04 #@! TO.N,Net-(J2-Pad4)*
G04 #@! TO.C,U1*
G36*
X150364837Y-102093488D02*
X149763797Y-101492448D01*
X149961787Y-101294458D01*
X150562827Y-101895498D01*
X150364837Y-102093488D01*
X150364837Y-102093488D01*
G37*
D10*
G04 #@! TO.P,U1,25*
G04 #@! TO.N,Net-(J2-Pad5)*
X150516866Y-101340419D03*
D11*
G04 #@! TD*
G04 #@! TO.N,Net-(J2-Pad5)*
G04 #@! TO.C,U1*
G36*
X150718391Y-101739934D02*
X150117351Y-101138894D01*
X150315341Y-100940904D01*
X150916381Y-101541944D01*
X150718391Y-101739934D01*
X150718391Y-101739934D01*
G37*
D10*
G04 #@! TO.P,U1,26*
G04 #@! TO.N,Net-(J2-Pad6)*
X150870419Y-100986866D03*
D11*
G04 #@! TD*
G04 #@! TO.N,Net-(J2-Pad6)*
G04 #@! TO.C,U1*
G36*
X151071944Y-101386381D02*
X150470904Y-100785341D01*
X150668894Y-100587351D01*
X151269934Y-101188391D01*
X151071944Y-101386381D01*
X151071944Y-101386381D01*
G37*
D10*
G04 #@! TO.P,U1,27*
G04 #@! TO.N,Net-(J2-Pad7)*
X151223973Y-100633312D03*
D11*
G04 #@! TD*
G04 #@! TO.N,Net-(J2-Pad7)*
G04 #@! TO.C,U1*
G36*
X151425498Y-101032827D02*
X150824458Y-100431787D01*
X151022448Y-100233797D01*
X151623488Y-100834837D01*
X151425498Y-101032827D01*
X151425498Y-101032827D01*
G37*
D10*
G04 #@! TO.P,U1,28*
G04 #@! TO.N,Net-(J2-Pad8)*
X151577526Y-100279759D03*
D11*
G04 #@! TD*
G04 #@! TO.N,Net-(J2-Pad8)*
G04 #@! TO.C,U1*
G36*
X151779051Y-100679274D02*
X151178011Y-100078234D01*
X151376001Y-99880244D01*
X151977041Y-100481284D01*
X151779051Y-100679274D01*
X151779051Y-100679274D01*
G37*
D10*
G04 #@! TO.P,U1,29*
G04 #@! TO.N,Net-(J2-Pad9)*
X151931079Y-99926207D03*
D11*
G04 #@! TD*
G04 #@! TO.N,Net-(J2-Pad9)*
G04 #@! TO.C,U1*
G36*
X152132604Y-100325722D02*
X151531564Y-99724682D01*
X151729554Y-99526692D01*
X152330594Y-100127732D01*
X152132604Y-100325722D01*
X152132604Y-100325722D01*
G37*
D10*
G04 #@! TO.P,U1,30*
G04 #@! TO.N,Net-(J2-Pad10)*
X152284634Y-99572652D03*
D11*
G04 #@! TD*
G04 #@! TO.N,Net-(J2-Pad10)*
G04 #@! TO.C,U1*
G36*
X152486159Y-99972167D02*
X151885119Y-99371127D01*
X152083109Y-99173137D01*
X152684149Y-99774177D01*
X152486159Y-99972167D01*
X152486159Y-99972167D01*
G37*
D10*
G04 #@! TO.P,U1,31*
G04 #@! TO.N,Net-(J2-Pad11)*
X152285034Y-98547749D03*
D11*
G04 #@! TD*
G04 #@! TO.N,Net-(J2-Pad11)*
G04 #@! TO.C,U1*
G36*
X151885519Y-98749274D02*
X152486559Y-98148234D01*
X152684549Y-98346224D01*
X152083509Y-98947264D01*
X151885519Y-98749274D01*
X151885519Y-98749274D01*
G37*
D10*
G04 #@! TO.P,U1,32*
G04 #@! TO.N,Net-(J2-Pad12)*
X151931391Y-98194106D03*
D11*
G04 #@! TD*
G04 #@! TO.N,Net-(J2-Pad12)*
G04 #@! TO.C,U1*
G36*
X151531876Y-98395631D02*
X152132916Y-97794591D01*
X152330906Y-97992581D01*
X151729866Y-98593621D01*
X151531876Y-98395631D01*
X151531876Y-98395631D01*
G37*
D10*
G04 #@! TO.P,U1,33*
G04 #@! TO.N,Net-(J2-Pad13)*
X151577749Y-97840464D03*
D11*
G04 #@! TD*
G04 #@! TO.N,Net-(J2-Pad13)*
G04 #@! TO.C,U1*
G36*
X151178234Y-98041989D02*
X151779274Y-97440949D01*
X151977264Y-97638939D01*
X151376224Y-98239979D01*
X151178234Y-98041989D01*
X151178234Y-98041989D01*
G37*
D10*
G04 #@! TO.P,U1,34*
G04 #@! TO.N,Net-(J2-Pad14)*
X151224106Y-97486821D03*
D11*
G04 #@! TD*
G04 #@! TO.N,Net-(J2-Pad14)*
G04 #@! TO.C,U1*
G36*
X150824591Y-97688346D02*
X151425631Y-97087306D01*
X151623621Y-97285296D01*
X151022581Y-97886336D01*
X150824591Y-97688346D01*
X150824591Y-97688346D01*
G37*
D10*
G04 #@! TO.P,U1,35*
G04 #@! TO.N,Net-(J2-Pad15)*
X150870464Y-97133179D03*
D11*
G04 #@! TD*
G04 #@! TO.N,Net-(J2-Pad15)*
G04 #@! TO.C,U1*
G36*
X150470949Y-97334704D02*
X151071989Y-96733664D01*
X151269979Y-96931654D01*
X150668939Y-97532694D01*
X150470949Y-97334704D01*
X150470949Y-97334704D01*
G37*
D10*
G04 #@! TO.P,U1,36*
G04 #@! TO.N,Net-(J2-Pad16)*
X150516821Y-96779536D03*
D11*
G04 #@! TD*
G04 #@! TO.N,Net-(J2-Pad16)*
G04 #@! TO.C,U1*
G36*
X150117306Y-96981061D02*
X150718346Y-96380021D01*
X150916336Y-96578011D01*
X150315296Y-97179051D01*
X150117306Y-96981061D01*
X150117306Y-96981061D01*
G37*
D10*
G04 #@! TO.P,U1,37*
G04 #@! TO.N,Net-(J2-Pad17)*
X150163179Y-96425894D03*
D11*
G04 #@! TD*
G04 #@! TO.N,Net-(J2-Pad17)*
G04 #@! TO.C,U1*
G36*
X149763664Y-96627419D02*
X150364704Y-96026379D01*
X150562694Y-96224369D01*
X149961654Y-96825409D01*
X149763664Y-96627419D01*
X149763664Y-96627419D01*
G37*
D10*
G04 #@! TO.P,U1,38*
G04 #@! TO.N,Net-(J2-Pad18)*
X149809536Y-96072251D03*
D11*
G04 #@! TD*
G04 #@! TO.N,Net-(J2-Pad18)*
G04 #@! TO.C,U1*
G36*
X149410021Y-96273776D02*
X150011061Y-95672736D01*
X150209051Y-95870726D01*
X149608011Y-96471766D01*
X149410021Y-96273776D01*
X149410021Y-96273776D01*
G37*
D10*
G04 #@! TO.P,U1,39*
G04 #@! TO.N,Net-(J2-Pad19)*
X149455894Y-95718609D03*
D11*
G04 #@! TD*
G04 #@! TO.N,Net-(J2-Pad19)*
G04 #@! TO.C,U1*
G36*
X149056379Y-95920134D02*
X149657419Y-95319094D01*
X149855409Y-95517084D01*
X149254369Y-96118124D01*
X149056379Y-95920134D01*
X149056379Y-95920134D01*
G37*
D10*
G04 #@! TO.P,U1,40*
G04 #@! TO.N,Net-(J2-Pad20)*
X149102251Y-95364966D03*
D11*
G04 #@! TD*
G04 #@! TO.N,Net-(J2-Pad20)*
G04 #@! TO.C,U1*
G36*
X148702736Y-95566491D02*
X149303776Y-94965451D01*
X149501766Y-95163441D01*
X148900726Y-95764481D01*
X148702736Y-95566491D01*
X148702736Y-95566491D01*
G37*
D12*
G04 #@! TO.P,U1,41*
G04 #@! TO.N,Net-(J2-Pad21)*
X148590000Y-99060000D03*
D11*
G04 #@! TD*
G04 #@! TO.N,Net-(J2-Pad21)*
G04 #@! TO.C,U1*
G36*
X146419182Y-98741802D02*
X148271802Y-96889182D01*
X150760818Y-99378198D01*
X148908198Y-101230818D01*
X146419182Y-98741802D01*
X146419182Y-98741802D01*
G37*
D13*
G04 #@! TO.P,J1,1*
G04 #@! TO.N,Net-(J1-Pad1)*
X139700000Y-76200000D03*
D14*
G04 #@! TO.P,J1,2*
G04 #@! TO.N,Net-(J1-Pad2)*
X139700000Y-78740000D03*
G04 #@! TO.P,J1,3*
G04 #@! TO.N,Net-(J1-Pad3)*
X139700000Y-81280000D03*
G04 #@! TO.P,J1,4*
G04 #@! TO.N,Net-(J1-Pad4)*
X139700000Y-83820000D03*
G04 #@! TO.P,J1,5*
G04 #@! TO.N,Net-(J1-Pad5)*
X139700000Y-86360000D03*
G04 #@! TO.P,J1,6*
G04 #@! TO.N,Net-(J1-Pad6)*
X139700000Y-88900000D03*
G04 #@! TO.P,J1,7*
G04 #@! TO.N,Net-(J1-Pad7)*
X139700000Y-91440000D03*
G04 #@! TO.P,J1,8*
G04 #@! TO.N,Net-(J1-Pad8)*
X139700000Y-93980000D03*
G04 #@! TO.P,J1,9*
G04 #@! TO.N,Net-(J1-Pad9)*
X139700000Y-96520000D03*
G04 #@! TO.P,J1,10*
G04 #@! TO.N,Net-(J1-Pad10)*
X139700000Y-99060000D03*
G04 #@! TO.P,J1,11*
G04 #@! TO.N,Net-(J1-Pad11)*
X139700000Y-101600000D03*
G04 #@! TO.P,J1,12*
G04 #@! TO.N,Net-(J1-Pad12)*
X139700000Y-104140000D03*
G04 #@! TO.P,J1,13*
G04 #@! TO.N,Net-(J1-Pad13)*
X139700000Y-106680000D03*
G04 #@! TO.P,J1,14*
G04 #@! TO.N,Net-(J1-Pad14)*
X139700000Y-109220000D03*
G04 #@! TO.P,J1,15*
G04 #@! TO.N,Net-(J1-Pad15)*
X139700000Y-111760000D03*
G04 #@! TO.P,J1,16*
G04 #@! TO.N,Net-(J1-Pad16)*
X139700000Y-114300000D03*
G04 #@! TO.P,J1,17*
G04 #@! TO.N,Net-(J1-Pad17)*
X139700000Y-116840000D03*
G04 #@! TO.P,J1,18*
G04 #@! TO.N,Net-(J1-Pad18)*
X139700000Y-119380000D03*
G04 #@! TO.P,J1,19*
G04 #@! TO.N,Net-(J1-Pad19)*
X139700000Y-121920000D03*
G04 #@! TO.P,J1,20*
G04 #@! TO.N,Net-(J1-Pad20)*
X139700000Y-124460000D03*
G04 #@! TD*
G04 #@! TO.P,J2,21*
G04 #@! TO.N,Net-(J2-Pad21)*
X157480000Y-73660000D03*
G04 #@! TO.P,J2,20*
G04 #@! TO.N,Net-(J2-Pad20)*
X157480000Y-76200000D03*
G04 #@! TO.P,J2,19*
G04 #@! TO.N,Net-(J2-Pad19)*
X157480000Y-78740000D03*
G04 #@! TO.P,J2,18*
G04 #@! TO.N,Net-(J2-Pad18)*
X157480000Y-81280000D03*
G04 #@! TO.P,J2,17*
G04 #@! TO.N,Net-(J2-Pad17)*
X157480000Y-83820000D03*
G04 #@! TO.P,J2,16*
G04 #@! TO.N,Net-(J2-Pad16)*
X157480000Y-86360000D03*
G04 #@! TO.P,J2,15*
G04 #@! TO.N,Net-(J2-Pad15)*
X157480000Y-88900000D03*
G04 #@! TO.P,J2,14*
G04 #@! TO.N,Net-(J2-Pad14)*
X157480000Y-91440000D03*
G04 #@! TO.P,J2,13*
G04 #@! TO.N,Net-(J2-Pad13)*
X157480000Y-93980000D03*
G04 #@! TO.P,J2,12*
G04 #@! TO.N,Net-(J2-Pad12)*
X157480000Y-96520000D03*
G04 #@! TO.P,J2,11*
G04 #@! TO.N,Net-(J2-Pad11)*
X157480000Y-99060000D03*
G04 #@! TO.P,J2,10*
G04 #@! TO.N,Net-(J2-Pad10)*
X157480000Y-101600000D03*
G04 #@! TO.P,J2,9*
G04 #@! TO.N,Net-(J2-Pad9)*
X157480000Y-104140000D03*
G04 #@! TO.P,J2,8*
G04 #@! TO.N,Net-(J2-Pad8)*
X157480000Y-106680000D03*
G04 #@! TO.P,J2,7*
G04 #@! TO.N,Net-(J2-Pad7)*
X157480000Y-109220000D03*
G04 #@! TO.P,J2,6*
G04 #@! TO.N,Net-(J2-Pad6)*
X157480000Y-111760000D03*
G04 #@! TO.P,J2,5*
G04 #@! TO.N,Net-(J2-Pad5)*
X157480000Y-114300000D03*
G04 #@! TO.P,J2,4*
G04 #@! TO.N,Net-(J2-Pad4)*
X157480000Y-116840000D03*
G04 #@! TO.P,J2,3*
G04 #@! TO.N,Net-(J2-Pad3)*
X157480000Y-119380000D03*
G04 #@! TO.P,J2,2*
G04 #@! TO.N,Net-(J2-Pad2)*
X157480000Y-121920000D03*
D13*
G04 #@! TO.P,J2,1*
G04 #@! TO.N,Net-(J2-Pad1)*
X157480000Y-124460000D03*
G04 #@! TD*
D15*
G04 #@! TO.N,Net-(J2-Pad21)*
X148590000Y-96393000D03*
X148463000Y-92837000D03*
G04 #@! TD*
D16*
G04 #@! TO.N,Net-(J1-Pad1)*
X142811500Y-76200000D02*
X139700000Y-76200000D01*
X147129500Y-80518000D02*
X142811500Y-76200000D01*
X147129500Y-94424500D02*
X147129500Y-80518000D01*
X147699136Y-94994136D02*
X147129500Y-94424500D01*
X148077348Y-95365366D02*
X147706118Y-94994136D01*
X147706118Y-94994136D02*
X147699136Y-94994136D01*
G04 #@! TO.N,Net-(J1-Pad2)*
X147352563Y-95347691D02*
X147352563Y-95346063D01*
X147723793Y-95718921D02*
X147352563Y-95347691D01*
X147352563Y-95346063D02*
X146812000Y-94805500D01*
X146812000Y-94805500D02*
X146812000Y-82804000D01*
X142748000Y-78740000D02*
X139700000Y-78740000D01*
X146812000Y-82804000D02*
X142748000Y-78740000D01*
G04 #@! TO.N,Net-(J1-Pad3)*
X143256000Y-81280000D02*
X139700000Y-81280000D01*
X146431000Y-84455000D02*
X143256000Y-81280000D01*
X146431000Y-95123000D02*
X146431000Y-84455000D01*
X146999011Y-95691011D02*
X146431000Y-95123000D01*
X147370241Y-96072474D02*
X146999011Y-95701244D01*
X146999011Y-95701244D02*
X146999011Y-95691011D01*
G04 #@! TO.N,Net-(J1-Pad4)*
X143827500Y-83820000D02*
X139700000Y-83820000D01*
X146113500Y-86106000D02*
X143827500Y-83820000D01*
X146113500Y-95504000D02*
X146113500Y-86106000D01*
X147066000Y-96456500D02*
X146113500Y-95504000D01*
X147016688Y-96426027D02*
X147066000Y-96475339D01*
X147066000Y-96475339D02*
X147066000Y-96456500D01*
G04 #@! TO.N,Net-(J1-Pad5)*
X143510000Y-86360000D02*
X139700000Y-86360000D01*
X145796000Y-88646000D02*
X143510000Y-86360000D01*
X146663134Y-96779581D02*
X145796000Y-95912447D01*
X145796000Y-95912447D02*
X145796000Y-88646000D01*
G04 #@! TO.N,Net-(J1-Pad6)*
X143256000Y-88900000D02*
X139700000Y-88900000D01*
X145478500Y-91122500D02*
X143256000Y-88900000D01*
X145478500Y-96329500D02*
X145478500Y-91122500D01*
X146304000Y-97155000D02*
X145478500Y-96329500D01*
X146309581Y-97133134D02*
X146304000Y-97138715D01*
X146304000Y-97138715D02*
X146304000Y-97155000D01*
G04 #@! TO.N,Net-(J1-Pad7)*
X143383000Y-91440000D02*
X139700000Y-91440000D01*
X145161000Y-93218000D02*
X143383000Y-91440000D01*
X145956027Y-97486688D02*
X145161000Y-96691661D01*
X145161000Y-96691661D02*
X145161000Y-93218000D01*
G04 #@! TO.N,Net-(J1-Pad8)*
X144640309Y-94742743D02*
X143877566Y-93980000D01*
X140902081Y-93980000D02*
X139700000Y-93980000D01*
X144640309Y-96888309D02*
X144640309Y-94742743D01*
X145221011Y-97469011D02*
X144640309Y-96888309D01*
X145231244Y-97469011D02*
X145221011Y-97469011D01*
X145602474Y-97840241D02*
X145231244Y-97469011D01*
X143877566Y-93980000D02*
X140902081Y-93980000D01*
G04 #@! TO.N,Net-(J1-Pad9)*
X144877691Y-97822563D02*
X144876063Y-97822563D01*
X145248921Y-98193793D02*
X144877691Y-97822563D01*
X144876063Y-97822563D02*
X143573500Y-96520000D01*
X143573500Y-96520000D02*
X139700000Y-96520000D01*
G04 #@! TO.N,Net-(J1-Pad10)*
X144524136Y-98176118D02*
X144524136Y-98169136D01*
X144895366Y-98547348D02*
X144524136Y-98176118D01*
X144524136Y-98169136D02*
X143954500Y-97599500D01*
X141160500Y-97599500D02*
X139700000Y-99060000D01*
X143954500Y-97599500D02*
X141160500Y-97599500D01*
G04 #@! TO.N,Net-(J1-Pad11)*
X144523736Y-99943481D02*
X144523736Y-99951264D01*
X144894966Y-99572251D02*
X144523736Y-99943481D01*
X142875000Y-101600000D02*
X139700000Y-101600000D01*
X144523736Y-99951264D02*
X142875000Y-101600000D01*
G04 #@! TO.N,Net-(J1-Pad12)*
X145248609Y-100111882D02*
X144974126Y-100386365D01*
X142875000Y-104140000D02*
X139700000Y-104140000D01*
X145248609Y-99925894D02*
X145248609Y-100111882D01*
X144974126Y-100386365D02*
X144974126Y-100389874D01*
X144974126Y-100389874D02*
X144018000Y-101346000D01*
X144018000Y-101346000D02*
X144018000Y-102997000D01*
X144018000Y-102997000D02*
X142875000Y-104140000D01*
G04 #@! TO.N,Net-(J1-Pad13)*
X142875000Y-106680000D02*
X139700000Y-106680000D01*
X144399000Y-105156000D02*
X142875000Y-106680000D01*
X144399000Y-101473000D02*
X144399000Y-105156000D01*
X145034000Y-100838000D02*
X144399000Y-101473000D01*
X145602251Y-100279536D02*
X145043787Y-100838000D01*
X145043787Y-100838000D02*
X145034000Y-100838000D01*
G04 #@! TO.N,Net-(J1-Pad14)*
X142875000Y-109220000D02*
X139700000Y-109220000D01*
X144780000Y-107315000D02*
X142875000Y-109220000D01*
X145955894Y-100633179D02*
X144780000Y-101809073D01*
X144780000Y-101809073D02*
X144780000Y-107315000D01*
G04 #@! TO.N,Net-(J1-Pad15)*
X143637000Y-111760000D02*
X139700000Y-111760000D01*
X145161000Y-110236000D02*
X143637000Y-111760000D01*
X145161000Y-102108000D02*
X145161000Y-110236000D01*
X146309536Y-100986821D02*
X146282179Y-100986821D01*
X146282179Y-100986821D02*
X145161000Y-102108000D01*
G04 #@! TO.N,Net-(J1-Pad16)*
X142875000Y-114300000D02*
X139700000Y-114300000D01*
X145542000Y-111633000D02*
X142875000Y-114300000D01*
X146663179Y-101340464D02*
X145542000Y-102461643D01*
X145542000Y-102461643D02*
X145542000Y-111633000D01*
G04 #@! TO.N,Net-(J1-Pad17)*
X143256000Y-116840000D02*
X139700000Y-116840000D01*
X145923000Y-114173000D02*
X143256000Y-116840000D01*
X147016821Y-101694106D02*
X145923000Y-102787927D01*
X145923000Y-102787927D02*
X145923000Y-114173000D01*
G04 #@! TO.N,Net-(J1-Pad18)*
X146999234Y-102418979D02*
X146999234Y-102428766D01*
X147370464Y-102047749D02*
X146999234Y-102418979D01*
X146999234Y-102428766D02*
X146304000Y-103124000D01*
X146304000Y-103124000D02*
X146304000Y-116459000D01*
X143383000Y-119380000D02*
X139700000Y-119380000D01*
X146304000Y-116459000D02*
X143383000Y-119380000D01*
G04 #@! TO.N,Net-(J1-Pad19)*
X143637000Y-121920000D02*
X139700000Y-121920000D01*
X146685000Y-118872000D02*
X143637000Y-121920000D01*
X147724106Y-102401391D02*
X146685000Y-103440497D01*
X146685000Y-103440497D02*
X146685000Y-118872000D01*
G04 #@! TO.N,Net-(J1-Pad20)*
X143891000Y-124460000D02*
X139700000Y-124460000D01*
X147066000Y-121285000D02*
X143891000Y-124460000D01*
X148077749Y-102755034D02*
X147066000Y-103766783D01*
X147066000Y-103766783D02*
X147066000Y-121285000D01*
G04 #@! TO.N,Net-(J2-Pad1)*
X149473882Y-103125864D02*
X149480864Y-103125864D01*
X149102652Y-102754634D02*
X149473882Y-103125864D01*
X149480864Y-103125864D02*
X149987000Y-103632000D01*
X149987000Y-103632000D02*
X149987000Y-121412000D01*
X153035000Y-124460000D02*
X157480000Y-124460000D01*
X149987000Y-121412000D02*
X153035000Y-124460000D01*
G04 #@! TO.N,Net-(J2-Pad2)*
X153416000Y-121920000D02*
X157480000Y-121920000D01*
X150368000Y-118872000D02*
X153416000Y-121920000D01*
X150368000Y-103378000D02*
X150368000Y-118872000D01*
X149456207Y-102401079D02*
X149391079Y-102401079D01*
X149391079Y-102401079D02*
X150368000Y-103378000D01*
G04 #@! TO.N,Net-(J2-Pad3)*
X150180989Y-102418756D02*
X150180989Y-102428989D01*
X149809759Y-102047526D02*
X150180989Y-102418756D01*
X150180989Y-102428989D02*
X150749000Y-102997000D01*
X150749000Y-102997000D02*
X150749000Y-116459000D01*
X153670000Y-119380000D02*
X157480000Y-119380000D01*
X150749000Y-116459000D02*
X153670000Y-119380000D01*
G04 #@! TO.N,Net-(J2-Pad4)*
X153797000Y-116840000D02*
X157480000Y-116840000D01*
X151130000Y-114173000D02*
X153797000Y-116840000D01*
X151130000Y-102743000D02*
X151130000Y-114173000D01*
X150114000Y-101727000D02*
X151130000Y-102743000D01*
X150163312Y-101693973D02*
X150114000Y-101644661D01*
X150114000Y-101644661D02*
X150114000Y-101727000D01*
G04 #@! TO.N,Net-(J2-Pad5)*
X154305000Y-114300000D02*
X157480000Y-114300000D01*
X151638000Y-111633000D02*
X154305000Y-114300000D01*
X150516866Y-101340419D02*
X151638000Y-102461553D01*
X151638000Y-102461553D02*
X151638000Y-111633000D01*
G04 #@! TO.N,Net-(J2-Pad6)*
X153543000Y-111760000D02*
X157480000Y-111760000D01*
X152146000Y-110363000D02*
X153543000Y-111760000D01*
X150870419Y-100986866D02*
X152146000Y-102262447D01*
X152146000Y-102262447D02*
X152146000Y-110363000D01*
G04 #@! TO.N,Net-(J2-Pad7)*
X154432000Y-109220000D02*
X157480000Y-109220000D01*
X152527000Y-107315000D02*
X154432000Y-109220000D01*
X152527000Y-101981000D02*
X152527000Y-107315000D01*
X151130000Y-100584000D02*
X152527000Y-101981000D01*
X151223973Y-100633312D02*
X151174661Y-100584000D01*
X151174661Y-100584000D02*
X151130000Y-100584000D01*
G04 #@! TO.N,Net-(J2-Pad8)*
X151948756Y-100650989D02*
X151958989Y-100650989D01*
X151577526Y-100279759D02*
X151948756Y-100650989D01*
X154559000Y-106680000D02*
X157480000Y-106680000D01*
X153035000Y-105156000D02*
X154559000Y-106680000D01*
X151577526Y-100279759D02*
X153035000Y-101737233D01*
X153035000Y-101737233D02*
X153035000Y-105156000D01*
G04 #@! TO.N,Net-(J2-Pad9)*
X154559000Y-104140000D02*
X157480000Y-104140000D01*
X153416000Y-102997000D02*
X154559000Y-104140000D01*
X151931079Y-99926207D02*
X153416000Y-101411128D01*
X153416000Y-101411128D02*
X153416000Y-102997000D01*
G04 #@! TO.N,Net-(J2-Pad10)*
X152655864Y-99943882D02*
X152655864Y-99950864D01*
X152284634Y-99572652D02*
X152655864Y-99943882D01*
X154305000Y-101600000D02*
X157480000Y-101600000D01*
X152655864Y-99950864D02*
X154305000Y-101600000D01*
G04 #@! TO.N,Net-(J2-Pad11)*
X155956000Y-97536000D02*
X157480000Y-99060000D01*
X153289000Y-97536000D02*
X155956000Y-97536000D01*
X152285034Y-98547749D02*
X153289000Y-97543783D01*
X153289000Y-97543783D02*
X153289000Y-97536000D01*
G04 #@! TO.N,Net-(J2-Pad12)*
X153543000Y-96520000D02*
X157480000Y-96520000D01*
X151892000Y-98171000D02*
X153543000Y-96520000D01*
X151931391Y-98194106D02*
X151892000Y-98233497D01*
X151892000Y-98233497D02*
X151892000Y-98171000D01*
G04 #@! TO.N,Net-(J2-Pad13)*
X153924000Y-93980000D02*
X157480000Y-93980000D01*
X153162000Y-94742000D02*
X153924000Y-93980000D01*
X153162000Y-96266000D02*
X153162000Y-94742000D01*
X151577749Y-97840464D02*
X151577749Y-97850251D01*
X151577749Y-97850251D02*
X153162000Y-96266000D01*
G04 #@! TO.N,Net-(J2-Pad14)*
X154178000Y-91440000D02*
X157480000Y-91440000D01*
X152400000Y-93218000D02*
X154178000Y-91440000D01*
X152400000Y-96266000D02*
X152400000Y-93218000D01*
X151224106Y-97486821D02*
X151179179Y-97486821D01*
X151179179Y-97486821D02*
X152400000Y-96266000D01*
G04 #@! TO.N,Net-(J2-Pad15)*
X154178000Y-88900000D02*
X157480000Y-88900000D01*
X152019000Y-91059000D02*
X154178000Y-88900000D01*
X152019000Y-95885000D02*
X152019000Y-91059000D01*
X150870464Y-97133179D02*
X150770821Y-97133179D01*
X150770821Y-97133179D02*
X152019000Y-95885000D01*
G04 #@! TO.N,Net-(J2-Pad16)*
X153924000Y-86360000D02*
X157480000Y-86360000D01*
X151638000Y-88646000D02*
X153924000Y-86360000D01*
X151638000Y-95631000D02*
X151638000Y-88646000D01*
X150495000Y-96774000D02*
X151638000Y-95631000D01*
X150516821Y-96779536D02*
X150500536Y-96779536D01*
X150500536Y-96779536D02*
X150495000Y-96774000D01*
G04 #@! TO.N,Net-(J2-Pad17)*
X153543000Y-83820000D02*
X157480000Y-83820000D01*
X151257000Y-86106000D02*
X153543000Y-83820000D01*
X150163179Y-96425894D02*
X151257000Y-95332073D01*
X151257000Y-95332073D02*
X151257000Y-86106000D01*
G04 #@! TO.N,Net-(J2-Pad18)*
X154051000Y-81280000D02*
X157480000Y-81280000D01*
X150876000Y-84455000D02*
X154051000Y-81280000D01*
X149809536Y-96072251D02*
X150876000Y-95005787D01*
X150876000Y-95005787D02*
X150876000Y-84455000D01*
G04 #@! TO.N,Net-(J2-Pad19)*
X154559000Y-78740000D02*
X157480000Y-78740000D01*
X150495000Y-82804000D02*
X154559000Y-78740000D01*
X150495000Y-94615000D02*
X150495000Y-82804000D01*
X149606000Y-95504000D02*
X150495000Y-94615000D01*
X149455894Y-95718609D02*
X149606000Y-95568503D01*
X149606000Y-95568503D02*
X149606000Y-95504000D01*
G04 #@! TO.N,Net-(J2-Pad20)*
X154432000Y-76200000D02*
X157480000Y-76200000D01*
X150114000Y-80518000D02*
X154432000Y-76200000D01*
X150114000Y-94361000D02*
X150114000Y-80518000D01*
X149102251Y-95364966D02*
X149102251Y-95372749D01*
X149102251Y-95372749D02*
X150114000Y-94361000D01*
G04 #@! TO.N,Net-(J2-Pad21)*
X149587020Y-97390020D02*
X148590000Y-96393000D01*
X148590000Y-99060000D02*
X149587020Y-98062980D01*
X149587020Y-98062980D02*
X149587020Y-97390020D01*
X148463000Y-92837000D02*
X148463000Y-77216000D01*
X152019000Y-73660000D02*
X157480000Y-73660000D01*
X148463000Y-77216000D02*
X152019000Y-73660000D01*
G04 #@! TD*
M02*
