G04 #@! TF.GenerationSoftware,KiCad,Pcbnew,(5.1.5)-3*
G04 #@! TF.CreationDate,2021-02-10T11:03:33-05:00*
G04 #@! TF.ProjectId,PCB,5043422e-6b69-4636-9164-5f7063625858,rev?*
G04 #@! TF.SameCoordinates,Original*
G04 #@! TF.FileFunction,Soldermask,Top*
G04 #@! TF.FilePolarity,Negative*
%FSLAX46Y46*%
G04 Gerber Fmt 4.6, Leading zero omitted, Abs format (unit mm)*
G04 Created by KiCad (PCBNEW (5.1.5)-3) date 2021-02-10 11:03:33*
%MOMM*%
%LPD*%
G04 APERTURE LIST*
%ADD10C,0.100000*%
G04 APERTURE END LIST*
D10*
G36*
X125241732Y-127380739D02*
G01*
X125357754Y-127403817D01*
X125521689Y-127471721D01*
X125669227Y-127570303D01*
X125794697Y-127695773D01*
X125893279Y-127843311D01*
X125961183Y-128007246D01*
X125995800Y-128181279D01*
X125995800Y-128358721D01*
X125961183Y-128532754D01*
X125893279Y-128696689D01*
X125794697Y-128844227D01*
X125669227Y-128969697D01*
X125521689Y-129068279D01*
X125357754Y-129136183D01*
X125241732Y-129159261D01*
X125183722Y-129170800D01*
X125006278Y-129170800D01*
X124948268Y-129159261D01*
X124832246Y-129136183D01*
X124668311Y-129068279D01*
X124520773Y-128969697D01*
X124395303Y-128844227D01*
X124296721Y-128696689D01*
X124228817Y-128532754D01*
X124194200Y-128358721D01*
X124194200Y-128181279D01*
X124228817Y-128007246D01*
X124296721Y-127843311D01*
X124395303Y-127695773D01*
X124520773Y-127570303D01*
X124668311Y-127471721D01*
X124832246Y-127403817D01*
X124948268Y-127380739D01*
X125006278Y-127369200D01*
X125183722Y-127369200D01*
X125241732Y-127380739D01*
G37*
G36*
X122701732Y-127380739D02*
G01*
X122817754Y-127403817D01*
X122981689Y-127471721D01*
X123129227Y-127570303D01*
X123254697Y-127695773D01*
X123353279Y-127843311D01*
X123421183Y-128007246D01*
X123455800Y-128181279D01*
X123455800Y-128358721D01*
X123421183Y-128532754D01*
X123353279Y-128696689D01*
X123254697Y-128844227D01*
X123129227Y-128969697D01*
X122981689Y-129068279D01*
X122817754Y-129136183D01*
X122701732Y-129159261D01*
X122643722Y-129170800D01*
X122466278Y-129170800D01*
X122408268Y-129159261D01*
X122292246Y-129136183D01*
X122128311Y-129068279D01*
X121980773Y-128969697D01*
X121855303Y-128844227D01*
X121756721Y-128696689D01*
X121688817Y-128532754D01*
X121654200Y-128358721D01*
X121654200Y-128181279D01*
X121688817Y-128007246D01*
X121756721Y-127843311D01*
X121855303Y-127695773D01*
X121980773Y-127570303D01*
X122128311Y-127471721D01*
X122292246Y-127403817D01*
X122408268Y-127380739D01*
X122466278Y-127369200D01*
X122643722Y-127369200D01*
X122701732Y-127380739D01*
G37*
G36*
X120915800Y-129170800D02*
G01*
X119114200Y-129170800D01*
X119114200Y-127369200D01*
X120915800Y-127369200D01*
X120915800Y-129170800D01*
G37*
G36*
X147430085Y-116693435D02*
G01*
X147578004Y-116754705D01*
X147578005Y-116754706D01*
X147711130Y-116843657D01*
X147824343Y-116956870D01*
X147824344Y-116956872D01*
X147913295Y-117089996D01*
X147974565Y-117237915D01*
X148005800Y-117394945D01*
X148005800Y-117555055D01*
X147974565Y-117712085D01*
X147913295Y-117860004D01*
X147913294Y-117860005D01*
X147824343Y-117993130D01*
X147711130Y-118106343D01*
X147644115Y-118151121D01*
X147578004Y-118195295D01*
X147430085Y-118256565D01*
X147273055Y-118287800D01*
X147112945Y-118287800D01*
X146955915Y-118256565D01*
X146807996Y-118195295D01*
X146741885Y-118151121D01*
X146674870Y-118106343D01*
X146561657Y-117993130D01*
X146472706Y-117860005D01*
X146472705Y-117860004D01*
X146411435Y-117712085D01*
X146380200Y-117555055D01*
X146380200Y-117394945D01*
X146411435Y-117237915D01*
X146472705Y-117089996D01*
X146561656Y-116956872D01*
X146561657Y-116956870D01*
X146674870Y-116843657D01*
X146807995Y-116754706D01*
X146807996Y-116754705D01*
X146955915Y-116693435D01*
X147112945Y-116662200D01*
X147273055Y-116662200D01*
X147430085Y-116693435D01*
G37*
G36*
X139810085Y-116693435D02*
G01*
X139958004Y-116754705D01*
X139958005Y-116754706D01*
X140091130Y-116843657D01*
X140204343Y-116956870D01*
X140204344Y-116956872D01*
X140293295Y-117089996D01*
X140354565Y-117237915D01*
X140385800Y-117394945D01*
X140385800Y-117555055D01*
X140354565Y-117712085D01*
X140293295Y-117860004D01*
X140293294Y-117860005D01*
X140204343Y-117993130D01*
X140091130Y-118106343D01*
X140024115Y-118151121D01*
X139958004Y-118195295D01*
X139810085Y-118256565D01*
X139653055Y-118287800D01*
X139492945Y-118287800D01*
X139335915Y-118256565D01*
X139187996Y-118195295D01*
X139121885Y-118151121D01*
X139054870Y-118106343D01*
X138941657Y-117993130D01*
X138852706Y-117860005D01*
X138852705Y-117860004D01*
X138791435Y-117712085D01*
X138760200Y-117555055D01*
X138760200Y-117394945D01*
X138791435Y-117237915D01*
X138852705Y-117089996D01*
X138941656Y-116956872D01*
X138941657Y-116956870D01*
X139054870Y-116843657D01*
X139187995Y-116754706D01*
X139187996Y-116754705D01*
X139335915Y-116693435D01*
X139492945Y-116662200D01*
X139653055Y-116662200D01*
X139810085Y-116693435D01*
G37*
G36*
X139810085Y-114153435D02*
G01*
X139958004Y-114214705D01*
X139958005Y-114214706D01*
X140091130Y-114303657D01*
X140204343Y-114416870D01*
X140204344Y-114416872D01*
X140293295Y-114549996D01*
X140354565Y-114697915D01*
X140385800Y-114854945D01*
X140385800Y-115015055D01*
X140354565Y-115172085D01*
X140293295Y-115320004D01*
X140293294Y-115320005D01*
X140204343Y-115453130D01*
X140091130Y-115566343D01*
X140024115Y-115611121D01*
X139958004Y-115655295D01*
X139810085Y-115716565D01*
X139653055Y-115747800D01*
X139492945Y-115747800D01*
X139335915Y-115716565D01*
X139187996Y-115655295D01*
X139121885Y-115611121D01*
X139054870Y-115566343D01*
X138941657Y-115453130D01*
X138852706Y-115320005D01*
X138852705Y-115320004D01*
X138791435Y-115172085D01*
X138760200Y-115015055D01*
X138760200Y-114854945D01*
X138791435Y-114697915D01*
X138852705Y-114549996D01*
X138941656Y-114416872D01*
X138941657Y-114416870D01*
X139054870Y-114303657D01*
X139187995Y-114214706D01*
X139187996Y-114214705D01*
X139335915Y-114153435D01*
X139492945Y-114122200D01*
X139653055Y-114122200D01*
X139810085Y-114153435D01*
G37*
G36*
X147430085Y-114153435D02*
G01*
X147578004Y-114214705D01*
X147578005Y-114214706D01*
X147711130Y-114303657D01*
X147824343Y-114416870D01*
X147824344Y-114416872D01*
X147913295Y-114549996D01*
X147974565Y-114697915D01*
X148005800Y-114854945D01*
X148005800Y-115015055D01*
X147974565Y-115172085D01*
X147913295Y-115320004D01*
X147913294Y-115320005D01*
X147824343Y-115453130D01*
X147711130Y-115566343D01*
X147644115Y-115611121D01*
X147578004Y-115655295D01*
X147430085Y-115716565D01*
X147273055Y-115747800D01*
X147112945Y-115747800D01*
X146955915Y-115716565D01*
X146807996Y-115655295D01*
X146741885Y-115611121D01*
X146674870Y-115566343D01*
X146561657Y-115453130D01*
X146472706Y-115320005D01*
X146472705Y-115320004D01*
X146411435Y-115172085D01*
X146380200Y-115015055D01*
X146380200Y-114854945D01*
X146411435Y-114697915D01*
X146472705Y-114549996D01*
X146561656Y-114416872D01*
X146561657Y-114416870D01*
X146674870Y-114303657D01*
X146807995Y-114214706D01*
X146807996Y-114214705D01*
X146955915Y-114153435D01*
X147112945Y-114122200D01*
X147273055Y-114122200D01*
X147430085Y-114153435D01*
G37*
G36*
X139810085Y-111613435D02*
G01*
X139958004Y-111674705D01*
X139958005Y-111674706D01*
X140091130Y-111763657D01*
X140204343Y-111876870D01*
X140204344Y-111876872D01*
X140293295Y-112009996D01*
X140354565Y-112157915D01*
X140385800Y-112314945D01*
X140385800Y-112475055D01*
X140354565Y-112632085D01*
X140293295Y-112780004D01*
X140293294Y-112780005D01*
X140204343Y-112913130D01*
X140091130Y-113026343D01*
X140024115Y-113071121D01*
X139958004Y-113115295D01*
X139810085Y-113176565D01*
X139653055Y-113207800D01*
X139492945Y-113207800D01*
X139335915Y-113176565D01*
X139187996Y-113115295D01*
X139121885Y-113071121D01*
X139054870Y-113026343D01*
X138941657Y-112913130D01*
X138852706Y-112780005D01*
X138852705Y-112780004D01*
X138791435Y-112632085D01*
X138760200Y-112475055D01*
X138760200Y-112314945D01*
X138791435Y-112157915D01*
X138852705Y-112009996D01*
X138941656Y-111876872D01*
X138941657Y-111876870D01*
X139054870Y-111763657D01*
X139187995Y-111674706D01*
X139187996Y-111674705D01*
X139335915Y-111613435D01*
X139492945Y-111582200D01*
X139653055Y-111582200D01*
X139810085Y-111613435D01*
G37*
G36*
X147430085Y-111613435D02*
G01*
X147578004Y-111674705D01*
X147578005Y-111674706D01*
X147711130Y-111763657D01*
X147824343Y-111876870D01*
X147824344Y-111876872D01*
X147913295Y-112009996D01*
X147974565Y-112157915D01*
X148005800Y-112314945D01*
X148005800Y-112475055D01*
X147974565Y-112632085D01*
X147913295Y-112780004D01*
X147913294Y-112780005D01*
X147824343Y-112913130D01*
X147711130Y-113026343D01*
X147644115Y-113071121D01*
X147578004Y-113115295D01*
X147430085Y-113176565D01*
X147273055Y-113207800D01*
X147112945Y-113207800D01*
X146955915Y-113176565D01*
X146807996Y-113115295D01*
X146741885Y-113071121D01*
X146674870Y-113026343D01*
X146561657Y-112913130D01*
X146472706Y-112780005D01*
X146472705Y-112780004D01*
X146411435Y-112632085D01*
X146380200Y-112475055D01*
X146380200Y-112314945D01*
X146411435Y-112157915D01*
X146472705Y-112009996D01*
X146561656Y-111876872D01*
X146561657Y-111876870D01*
X146674870Y-111763657D01*
X146807995Y-111674706D01*
X146807996Y-111674705D01*
X146955915Y-111613435D01*
X147112945Y-111582200D01*
X147273055Y-111582200D01*
X147430085Y-111613435D01*
G37*
G36*
X139810085Y-109073435D02*
G01*
X139958004Y-109134705D01*
X139958005Y-109134706D01*
X140091130Y-109223657D01*
X140204343Y-109336870D01*
X140204344Y-109336872D01*
X140293295Y-109469996D01*
X140354565Y-109617915D01*
X140385800Y-109774945D01*
X140385800Y-109935055D01*
X140354565Y-110092085D01*
X140293295Y-110240004D01*
X140293294Y-110240005D01*
X140204343Y-110373130D01*
X140091130Y-110486343D01*
X140024115Y-110531121D01*
X139958004Y-110575295D01*
X139810085Y-110636565D01*
X139653055Y-110667800D01*
X139492945Y-110667800D01*
X139335915Y-110636565D01*
X139187996Y-110575295D01*
X139121885Y-110531121D01*
X139054870Y-110486343D01*
X138941657Y-110373130D01*
X138852706Y-110240005D01*
X138852705Y-110240004D01*
X138791435Y-110092085D01*
X138760200Y-109935055D01*
X138760200Y-109774945D01*
X138791435Y-109617915D01*
X138852705Y-109469996D01*
X138941656Y-109336872D01*
X138941657Y-109336870D01*
X139054870Y-109223657D01*
X139187995Y-109134706D01*
X139187996Y-109134705D01*
X139335915Y-109073435D01*
X139492945Y-109042200D01*
X139653055Y-109042200D01*
X139810085Y-109073435D01*
G37*
G36*
X147430085Y-109073435D02*
G01*
X147578004Y-109134705D01*
X147578005Y-109134706D01*
X147711130Y-109223657D01*
X147824343Y-109336870D01*
X147824344Y-109336872D01*
X147913295Y-109469996D01*
X147974565Y-109617915D01*
X148005800Y-109774945D01*
X148005800Y-109935055D01*
X147974565Y-110092085D01*
X147913295Y-110240004D01*
X147913294Y-110240005D01*
X147824343Y-110373130D01*
X147711130Y-110486343D01*
X147644115Y-110531121D01*
X147578004Y-110575295D01*
X147430085Y-110636565D01*
X147273055Y-110667800D01*
X147112945Y-110667800D01*
X146955915Y-110636565D01*
X146807996Y-110575295D01*
X146741885Y-110531121D01*
X146674870Y-110486343D01*
X146561657Y-110373130D01*
X146472706Y-110240005D01*
X146472705Y-110240004D01*
X146411435Y-110092085D01*
X146380200Y-109935055D01*
X146380200Y-109774945D01*
X146411435Y-109617915D01*
X146472705Y-109469996D01*
X146561656Y-109336872D01*
X146561657Y-109336870D01*
X146674870Y-109223657D01*
X146807995Y-109134706D01*
X146807996Y-109134705D01*
X146955915Y-109073435D01*
X147112945Y-109042200D01*
X147273055Y-109042200D01*
X147430085Y-109073435D01*
G37*
G36*
X139810085Y-106533435D02*
G01*
X139958004Y-106594705D01*
X139958005Y-106594706D01*
X140091130Y-106683657D01*
X140204343Y-106796870D01*
X140204344Y-106796872D01*
X140293295Y-106929996D01*
X140354565Y-107077915D01*
X140385800Y-107234945D01*
X140385800Y-107395055D01*
X140354565Y-107552085D01*
X140293295Y-107700004D01*
X140293294Y-107700005D01*
X140204343Y-107833130D01*
X140091130Y-107946343D01*
X140024115Y-107991121D01*
X139958004Y-108035295D01*
X139810085Y-108096565D01*
X139653055Y-108127800D01*
X139492945Y-108127800D01*
X139335915Y-108096565D01*
X139187996Y-108035295D01*
X139121885Y-107991121D01*
X139054870Y-107946343D01*
X138941657Y-107833130D01*
X138852706Y-107700005D01*
X138852705Y-107700004D01*
X138791435Y-107552085D01*
X138760200Y-107395055D01*
X138760200Y-107234945D01*
X138791435Y-107077915D01*
X138852705Y-106929996D01*
X138941656Y-106796872D01*
X138941657Y-106796870D01*
X139054870Y-106683657D01*
X139187995Y-106594706D01*
X139187996Y-106594705D01*
X139335915Y-106533435D01*
X139492945Y-106502200D01*
X139653055Y-106502200D01*
X139810085Y-106533435D01*
G37*
G36*
X147430085Y-106533435D02*
G01*
X147578004Y-106594705D01*
X147578005Y-106594706D01*
X147711130Y-106683657D01*
X147824343Y-106796870D01*
X147824344Y-106796872D01*
X147913295Y-106929996D01*
X147974565Y-107077915D01*
X148005800Y-107234945D01*
X148005800Y-107395055D01*
X147974565Y-107552085D01*
X147913295Y-107700004D01*
X147913294Y-107700005D01*
X147824343Y-107833130D01*
X147711130Y-107946343D01*
X147644115Y-107991121D01*
X147578004Y-108035295D01*
X147430085Y-108096565D01*
X147273055Y-108127800D01*
X147112945Y-108127800D01*
X146955915Y-108096565D01*
X146807996Y-108035295D01*
X146741885Y-107991121D01*
X146674870Y-107946343D01*
X146561657Y-107833130D01*
X146472706Y-107700005D01*
X146472705Y-107700004D01*
X146411435Y-107552085D01*
X146380200Y-107395055D01*
X146380200Y-107234945D01*
X146411435Y-107077915D01*
X146472705Y-106929996D01*
X146561656Y-106796872D01*
X146561657Y-106796870D01*
X146674870Y-106683657D01*
X146807995Y-106594706D01*
X146807996Y-106594705D01*
X146955915Y-106533435D01*
X147112945Y-106502200D01*
X147273055Y-106502200D01*
X147430085Y-106533435D01*
G37*
G36*
X139810085Y-103993435D02*
G01*
X139958004Y-104054705D01*
X139958005Y-104054706D01*
X140091130Y-104143657D01*
X140204343Y-104256870D01*
X140204344Y-104256872D01*
X140293295Y-104389996D01*
X140354565Y-104537915D01*
X140385800Y-104694945D01*
X140385800Y-104855055D01*
X140354565Y-105012085D01*
X140293295Y-105160004D01*
X140293294Y-105160005D01*
X140204343Y-105293130D01*
X140091130Y-105406343D01*
X140024115Y-105451121D01*
X139958004Y-105495295D01*
X139810085Y-105556565D01*
X139653055Y-105587800D01*
X139492945Y-105587800D01*
X139335915Y-105556565D01*
X139187996Y-105495295D01*
X139121885Y-105451121D01*
X139054870Y-105406343D01*
X138941657Y-105293130D01*
X138852706Y-105160005D01*
X138852705Y-105160004D01*
X138791435Y-105012085D01*
X138760200Y-104855055D01*
X138760200Y-104694945D01*
X138791435Y-104537915D01*
X138852705Y-104389996D01*
X138941656Y-104256872D01*
X138941657Y-104256870D01*
X139054870Y-104143657D01*
X139187995Y-104054706D01*
X139187996Y-104054705D01*
X139335915Y-103993435D01*
X139492945Y-103962200D01*
X139653055Y-103962200D01*
X139810085Y-103993435D01*
G37*
G36*
X147430085Y-103993435D02*
G01*
X147578004Y-104054705D01*
X147578005Y-104054706D01*
X147711130Y-104143657D01*
X147824343Y-104256870D01*
X147824344Y-104256872D01*
X147913295Y-104389996D01*
X147974565Y-104537915D01*
X148005800Y-104694945D01*
X148005800Y-104855055D01*
X147974565Y-105012085D01*
X147913295Y-105160004D01*
X147913294Y-105160005D01*
X147824343Y-105293130D01*
X147711130Y-105406343D01*
X147644115Y-105451121D01*
X147578004Y-105495295D01*
X147430085Y-105556565D01*
X147273055Y-105587800D01*
X147112945Y-105587800D01*
X146955915Y-105556565D01*
X146807996Y-105495295D01*
X146741885Y-105451121D01*
X146674870Y-105406343D01*
X146561657Y-105293130D01*
X146472706Y-105160005D01*
X146472705Y-105160004D01*
X146411435Y-105012085D01*
X146380200Y-104855055D01*
X146380200Y-104694945D01*
X146411435Y-104537915D01*
X146472705Y-104389996D01*
X146561656Y-104256872D01*
X146561657Y-104256870D01*
X146674870Y-104143657D01*
X146807995Y-104054706D01*
X146807996Y-104054705D01*
X146955915Y-103993435D01*
X147112945Y-103962200D01*
X147273055Y-103962200D01*
X147430085Y-103993435D01*
G37*
G36*
X155729689Y-100142796D02*
G01*
X155729692Y-100142797D01*
X155729693Y-100142797D01*
X156037100Y-100236048D01*
X156037103Y-100236050D01*
X156037104Y-100236050D01*
X156320407Y-100387478D01*
X156568729Y-100591271D01*
X156772522Y-100839593D01*
X156923950Y-101122896D01*
X156923952Y-101122900D01*
X157014744Y-101422200D01*
X157017204Y-101430311D01*
X157048690Y-101750000D01*
X157017204Y-102069689D01*
X157017203Y-102069692D01*
X157017203Y-102069693D01*
X156923952Y-102377100D01*
X156923950Y-102377103D01*
X156923950Y-102377104D01*
X156772522Y-102660407D01*
X156568729Y-102908729D01*
X156320407Y-103112522D01*
X156037104Y-103263950D01*
X156037100Y-103263952D01*
X155729693Y-103357203D01*
X155729692Y-103357203D01*
X155729689Y-103357204D01*
X155490112Y-103380800D01*
X154389888Y-103380800D01*
X154150311Y-103357204D01*
X154150308Y-103357203D01*
X154150307Y-103357203D01*
X153842900Y-103263952D01*
X153842896Y-103263950D01*
X153559593Y-103112522D01*
X153311271Y-102908729D01*
X153107478Y-102660407D01*
X152956050Y-102377104D01*
X152956050Y-102377103D01*
X152956048Y-102377100D01*
X152862797Y-102069693D01*
X152862797Y-102069692D01*
X152862796Y-102069689D01*
X152831310Y-101750000D01*
X152862796Y-101430311D01*
X152865256Y-101422200D01*
X152956048Y-101122900D01*
X152956050Y-101122896D01*
X153107478Y-100839593D01*
X153311271Y-100591271D01*
X153559593Y-100387478D01*
X153842896Y-100236050D01*
X153842897Y-100236050D01*
X153842900Y-100236048D01*
X154150307Y-100142797D01*
X154150308Y-100142797D01*
X154150311Y-100142796D01*
X154389888Y-100119200D01*
X155490112Y-100119200D01*
X155729689Y-100142796D01*
G37*
G36*
X147430085Y-101453435D02*
G01*
X147578004Y-101514705D01*
X147578005Y-101514706D01*
X147711130Y-101603657D01*
X147824343Y-101716870D01*
X147824344Y-101716872D01*
X147913295Y-101849996D01*
X147974565Y-101997915D01*
X148005800Y-102154945D01*
X148005800Y-102315055D01*
X147974565Y-102472085D01*
X147913295Y-102620004D01*
X147913294Y-102620005D01*
X147824343Y-102753130D01*
X147711130Y-102866343D01*
X147647695Y-102908729D01*
X147578004Y-102955295D01*
X147430085Y-103016565D01*
X147273055Y-103047800D01*
X147112945Y-103047800D01*
X146955915Y-103016565D01*
X146807996Y-102955295D01*
X146738305Y-102908729D01*
X146674870Y-102866343D01*
X146561657Y-102753130D01*
X146472706Y-102620005D01*
X146472705Y-102620004D01*
X146411435Y-102472085D01*
X146380200Y-102315055D01*
X146380200Y-102154945D01*
X146411435Y-101997915D01*
X146472705Y-101849996D01*
X146561656Y-101716872D01*
X146561657Y-101716870D01*
X146674870Y-101603657D01*
X146807995Y-101514706D01*
X146807996Y-101514705D01*
X146955915Y-101453435D01*
X147112945Y-101422200D01*
X147273055Y-101422200D01*
X147430085Y-101453435D01*
G37*
G36*
X139810085Y-101453435D02*
G01*
X139958004Y-101514705D01*
X139958005Y-101514706D01*
X140091130Y-101603657D01*
X140204343Y-101716870D01*
X140204344Y-101716872D01*
X140293295Y-101849996D01*
X140354565Y-101997915D01*
X140385800Y-102154945D01*
X140385800Y-102315055D01*
X140354565Y-102472085D01*
X140293295Y-102620004D01*
X140293294Y-102620005D01*
X140204343Y-102753130D01*
X140091130Y-102866343D01*
X140027695Y-102908729D01*
X139958004Y-102955295D01*
X139810085Y-103016565D01*
X139653055Y-103047800D01*
X139492945Y-103047800D01*
X139335915Y-103016565D01*
X139187996Y-102955295D01*
X139118305Y-102908729D01*
X139054870Y-102866343D01*
X138941657Y-102753130D01*
X138852706Y-102620005D01*
X138852705Y-102620004D01*
X138791435Y-102472085D01*
X138760200Y-102315055D01*
X138760200Y-102154945D01*
X138791435Y-101997915D01*
X138852705Y-101849996D01*
X138941656Y-101716872D01*
X138941657Y-101716870D01*
X139054870Y-101603657D01*
X139187995Y-101514706D01*
X139187996Y-101514705D01*
X139335915Y-101453435D01*
X139492945Y-101422200D01*
X139653055Y-101422200D01*
X139810085Y-101453435D01*
G37*
G36*
X147430085Y-98913435D02*
G01*
X147578004Y-98974705D01*
X147578005Y-98974706D01*
X147711130Y-99063657D01*
X147824343Y-99176870D01*
X147824344Y-99176872D01*
X147913295Y-99309996D01*
X147974565Y-99457915D01*
X148005800Y-99614945D01*
X148005800Y-99775055D01*
X147974565Y-99932085D01*
X147913295Y-100080004D01*
X147913294Y-100080005D01*
X147824343Y-100213130D01*
X147711130Y-100326343D01*
X147644115Y-100371121D01*
X147578004Y-100415295D01*
X147430085Y-100476565D01*
X147273055Y-100507800D01*
X147112945Y-100507800D01*
X146955915Y-100476565D01*
X146807996Y-100415295D01*
X146741885Y-100371121D01*
X146674870Y-100326343D01*
X146561657Y-100213130D01*
X146472706Y-100080005D01*
X146472705Y-100080004D01*
X146411435Y-99932085D01*
X146380200Y-99775055D01*
X146380200Y-99614945D01*
X146411435Y-99457915D01*
X146472705Y-99309996D01*
X146561656Y-99176872D01*
X146561657Y-99176870D01*
X146674870Y-99063657D01*
X146807995Y-98974706D01*
X146807996Y-98974705D01*
X146955915Y-98913435D01*
X147112945Y-98882200D01*
X147273055Y-98882200D01*
X147430085Y-98913435D01*
G37*
G36*
X139810085Y-98913435D02*
G01*
X139958004Y-98974705D01*
X139958005Y-98974706D01*
X140091130Y-99063657D01*
X140204343Y-99176870D01*
X140204344Y-99176872D01*
X140293295Y-99309996D01*
X140354565Y-99457915D01*
X140385800Y-99614945D01*
X140385800Y-99775055D01*
X140354565Y-99932085D01*
X140293295Y-100080004D01*
X140293294Y-100080005D01*
X140204343Y-100213130D01*
X140091130Y-100326343D01*
X140024115Y-100371121D01*
X139958004Y-100415295D01*
X139810085Y-100476565D01*
X139653055Y-100507800D01*
X139492945Y-100507800D01*
X139335915Y-100476565D01*
X139187996Y-100415295D01*
X139121885Y-100371121D01*
X139054870Y-100326343D01*
X138941657Y-100213130D01*
X138852706Y-100080005D01*
X138852705Y-100080004D01*
X138791435Y-99932085D01*
X138760200Y-99775055D01*
X138760200Y-99614945D01*
X138791435Y-99457915D01*
X138852705Y-99309996D01*
X138941656Y-99176872D01*
X138941657Y-99176870D01*
X139054870Y-99063657D01*
X139187995Y-98974706D01*
X139187996Y-98974705D01*
X139335915Y-98913435D01*
X139492945Y-98882200D01*
X139653055Y-98882200D01*
X139810085Y-98913435D01*
G37*
G36*
X156917678Y-96162729D02*
G01*
X156946232Y-96171391D01*
X156972548Y-96185457D01*
X156995614Y-96204386D01*
X157014543Y-96227452D01*
X157028609Y-96253768D01*
X157037271Y-96282322D01*
X157040800Y-96318157D01*
X157040800Y-99261843D01*
X157037271Y-99297678D01*
X157028609Y-99326232D01*
X157014543Y-99352548D01*
X156995614Y-99375614D01*
X156972548Y-99394543D01*
X156946232Y-99408609D01*
X156917678Y-99417271D01*
X156881843Y-99420800D01*
X152998157Y-99420800D01*
X152962322Y-99417271D01*
X152933768Y-99408609D01*
X152907452Y-99394543D01*
X152884386Y-99375614D01*
X152865457Y-99352548D01*
X152851391Y-99326232D01*
X152842729Y-99297678D01*
X152839200Y-99261843D01*
X152839200Y-96318157D01*
X152842729Y-96282322D01*
X152851391Y-96253768D01*
X152865457Y-96227452D01*
X152884386Y-96204386D01*
X152907452Y-96185457D01*
X152933768Y-96171391D01*
X152962322Y-96162729D01*
X152998157Y-96159200D01*
X156881843Y-96159200D01*
X156917678Y-96162729D01*
G37*
G36*
X139810085Y-96373435D02*
G01*
X139958004Y-96434705D01*
X139958005Y-96434706D01*
X140091130Y-96523657D01*
X140204343Y-96636870D01*
X140204344Y-96636872D01*
X140293295Y-96769996D01*
X140354565Y-96917915D01*
X140385800Y-97074945D01*
X140385800Y-97235055D01*
X140354565Y-97392085D01*
X140293295Y-97540004D01*
X140293294Y-97540005D01*
X140204343Y-97673130D01*
X140091130Y-97786343D01*
X140024115Y-97831121D01*
X139958004Y-97875295D01*
X139810085Y-97936565D01*
X139653055Y-97967800D01*
X139492945Y-97967800D01*
X139335915Y-97936565D01*
X139187996Y-97875295D01*
X139121885Y-97831121D01*
X139054870Y-97786343D01*
X138941657Y-97673130D01*
X138852706Y-97540005D01*
X138852705Y-97540004D01*
X138791435Y-97392085D01*
X138760200Y-97235055D01*
X138760200Y-97074945D01*
X138791435Y-96917915D01*
X138852705Y-96769996D01*
X138941656Y-96636872D01*
X138941657Y-96636870D01*
X139054870Y-96523657D01*
X139187995Y-96434706D01*
X139187996Y-96434705D01*
X139335915Y-96373435D01*
X139492945Y-96342200D01*
X139653055Y-96342200D01*
X139810085Y-96373435D01*
G37*
G36*
X147430085Y-96373435D02*
G01*
X147578004Y-96434705D01*
X147578005Y-96434706D01*
X147711130Y-96523657D01*
X147824343Y-96636870D01*
X147824344Y-96636872D01*
X147913295Y-96769996D01*
X147974565Y-96917915D01*
X148005800Y-97074945D01*
X148005800Y-97235055D01*
X147974565Y-97392085D01*
X147913295Y-97540004D01*
X147913294Y-97540005D01*
X147824343Y-97673130D01*
X147711130Y-97786343D01*
X147644115Y-97831121D01*
X147578004Y-97875295D01*
X147430085Y-97936565D01*
X147273055Y-97967800D01*
X147112945Y-97967800D01*
X146955915Y-97936565D01*
X146807996Y-97875295D01*
X146741885Y-97831121D01*
X146674870Y-97786343D01*
X146561657Y-97673130D01*
X146472706Y-97540005D01*
X146472705Y-97540004D01*
X146411435Y-97392085D01*
X146380200Y-97235055D01*
X146380200Y-97074945D01*
X146411435Y-96917915D01*
X146472705Y-96769996D01*
X146561656Y-96636872D01*
X146561657Y-96636870D01*
X146674870Y-96523657D01*
X146807995Y-96434706D01*
X146807996Y-96434705D01*
X146955915Y-96373435D01*
X147112945Y-96342200D01*
X147273055Y-96342200D01*
X147430085Y-96373435D01*
G37*
G36*
X108731732Y-93725739D02*
G01*
X108847754Y-93748817D01*
X109011689Y-93816721D01*
X109159227Y-93915303D01*
X109284697Y-94040773D01*
X109383279Y-94188311D01*
X109451183Y-94352246D01*
X109485800Y-94526279D01*
X109485800Y-94703721D01*
X109451183Y-94877754D01*
X109383279Y-95041689D01*
X109284697Y-95189227D01*
X109159227Y-95314697D01*
X109011689Y-95413279D01*
X108847754Y-95481183D01*
X108731732Y-95504261D01*
X108673722Y-95515800D01*
X108496278Y-95515800D01*
X108438268Y-95504261D01*
X108322246Y-95481183D01*
X108158311Y-95413279D01*
X108010773Y-95314697D01*
X107885303Y-95189227D01*
X107786721Y-95041689D01*
X107718817Y-94877754D01*
X107684200Y-94703721D01*
X107684200Y-94526279D01*
X107718817Y-94352246D01*
X107786721Y-94188311D01*
X107885303Y-94040773D01*
X108010773Y-93915303D01*
X108158311Y-93816721D01*
X108322246Y-93748817D01*
X108438268Y-93725739D01*
X108496278Y-93714200D01*
X108673722Y-93714200D01*
X108731732Y-93725739D01*
G37*
G36*
X139810085Y-93833435D02*
G01*
X139958004Y-93894705D01*
X139958005Y-93894706D01*
X140091130Y-93983657D01*
X140204343Y-94096870D01*
X140204344Y-94096872D01*
X140293295Y-94229996D01*
X140354565Y-94377915D01*
X140385800Y-94534945D01*
X140385800Y-94695055D01*
X140354565Y-94852085D01*
X140293295Y-95000004D01*
X140293294Y-95000005D01*
X140204343Y-95133130D01*
X140091130Y-95246343D01*
X140024115Y-95291121D01*
X139958004Y-95335295D01*
X139810085Y-95396565D01*
X139653055Y-95427800D01*
X139492945Y-95427800D01*
X139335915Y-95396565D01*
X139187996Y-95335295D01*
X139121885Y-95291121D01*
X139054870Y-95246343D01*
X138941657Y-95133130D01*
X138852706Y-95000005D01*
X138852705Y-95000004D01*
X138791435Y-94852085D01*
X138760200Y-94695055D01*
X138760200Y-94534945D01*
X138791435Y-94377915D01*
X138852705Y-94229996D01*
X138941656Y-94096872D01*
X138941657Y-94096870D01*
X139054870Y-93983657D01*
X139187995Y-93894706D01*
X139187996Y-93894705D01*
X139335915Y-93833435D01*
X139492945Y-93802200D01*
X139653055Y-93802200D01*
X139810085Y-93833435D01*
G37*
G36*
X147430085Y-93833435D02*
G01*
X147578004Y-93894705D01*
X147578005Y-93894706D01*
X147711130Y-93983657D01*
X147824343Y-94096870D01*
X147824344Y-94096872D01*
X147913295Y-94229996D01*
X147974565Y-94377915D01*
X148005800Y-94534945D01*
X148005800Y-94695055D01*
X147974565Y-94852085D01*
X147913295Y-95000004D01*
X147913294Y-95000005D01*
X147824343Y-95133130D01*
X147711130Y-95246343D01*
X147644115Y-95291121D01*
X147578004Y-95335295D01*
X147430085Y-95396565D01*
X147273055Y-95427800D01*
X147112945Y-95427800D01*
X146955915Y-95396565D01*
X146807996Y-95335295D01*
X146741885Y-95291121D01*
X146674870Y-95246343D01*
X146561657Y-95133130D01*
X146472706Y-95000005D01*
X146472705Y-95000004D01*
X146411435Y-94852085D01*
X146380200Y-94695055D01*
X146380200Y-94534945D01*
X146411435Y-94377915D01*
X146472705Y-94229996D01*
X146561656Y-94096872D01*
X146561657Y-94096870D01*
X146674870Y-93983657D01*
X146807995Y-93894706D01*
X146807996Y-93894705D01*
X146955915Y-93833435D01*
X147112945Y-93802200D01*
X147273055Y-93802200D01*
X147430085Y-93833435D01*
G37*
G36*
X108731732Y-91185739D02*
G01*
X108847754Y-91208817D01*
X109011689Y-91276721D01*
X109159227Y-91375303D01*
X109284697Y-91500773D01*
X109383279Y-91648311D01*
X109451183Y-91812246D01*
X109485800Y-91986279D01*
X109485800Y-92163721D01*
X109451183Y-92337754D01*
X109383279Y-92501689D01*
X109284697Y-92649227D01*
X109159227Y-92774697D01*
X109011689Y-92873279D01*
X108847754Y-92941183D01*
X108731732Y-92964261D01*
X108673722Y-92975800D01*
X108496278Y-92975800D01*
X108438268Y-92964261D01*
X108322246Y-92941183D01*
X108158311Y-92873279D01*
X108010773Y-92774697D01*
X107885303Y-92649227D01*
X107786721Y-92501689D01*
X107718817Y-92337754D01*
X107684200Y-92163721D01*
X107684200Y-91986279D01*
X107718817Y-91812246D01*
X107786721Y-91648311D01*
X107885303Y-91500773D01*
X108010773Y-91375303D01*
X108158311Y-91276721D01*
X108322246Y-91208817D01*
X108438268Y-91185739D01*
X108496278Y-91174200D01*
X108673722Y-91174200D01*
X108731732Y-91185739D01*
G37*
G36*
X101213169Y-91256895D02*
G01*
X101368005Y-91321031D01*
X101507354Y-91414140D01*
X101625860Y-91532646D01*
X101718969Y-91671995D01*
X101783105Y-91826831D01*
X101815800Y-91991203D01*
X101815800Y-92158797D01*
X101783105Y-92323169D01*
X101718969Y-92478005D01*
X101625860Y-92617354D01*
X101507354Y-92735860D01*
X101368005Y-92828969D01*
X101213169Y-92893105D01*
X101048797Y-92925800D01*
X100881203Y-92925800D01*
X100716831Y-92893105D01*
X100561995Y-92828969D01*
X100422646Y-92735860D01*
X100304140Y-92617354D01*
X100211031Y-92478005D01*
X100146895Y-92323169D01*
X100114200Y-92158797D01*
X100114200Y-91991203D01*
X100146895Y-91826831D01*
X100211031Y-91671995D01*
X100304140Y-91532646D01*
X100422646Y-91414140D01*
X100561995Y-91321031D01*
X100716831Y-91256895D01*
X100881203Y-91224200D01*
X101048797Y-91224200D01*
X101213169Y-91256895D01*
G37*
G36*
X147430085Y-91293435D02*
G01*
X147578004Y-91354705D01*
X147578005Y-91354706D01*
X147711130Y-91443657D01*
X147824343Y-91556870D01*
X147824344Y-91556872D01*
X147913295Y-91689996D01*
X147974565Y-91837915D01*
X148005800Y-91994945D01*
X148005800Y-92155055D01*
X147974565Y-92312085D01*
X147913295Y-92460004D01*
X147913294Y-92460005D01*
X147824343Y-92593130D01*
X147711130Y-92706343D01*
X147644115Y-92751121D01*
X147578004Y-92795295D01*
X147430085Y-92856565D01*
X147273055Y-92887800D01*
X147112945Y-92887800D01*
X146955915Y-92856565D01*
X146807996Y-92795295D01*
X146741885Y-92751121D01*
X146674870Y-92706343D01*
X146561657Y-92593130D01*
X146472706Y-92460005D01*
X146472705Y-92460004D01*
X146411435Y-92312085D01*
X146380200Y-92155055D01*
X146380200Y-91994945D01*
X146411435Y-91837915D01*
X146472705Y-91689996D01*
X146561656Y-91556872D01*
X146561657Y-91556870D01*
X146674870Y-91443657D01*
X146807995Y-91354706D01*
X146807996Y-91354705D01*
X146955915Y-91293435D01*
X147112945Y-91262200D01*
X147273055Y-91262200D01*
X147430085Y-91293435D01*
G37*
G36*
X139810085Y-91293435D02*
G01*
X139958004Y-91354705D01*
X139958005Y-91354706D01*
X140091130Y-91443657D01*
X140204343Y-91556870D01*
X140204344Y-91556872D01*
X140293295Y-91689996D01*
X140354565Y-91837915D01*
X140385800Y-91994945D01*
X140385800Y-92155055D01*
X140354565Y-92312085D01*
X140293295Y-92460004D01*
X140293294Y-92460005D01*
X140204343Y-92593130D01*
X140091130Y-92706343D01*
X140024115Y-92751121D01*
X139958004Y-92795295D01*
X139810085Y-92856565D01*
X139653055Y-92887800D01*
X139492945Y-92887800D01*
X139335915Y-92856565D01*
X139187996Y-92795295D01*
X139121885Y-92751121D01*
X139054870Y-92706343D01*
X138941657Y-92593130D01*
X138852706Y-92460005D01*
X138852705Y-92460004D01*
X138791435Y-92312085D01*
X138760200Y-92155055D01*
X138760200Y-91994945D01*
X138791435Y-91837915D01*
X138852705Y-91689996D01*
X138941656Y-91556872D01*
X138941657Y-91556870D01*
X139054870Y-91443657D01*
X139187995Y-91354706D01*
X139187996Y-91354705D01*
X139335915Y-91293435D01*
X139492945Y-91262200D01*
X139653055Y-91262200D01*
X139810085Y-91293435D01*
G37*
G36*
X108731732Y-88645739D02*
G01*
X108847754Y-88668817D01*
X109011689Y-88736721D01*
X109159227Y-88835303D01*
X109284697Y-88960773D01*
X109383279Y-89108311D01*
X109451183Y-89272246D01*
X109485800Y-89446279D01*
X109485800Y-89623721D01*
X109451183Y-89797754D01*
X109383279Y-89961689D01*
X109284697Y-90109227D01*
X109159227Y-90234697D01*
X109011689Y-90333279D01*
X108847754Y-90401183D01*
X108731732Y-90424261D01*
X108673722Y-90435800D01*
X108496278Y-90435800D01*
X108438268Y-90424261D01*
X108322246Y-90401183D01*
X108158311Y-90333279D01*
X108010773Y-90234697D01*
X107885303Y-90109227D01*
X107786721Y-89961689D01*
X107718817Y-89797754D01*
X107684200Y-89623721D01*
X107684200Y-89446279D01*
X107718817Y-89272246D01*
X107786721Y-89108311D01*
X107885303Y-88960773D01*
X108010773Y-88835303D01*
X108158311Y-88736721D01*
X108322246Y-88668817D01*
X108438268Y-88645739D01*
X108496278Y-88634200D01*
X108673722Y-88634200D01*
X108731732Y-88645739D01*
G37*
G36*
X139810085Y-88753435D02*
G01*
X139958004Y-88814705D01*
X139958005Y-88814706D01*
X140091130Y-88903657D01*
X140204343Y-89016870D01*
X140204344Y-89016872D01*
X140293295Y-89149996D01*
X140354565Y-89297915D01*
X140385800Y-89454945D01*
X140385800Y-89615055D01*
X140354565Y-89772085D01*
X140293295Y-89920004D01*
X140293294Y-89920005D01*
X140204343Y-90053130D01*
X140091130Y-90166343D01*
X140024115Y-90211121D01*
X139958004Y-90255295D01*
X139810085Y-90316565D01*
X139653055Y-90347800D01*
X139492945Y-90347800D01*
X139335915Y-90316565D01*
X139187996Y-90255295D01*
X139121885Y-90211121D01*
X139054870Y-90166343D01*
X138941657Y-90053130D01*
X138852706Y-89920005D01*
X138852705Y-89920004D01*
X138791435Y-89772085D01*
X138760200Y-89615055D01*
X138760200Y-89454945D01*
X138791435Y-89297915D01*
X138852705Y-89149996D01*
X138941656Y-89016872D01*
X138941657Y-89016870D01*
X139054870Y-88903657D01*
X139187995Y-88814706D01*
X139187996Y-88814705D01*
X139335915Y-88753435D01*
X139492945Y-88722200D01*
X139653055Y-88722200D01*
X139810085Y-88753435D01*
G37*
G36*
X147430085Y-88753435D02*
G01*
X147578004Y-88814705D01*
X147578005Y-88814706D01*
X147711130Y-88903657D01*
X147824343Y-89016870D01*
X147824344Y-89016872D01*
X147913295Y-89149996D01*
X147974565Y-89297915D01*
X148005800Y-89454945D01*
X148005800Y-89615055D01*
X147974565Y-89772085D01*
X147913295Y-89920004D01*
X147913294Y-89920005D01*
X147824343Y-90053130D01*
X147711130Y-90166343D01*
X147644115Y-90211121D01*
X147578004Y-90255295D01*
X147430085Y-90316565D01*
X147273055Y-90347800D01*
X147112945Y-90347800D01*
X146955915Y-90316565D01*
X146807996Y-90255295D01*
X146741885Y-90211121D01*
X146674870Y-90166343D01*
X146561657Y-90053130D01*
X146472706Y-89920005D01*
X146472705Y-89920004D01*
X146411435Y-89772085D01*
X146380200Y-89615055D01*
X146380200Y-89454945D01*
X146411435Y-89297915D01*
X146472705Y-89149996D01*
X146561656Y-89016872D01*
X146561657Y-89016870D01*
X146674870Y-88903657D01*
X146807995Y-88814706D01*
X146807996Y-88814705D01*
X146955915Y-88753435D01*
X147112945Y-88722200D01*
X147273055Y-88722200D01*
X147430085Y-88753435D01*
G37*
G36*
X108731732Y-86105739D02*
G01*
X108847754Y-86128817D01*
X109011689Y-86196721D01*
X109159227Y-86295303D01*
X109284697Y-86420773D01*
X109383279Y-86568311D01*
X109451183Y-86732246D01*
X109485800Y-86906279D01*
X109485800Y-87083721D01*
X109451183Y-87257754D01*
X109383279Y-87421689D01*
X109284697Y-87569227D01*
X109159227Y-87694697D01*
X109011689Y-87793279D01*
X108847754Y-87861183D01*
X108731732Y-87884261D01*
X108673722Y-87895800D01*
X108496278Y-87895800D01*
X108438268Y-87884261D01*
X108322246Y-87861183D01*
X108158311Y-87793279D01*
X108010773Y-87694697D01*
X107885303Y-87569227D01*
X107786721Y-87421689D01*
X107718817Y-87257754D01*
X107684200Y-87083721D01*
X107684200Y-86906279D01*
X107718817Y-86732246D01*
X107786721Y-86568311D01*
X107885303Y-86420773D01*
X108010773Y-86295303D01*
X108158311Y-86196721D01*
X108322246Y-86128817D01*
X108438268Y-86105739D01*
X108496278Y-86094200D01*
X108673722Y-86094200D01*
X108731732Y-86105739D01*
G37*
G36*
X147430085Y-86213435D02*
G01*
X147578004Y-86274705D01*
X147578005Y-86274706D01*
X147711130Y-86363657D01*
X147824343Y-86476870D01*
X147824344Y-86476872D01*
X147913295Y-86609996D01*
X147974565Y-86757915D01*
X148005800Y-86914945D01*
X148005800Y-87075055D01*
X147974565Y-87232085D01*
X147913295Y-87380004D01*
X147913294Y-87380005D01*
X147824343Y-87513130D01*
X147711130Y-87626343D01*
X147644115Y-87671121D01*
X147578004Y-87715295D01*
X147430085Y-87776565D01*
X147273055Y-87807800D01*
X147112945Y-87807800D01*
X146955915Y-87776565D01*
X146807996Y-87715295D01*
X146741885Y-87671121D01*
X146674870Y-87626343D01*
X146561657Y-87513130D01*
X146472706Y-87380005D01*
X146472705Y-87380004D01*
X146411435Y-87232085D01*
X146380200Y-87075055D01*
X146380200Y-86914945D01*
X146411435Y-86757915D01*
X146472705Y-86609996D01*
X146561656Y-86476872D01*
X146561657Y-86476870D01*
X146674870Y-86363657D01*
X146807995Y-86274706D01*
X146807996Y-86274705D01*
X146955915Y-86213435D01*
X147112945Y-86182200D01*
X147273055Y-86182200D01*
X147430085Y-86213435D01*
G37*
G36*
X139810085Y-86213435D02*
G01*
X139958004Y-86274705D01*
X139958005Y-86274706D01*
X140091130Y-86363657D01*
X140204343Y-86476870D01*
X140204344Y-86476872D01*
X140293295Y-86609996D01*
X140354565Y-86757915D01*
X140385800Y-86914945D01*
X140385800Y-87075055D01*
X140354565Y-87232085D01*
X140293295Y-87380004D01*
X140293294Y-87380005D01*
X140204343Y-87513130D01*
X140091130Y-87626343D01*
X140024115Y-87671121D01*
X139958004Y-87715295D01*
X139810085Y-87776565D01*
X139653055Y-87807800D01*
X139492945Y-87807800D01*
X139335915Y-87776565D01*
X139187996Y-87715295D01*
X139121885Y-87671121D01*
X139054870Y-87626343D01*
X138941657Y-87513130D01*
X138852706Y-87380005D01*
X138852705Y-87380004D01*
X138791435Y-87232085D01*
X138760200Y-87075055D01*
X138760200Y-86914945D01*
X138791435Y-86757915D01*
X138852705Y-86609996D01*
X138941656Y-86476872D01*
X138941657Y-86476870D01*
X139054870Y-86363657D01*
X139187995Y-86274706D01*
X139187996Y-86274705D01*
X139335915Y-86213435D01*
X139492945Y-86182200D01*
X139653055Y-86182200D01*
X139810085Y-86213435D01*
G37*
G36*
X109485800Y-85355800D02*
G01*
X107684200Y-85355800D01*
X107684200Y-83554200D01*
X109485800Y-83554200D01*
X109485800Y-85355800D01*
G37*
G36*
X101213169Y-83636895D02*
G01*
X101368005Y-83701031D01*
X101507354Y-83794140D01*
X101625860Y-83912646D01*
X101718969Y-84051995D01*
X101783105Y-84206831D01*
X101815800Y-84371203D01*
X101815800Y-84538797D01*
X101783105Y-84703169D01*
X101718969Y-84858005D01*
X101625860Y-84997354D01*
X101507354Y-85115860D01*
X101368005Y-85208969D01*
X101213169Y-85273105D01*
X101048797Y-85305800D01*
X100881203Y-85305800D01*
X100716831Y-85273105D01*
X100561995Y-85208969D01*
X100422646Y-85115860D01*
X100304140Y-84997354D01*
X100211031Y-84858005D01*
X100146895Y-84703169D01*
X100114200Y-84538797D01*
X100114200Y-84371203D01*
X100146895Y-84206831D01*
X100211031Y-84051995D01*
X100304140Y-83912646D01*
X100422646Y-83794140D01*
X100561995Y-83701031D01*
X100716831Y-83636895D01*
X100881203Y-83604200D01*
X101048797Y-83604200D01*
X101213169Y-83636895D01*
G37*
G36*
X147430085Y-83673435D02*
G01*
X147578004Y-83734705D01*
X147578005Y-83734706D01*
X147711130Y-83823657D01*
X147824343Y-83936870D01*
X147824344Y-83936872D01*
X147913295Y-84069996D01*
X147974565Y-84217915D01*
X148005800Y-84374945D01*
X148005800Y-84535055D01*
X147974565Y-84692085D01*
X147913295Y-84840004D01*
X147913294Y-84840005D01*
X147824343Y-84973130D01*
X147711130Y-85086343D01*
X147644115Y-85131121D01*
X147578004Y-85175295D01*
X147430085Y-85236565D01*
X147273055Y-85267800D01*
X147112945Y-85267800D01*
X146955915Y-85236565D01*
X146807996Y-85175295D01*
X146741885Y-85131121D01*
X146674870Y-85086343D01*
X146561657Y-84973130D01*
X146472706Y-84840005D01*
X146472705Y-84840004D01*
X146411435Y-84692085D01*
X146380200Y-84535055D01*
X146380200Y-84374945D01*
X146411435Y-84217915D01*
X146472705Y-84069996D01*
X146561656Y-83936872D01*
X146561657Y-83936870D01*
X146674870Y-83823657D01*
X146807995Y-83734706D01*
X146807996Y-83734705D01*
X146955915Y-83673435D01*
X147112945Y-83642200D01*
X147273055Y-83642200D01*
X147430085Y-83673435D01*
G37*
G36*
X139810085Y-83673435D02*
G01*
X139958004Y-83734705D01*
X139958005Y-83734706D01*
X140091130Y-83823657D01*
X140204343Y-83936870D01*
X140204344Y-83936872D01*
X140293295Y-84069996D01*
X140354565Y-84217915D01*
X140385800Y-84374945D01*
X140385800Y-84535055D01*
X140354565Y-84692085D01*
X140293295Y-84840004D01*
X140293294Y-84840005D01*
X140204343Y-84973130D01*
X140091130Y-85086343D01*
X140024115Y-85131121D01*
X139958004Y-85175295D01*
X139810085Y-85236565D01*
X139653055Y-85267800D01*
X139492945Y-85267800D01*
X139335915Y-85236565D01*
X139187996Y-85175295D01*
X139121885Y-85131121D01*
X139054870Y-85086343D01*
X138941657Y-84973130D01*
X138852706Y-84840005D01*
X138852705Y-84840004D01*
X138791435Y-84692085D01*
X138760200Y-84535055D01*
X138760200Y-84374945D01*
X138791435Y-84217915D01*
X138852705Y-84069996D01*
X138941656Y-83936872D01*
X138941657Y-83936870D01*
X139054870Y-83823657D01*
X139187995Y-83734706D01*
X139187996Y-83734705D01*
X139335915Y-83673435D01*
X139492945Y-83642200D01*
X139653055Y-83642200D01*
X139810085Y-83673435D01*
G37*
M02*
