G04 #@! TF.GenerationSoftware,KiCad,Pcbnew,(5.1.5)-3*
G04 #@! TF.CreationDate,2021-02-10T11:03:33-05:00*
G04 #@! TF.ProjectId,PCB,5043422e-6b69-4636-9164-5f7063625858,rev?*
G04 #@! TF.SameCoordinates,Original*
G04 #@! TF.FileFunction,Copper,L2,Bot*
G04 #@! TF.FilePolarity,Positive*
%FSLAX46Y46*%
G04 Gerber Fmt 4.6, Leading zero omitted, Abs format (unit mm)*
G04 Created by KiCad (PCBNEW (5.1.5)-3) date 2021-02-10 11:03:33*
%MOMM*%
%LPD*%
G04 APERTURE LIST*
%ADD10O,1.700000X1.700000*%
%ADD11R,1.700000X1.700000*%
%ADD12C,0.100000*%
%ADD13O,4.100000X3.160000*%
%ADD14C,1.600000*%
%ADD15O,1.600000X1.600000*%
%ADD16C,1.524000*%
%ADD17C,0.254000*%
G04 APERTURE END LIST*
D10*
X108585000Y-94615000D03*
X108585000Y-92075000D03*
X108585000Y-89535000D03*
X108585000Y-86995000D03*
D11*
X108585000Y-84455000D03*
G04 #@! TA.AperFunction,ComponentPad*
D12*
G36*
X156764504Y-96211204D02*
G01*
X156788773Y-96214804D01*
X156812571Y-96220765D01*
X156835671Y-96229030D01*
X156857849Y-96239520D01*
X156878893Y-96252133D01*
X156898598Y-96266747D01*
X156916777Y-96283223D01*
X156933253Y-96301402D01*
X156947867Y-96321107D01*
X156960480Y-96342151D01*
X156970970Y-96364329D01*
X156979235Y-96387429D01*
X156985196Y-96411227D01*
X156988796Y-96435496D01*
X156990000Y-96460000D01*
X156990000Y-99120000D01*
X156988796Y-99144504D01*
X156985196Y-99168773D01*
X156979235Y-99192571D01*
X156970970Y-99215671D01*
X156960480Y-99237849D01*
X156947867Y-99258893D01*
X156933253Y-99278598D01*
X156916777Y-99296777D01*
X156898598Y-99313253D01*
X156878893Y-99327867D01*
X156857849Y-99340480D01*
X156835671Y-99350970D01*
X156812571Y-99359235D01*
X156788773Y-99365196D01*
X156764504Y-99368796D01*
X156740000Y-99370000D01*
X153140000Y-99370000D01*
X153115496Y-99368796D01*
X153091227Y-99365196D01*
X153067429Y-99359235D01*
X153044329Y-99350970D01*
X153022151Y-99340480D01*
X153001107Y-99327867D01*
X152981402Y-99313253D01*
X152963223Y-99296777D01*
X152946747Y-99278598D01*
X152932133Y-99258893D01*
X152919520Y-99237849D01*
X152909030Y-99215671D01*
X152900765Y-99192571D01*
X152894804Y-99168773D01*
X152891204Y-99144504D01*
X152890000Y-99120000D01*
X152890000Y-96460000D01*
X152891204Y-96435496D01*
X152894804Y-96411227D01*
X152900765Y-96387429D01*
X152909030Y-96364329D01*
X152919520Y-96342151D01*
X152932133Y-96321107D01*
X152946747Y-96301402D01*
X152963223Y-96283223D01*
X152981402Y-96266747D01*
X153001107Y-96252133D01*
X153022151Y-96239520D01*
X153044329Y-96229030D01*
X153067429Y-96220765D01*
X153091227Y-96214804D01*
X153115496Y-96211204D01*
X153140000Y-96210000D01*
X156740000Y-96210000D01*
X156764504Y-96211204D01*
G37*
G04 #@! TD.AperFunction*
D13*
X154940000Y-101750000D03*
D11*
X120015000Y-128270000D03*
D10*
X122555000Y-128270000D03*
X125095000Y-128270000D03*
D14*
X100965000Y-84455000D03*
D15*
X100965000Y-92075000D03*
D16*
X139573000Y-84455000D03*
X139573000Y-86995000D03*
X139573000Y-89535000D03*
X139573000Y-92075000D03*
X139573000Y-94615000D03*
X139573000Y-97155000D03*
X139573000Y-99695000D03*
X139573000Y-102235000D03*
X139573000Y-104775000D03*
X139573000Y-107315000D03*
X139573000Y-109855000D03*
X139573000Y-112395000D03*
X139573000Y-114935000D03*
X139573000Y-117475000D03*
X147193000Y-117475000D03*
X147193000Y-114935000D03*
X147193000Y-112395000D03*
X147193000Y-109855000D03*
X147193000Y-107315000D03*
X147193000Y-104775000D03*
X147193000Y-102235000D03*
X147193000Y-99695000D03*
X147193000Y-97155000D03*
X147193000Y-94615000D03*
X147193000Y-92075000D03*
X147193000Y-89535000D03*
X147193000Y-86995000D03*
X147193000Y-84455000D03*
D17*
X102096370Y-92075000D02*
X105664000Y-88507370D01*
X100965000Y-92075000D02*
X102096370Y-92075000D01*
X105664000Y-88507370D02*
X105664000Y-87630000D01*
X106299000Y-86995000D02*
X108585000Y-86995000D01*
X105664000Y-87630000D02*
X106299000Y-86995000D01*
X136525000Y-115570000D02*
X137160000Y-114935000D01*
X137160000Y-114935000D02*
X139573000Y-114935000D01*
X136525000Y-119380000D02*
X136525000Y-115570000D01*
X125095000Y-128270000D02*
X127635000Y-128270000D01*
X127635000Y-128270000D02*
X136525000Y-119380000D01*
X122555000Y-128270000D02*
X122555000Y-127000000D01*
X122555000Y-127000000D02*
X136525000Y-113030000D01*
X136525000Y-113030000D02*
X136525000Y-103505000D01*
X136525000Y-103505000D02*
X137795000Y-102235000D01*
X137795000Y-102235000D02*
X139573000Y-102235000D01*
X108585000Y-92075000D02*
X136144000Y-92075000D01*
X136144000Y-92075000D02*
X139573000Y-92075000D01*
X108585000Y-94615000D02*
X136144000Y-94615000D01*
X136144000Y-94615000D02*
X139573000Y-94615000D01*
X120015000Y-127166000D02*
X135255000Y-111926000D01*
X120015000Y-128270000D02*
X120015000Y-127166000D01*
X135255000Y-111926000D02*
X135255000Y-102235000D01*
X137795000Y-99695000D02*
X139573000Y-99695000D01*
X135255000Y-102235000D02*
X137795000Y-99695000D01*
M02*
