M48
INCH,TZ
T1C0.0300
T2C0.0315
T3C0.0394
T4C0.0669
%
G90
G05
T1
X54950Y-33250
X54950Y-34250
X54950Y-35250
X54950Y-36250
X54950Y-37250
X54950Y-38250
X54950Y-39250
X54950Y-40250
X54950Y-41250
X54950Y-42250
X54950Y-43250
X54950Y-44250
X54950Y-45250
X54950Y-46250
X57950Y-33250
X57950Y-34250
X57950Y-35250
X57950Y-36250
X57950Y-37250
X57950Y-38250
X57950Y-39250
X57950Y-40250
X57950Y-41250
X57950Y-42250
X57950Y-43250
X57950Y-44250
X57950Y-45250
X57950Y-46250
T2
X39750Y-33250
X39750Y-36250
T3
X42750Y-33250
X42750Y-34250
X42750Y-35250
X42750Y-36250
X42750Y-37250
X47250Y-50500
X48250Y-50500
X49250Y-50500
T4
X61000Y-38500
X61000Y-40059
T0
M30
