G04 #@! TF.GenerationSoftware,KiCad,Pcbnew,(5.0.0)*
G04 #@! TF.CreationDate,2019-03-08T19:40:39-05:00*
G04 #@! TF.ProjectId,DRV8308_pcb,445256383330385F7063622E6B696361,rev?*
G04 #@! TF.SameCoordinates,Original*
G04 #@! TF.FileFunction,Paste,Top*
G04 #@! TF.FilePolarity,Positive*
%FSLAX46Y46*%
G04 Gerber Fmt 4.6, Leading zero omitted, Abs format (unit mm)*
G04 Created by KiCad (PCBNEW (5.0.0)) date 03/08/19 19:40:39*
%MOMM*%
%LPD*%
G01*
G04 APERTURE LIST*
%ADD10C,1.000000*%
%ADD11C,0.100000*%
%ADD12C,0.280000*%
G04 APERTURE END LIST*
D10*
G04 #@! TO.C,U1*
X145591777Y-109681016D03*
D11*
G36*
X144707894Y-109504239D02*
X145415000Y-108797133D01*
X146475660Y-109857793D01*
X145768554Y-110564899D01*
X144707894Y-109504239D01*
X144707894Y-109504239D01*
G37*
D10*
X146511016Y-108761777D03*
D11*
G36*
X145627133Y-108585000D02*
X146334239Y-107877894D01*
X147394899Y-108938554D01*
X146687793Y-109645660D01*
X145627133Y-108585000D01*
X145627133Y-108585000D01*
G37*
D10*
X144318984Y-108408223D03*
D11*
G36*
X143435101Y-108231446D02*
X144142207Y-107524340D01*
X145202867Y-108585000D01*
X144495761Y-109292106D01*
X143435101Y-108231446D01*
X143435101Y-108231446D01*
G37*
D10*
X145238223Y-107488984D03*
D11*
G36*
X144354340Y-107312207D02*
X145061446Y-106605101D01*
X146122106Y-107665761D01*
X145415000Y-108372867D01*
X144354340Y-107312207D01*
X144354340Y-107312207D01*
G37*
D12*
X145726127Y-105091893D03*
X145977150Y-104840870D03*
D11*
G36*
X145627132Y-104992898D02*
X146129178Y-104490852D01*
X146327168Y-104688842D01*
X145825122Y-105190888D01*
X145627132Y-104992898D01*
X145627132Y-104992898D01*
G37*
D12*
X146079680Y-105445446D03*
X146330703Y-105194423D03*
D11*
G36*
X145980685Y-105346451D02*
X146482731Y-104844405D01*
X146680721Y-105042395D01*
X146178675Y-105544441D01*
X145980685Y-105346451D01*
X145980685Y-105346451D01*
G37*
D12*
X146433234Y-105798999D03*
X146684257Y-105547976D03*
D11*
G36*
X146334239Y-105700004D02*
X146836285Y-105197958D01*
X147034275Y-105395948D01*
X146532229Y-105897994D01*
X146334239Y-105700004D01*
X146334239Y-105700004D01*
G37*
D12*
X146786787Y-106152553D03*
X147037810Y-105901530D03*
D11*
G36*
X146687792Y-106053558D02*
X147189838Y-105551512D01*
X147387828Y-105749502D01*
X146885782Y-106251548D01*
X146687792Y-106053558D01*
X146687792Y-106053558D01*
G37*
D12*
X147140341Y-106506106D03*
X147391363Y-106255083D03*
D11*
G36*
X147041345Y-106407111D02*
X147543391Y-105905065D01*
X147741381Y-106103055D01*
X147239335Y-106605101D01*
X147041345Y-106407111D01*
X147041345Y-106407111D01*
G37*
D12*
X147493894Y-106859659D03*
X147744917Y-106608637D03*
D11*
G36*
X147394899Y-106760665D02*
X147896945Y-106258619D01*
X148094935Y-106456609D01*
X147592889Y-106958655D01*
X147394899Y-106760665D01*
X147394899Y-106760665D01*
G37*
D12*
X147847447Y-107213213D03*
X148098470Y-106962190D03*
D11*
G36*
X147748452Y-107114218D02*
X148250498Y-106612172D01*
X148448488Y-106810162D01*
X147946442Y-107312208D01*
X147748452Y-107114218D01*
X147748452Y-107114218D01*
G37*
D12*
X148201001Y-107566766D03*
X148452024Y-107315743D03*
D11*
G36*
X148102006Y-107467771D02*
X148604052Y-106965725D01*
X148802042Y-107163715D01*
X148299996Y-107665761D01*
X148102006Y-107467771D01*
X148102006Y-107467771D01*
G37*
D12*
X148554554Y-107920320D03*
X148805577Y-107669297D03*
D11*
G36*
X148455559Y-107821325D02*
X148957605Y-107319279D01*
X149155595Y-107517269D01*
X148653549Y-108019315D01*
X148455559Y-107821325D01*
X148455559Y-107821325D01*
G37*
D12*
X148908107Y-108273873D03*
X149159130Y-108022850D03*
D11*
G36*
X148809112Y-108174878D02*
X149311158Y-107672832D01*
X149509148Y-107870822D01*
X149007102Y-108372868D01*
X148809112Y-108174878D01*
X148809112Y-108174878D01*
G37*
D12*
X148908107Y-108896127D03*
X149159130Y-109147150D03*
D11*
G36*
X148809112Y-108995122D02*
X149007102Y-108797132D01*
X149509148Y-109299178D01*
X149311158Y-109497168D01*
X148809112Y-108995122D01*
X148809112Y-108995122D01*
G37*
D12*
X148554554Y-109249680D03*
X148805577Y-109500703D03*
D11*
G36*
X148455559Y-109348675D02*
X148653549Y-109150685D01*
X149155595Y-109652731D01*
X148957605Y-109850721D01*
X148455559Y-109348675D01*
X148455559Y-109348675D01*
G37*
D12*
X148201001Y-109603234D03*
X148452024Y-109854257D03*
D11*
G36*
X148102006Y-109702229D02*
X148299996Y-109504239D01*
X148802042Y-110006285D01*
X148604052Y-110204275D01*
X148102006Y-109702229D01*
X148102006Y-109702229D01*
G37*
D12*
X147847447Y-109956787D03*
X148098470Y-110207810D03*
D11*
G36*
X147748452Y-110055782D02*
X147946442Y-109857792D01*
X148448488Y-110359838D01*
X148250498Y-110557828D01*
X147748452Y-110055782D01*
X147748452Y-110055782D01*
G37*
D12*
X147493894Y-110310341D03*
X147744917Y-110561363D03*
D11*
G36*
X147394899Y-110409335D02*
X147592889Y-110211345D01*
X148094935Y-110713391D01*
X147896945Y-110911381D01*
X147394899Y-110409335D01*
X147394899Y-110409335D01*
G37*
D12*
X147140341Y-110663894D03*
X147391363Y-110914917D03*
D11*
G36*
X147041345Y-110762889D02*
X147239335Y-110564899D01*
X147741381Y-111066945D01*
X147543391Y-111264935D01*
X147041345Y-110762889D01*
X147041345Y-110762889D01*
G37*
D12*
X146786787Y-111017447D03*
X147037810Y-111268470D03*
D11*
G36*
X146687792Y-111116442D02*
X146885782Y-110918452D01*
X147387828Y-111420498D01*
X147189838Y-111618488D01*
X146687792Y-111116442D01*
X146687792Y-111116442D01*
G37*
D12*
X146433234Y-111371001D03*
X146684257Y-111622024D03*
D11*
G36*
X146334239Y-111469996D02*
X146532229Y-111272006D01*
X147034275Y-111774052D01*
X146836285Y-111972042D01*
X146334239Y-111469996D01*
X146334239Y-111469996D01*
G37*
D12*
X146079680Y-111724554D03*
X146330703Y-111975577D03*
D11*
G36*
X145980685Y-111823549D02*
X146178675Y-111625559D01*
X146680721Y-112127605D01*
X146482731Y-112325595D01*
X145980685Y-111823549D01*
X145980685Y-111823549D01*
G37*
D12*
X145726127Y-112078107D03*
X145977150Y-112329130D03*
D11*
G36*
X145627132Y-112177102D02*
X145825122Y-111979112D01*
X146327168Y-112481158D01*
X146129178Y-112679148D01*
X145627132Y-112177102D01*
X145627132Y-112177102D01*
G37*
D12*
X145103873Y-112078107D03*
X144852850Y-112329130D03*
D11*
G36*
X144502832Y-112481158D02*
X145004878Y-111979112D01*
X145202868Y-112177102D01*
X144700822Y-112679148D01*
X144502832Y-112481158D01*
X144502832Y-112481158D01*
G37*
D12*
X144750320Y-111724554D03*
X144499297Y-111975577D03*
D11*
G36*
X144149279Y-112127605D02*
X144651325Y-111625559D01*
X144849315Y-111823549D01*
X144347269Y-112325595D01*
X144149279Y-112127605D01*
X144149279Y-112127605D01*
G37*
D12*
X144396766Y-111371001D03*
X144145743Y-111622024D03*
D11*
G36*
X143795725Y-111774052D02*
X144297771Y-111272006D01*
X144495761Y-111469996D01*
X143993715Y-111972042D01*
X143795725Y-111774052D01*
X143795725Y-111774052D01*
G37*
D12*
X144043213Y-111017447D03*
X143792190Y-111268470D03*
D11*
G36*
X143442172Y-111420498D02*
X143944218Y-110918452D01*
X144142208Y-111116442D01*
X143640162Y-111618488D01*
X143442172Y-111420498D01*
X143442172Y-111420498D01*
G37*
D12*
X143689659Y-110663894D03*
X143438637Y-110914917D03*
D11*
G36*
X143088619Y-111066945D02*
X143590665Y-110564899D01*
X143788655Y-110762889D01*
X143286609Y-111264935D01*
X143088619Y-111066945D01*
X143088619Y-111066945D01*
G37*
D12*
X143336106Y-110310341D03*
X143085083Y-110561363D03*
D11*
G36*
X142735065Y-110713391D02*
X143237111Y-110211345D01*
X143435101Y-110409335D01*
X142933055Y-110911381D01*
X142735065Y-110713391D01*
X142735065Y-110713391D01*
G37*
D12*
X142982553Y-109956787D03*
X142731530Y-110207810D03*
D11*
G36*
X142381512Y-110359838D02*
X142883558Y-109857792D01*
X143081548Y-110055782D01*
X142579502Y-110557828D01*
X142381512Y-110359838D01*
X142381512Y-110359838D01*
G37*
D12*
X142628999Y-109603234D03*
X142377976Y-109854257D03*
D11*
G36*
X142027958Y-110006285D02*
X142530004Y-109504239D01*
X142727994Y-109702229D01*
X142225948Y-110204275D01*
X142027958Y-110006285D01*
X142027958Y-110006285D01*
G37*
D12*
X142275446Y-109249680D03*
X142024423Y-109500703D03*
D11*
G36*
X141674405Y-109652731D02*
X142176451Y-109150685D01*
X142374441Y-109348675D01*
X141872395Y-109850721D01*
X141674405Y-109652731D01*
X141674405Y-109652731D01*
G37*
D12*
X141921893Y-108896127D03*
X141670870Y-109147150D03*
D11*
G36*
X141320852Y-109299178D02*
X141822898Y-108797132D01*
X142020888Y-108995122D01*
X141518842Y-109497168D01*
X141320852Y-109299178D01*
X141320852Y-109299178D01*
G37*
D12*
X141921893Y-108273873D03*
X141670870Y-108022850D03*
D11*
G36*
X141320852Y-107870822D02*
X141518842Y-107672832D01*
X142020888Y-108174878D01*
X141822898Y-108372868D01*
X141320852Y-107870822D01*
X141320852Y-107870822D01*
G37*
D12*
X142275446Y-107920320D03*
X142024423Y-107669297D03*
D11*
G36*
X141674405Y-107517269D02*
X141872395Y-107319279D01*
X142374441Y-107821325D01*
X142176451Y-108019315D01*
X141674405Y-107517269D01*
X141674405Y-107517269D01*
G37*
D12*
X142628999Y-107566766D03*
X142377976Y-107315743D03*
D11*
G36*
X142027958Y-107163715D02*
X142225948Y-106965725D01*
X142727994Y-107467771D01*
X142530004Y-107665761D01*
X142027958Y-107163715D01*
X142027958Y-107163715D01*
G37*
D12*
X142982553Y-107213213D03*
X142731530Y-106962190D03*
D11*
G36*
X142381512Y-106810162D02*
X142579502Y-106612172D01*
X143081548Y-107114218D01*
X142883558Y-107312208D01*
X142381512Y-106810162D01*
X142381512Y-106810162D01*
G37*
D12*
X143336106Y-106859659D03*
X143085083Y-106608637D03*
D11*
G36*
X142735065Y-106456609D02*
X142933055Y-106258619D01*
X143435101Y-106760665D01*
X143237111Y-106958655D01*
X142735065Y-106456609D01*
X142735065Y-106456609D01*
G37*
D12*
X143689659Y-106506106D03*
X143438637Y-106255083D03*
D11*
G36*
X143088619Y-106103055D02*
X143286609Y-105905065D01*
X143788655Y-106407111D01*
X143590665Y-106605101D01*
X143088619Y-106103055D01*
X143088619Y-106103055D01*
G37*
D12*
X144043213Y-106152553D03*
X143792190Y-105901530D03*
D11*
G36*
X143442172Y-105749502D02*
X143640162Y-105551512D01*
X144142208Y-106053558D01*
X143944218Y-106251548D01*
X143442172Y-105749502D01*
X143442172Y-105749502D01*
G37*
D12*
X144396766Y-105798999D03*
X144145743Y-105547976D03*
D11*
G36*
X143795725Y-105395948D02*
X143993715Y-105197958D01*
X144495761Y-105700004D01*
X144297771Y-105897994D01*
X143795725Y-105395948D01*
X143795725Y-105395948D01*
G37*
D12*
X144750320Y-105445446D03*
X144499297Y-105194423D03*
D11*
G36*
X144149279Y-105042395D02*
X144347269Y-104844405D01*
X144849315Y-105346451D01*
X144651325Y-105544441D01*
X144149279Y-105042395D01*
X144149279Y-105042395D01*
G37*
D12*
X145103873Y-105091893D03*
X144852850Y-104840870D03*
D11*
G36*
X144502832Y-104688842D02*
X144700822Y-104490852D01*
X145202868Y-104992898D01*
X145004878Y-105190888D01*
X144502832Y-104688842D01*
X144502832Y-104688842D01*
G37*
G04 #@! TD*
M02*
