G04 #@! TF.GenerationSoftware,KiCad,Pcbnew,(5.0.0)*
G04 #@! TF.CreationDate,2019-03-08T19:40:39-05:00*
G04 #@! TF.ProjectId,DRV8308_pcb,445256383330385F7063622E6B696361,rev?*
G04 #@! TF.SameCoordinates,Original*
G04 #@! TF.FileFunction,Copper,L1,Top,Signal*
G04 #@! TF.FilePolarity,Positive*
%FSLAX46Y46*%
G04 Gerber Fmt 4.6, Leading zero omitted, Abs format (unit mm)*
G04 Created by KiCad (PCBNEW (5.0.0)) date 03/08/19 19:40:39*
%MOMM*%
%LPD*%
G01*
G04 APERTURE LIST*
G04 #@! TA.AperFunction,WasherPad*
%ADD10C,4.000000*%
G04 #@! TD*
G04 #@! TA.AperFunction,ComponentPad*
%ADD11O,2.500000X2.500000*%
G04 #@! TD*
G04 #@! TA.AperFunction,ComponentPad*
%ADD12C,2.500000*%
G04 #@! TD*
G04 #@! TA.AperFunction,ComponentPad*
%ADD13R,2.500000X2.500000*%
G04 #@! TD*
G04 #@! TA.AperFunction,ComponentPad*
%ADD14O,1.700000X1.700000*%
G04 #@! TD*
G04 #@! TA.AperFunction,ComponentPad*
%ADD15R,1.700000X1.700000*%
G04 #@! TD*
G04 #@! TA.AperFunction,ComponentPad*
%ADD16R,1.600000X1.600000*%
G04 #@! TD*
G04 #@! TA.AperFunction,ComponentPad*
%ADD17C,1.600000*%
G04 #@! TD*
G04 #@! TA.AperFunction,ComponentPad*
%ADD18R,2.175000X2.175000*%
G04 #@! TD*
G04 #@! TA.AperFunction,ComponentPad*
%ADD19C,2.175000*%
G04 #@! TD*
G04 #@! TA.AperFunction,ComponentPad*
%ADD20O,2.000000X1.905000*%
G04 #@! TD*
G04 #@! TA.AperFunction,ComponentPad*
%ADD21R,2.000000X1.905000*%
G04 #@! TD*
G04 #@! TA.AperFunction,ComponentPad*
%ADD22O,1.600000X1.600000*%
G04 #@! TD*
G04 #@! TA.AperFunction,ComponentPad*
%ADD23C,2.400000*%
G04 #@! TD*
G04 #@! TA.AperFunction,ComponentPad*
%ADD24O,2.400000X2.400000*%
G04 #@! TD*
G04 #@! TA.AperFunction,SMDPad,CuDef*
%ADD25C,2.620000*%
G04 #@! TD*
G04 #@! TA.AperFunction,Conductor*
%ADD26C,0.100000*%
G04 #@! TD*
G04 #@! TA.AperFunction,BGAPad,CuDef*
%ADD27C,0.280000*%
G04 #@! TD*
G04 #@! TA.AperFunction,SMDPad,CuDef*
%ADD28C,0.280000*%
G04 #@! TD*
G04 #@! TA.AperFunction,ComponentPad*
%ADD29R,1.295400X1.295400*%
G04 #@! TD*
G04 #@! TA.AperFunction,ComponentPad*
%ADD30C,1.295400*%
G04 #@! TD*
G04 #@! TA.AperFunction,ViaPad*
%ADD31C,0.600000*%
G04 #@! TD*
G04 #@! TA.AperFunction,ViaPad*
%ADD32C,1.400000*%
G04 #@! TD*
G04 #@! TA.AperFunction,ViaPad*
%ADD33C,0.800000*%
G04 #@! TD*
G04 #@! TA.AperFunction,Conductor*
%ADD34C,0.200000*%
G04 #@! TD*
G04 #@! TA.AperFunction,Conductor*
%ADD35C,0.150000*%
G04 #@! TD*
G04 #@! TA.AperFunction,Conductor*
%ADD36C,0.500000*%
G04 #@! TD*
G04 #@! TA.AperFunction,Conductor*
%ADD37C,0.250000*%
G04 #@! TD*
G04 #@! TA.AperFunction,Conductor*
%ADD38C,1.500000*%
G04 #@! TD*
G04 #@! TA.AperFunction,Conductor*
%ADD39C,0.254000*%
G04 #@! TD*
G04 APERTURE END LIST*
D10*
G04 #@! TO.P,J5,*
G04 #@! TO.N,*
X195260000Y-58420000D03*
X195260000Y-66820000D03*
D11*
G04 #@! TO.P,J5,3*
G04 #@! TO.N,/Vin*
X187960000Y-66820000D03*
D12*
G04 #@! TO.P,J5,2*
G04 #@! TO.N,GNDREF*
X187960000Y-62620000D03*
D13*
G04 #@! TO.P,J5,1*
G04 #@! TO.N,/Vm*
X187960000Y-58420000D03*
G04 #@! TD*
D10*
G04 #@! TO.P,J3,*
G04 #@! TO.N,*
X93030000Y-58420000D03*
X93030000Y-66820000D03*
D11*
G04 #@! TO.P,J3,3*
G04 #@! TO.N,/Vin*
X100330000Y-66820000D03*
D12*
G04 #@! TO.P,J3,2*
G04 #@! TO.N,GNDREF*
X100330000Y-62620000D03*
D13*
G04 #@! TO.P,J3,1*
G04 #@! TO.N,/Vm*
X100330000Y-58420000D03*
G04 #@! TD*
D14*
G04 #@! TO.P,J4,15*
G04 #@! TO.N,/SCLK*
X153035000Y-94615000D03*
G04 #@! TO.P,J4,14*
G04 #@! TO.N,/DATAO*
X137795000Y-94615000D03*
G04 #@! TO.P,J4,16*
G04 #@! TO.N,/MCU/A0*
X153035000Y-92075000D03*
G04 #@! TO.P,J4,13*
G04 #@! TO.N,/DATAI*
X137795000Y-92075000D03*
G04 #@! TO.P,J4,17*
G04 #@! TO.N,/MCU/A1*
X153035000Y-89535000D03*
G04 #@! TO.P,J4,12*
G04 #@! TO.N,/SCS*
X137795000Y-89535000D03*
G04 #@! TO.P,J4,18*
G04 #@! TO.N,/MCU/A2*
X153035000Y-86995000D03*
G04 #@! TO.P,J4,11*
G04 #@! TO.N,/FGOUT*
X137795000Y-86995000D03*
G04 #@! TO.P,J4,19*
G04 #@! TO.N,/MCU/A3*
X153035000Y-84455000D03*
G04 #@! TO.P,J4,10*
G04 #@! TO.N,/FAULTn*
X137795000Y-84455000D03*
G04 #@! TO.P,J4,20*
G04 #@! TO.N,/SDA*
X153035000Y-81915000D03*
G04 #@! TO.P,J4,9*
G04 #@! TO.N,/LOCKn*
X137795000Y-81915000D03*
G04 #@! TO.P,J4,21*
G04 #@! TO.N,/SCL*
X153035000Y-79375000D03*
G04 #@! TO.P,J4,8*
G04 #@! TO.N,/CLKIN*
X137795000Y-79375000D03*
G04 #@! TO.P,J4,22*
G04 #@! TO.N,/MCU/A6*
X153035000Y-76835000D03*
G04 #@! TO.P,J4,7*
G04 #@! TO.N,/BRAKE*
X137795000Y-76835000D03*
G04 #@! TO.P,J4,23*
G04 #@! TO.N,/MCU/A7*
X153035000Y-74295000D03*
G04 #@! TO.P,J4,6*
G04 #@! TO.N,/DIR*
X137795000Y-74295000D03*
G04 #@! TO.P,J4,24*
G04 #@! TO.N,/MCU/A8*
X153035000Y-71755000D03*
G04 #@! TO.P,J4,5*
G04 #@! TO.N,/ENABLE*
X137795000Y-71755000D03*
G04 #@! TO.P,J4,25*
G04 #@! TO.N,/MCU/A9*
X153035000Y-69215000D03*
G04 #@! TO.P,J4,4*
G04 #@! TO.N,/RESET*
X137795000Y-69215000D03*
G04 #@! TO.P,J4,26*
G04 #@! TO.N,/3.3V*
X153035000Y-66675000D03*
G04 #@! TO.P,J4,3*
G04 #@! TO.N,/B*
X137795000Y-66675000D03*
G04 #@! TO.P,J4,27*
G04 #@! TO.N,GNDREF*
X153035000Y-64135000D03*
G04 #@! TO.P,J4,2*
G04 #@! TO.N,/A*
X137795000Y-64135000D03*
G04 #@! TO.P,J4,28*
G04 #@! TO.N,/Vin*
X153035000Y-61595000D03*
D15*
G04 #@! TO.P,J4,1*
G04 #@! TO.N,GNDREF*
X137795000Y-61595000D03*
G04 #@! TD*
D16*
G04 #@! TO.P,C2,1*
G04 #@! TO.N,/Vm*
X113030000Y-59055000D03*
D17*
G04 #@! TO.P,C2,2*
G04 #@! TO.N,GNDREF*
X113030000Y-64055000D03*
G04 #@! TD*
D18*
G04 #@! TO.P,J1,1*
G04 #@! TO.N,/Hall_1*
X140335000Y-121920000D03*
D19*
G04 #@! TO.P,J1,2*
G04 #@! TO.N,/Hall_2*
X144535000Y-121920000D03*
G04 #@! TO.P,J1,3*
G04 #@! TO.N,/Vreg*
X148735000Y-121920000D03*
G04 #@! TO.P,J1,4*
G04 #@! TO.N,Motor_3*
X152935000Y-121920000D03*
G04 #@! TO.P,J1,5*
G04 #@! TO.N,/Hall_3*
X140335000Y-127420000D03*
G04 #@! TO.P,J1,6*
G04 #@! TO.N,GNDREF*
X144535000Y-127420000D03*
G04 #@! TO.P,J1,7*
G04 #@! TO.N,Motor_1*
X148735000Y-127420000D03*
G04 #@! TO.P,J1,8*
G04 #@! TO.N,Motor_2*
X152935000Y-127420000D03*
G04 #@! TD*
D15*
G04 #@! TO.P,J2,1*
G04 #@! TO.N,Net-(J2-Pad1)*
X102870000Y-113030000D03*
D14*
G04 #@! TO.P,J2,2*
G04 #@! TO.N,/Vreg*
X100330000Y-113030000D03*
G04 #@! TO.P,J2,3*
G04 #@! TO.N,GNDREF*
X102870000Y-110490000D03*
G04 #@! TO.P,J2,4*
G04 #@! TO.N,Net-(J2-Pad4)*
X100330000Y-110490000D03*
G04 #@! TO.P,J2,5*
G04 #@! TO.N,/ENC_!A*
X102870000Y-107950000D03*
G04 #@! TO.P,J2,6*
G04 #@! TO.N,/ENC_A*
X100330000Y-107950000D03*
G04 #@! TO.P,J2,7*
G04 #@! TO.N,/ENC_!B*
X102870000Y-105410000D03*
G04 #@! TO.P,J2,8*
G04 #@! TO.N,/ENC_B*
X100330000Y-105410000D03*
G04 #@! TO.P,J2,9*
G04 #@! TO.N,Net-(J2-Pad9)*
X102870000Y-102870000D03*
G04 #@! TO.P,J2,10*
G04 #@! TO.N,Net-(J2-Pad10)*
X100330000Y-102870000D03*
G04 #@! TD*
D15*
G04 #@! TO.P,J7,1*
G04 #@! TO.N,GNDREF*
X128270000Y-56515000D03*
D14*
G04 #@! TO.P,J7,2*
G04 #@! TO.N,/A*
X128270000Y-59055000D03*
G04 #@! TO.P,J7,3*
G04 #@! TO.N,/B*
X128270000Y-61595000D03*
G04 #@! TO.P,J7,4*
G04 #@! TO.N,/RESET*
X128270000Y-64135000D03*
G04 #@! TO.P,J7,5*
G04 #@! TO.N,/ENABLE*
X128270000Y-66675000D03*
G04 #@! TO.P,J7,6*
G04 #@! TO.N,/DIR*
X128270000Y-69215000D03*
G04 #@! TO.P,J7,7*
G04 #@! TO.N,/BRAKE*
X128270000Y-71755000D03*
G04 #@! TO.P,J7,8*
G04 #@! TO.N,/CLKIN*
X128270000Y-74295000D03*
G04 #@! TO.P,J7,9*
G04 #@! TO.N,/LOCKn*
X128270000Y-76835000D03*
G04 #@! TO.P,J7,10*
G04 #@! TO.N,/FAULTn*
X128270000Y-79375000D03*
G04 #@! TO.P,J7,11*
G04 #@! TO.N,/FGOUT*
X128270000Y-81915000D03*
G04 #@! TO.P,J7,12*
G04 #@! TO.N,/SCS*
X128270000Y-84455000D03*
G04 #@! TO.P,J7,13*
G04 #@! TO.N,/DATAI*
X128270000Y-86995000D03*
G04 #@! TO.P,J7,14*
G04 #@! TO.N,/DATAO*
X128270000Y-89535000D03*
G04 #@! TO.P,J7,15*
G04 #@! TO.N,/SCLK*
X128270000Y-92075000D03*
G04 #@! TO.P,J7,16*
G04 #@! TO.N,/SDA*
X128270000Y-94615000D03*
G04 #@! TO.P,J7,17*
G04 #@! TO.N,/SCL*
X128270000Y-97155000D03*
G04 #@! TO.P,J7,18*
G04 #@! TO.N,/Vreg*
X128270000Y-99695000D03*
G04 #@! TD*
D15*
G04 #@! TO.P,J8,1*
G04 #@! TO.N,/ENC_!A*
X101600000Y-86995000D03*
D14*
G04 #@! TO.P,J8,2*
G04 #@! TO.N,/ENC_A*
X101600000Y-89535000D03*
G04 #@! TO.P,J8,3*
G04 #@! TO.N,/ENC_!B*
X101600000Y-92075000D03*
G04 #@! TO.P,J8,4*
G04 #@! TO.N,/ENC_B*
X101600000Y-94615000D03*
G04 #@! TD*
D20*
G04 #@! TO.P,Q1,3*
G04 #@! TO.N,Motor_1*
X175895000Y-98425000D03*
G04 #@! TO.P,Q1,2*
G04 #@! TO.N,/Vm*
X175895000Y-95885000D03*
D21*
G04 #@! TO.P,Q1,1*
G04 #@! TO.N,/Power/UHSG*
X175895000Y-93345000D03*
G04 #@! TD*
G04 #@! TO.P,Q2,1*
G04 #@! TO.N,/Power/ULSG*
X184785000Y-93345000D03*
D20*
G04 #@! TO.P,Q2,2*
G04 #@! TO.N,Motor_1*
X184785000Y-95885000D03*
G04 #@! TO.P,Q2,3*
G04 #@! TO.N,/Power/ISEN*
X184785000Y-98425000D03*
G04 #@! TD*
G04 #@! TO.P,Q3,3*
G04 #@! TO.N,Motor_2*
X175895000Y-110490000D03*
G04 #@! TO.P,Q3,2*
G04 #@! TO.N,/Vm*
X175895000Y-107950000D03*
D21*
G04 #@! TO.P,Q3,1*
G04 #@! TO.N,/Power/VHSG*
X175895000Y-105410000D03*
G04 #@! TD*
G04 #@! TO.P,Q4,1*
G04 #@! TO.N,/Power/VLSG*
X184785000Y-105410000D03*
D20*
G04 #@! TO.P,Q4,2*
G04 #@! TO.N,Motor_2*
X184785000Y-107950000D03*
G04 #@! TO.P,Q4,3*
G04 #@! TO.N,/Power/ISEN*
X184785000Y-110490000D03*
G04 #@! TD*
G04 #@! TO.P,Q5,3*
G04 #@! TO.N,Motor_3*
X175895000Y-122555000D03*
G04 #@! TO.P,Q5,2*
G04 #@! TO.N,/Vm*
X175895000Y-120015000D03*
D21*
G04 #@! TO.P,Q5,1*
G04 #@! TO.N,/Power/WHSG*
X175895000Y-117475000D03*
G04 #@! TD*
G04 #@! TO.P,Q6,1*
G04 #@! TO.N,/Power/WLSG*
X184785000Y-117475000D03*
D20*
G04 #@! TO.P,Q6,2*
G04 #@! TO.N,Motor_3*
X184785000Y-120015000D03*
G04 #@! TO.P,Q6,3*
G04 #@! TO.N,/Power/ISEN*
X184785000Y-122555000D03*
G04 #@! TD*
D22*
G04 #@! TO.P,R1,2*
G04 #@! TO.N,/Hall_1*
X110490000Y-116205000D03*
D17*
G04 #@! TO.P,R1,1*
G04 #@! TO.N,/Vreg*
X110490000Y-108585000D03*
G04 #@! TD*
G04 #@! TO.P,R2,1*
G04 #@! TO.N,/Vreg*
X114935000Y-108585000D03*
D22*
G04 #@! TO.P,R2,2*
G04 #@! TO.N,/Hall_2*
X114935000Y-116205000D03*
G04 #@! TD*
G04 #@! TO.P,R3,2*
G04 #@! TO.N,/Hall_3*
X119380000Y-116205000D03*
D17*
G04 #@! TO.P,R3,1*
G04 #@! TO.N,/Vreg*
X119380000Y-108585000D03*
G04 #@! TD*
G04 #@! TO.P,R4,1*
G04 #@! TO.N,/Vreg*
X123825000Y-108585000D03*
D22*
G04 #@! TO.P,R4,2*
G04 #@! TO.N,/UHN*
X123825000Y-116205000D03*
G04 #@! TD*
G04 #@! TO.P,R5,2*
G04 #@! TO.N,GNDREF*
X123825000Y-127000000D03*
D17*
G04 #@! TO.P,R5,1*
G04 #@! TO.N,/UHN*
X123825000Y-119380000D03*
G04 #@! TD*
D23*
G04 #@! TO.P,R6,1*
G04 #@! TO.N,/Power/ISEN*
X175260000Y-86995000D03*
D24*
G04 #@! TO.P,R6,2*
G04 #@! TO.N,GNDREF*
X175260000Y-56515000D03*
G04 #@! TD*
D17*
G04 #@! TO.P,R7,1*
G04 #@! TO.N,/ENC_!A*
X110490000Y-119350000D03*
D22*
G04 #@! TO.P,R7,2*
G04 #@! TO.N,/ENC_A*
X110490000Y-126970000D03*
G04 #@! TD*
G04 #@! TO.P,R8,2*
G04 #@! TO.N,/ENC_B*
X113030000Y-97790000D03*
D17*
G04 #@! TO.P,R8,1*
G04 #@! TO.N,/ENC_!B*
X120650000Y-97790000D03*
G04 #@! TD*
D25*
G04 #@! TO.P,U1,41*
G04 #@! TO.N,GNDREF*
X145415000Y-108585000D03*
D26*
G04 #@! TD*
G04 #@! TO.N,GNDREF*
G04 #@! TO.C,U1*
G36*
X143244182Y-108266802D02*
X145096802Y-106414182D01*
X147585818Y-108903198D01*
X145733198Y-110755818D01*
X143244182Y-108266802D01*
X143244182Y-108266802D01*
G37*
D27*
G04 #@! TO.P,U1,40*
G04 #@! TO.N,/Power/WLSG*
X145726127Y-105091893D03*
D28*
X145977150Y-104840870D03*
D26*
G04 #@! TD*
G04 #@! TO.N,/Power/WLSG*
G04 #@! TO.C,U1*
G36*
X145627132Y-104992898D02*
X146129178Y-104490852D01*
X146327168Y-104688842D01*
X145825122Y-105190888D01*
X145627132Y-104992898D01*
X145627132Y-104992898D01*
G37*
D27*
G04 #@! TO.P,U1,39*
G04 #@! TO.N,Motor_3*
X146079680Y-105445446D03*
D28*
X146330703Y-105194423D03*
D26*
G04 #@! TD*
G04 #@! TO.N,Motor_3*
G04 #@! TO.C,U1*
G36*
X145980685Y-105346451D02*
X146482731Y-104844405D01*
X146680721Y-105042395D01*
X146178675Y-105544441D01*
X145980685Y-105346451D01*
X145980685Y-105346451D01*
G37*
D27*
G04 #@! TO.P,U1,38*
G04 #@! TO.N,/Power/WHSG*
X146433234Y-105798999D03*
D28*
X146684257Y-105547976D03*
D26*
G04 #@! TD*
G04 #@! TO.N,/Power/WHSG*
G04 #@! TO.C,U1*
G36*
X146334239Y-105700004D02*
X146836285Y-105197958D01*
X147034275Y-105395948D01*
X146532229Y-105897994D01*
X146334239Y-105700004D01*
X146334239Y-105700004D01*
G37*
D27*
G04 #@! TO.P,U1,37*
G04 #@! TO.N,/Power/VLSG*
X146786787Y-106152553D03*
D28*
X147037810Y-105901530D03*
D26*
G04 #@! TD*
G04 #@! TO.N,/Power/VLSG*
G04 #@! TO.C,U1*
G36*
X146687792Y-106053558D02*
X147189838Y-105551512D01*
X147387828Y-105749502D01*
X146885782Y-106251548D01*
X146687792Y-106053558D01*
X146687792Y-106053558D01*
G37*
D27*
G04 #@! TO.P,U1,36*
G04 #@! TO.N,Motor_2*
X147140341Y-106506106D03*
D28*
X147391363Y-106255083D03*
D26*
G04 #@! TD*
G04 #@! TO.N,Motor_2*
G04 #@! TO.C,U1*
G36*
X147041345Y-106407111D02*
X147543391Y-105905065D01*
X147741381Y-106103055D01*
X147239335Y-106605101D01*
X147041345Y-106407111D01*
X147041345Y-106407111D01*
G37*
D27*
G04 #@! TO.P,U1,35*
G04 #@! TO.N,/Power/VHSG*
X147493894Y-106859659D03*
D28*
X147744917Y-106608637D03*
D26*
G04 #@! TD*
G04 #@! TO.N,/Power/VHSG*
G04 #@! TO.C,U1*
G36*
X147394899Y-106760665D02*
X147896945Y-106258619D01*
X148094935Y-106456609D01*
X147592889Y-106958655D01*
X147394899Y-106760665D01*
X147394899Y-106760665D01*
G37*
D27*
G04 #@! TO.P,U1,34*
G04 #@! TO.N,/Power/ULSG*
X147847447Y-107213213D03*
D28*
X148098470Y-106962190D03*
D26*
G04 #@! TD*
G04 #@! TO.N,/Power/ULSG*
G04 #@! TO.C,U1*
G36*
X147748452Y-107114218D02*
X148250498Y-106612172D01*
X148448488Y-106810162D01*
X147946442Y-107312208D01*
X147748452Y-107114218D01*
X147748452Y-107114218D01*
G37*
D27*
G04 #@! TO.P,U1,33*
G04 #@! TO.N,Motor_1*
X148201001Y-107566766D03*
D28*
X148452024Y-107315743D03*
D26*
G04 #@! TD*
G04 #@! TO.N,Motor_1*
G04 #@! TO.C,U1*
G36*
X148102006Y-107467771D02*
X148604052Y-106965725D01*
X148802042Y-107163715D01*
X148299996Y-107665761D01*
X148102006Y-107467771D01*
X148102006Y-107467771D01*
G37*
D27*
G04 #@! TO.P,U1,32*
G04 #@! TO.N,/Power/UHSG*
X148554554Y-107920320D03*
D28*
X148805577Y-107669297D03*
D26*
G04 #@! TD*
G04 #@! TO.N,/Power/UHSG*
G04 #@! TO.C,U1*
G36*
X148455559Y-107821325D02*
X148957605Y-107319279D01*
X149155595Y-107517269D01*
X148653549Y-108019315D01*
X148455559Y-107821325D01*
X148455559Y-107821325D01*
G37*
D27*
G04 #@! TO.P,U1,31*
G04 #@! TO.N,/Power/ISEN*
X148908107Y-108273873D03*
D28*
X149159130Y-108022850D03*
D26*
G04 #@! TD*
G04 #@! TO.N,/Power/ISEN*
G04 #@! TO.C,U1*
G36*
X148809112Y-108174878D02*
X149311158Y-107672832D01*
X149509148Y-107870822D01*
X149007102Y-108372868D01*
X148809112Y-108174878D01*
X148809112Y-108174878D01*
G37*
D27*
G04 #@! TO.P,U1,30*
G04 #@! TO.N,Net-(C3-Pad1)*
X148908107Y-108896127D03*
D28*
X149159130Y-109147150D03*
D26*
G04 #@! TD*
G04 #@! TO.N,Net-(C3-Pad1)*
G04 #@! TO.C,U1*
G36*
X148809112Y-108995122D02*
X149007102Y-108797132D01*
X149509148Y-109299178D01*
X149311158Y-109497168D01*
X148809112Y-108995122D01*
X148809112Y-108995122D01*
G37*
D27*
G04 #@! TO.P,U1,29*
G04 #@! TO.N,Net-(C3-Pad2)*
X148554554Y-109249680D03*
D28*
X148805577Y-109500703D03*
D26*
G04 #@! TD*
G04 #@! TO.N,Net-(C3-Pad2)*
G04 #@! TO.C,U1*
G36*
X148455559Y-109348675D02*
X148653549Y-109150685D01*
X149155595Y-109652731D01*
X148957605Y-109850721D01*
X148455559Y-109348675D01*
X148455559Y-109348675D01*
G37*
D27*
G04 #@! TO.P,U1,28*
G04 #@! TO.N,Net-(C5-Pad2)*
X148201001Y-109603234D03*
D28*
X148452024Y-109854257D03*
D26*
G04 #@! TD*
G04 #@! TO.N,Net-(C5-Pad2)*
G04 #@! TO.C,U1*
G36*
X148102006Y-109702229D02*
X148299996Y-109504239D01*
X148802042Y-110006285D01*
X148604052Y-110204275D01*
X148102006Y-109702229D01*
X148102006Y-109702229D01*
G37*
D27*
G04 #@! TO.P,U1,27*
G04 #@! TO.N,/Vm*
X147847447Y-109956787D03*
D28*
X148098470Y-110207810D03*
D26*
G04 #@! TD*
G04 #@! TO.N,/Vm*
G04 #@! TO.C,U1*
G36*
X147748452Y-110055782D02*
X147946442Y-109857792D01*
X148448488Y-110359838D01*
X148250498Y-110557828D01*
X147748452Y-110055782D01*
X147748452Y-110055782D01*
G37*
D27*
G04 #@! TO.P,U1,26*
G04 #@! TO.N,GNDREF*
X147493894Y-110310341D03*
D28*
X147744917Y-110561363D03*
D26*
G04 #@! TD*
G04 #@! TO.N,GNDREF*
G04 #@! TO.C,U1*
G36*
X147394899Y-110409335D02*
X147592889Y-110211345D01*
X148094935Y-110713391D01*
X147896945Y-110911381D01*
X147394899Y-110409335D01*
X147394899Y-110409335D01*
G37*
D27*
G04 #@! TO.P,U1,25*
G04 #@! TO.N,Net-(C4-Pad2)*
X147140341Y-110663894D03*
D28*
X147391363Y-110914917D03*
D26*
G04 #@! TD*
G04 #@! TO.N,Net-(C4-Pad2)*
G04 #@! TO.C,U1*
G36*
X147041345Y-110762889D02*
X147239335Y-110564899D01*
X147741381Y-111066945D01*
X147543391Y-111264935D01*
X147041345Y-110762889D01*
X147041345Y-110762889D01*
G37*
D27*
G04 #@! TO.P,U1,24*
G04 #@! TO.N,/Vreg*
X146786787Y-111017447D03*
D28*
X147037810Y-111268470D03*
D26*
G04 #@! TD*
G04 #@! TO.N,/Vreg*
G04 #@! TO.C,U1*
G36*
X146687792Y-111116442D02*
X146885782Y-110918452D01*
X147387828Y-111420498D01*
X147189838Y-111618488D01*
X146687792Y-111116442D01*
X146687792Y-111116442D01*
G37*
D27*
G04 #@! TO.P,U1,23*
G04 #@! TO.N,/RESET*
X146433234Y-111371001D03*
D28*
X146684257Y-111622024D03*
D26*
G04 #@! TD*
G04 #@! TO.N,/RESET*
G04 #@! TO.C,U1*
G36*
X146334239Y-111469996D02*
X146532229Y-111272006D01*
X147034275Y-111774052D01*
X146836285Y-111972042D01*
X146334239Y-111469996D01*
X146334239Y-111469996D01*
G37*
D27*
G04 #@! TO.P,U1,22*
G04 #@! TO.N,/ENABLE*
X146079680Y-111724554D03*
D28*
X146330703Y-111975577D03*
D26*
G04 #@! TD*
G04 #@! TO.N,/ENABLE*
G04 #@! TO.C,U1*
G36*
X145980685Y-111823549D02*
X146178675Y-111625559D01*
X146680721Y-112127605D01*
X146482731Y-112325595D01*
X145980685Y-111823549D01*
X145980685Y-111823549D01*
G37*
D27*
G04 #@! TO.P,U1,21*
G04 #@! TO.N,/DIR*
X145726127Y-112078107D03*
D28*
X145977150Y-112329130D03*
D26*
G04 #@! TD*
G04 #@! TO.N,/DIR*
G04 #@! TO.C,U1*
G36*
X145627132Y-112177102D02*
X145825122Y-111979112D01*
X146327168Y-112481158D01*
X146129178Y-112679148D01*
X145627132Y-112177102D01*
X145627132Y-112177102D01*
G37*
D27*
G04 #@! TO.P,U1,20*
G04 #@! TO.N,/BRAKE*
X145103873Y-112078107D03*
D28*
X144852850Y-112329130D03*
D26*
G04 #@! TD*
G04 #@! TO.N,/BRAKE*
G04 #@! TO.C,U1*
G36*
X144502832Y-112481158D02*
X145004878Y-111979112D01*
X145202868Y-112177102D01*
X144700822Y-112679148D01*
X144502832Y-112481158D01*
X144502832Y-112481158D01*
G37*
D27*
G04 #@! TO.P,U1,19*
G04 #@! TO.N,/CLKIN*
X144750320Y-111724554D03*
D28*
X144499297Y-111975577D03*
D26*
G04 #@! TD*
G04 #@! TO.N,/CLKIN*
G04 #@! TO.C,U1*
G36*
X144149279Y-112127605D02*
X144651325Y-111625559D01*
X144849315Y-111823549D01*
X144347269Y-112325595D01*
X144149279Y-112127605D01*
X144149279Y-112127605D01*
G37*
D27*
G04 #@! TO.P,U1,18*
G04 #@! TO.N,/LOCKn*
X144396766Y-111371001D03*
D28*
X144145743Y-111622024D03*
D26*
G04 #@! TD*
G04 #@! TO.N,/LOCKn*
G04 #@! TO.C,U1*
G36*
X143795725Y-111774052D02*
X144297771Y-111272006D01*
X144495761Y-111469996D01*
X143993715Y-111972042D01*
X143795725Y-111774052D01*
X143795725Y-111774052D01*
G37*
D27*
G04 #@! TO.P,U1,17*
G04 #@! TO.N,/FAULTn*
X144043213Y-111017447D03*
D28*
X143792190Y-111268470D03*
D26*
G04 #@! TD*
G04 #@! TO.N,/FAULTn*
G04 #@! TO.C,U1*
G36*
X143442172Y-111420498D02*
X143944218Y-110918452D01*
X144142208Y-111116442D01*
X143640162Y-111618488D01*
X143442172Y-111420498D01*
X143442172Y-111420498D01*
G37*
D27*
G04 #@! TO.P,U1,16*
G04 #@! TO.N,/FGOUT*
X143689659Y-110663894D03*
D28*
X143438637Y-110914917D03*
D26*
G04 #@! TD*
G04 #@! TO.N,/FGOUT*
G04 #@! TO.C,U1*
G36*
X143088619Y-111066945D02*
X143590665Y-110564899D01*
X143788655Y-110762889D01*
X143286609Y-111264935D01*
X143088619Y-111066945D01*
X143088619Y-111066945D01*
G37*
D27*
G04 #@! TO.P,U1,15*
G04 #@! TO.N,/DATAO*
X143336106Y-110310341D03*
D28*
X143085083Y-110561363D03*
D26*
G04 #@! TD*
G04 #@! TO.N,/DATAO*
G04 #@! TO.C,U1*
G36*
X142735065Y-110713391D02*
X143237111Y-110211345D01*
X143435101Y-110409335D01*
X142933055Y-110911381D01*
X142735065Y-110713391D01*
X142735065Y-110713391D01*
G37*
D27*
G04 #@! TO.P,U1,14*
G04 #@! TO.N,/DATAI*
X142982553Y-109956787D03*
D28*
X142731530Y-110207810D03*
D26*
G04 #@! TD*
G04 #@! TO.N,/DATAI*
G04 #@! TO.C,U1*
G36*
X142381512Y-110359838D02*
X142883558Y-109857792D01*
X143081548Y-110055782D01*
X142579502Y-110557828D01*
X142381512Y-110359838D01*
X142381512Y-110359838D01*
G37*
D27*
G04 #@! TO.P,U1,13*
G04 #@! TO.N,Net-(U1-Pad13)*
X142628999Y-109603234D03*
D28*
X142377976Y-109854257D03*
D26*
G04 #@! TD*
G04 #@! TO.N,Net-(U1-Pad13)*
G04 #@! TO.C,U1*
G36*
X142027958Y-110006285D02*
X142530004Y-109504239D01*
X142727994Y-109702229D01*
X142225948Y-110204275D01*
X142027958Y-110006285D01*
X142027958Y-110006285D01*
G37*
D27*
G04 #@! TO.P,U1,12*
G04 #@! TO.N,/SCS*
X142275446Y-109249680D03*
D28*
X142024423Y-109500703D03*
D26*
G04 #@! TD*
G04 #@! TO.N,/SCS*
G04 #@! TO.C,U1*
G36*
X141674405Y-109652731D02*
X142176451Y-109150685D01*
X142374441Y-109348675D01*
X141872395Y-109850721D01*
X141674405Y-109652731D01*
X141674405Y-109652731D01*
G37*
D27*
G04 #@! TO.P,U1,11*
G04 #@! TO.N,/SCLK*
X141921893Y-108896127D03*
D28*
X141670870Y-109147150D03*
D26*
G04 #@! TD*
G04 #@! TO.N,/SCLK*
G04 #@! TO.C,U1*
G36*
X141320852Y-109299178D02*
X141822898Y-108797132D01*
X142020888Y-108995122D01*
X141518842Y-109497168D01*
X141320852Y-109299178D01*
X141320852Y-109299178D01*
G37*
D27*
G04 #@! TO.P,U1,10*
G04 #@! TO.N,Net-(U1-Pad10)*
X141921893Y-108273873D03*
D28*
X141670870Y-108022850D03*
D26*
G04 #@! TD*
G04 #@! TO.N,Net-(U1-Pad10)*
G04 #@! TO.C,U1*
G36*
X141320852Y-107870822D02*
X141518842Y-107672832D01*
X142020888Y-108174878D01*
X141822898Y-108372868D01*
X141320852Y-107870822D01*
X141320852Y-107870822D01*
G37*
D27*
G04 #@! TO.P,U1,9*
G04 #@! TO.N,Net-(U1-Pad9)*
X142275446Y-107920320D03*
D28*
X142024423Y-107669297D03*
D26*
G04 #@! TD*
G04 #@! TO.N,Net-(U1-Pad9)*
G04 #@! TO.C,U1*
G36*
X141674405Y-107517269D02*
X141872395Y-107319279D01*
X142374441Y-107821325D01*
X142176451Y-108019315D01*
X141674405Y-107517269D01*
X141674405Y-107517269D01*
G37*
D27*
G04 #@! TO.P,U1,8*
G04 #@! TO.N,Net-(U1-Pad8)*
X142628999Y-107566766D03*
D28*
X142377976Y-107315743D03*
D26*
G04 #@! TD*
G04 #@! TO.N,Net-(U1-Pad8)*
G04 #@! TO.C,U1*
G36*
X142027958Y-107163715D02*
X142225948Y-106965725D01*
X142727994Y-107467771D01*
X142530004Y-107665761D01*
X142027958Y-107163715D01*
X142027958Y-107163715D01*
G37*
D27*
G04 #@! TO.P,U1,7*
G04 #@! TO.N,Net-(U1-Pad7)*
X142982553Y-107213213D03*
D28*
X142731530Y-106962190D03*
D26*
G04 #@! TD*
G04 #@! TO.N,Net-(U1-Pad7)*
G04 #@! TO.C,U1*
G36*
X142381512Y-106810162D02*
X142579502Y-106612172D01*
X143081548Y-107114218D01*
X142883558Y-107312208D01*
X142381512Y-106810162D01*
X142381512Y-106810162D01*
G37*
D27*
G04 #@! TO.P,U1,6*
G04 #@! TO.N,/UHN*
X143336106Y-106859659D03*
D28*
X143085083Y-106608637D03*
D26*
G04 #@! TD*
G04 #@! TO.N,/UHN*
G04 #@! TO.C,U1*
G36*
X142735065Y-106456609D02*
X142933055Y-106258619D01*
X143435101Y-106760665D01*
X143237111Y-106958655D01*
X142735065Y-106456609D01*
X142735065Y-106456609D01*
G37*
D27*
G04 #@! TO.P,U1,5*
G04 #@! TO.N,/Hall_3*
X143689659Y-106506106D03*
D28*
X143438637Y-106255083D03*
D26*
G04 #@! TD*
G04 #@! TO.N,/Hall_3*
G04 #@! TO.C,U1*
G36*
X143088619Y-106103055D02*
X143286609Y-105905065D01*
X143788655Y-106407111D01*
X143590665Y-106605101D01*
X143088619Y-106103055D01*
X143088619Y-106103055D01*
G37*
D27*
G04 #@! TO.P,U1,4*
G04 #@! TO.N,/UHN*
X144043213Y-106152553D03*
D28*
X143792190Y-105901530D03*
D26*
G04 #@! TD*
G04 #@! TO.N,/UHN*
G04 #@! TO.C,U1*
G36*
X143442172Y-105749502D02*
X143640162Y-105551512D01*
X144142208Y-106053558D01*
X143944218Y-106251548D01*
X143442172Y-105749502D01*
X143442172Y-105749502D01*
G37*
D27*
G04 #@! TO.P,U1,3*
G04 #@! TO.N,/Hall_2*
X144396766Y-105798999D03*
D28*
X144145743Y-105547976D03*
D26*
G04 #@! TD*
G04 #@! TO.N,/Hall_2*
G04 #@! TO.C,U1*
G36*
X143795725Y-105395948D02*
X143993715Y-105197958D01*
X144495761Y-105700004D01*
X144297771Y-105897994D01*
X143795725Y-105395948D01*
X143795725Y-105395948D01*
G37*
D27*
G04 #@! TO.P,U1,2*
G04 #@! TO.N,/UHN*
X144750320Y-105445446D03*
D28*
X144499297Y-105194423D03*
D26*
G04 #@! TD*
G04 #@! TO.N,/UHN*
G04 #@! TO.C,U1*
G36*
X144149279Y-105042395D02*
X144347269Y-104844405D01*
X144849315Y-105346451D01*
X144651325Y-105544441D01*
X144149279Y-105042395D01*
X144149279Y-105042395D01*
G37*
D27*
G04 #@! TO.P,U1,1*
G04 #@! TO.N,/Hall_1*
X145103873Y-105091893D03*
D28*
X144852850Y-104840870D03*
D26*
G04 #@! TD*
G04 #@! TO.N,/Hall_1*
G04 #@! TO.C,U1*
G36*
X144502832Y-104688842D02*
X144700822Y-104490852D01*
X145202868Y-104992898D01*
X145004878Y-105190888D01*
X144502832Y-104688842D01*
X144502832Y-104688842D01*
G37*
D29*
G04 #@! TO.P,U2,1*
G04 #@! TO.N,/Vreg*
X99060000Y-81280000D03*
D30*
G04 #@! TO.P,U2,2*
G04 #@! TO.N,Net-(U2-Pad2)*
X101600000Y-81280000D03*
G04 #@! TO.P,U2,3*
G04 #@! TO.N,Net-(U2-Pad3)*
X104140000Y-81280000D03*
G04 #@! TO.P,U2,4*
G04 #@! TO.N,Net-(U2-Pad4)*
X106680000Y-81280000D03*
G04 #@! TO.P,U2,5*
G04 #@! TO.N,Net-(U2-Pad5)*
X109220000Y-81280000D03*
G04 #@! TO.P,U2,6*
G04 #@! TO.N,Net-(U2-Pad6)*
X111760000Y-81280000D03*
G04 #@! TO.P,U2,7*
G04 #@! TO.N,Net-(U2-Pad7)*
X114300000Y-81280000D03*
G04 #@! TO.P,U2,8*
G04 #@! TO.N,Net-(U2-Pad8)*
X116840000Y-81280000D03*
G04 #@! TO.P,U2,9*
G04 #@! TO.N,Net-(U2-Pad9)*
X119380000Y-81280000D03*
G04 #@! TO.P,U2,10*
G04 #@! TO.N,Net-(U2-Pad10)*
X121920000Y-81280000D03*
G04 #@! TO.P,U2,11*
G04 #@! TO.N,Net-(U2-Pad11)*
X121920000Y-73660000D03*
G04 #@! TO.P,U2,12*
G04 #@! TO.N,Net-(U2-Pad12)*
X119380000Y-73660000D03*
G04 #@! TO.P,U2,13*
G04 #@! TO.N,Net-(U2-Pad13)*
X116840000Y-73660000D03*
G04 #@! TO.P,U2,14*
G04 #@! TO.N,Net-(U2-Pad14)*
X114300000Y-73660000D03*
G04 #@! TO.P,U2,15*
G04 #@! TO.N,Net-(U2-Pad15)*
X111760000Y-73660000D03*
G04 #@! TO.P,U2,16*
G04 #@! TO.N,Net-(U2-Pad16)*
X109220000Y-73660000D03*
G04 #@! TO.P,U2,17*
G04 #@! TO.N,/B*
X106680000Y-73660000D03*
G04 #@! TO.P,U2,18*
G04 #@! TO.N,/A*
X104140000Y-73660000D03*
G04 #@! TO.P,U2,19*
G04 #@! TO.N,GNDREF*
X101600000Y-73660000D03*
G04 #@! TO.P,U2,20*
G04 #@! TO.N,/3.3V*
X99060000Y-73660000D03*
G04 #@! TD*
D29*
G04 #@! TO.P,U3,1*
G04 #@! TO.N,/ENC_!A*
X123825000Y-85725000D03*
D30*
G04 #@! TO.P,U3,2*
G04 #@! TO.N,/ENC_A*
X121285000Y-85725000D03*
G04 #@! TO.P,U3,3*
G04 #@! TO.N,Net-(U2-Pad2)*
X118745000Y-85725000D03*
G04 #@! TO.P,U3,4*
G04 #@! TO.N,/Vreg*
X116205000Y-85725000D03*
G04 #@! TO.P,U3,5*
G04 #@! TO.N,Net-(U3-Pad5)*
X113665000Y-85725000D03*
G04 #@! TO.P,U3,6*
G04 #@! TO.N,Net-(U3-Pad6)*
X111125000Y-85725000D03*
G04 #@! TO.P,U3,7*
G04 #@! TO.N,Net-(U3-Pad7)*
X108585000Y-85725000D03*
G04 #@! TO.P,U3,8*
G04 #@! TO.N,GNDREF*
X106045000Y-85725000D03*
G04 #@! TO.P,U3,9*
G04 #@! TO.N,Net-(U3-Pad9)*
X106045000Y-93345000D03*
G04 #@! TO.P,U3,10*
G04 #@! TO.N,Net-(U3-Pad10)*
X108585000Y-93345000D03*
G04 #@! TO.P,U3,11*
G04 #@! TO.N,Net-(U3-Pad11)*
X111125000Y-93345000D03*
G04 #@! TO.P,U3,12*
G04 #@! TO.N,/Vreg*
X113665000Y-93345000D03*
G04 #@! TO.P,U3,13*
G04 #@! TO.N,Net-(U2-Pad3)*
X116205000Y-93345000D03*
G04 #@! TO.P,U3,14*
G04 #@! TO.N,/ENC_B*
X118745000Y-93345000D03*
G04 #@! TO.P,U3,15*
G04 #@! TO.N,/ENC_!B*
X121285000Y-93345000D03*
G04 #@! TO.P,U3,16*
G04 #@! TO.N,/Vreg*
X123825000Y-93345000D03*
G04 #@! TD*
D15*
G04 #@! TO.P,J9,1*
G04 #@! TO.N,/SCL*
X146685000Y-53975000D03*
D14*
G04 #@! TO.P,J9,2*
X144145000Y-53975000D03*
G04 #@! TO.P,J9,3*
G04 #@! TO.N,/SDA*
X146685000Y-56515000D03*
G04 #@! TO.P,J9,4*
X144145000Y-56515000D03*
G04 #@! TD*
D22*
G04 #@! TO.P,R9,2*
G04 #@! TO.N,/3.3V*
X164465000Y-72390000D03*
D17*
G04 #@! TO.P,R9,1*
G04 #@! TO.N,/FAULTn*
X164465000Y-80010000D03*
G04 #@! TD*
G04 #@! TO.P,R10,1*
G04 #@! TO.N,/DATAO*
X160020000Y-80010000D03*
D22*
G04 #@! TO.P,R10,2*
G04 #@! TO.N,/3.3V*
X160020000Y-72390000D03*
G04 #@! TD*
D17*
G04 #@! TO.P,C1,2*
G04 #@! TO.N,GNDREF*
X122555000Y-64055000D03*
G04 #@! TO.P,C1,1*
G04 #@! TO.N,/Vm*
X122555000Y-59055000D03*
G04 #@! TD*
G04 #@! TO.P,C3,1*
G04 #@! TO.N,Net-(C3-Pad1)*
X156845000Y-103505000D03*
G04 #@! TO.P,C3,2*
G04 #@! TO.N,Net-(C3-Pad2)*
X161845000Y-103505000D03*
G04 #@! TD*
G04 #@! TO.P,C4,1*
G04 #@! TO.N,GNDREF*
X156845000Y-110871000D03*
G04 #@! TO.P,C4,2*
G04 #@! TO.N,Net-(C4-Pad2)*
X161845000Y-110871000D03*
G04 #@! TD*
G04 #@! TO.P,C5,2*
G04 #@! TO.N,Net-(C5-Pad2)*
X156845000Y-107315000D03*
G04 #@! TO.P,C5,1*
G04 #@! TO.N,/Vm*
X161845000Y-107315000D03*
G04 #@! TD*
G04 #@! TO.P,C6,1*
G04 #@! TO.N,GNDREF*
X156845000Y-114300000D03*
G04 #@! TO.P,C6,2*
G04 #@! TO.N,/Vreg*
X161845000Y-114300000D03*
G04 #@! TD*
D15*
G04 #@! TO.P,J6,1*
G04 #@! TO.N,Motor_1*
X130175000Y-107315000D03*
D14*
G04 #@! TO.P,J6,2*
G04 #@! TO.N,Motor_2*
X130175000Y-109855000D03*
G04 #@! TO.P,J6,3*
G04 #@! TO.N,Motor_3*
X130175000Y-112395000D03*
G04 #@! TO.P,J6,4*
G04 #@! TO.N,/Hall_1*
X130175000Y-114935000D03*
G04 #@! TO.P,J6,5*
G04 #@! TO.N,/Hall_2*
X130175000Y-117475000D03*
G04 #@! TO.P,J6,6*
G04 #@! TO.N,/Hall_3*
X130175000Y-120015000D03*
G04 #@! TO.P,J6,7*
G04 #@! TO.N,/UHN*
X130175000Y-122555000D03*
G04 #@! TD*
D31*
G04 #@! TO.N,/Hall_1*
X143950000Y-103950000D03*
G04 #@! TO.N,/Hall_2*
X143150000Y-104550000D03*
G04 #@! TO.N,Motor_3*
X148100000Y-103350000D03*
G04 #@! TO.N,/Hall_3*
X141300000Y-104550000D03*
X132950000Y-115450000D03*
G04 #@! TO.N,Motor_1*
X151050000Y-104650000D03*
D32*
G04 #@! TO.N,Motor_2*
X166500000Y-127300000D03*
D31*
X148350000Y-105350000D03*
G04 #@! TO.N,/ENC_!A*
X97536000Y-107188000D03*
G04 #@! TO.N,/DATAO*
X143002000Y-92837000D03*
G04 #@! TO.N,/UHN*
X136450000Y-119300000D03*
X141303552Y-105583261D03*
D32*
G04 #@! TO.N,/Power/ISEN*
X190550000Y-91200000D03*
D33*
X153300000Y-107400000D03*
G04 #@! TO.N,/Power/VHSG*
X157550000Y-99075010D03*
X154050000Y-99150000D03*
G04 #@! TO.N,/Power/VLSG*
X156700000Y-98400000D03*
D31*
X152908000Y-98425000D03*
D33*
G04 #@! TO.N,/Power/WHSG*
X158365146Y-100846405D03*
X152250000Y-100850000D03*
G04 #@! TO.N,/Power/WLSG*
X158450000Y-99850000D03*
X151900000Y-99800000D03*
D31*
G04 #@! TO.N,/3.3V*
X157607000Y-59055000D03*
X157607000Y-62484000D03*
G04 #@! TD*
D34*
G04 #@! TO.N,/Vm*
X148098470Y-110207810D02*
X148790660Y-110900000D01*
X148790660Y-110900000D02*
X154600000Y-110900000D01*
X154600000Y-110900000D02*
X156300000Y-109200000D01*
X159960000Y-109200000D02*
X161845000Y-107315000D01*
X156300000Y-109200000D02*
X159960000Y-109200000D01*
D35*
G04 #@! TO.N,GNDREF*
X147423184Y-110239630D02*
X147744917Y-110561363D01*
X147083772Y-109900218D02*
X147423184Y-110239630D01*
X146730218Y-109900218D02*
X147083772Y-109900218D01*
X145415000Y-108585000D02*
X146730218Y-109900218D01*
D34*
X156416000Y-111300000D02*
X156845000Y-110871000D01*
X147744917Y-110561363D02*
X148483554Y-111300000D01*
X148483554Y-111300000D02*
X156416000Y-111300000D01*
D35*
G04 #@! TO.N,Net-(C3-Pad2)*
X149127310Y-109822436D02*
X149127310Y-109827310D01*
X148805577Y-109500703D02*
X149127310Y-109822436D01*
X149127310Y-109827310D02*
X149400000Y-110100000D01*
X149400000Y-110100000D02*
X154200000Y-110100000D01*
X154200000Y-110100000D02*
X155550000Y-108750000D01*
X155550000Y-107018998D02*
X157118998Y-105450000D01*
X155550000Y-108750000D02*
X155550000Y-107018998D01*
X159900000Y-105450000D02*
X161845000Y-103505000D01*
X157118998Y-105450000D02*
X159900000Y-105450000D01*
G04 #@! TO.N,Net-(C3-Pad1)*
X149480863Y-109468883D02*
X149480863Y-109480863D01*
X149159130Y-109147150D02*
X149480863Y-109468883D01*
X149480863Y-109480863D02*
X149750000Y-109750000D01*
X149750000Y-109750000D02*
X153900000Y-109750000D01*
X153900000Y-109750000D02*
X155100000Y-108550000D01*
X155100000Y-108550000D02*
X155100000Y-106450000D01*
X156845000Y-104705000D02*
X156845000Y-103505000D01*
X155100000Y-106450000D02*
X156845000Y-104705000D01*
G04 #@! TO.N,Net-(C4-Pad2)*
X156050000Y-112300000D02*
X158850000Y-112300000D01*
X155500000Y-111750000D02*
X156050000Y-112300000D01*
X148250000Y-111750000D02*
X155500000Y-111750000D01*
X147736650Y-111236650D02*
X148250000Y-111750000D01*
X147391363Y-110914917D02*
X147713096Y-111236650D01*
X147713096Y-111236650D02*
X147736650Y-111236650D01*
X158850000Y-112300000D02*
X160279000Y-110871000D01*
X160279000Y-110871000D02*
X161845000Y-110871000D01*
G04 #@! TO.N,Net-(C5-Pad2)*
X156845000Y-108055000D02*
X156845000Y-107315000D01*
X154450000Y-110450000D02*
X156845000Y-108055000D01*
X149050000Y-110450000D02*
X154450000Y-110450000D01*
X148775990Y-110175990D02*
X149050000Y-110450000D01*
X148452024Y-109854257D02*
X148773757Y-110175990D01*
X148773757Y-110175990D02*
X148775990Y-110175990D01*
G04 #@! TO.N,/Vreg*
X147359543Y-111590203D02*
X147390203Y-111590203D01*
X147037810Y-111268470D02*
X147359543Y-111590203D01*
D34*
X148735000Y-121920000D02*
X148735000Y-112935000D01*
D36*
X101630001Y-114330001D02*
X106419999Y-114330001D01*
X100330000Y-113030000D02*
X101630001Y-114330001D01*
X106419999Y-114330001D02*
X108600000Y-112150000D01*
X108600000Y-110475000D02*
X110490000Y-108585000D01*
X108600000Y-112150000D02*
X108600000Y-110475000D01*
X110490000Y-108585000D02*
X114935000Y-108585000D01*
X119380000Y-108585000D02*
X114935000Y-108585000D01*
X123825000Y-108585000D02*
X119380000Y-108585000D01*
X128270000Y-104140000D02*
X128270000Y-99695000D01*
X123825000Y-108585000D02*
X128270000Y-104140000D01*
X123825000Y-95250000D02*
X128270000Y-99695000D01*
X123825000Y-93345000D02*
X123825000Y-95250000D01*
D37*
X99060000Y-82177700D02*
X100448300Y-83566000D01*
X99060000Y-81280000D02*
X99060000Y-82177700D01*
X114046000Y-83566000D02*
X116205000Y-85725000D01*
X100448300Y-83566000D02*
X114046000Y-83566000D01*
X113665000Y-93345000D02*
X115316000Y-91694000D01*
X122174000Y-91694000D02*
X123825000Y-93345000D01*
X115316000Y-91694000D02*
X122174000Y-91694000D01*
D34*
X160245000Y-112700000D02*
X161845000Y-114300000D01*
X147390203Y-111590203D02*
X147900000Y-112100000D01*
X155750000Y-112700000D02*
X160245000Y-112700000D01*
X148735000Y-112935000D02*
X147900000Y-112100000D01*
X148735000Y-112935000D02*
X148735000Y-112377000D01*
X148735000Y-112377000D02*
X148971000Y-112141000D01*
X155191000Y-112141000D02*
X155750000Y-112700000D01*
X148971000Y-112141000D02*
X155191000Y-112141000D01*
D35*
G04 #@! TO.N,/Hall_1*
X144852850Y-104840870D02*
X144840870Y-104840870D01*
X144840870Y-104840870D02*
X143950000Y-103950000D01*
G04 #@! TO.N,/Hall_2*
X144145743Y-105547976D02*
X144145743Y-105545743D01*
X144145743Y-105545743D02*
X143150000Y-104550000D01*
D38*
G04 #@! TO.N,Motor_3*
X178395000Y-122555000D02*
X175895000Y-122555000D01*
X179745000Y-122555000D02*
X178395000Y-122555000D01*
X182285000Y-120015000D02*
X179745000Y-122555000D01*
X184785000Y-120015000D02*
X182285000Y-120015000D01*
X152935000Y-121920000D02*
X172120000Y-121920000D01*
X172755000Y-122555000D02*
X175895000Y-122555000D01*
X172120000Y-121920000D02*
X172755000Y-122555000D01*
D35*
X148100000Y-103425126D02*
X148100000Y-103350000D01*
X146079680Y-105445446D02*
X148100000Y-103425126D01*
D34*
X129024999Y-113545001D02*
X129024999Y-123774999D01*
X130175000Y-112395000D02*
X129024999Y-113545001D01*
X129024999Y-123774999D02*
X129850000Y-124600000D01*
X150255000Y-124600000D02*
X152935000Y-121920000D01*
X129850000Y-124600000D02*
X150255000Y-124600000D01*
D35*
G04 #@! TO.N,/Hall_3*
X141350000Y-104600000D02*
X141300000Y-104550000D01*
X143438637Y-106255083D02*
X141783554Y-104600000D01*
X141783554Y-104600000D02*
X141350000Y-104600000D01*
X132950000Y-117240000D02*
X130175000Y-120015000D01*
X132950000Y-115450000D02*
X132950000Y-117240000D01*
D38*
G04 #@! TO.N,Motor_1*
X178395000Y-98425000D02*
X175895000Y-98425000D01*
X179745000Y-98425000D02*
X178395000Y-98425000D01*
X182285000Y-95885000D02*
X179745000Y-98425000D01*
X184785000Y-95885000D02*
X182285000Y-95885000D01*
X187285000Y-95885000D02*
X189050000Y-97650000D01*
X184785000Y-95885000D02*
X187285000Y-95885000D01*
X189050000Y-97650000D02*
X189050000Y-125900000D01*
X189050000Y-125900000D02*
X184200000Y-130750000D01*
X152065000Y-130750000D02*
X148735000Y-127420000D01*
X184200000Y-130750000D02*
X152065000Y-130750000D01*
D34*
X148452024Y-107315743D02*
X148452024Y-107247976D01*
D35*
X148452024Y-107315743D02*
X151050000Y-104717767D01*
X151050000Y-104717767D02*
X151050000Y-104650000D01*
D34*
X130175000Y-107315000D02*
X127635000Y-107315000D01*
X127635000Y-107315000D02*
X127250000Y-107700000D01*
X127250000Y-107700000D02*
X127250000Y-127200000D01*
X127250000Y-127200000D02*
X129950000Y-129900000D01*
X146255000Y-129900000D02*
X148735000Y-127420000D01*
X129950000Y-129900000D02*
X146255000Y-129900000D01*
D38*
G04 #@! TO.N,Motor_2*
X178395000Y-110490000D02*
X175895000Y-110490000D01*
X179745000Y-110490000D02*
X178395000Y-110490000D01*
X182285000Y-107950000D02*
X179745000Y-110490000D01*
X184785000Y-107950000D02*
X182285000Y-107950000D01*
X153055000Y-127300000D02*
X152935000Y-127420000D01*
X166500000Y-127300000D02*
X153055000Y-127300000D01*
D35*
X147391363Y-106255083D02*
X147444917Y-106255083D01*
X147444917Y-106255083D02*
X148350000Y-105350000D01*
D34*
X130175000Y-109855000D02*
X127750000Y-112280000D01*
X127750000Y-112280000D02*
X127750000Y-123450000D01*
X127750000Y-123450000D02*
X129700000Y-125400000D01*
X150915000Y-125400000D02*
X152935000Y-127420000D01*
X129700000Y-125400000D02*
X150915000Y-125400000D01*
G04 #@! TO.N,/ENC_!A*
X100017997Y-109100001D02*
X99150000Y-109967998D01*
X102870000Y-107950000D02*
X101719999Y-109100001D01*
X101719999Y-109100001D02*
X100017997Y-109100001D01*
X109358630Y-119350000D02*
X110490000Y-119350000D01*
X104947998Y-119350000D02*
X109358630Y-119350000D01*
X99150000Y-113552002D02*
X104947998Y-119350000D01*
X99150000Y-109967998D02*
X99150000Y-113552002D01*
X97536000Y-90009000D02*
X97536000Y-107188000D01*
X101600000Y-86995000D02*
X100550000Y-86995000D01*
X100550000Y-86995000D02*
X97536000Y-90009000D01*
D37*
X123825000Y-86622700D02*
X123825000Y-85725000D01*
X122436700Y-88011000D02*
X123825000Y-86622700D01*
X103716000Y-88011000D02*
X122436700Y-88011000D01*
X102700000Y-86995000D02*
X103716000Y-88011000D01*
X101600000Y-86995000D02*
X102700000Y-86995000D01*
D34*
G04 #@! TO.N,/ENC_A*
X99127919Y-107950000D02*
X98250000Y-108827919D01*
X100330000Y-107950000D02*
X99127919Y-107950000D01*
X98250000Y-114730000D02*
X110490000Y-126970000D01*
X98250000Y-108827919D02*
X98250000Y-114730000D01*
X100330000Y-107950000D02*
X98044000Y-105664000D01*
X98044000Y-105664000D02*
X98044000Y-90170000D01*
X98679000Y-89535000D02*
X101600000Y-89535000D01*
X98044000Y-90170000D02*
X98679000Y-89535000D01*
D37*
X123444000Y-83566000D02*
X121285000Y-85725000D01*
X124968000Y-83566000D02*
X123444000Y-83566000D01*
X125603000Y-84201000D02*
X124968000Y-83566000D01*
X125603000Y-85827402D02*
X125603000Y-84201000D01*
X101600000Y-89535000D02*
X121895402Y-89535000D01*
X121895402Y-89535000D02*
X125603000Y-85827402D01*
D34*
G04 #@! TO.N,/ENC_!B*
X113030000Y-105410000D02*
X120650000Y-97790000D01*
X102870000Y-105410000D02*
X113030000Y-105410000D01*
D37*
X120650000Y-93980000D02*
X121285000Y-93345000D01*
X120650000Y-97790000D02*
X120650000Y-93980000D01*
D34*
G04 #@! TO.N,/ENC_B*
X99179999Y-104259999D02*
X99179999Y-95384001D01*
X100330000Y-105410000D02*
X99179999Y-104259999D01*
X99949000Y-94615000D02*
X101600000Y-94615000D01*
X99179999Y-95384001D02*
X99949000Y-94615000D01*
D37*
X104775000Y-97790000D02*
X113030000Y-97790000D01*
X101600000Y-94615000D02*
X104775000Y-97790000D01*
X116967000Y-97790000D02*
X113030000Y-97790000D01*
X118097301Y-96659699D02*
X116967000Y-97790000D01*
X118745000Y-93345000D02*
X118097301Y-93992699D01*
X118097301Y-93992699D02*
X118097301Y-96659699D01*
G04 #@! TO.N,/SCL*
X151130000Y-77470000D02*
X151130000Y-55499000D01*
X153035000Y-79375000D02*
X151130000Y-77470000D01*
X149606000Y-53975000D02*
X146685000Y-53975000D01*
X151130000Y-55499000D02*
X149606000Y-53975000D01*
X146685000Y-53975000D02*
X144145000Y-53975000D01*
G04 #@! TO.N,/SDA*
X153035000Y-81915000D02*
X149733000Y-78613000D01*
X149733000Y-59563000D02*
X146685000Y-56515000D01*
X149733000Y-78613000D02*
X149733000Y-59563000D01*
X145482919Y-56515000D02*
X144145000Y-56515000D01*
X146685000Y-56515000D02*
X145482919Y-56515000D01*
D34*
G04 #@! TO.N,/A*
X137795000Y-64135000D02*
X136585000Y-64135000D01*
X131505000Y-59055000D02*
X128270000Y-59055000D01*
X136585000Y-64135000D02*
X131505000Y-59055000D01*
D37*
X125889998Y-59055000D02*
X118904998Y-66040000D01*
X128270000Y-59055000D02*
X125889998Y-59055000D01*
X111760000Y-66040000D02*
X104140000Y-73660000D01*
X118904998Y-66040000D02*
X111760000Y-66040000D01*
D34*
G04 #@! TO.N,/B*
X132715000Y-61595000D02*
X128270000Y-61595000D01*
X137795000Y-66675000D02*
X132715000Y-61595000D01*
D37*
X128270000Y-61595000D02*
X123063000Y-66802000D01*
X113538000Y-66802000D02*
X106680000Y-73660000D01*
X123063000Y-66802000D02*
X113538000Y-66802000D01*
D35*
G04 #@! TO.N,/RESET*
X134135000Y-69215000D02*
X137795000Y-69215000D01*
X130300000Y-73050000D02*
X134135000Y-69215000D01*
X130300000Y-99750000D02*
X130300000Y-73050000D01*
X132750000Y-102200000D02*
X130300000Y-99750000D01*
X148300000Y-113237767D02*
X148300000Y-117400000D01*
X146684257Y-111622024D02*
X148300000Y-113237767D01*
X148300000Y-117400000D02*
X147600000Y-118100000D01*
X147600000Y-118100000D02*
X137600000Y-118100000D01*
X137600000Y-118100000D02*
X132750000Y-113250000D01*
X132750000Y-113250000D02*
X132750000Y-102200000D01*
G04 #@! TO.N,/ENABLE*
X130950000Y-75450000D02*
X134650000Y-71750000D01*
X130950000Y-99550000D02*
X130950000Y-75450000D01*
X137950000Y-117450000D02*
X133500000Y-113000000D01*
X146652436Y-112297310D02*
X146652436Y-112302436D01*
X133500000Y-113000000D02*
X133500000Y-102100000D01*
X146330703Y-111975577D02*
X146652436Y-112297310D01*
X146652436Y-112302436D02*
X147550000Y-113200000D01*
X133500000Y-102100000D02*
X130950000Y-99550000D01*
X147550000Y-113200000D02*
X147550000Y-116950000D01*
X134655000Y-71755000D02*
X137795000Y-71755000D01*
X147550000Y-116950000D02*
X147050000Y-117450000D01*
X134650000Y-71750000D02*
X134655000Y-71755000D01*
X147050000Y-117450000D02*
X137950000Y-117450000D01*
G04 #@! TO.N,/DIR*
X145977150Y-112329130D02*
X146950000Y-113301980D01*
X146950000Y-113301980D02*
X146950000Y-116750000D01*
X146950000Y-116750000D02*
X146850000Y-116850000D01*
X146850000Y-116850000D02*
X138050000Y-116850000D01*
X138050000Y-116850000D02*
X133950000Y-112750000D01*
X133950000Y-112750000D02*
X133950000Y-101700000D01*
X133950000Y-101700000D02*
X131650000Y-99400000D01*
X131650000Y-99400000D02*
X131650000Y-77300000D01*
X134655000Y-74295000D02*
X137795000Y-74295000D01*
X131650000Y-77300000D02*
X134655000Y-74295000D01*
G04 #@! TO.N,/BRAKE*
X134450000Y-112400000D02*
X134450000Y-101450000D01*
X134450000Y-101450000D02*
X132100000Y-99100000D01*
X132100000Y-99100000D02*
X132100000Y-79450000D01*
X134715000Y-76835000D02*
X137795000Y-76835000D01*
X132100000Y-79450000D02*
X134715000Y-76835000D01*
X144852850Y-112329130D02*
X141100000Y-116081980D01*
X138131980Y-116081980D02*
X134450000Y-112400000D01*
X141100000Y-116081980D02*
X138131980Y-116081980D01*
G04 #@! TO.N,/CLKIN*
X134575000Y-79375000D02*
X137795000Y-79375000D01*
X132800000Y-81150000D02*
X134575000Y-79375000D01*
X140774874Y-115700000D02*
X138500000Y-115700000D01*
X144499297Y-111975577D02*
X140774874Y-115700000D01*
X135050000Y-112250000D02*
X135050000Y-101400000D01*
X138500000Y-115700000D02*
X135050000Y-112250000D01*
X135050000Y-101400000D02*
X132800000Y-99150000D01*
X132800000Y-99150000D02*
X132800000Y-81150000D01*
G04 #@! TO.N,/LOCKn*
X143824010Y-111943757D02*
X143806243Y-111943757D01*
X144145743Y-111622024D02*
X143824010Y-111943757D01*
X143806243Y-111943757D02*
X140600000Y-115150000D01*
X140600000Y-115150000D02*
X138850000Y-115150000D01*
X138850000Y-115150000D02*
X135600000Y-111900000D01*
X135600000Y-111900000D02*
X135600000Y-101250000D01*
X135600000Y-101250000D02*
X133300000Y-98950000D01*
X133300000Y-98950000D02*
X133300000Y-84100000D01*
X135485000Y-81915000D02*
X137795000Y-81915000D01*
X133300000Y-84100000D02*
X135485000Y-81915000D01*
G04 #@! TO.N,/FAULTn*
X143792190Y-111268470D02*
X140460660Y-114600000D01*
X140460660Y-114600000D02*
X139250000Y-114600000D01*
X139250000Y-114600000D02*
X136150000Y-111500000D01*
X136150000Y-111500000D02*
X136150000Y-101300000D01*
X136150000Y-101300000D02*
X133800000Y-98950000D01*
X133800000Y-98950000D02*
X133800000Y-86100000D01*
X135445000Y-84455000D02*
X137795000Y-84455000D01*
X133800000Y-86100000D02*
X135445000Y-84455000D01*
X138644999Y-83605001D02*
X137795000Y-84455000D01*
X139209999Y-83040001D02*
X138644999Y-83605001D01*
X155398997Y-83040001D02*
X139209999Y-83040001D01*
X159825998Y-78613000D02*
X155398997Y-83040001D01*
X163068000Y-78613000D02*
X159825998Y-78613000D01*
X164465000Y-80010000D02*
X163068000Y-78613000D01*
G04 #@! TO.N,/FGOUT*
X135955000Y-86995000D02*
X137795000Y-86995000D01*
X134200000Y-88750000D02*
X135955000Y-86995000D01*
X136600000Y-110800000D02*
X136600000Y-101000000D01*
X136600000Y-101000000D02*
X134200000Y-98600000D01*
X134200000Y-98600000D02*
X134200000Y-88750000D01*
X139100000Y-113300000D02*
X136600000Y-110800000D01*
X141053554Y-113300000D02*
X139100000Y-113300000D01*
X143438637Y-110914917D02*
X141053554Y-113300000D01*
G04 #@! TO.N,/SCS*
X141702690Y-109822436D02*
X141702690Y-109847310D01*
X142024423Y-109500703D02*
X141702690Y-109822436D01*
X141702690Y-109847310D02*
X140900000Y-110650000D01*
X140900000Y-110650000D02*
X139550000Y-110650000D01*
X139550000Y-110650000D02*
X138600000Y-109700000D01*
X138600000Y-109700000D02*
X138600000Y-97400000D01*
X138600000Y-97400000D02*
X139650000Y-96350000D01*
X139650000Y-91390000D02*
X137795000Y-89535000D01*
X139650000Y-96350000D02*
X139650000Y-91390000D01*
G04 #@! TO.N,/DATAI*
X142409797Y-110529543D02*
X142409797Y-110540203D01*
X142731530Y-110207810D02*
X142409797Y-110529543D01*
X142409797Y-110540203D02*
X141450000Y-111500000D01*
X141450000Y-111500000D02*
X139750000Y-111500000D01*
X139750000Y-111500000D02*
X137950000Y-109700000D01*
X137950000Y-109700000D02*
X137950000Y-97300000D01*
X138644999Y-92924999D02*
X137795000Y-92075000D01*
X138920001Y-93200001D02*
X138644999Y-92924999D01*
X138920001Y-96329999D02*
X138920001Y-93200001D01*
X137950000Y-97300000D02*
X138920001Y-96329999D01*
G04 #@! TO.N,/DATAO*
X134800000Y-95650000D02*
X135835000Y-94615000D01*
X141346446Y-112300000D02*
X139200000Y-112300000D01*
X143085083Y-110561363D02*
X141346446Y-112300000D01*
X139200000Y-112300000D02*
X137200000Y-110300000D01*
X137200000Y-110300000D02*
X137200000Y-100650000D01*
X135835000Y-94615000D02*
X137795000Y-94615000D01*
X137200000Y-100650000D02*
X134800000Y-98250000D01*
X134800000Y-98250000D02*
X134800000Y-95650000D01*
X154160001Y-85869999D02*
X149969001Y-85869999D01*
X160020000Y-80010000D02*
X154160001Y-85869999D01*
X149969001Y-85869999D02*
X143002000Y-92837000D01*
G04 #@! TO.N,/SCLK*
X141349137Y-109468883D02*
X141331117Y-109468883D01*
X141670870Y-109147150D02*
X141349137Y-109468883D01*
X141331117Y-109468883D02*
X140800000Y-110000000D01*
X140800000Y-110000000D02*
X139800000Y-110000000D01*
X139800000Y-110000000D02*
X139250000Y-109450000D01*
X139250000Y-109450000D02*
X139250000Y-99050000D01*
X139250000Y-99050000D02*
X143685000Y-94615000D01*
X143685000Y-94615000D02*
X153035000Y-94615000D01*
D34*
G04 #@! TO.N,/UHN*
X123825000Y-117336370D02*
X123825000Y-119380000D01*
X123825000Y-116205000D02*
X123825000Y-117336370D01*
D35*
X144586704Y-106223263D02*
X144113923Y-106223263D01*
X144821030Y-105988937D02*
X144586704Y-106223263D01*
X144821030Y-105516156D02*
X144821030Y-105988937D01*
X144499297Y-105194423D02*
X144821030Y-105516156D01*
X143406816Y-106930370D02*
X143085083Y-106608637D01*
X143476104Y-106999658D02*
X143406816Y-106930370D01*
X143810309Y-106999658D02*
X143476104Y-106999658D01*
X144113923Y-106696044D02*
X143810309Y-106999658D01*
X144113923Y-106223263D02*
X144113923Y-106696044D01*
X143792190Y-105901530D02*
X144113923Y-106223263D01*
X130175000Y-122555000D02*
X134655000Y-122555000D01*
X134655000Y-122555000D02*
X136450000Y-120760000D01*
X136450000Y-120760000D02*
X136450000Y-119300000D01*
X143085083Y-106608637D02*
X142059707Y-105583261D01*
X141727816Y-105583261D02*
X141303552Y-105583261D01*
X142059707Y-105583261D02*
X141727816Y-105583261D01*
G04 #@! TO.N,/Power/UHSG*
X174745000Y-93345000D02*
X175895000Y-93345000D01*
X170240000Y-97850000D02*
X174745000Y-93345000D01*
X157550000Y-97850000D02*
X170240000Y-97850000D01*
X157350000Y-97650000D02*
X157550000Y-97850000D01*
X149624874Y-106850000D02*
X150250000Y-106850000D01*
X148805577Y-107669297D02*
X149624874Y-106850000D01*
X150250000Y-106850000D02*
X155350000Y-101750000D01*
X155350000Y-101750000D02*
X155350000Y-98500000D01*
X155350000Y-98500000D02*
X156200000Y-97650000D01*
X156200000Y-97650000D02*
X157350000Y-97650000D01*
G04 #@! TO.N,/Power/ULSG*
X151825002Y-104074998D02*
X150773998Y-104074998D01*
X154900000Y-98355010D02*
X154900000Y-101000000D01*
X155955021Y-97299989D02*
X154900000Y-98355010D01*
X174942498Y-91850000D02*
X170350000Y-96442498D01*
X157494979Y-97299989D02*
X155955021Y-97299989D01*
X157594990Y-97400000D02*
X157494979Y-97299989D01*
X169400000Y-97400000D02*
X157594990Y-97400000D01*
X170350000Y-96450000D02*
X169400000Y-97400000D01*
X182140000Y-91850000D02*
X174942498Y-91850000D01*
X170350000Y-96442498D02*
X170350000Y-96450000D01*
X184785000Y-93345000D02*
X183635000Y-93345000D01*
X154900000Y-101000000D02*
X151825002Y-104074998D01*
X183635000Y-93345000D02*
X182140000Y-91850000D01*
X150773998Y-104074998D02*
X150225013Y-104623983D01*
X150225013Y-104920981D02*
X148505537Y-106640457D01*
X150225013Y-104623983D02*
X150225013Y-104920981D01*
X148505537Y-106640457D02*
X148420203Y-106640457D01*
X148420203Y-106640457D02*
X148098470Y-106962190D01*
D34*
G04 #@! TO.N,/Power/ISEN*
X149781980Y-107400000D02*
X148908107Y-108273873D01*
X153300000Y-107400000D02*
X149781980Y-107400000D01*
D38*
X190550000Y-90210051D02*
X187334949Y-86995000D01*
X190550000Y-91200000D02*
X190550000Y-90210051D01*
X187334949Y-86995000D02*
X175260000Y-86995000D01*
D35*
G04 #@! TO.N,/Power/VHSG*
X175895000Y-105410000D02*
X174745000Y-105410000D01*
X165900000Y-101350000D02*
X163625010Y-99075010D01*
X163625010Y-99075010D02*
X158115685Y-99075010D01*
X158115685Y-99075010D02*
X157550000Y-99075010D01*
X165900000Y-103200000D02*
X165900000Y-101350000D01*
X168110000Y-105410000D02*
X165900000Y-103200000D01*
X175895000Y-105410000D02*
X168110000Y-105410000D01*
X149875002Y-104776002D02*
X149875002Y-104429004D01*
X151755020Y-103649990D02*
X154050000Y-101355010D01*
X150654016Y-103649990D02*
X151755020Y-103649990D01*
X154050000Y-99715685D02*
X154050000Y-99150000D01*
X148428552Y-105925002D02*
X148726002Y-105925002D01*
X147744917Y-106608637D02*
X148428552Y-105925002D01*
X149875002Y-104429004D02*
X150654016Y-103649990D01*
X148726002Y-105925002D02*
X149875002Y-104776002D01*
X154050000Y-101355010D02*
X154050000Y-99715685D01*
G04 #@! TO.N,/Power/VLSG*
X166350000Y-100900000D02*
X163850000Y-98400000D01*
X184785000Y-105410000D02*
X178660000Y-105410000D01*
X167800000Y-103600000D02*
X166350000Y-102150000D01*
X178660000Y-105410000D02*
X176850000Y-103600000D01*
X176850000Y-103600000D02*
X167800000Y-103600000D01*
X166350000Y-102150000D02*
X166350000Y-100900000D01*
X158700000Y-98400000D02*
X156700000Y-98400000D01*
X163850000Y-98400000D02*
X158700000Y-98400000D01*
X158700000Y-98400000D02*
X158600000Y-98400000D01*
X151660020Y-103250000D02*
X153218919Y-101691101D01*
X147359543Y-105436451D02*
X149545994Y-103250000D01*
X149545994Y-103250000D02*
X151660020Y-103250000D01*
X147359543Y-105579797D02*
X147359543Y-105436451D01*
X147037810Y-105901530D02*
X147359543Y-105579797D01*
X152908000Y-98425000D02*
X152908000Y-99949000D01*
X153218919Y-100259919D02*
X153218919Y-101691101D01*
X152908000Y-99949000D02*
X153218919Y-100259919D01*
G04 #@! TO.N,/Power/WHSG*
X166225000Y-117475000D02*
X164100000Y-115350000D01*
X163296405Y-100846405D02*
X158930831Y-100846405D01*
X158930831Y-100846405D02*
X158365146Y-100846405D01*
X175895000Y-117475000D02*
X166225000Y-117475000D01*
X164100000Y-101650000D02*
X163296405Y-100846405D01*
X164100000Y-115350000D02*
X164100000Y-101650000D01*
X152250000Y-100850000D02*
X151451004Y-100850000D01*
X147005990Y-105226243D02*
X146684257Y-105547976D01*
X147074761Y-105226243D02*
X147005990Y-105226243D01*
X151451004Y-100850000D02*
X147074761Y-105226243D01*
G04 #@! TO.N,/Power/WLSG*
X182407499Y-116247499D02*
X167602501Y-116247499D01*
X184785000Y-117475000D02*
X183635000Y-117475000D01*
X183635000Y-117475000D02*
X182407499Y-116247499D01*
X167602501Y-116247499D02*
X165250000Y-113894998D01*
X165250000Y-113894998D02*
X165250000Y-101800000D01*
X165250000Y-101800000D02*
X163300000Y-99850000D01*
X163300000Y-99850000D02*
X158600000Y-99850000D01*
X158600000Y-99850000D02*
X158550000Y-99800000D01*
X158600000Y-99850000D02*
X158450000Y-99850000D01*
X150720030Y-99800000D02*
X151900000Y-99800000D01*
X150100000Y-99800000D02*
X150720030Y-99800000D01*
X147300000Y-102600000D02*
X150100000Y-99800000D01*
X145977150Y-104840870D02*
X147300000Y-103518020D01*
X147300000Y-103518020D02*
X147300000Y-102600000D01*
D37*
G04 #@! TO.N,Net-(U2-Pad2)*
X101600000Y-82195986D02*
X102081014Y-82677000D01*
X101600000Y-81280000D02*
X101600000Y-82195986D01*
X115697000Y-82677000D02*
X118745000Y-85725000D01*
X102081014Y-82677000D02*
X115697000Y-82677000D01*
G04 #@! TO.N,/3.3V*
X164465000Y-72390000D02*
X160020000Y-72390000D01*
X158750000Y-72390000D02*
X153035000Y-66675000D01*
X160020000Y-72390000D02*
X158750000Y-72390000D01*
X105918998Y-50546000D02*
X153162000Y-50546000D01*
X153162000Y-50546000D02*
X157607000Y-54991000D01*
X157607000Y-54991000D02*
X157607000Y-59055000D01*
X157353000Y-66675000D02*
X153035000Y-66675000D01*
X157607000Y-66421000D02*
X157353000Y-66675000D01*
X157607000Y-62484000D02*
X157607000Y-66421000D01*
D34*
X98412301Y-73012301D02*
X98412301Y-72885301D01*
X99060000Y-73660000D02*
X98412301Y-73012301D01*
X98412301Y-72885301D02*
X96774000Y-71247000D01*
X96774000Y-71247000D02*
X96774000Y-52959000D01*
X99187000Y-50546000D02*
X105918998Y-50546000D01*
X96774000Y-52959000D02*
X99187000Y-50546000D01*
D36*
G04 #@! TO.N,/Vin*
X104648000Y-62502000D02*
X100330000Y-66820000D01*
X104648000Y-60579000D02*
X104648000Y-62502000D01*
X113919000Y-51308000D02*
X104648000Y-60579000D01*
X152400000Y-51308000D02*
X113919000Y-51308000D01*
X153035000Y-61595000D02*
X153035000Y-51943000D01*
X153035000Y-51943000D02*
X152400000Y-51308000D01*
X172212000Y-61595000D02*
X177437000Y-66820000D01*
X153035000Y-61595000D02*
X172212000Y-61595000D01*
X177437000Y-66820000D02*
X187960000Y-66820000D01*
G04 #@! TD*
D39*
G04 #@! TO.N,GNDREF*
G36*
X97962791Y-50730763D02*
X96305463Y-52388091D01*
X96244096Y-52429095D01*
X96203092Y-52490462D01*
X96203091Y-52490463D01*
X96081646Y-52672218D01*
X96024602Y-52959000D01*
X96039001Y-53031389D01*
X96039000Y-71174616D01*
X96024602Y-71247000D01*
X96039000Y-71319384D01*
X96039000Y-71319387D01*
X96081646Y-71533782D01*
X96244095Y-71776905D01*
X96305465Y-71817911D01*
X97703388Y-73215835D01*
X97719947Y-73299083D01*
X97782398Y-73392548D01*
X97777300Y-73404855D01*
X97777300Y-73915145D01*
X97972579Y-74386591D01*
X98333409Y-74747421D01*
X98804855Y-74942700D01*
X99315145Y-74942700D01*
X99786591Y-74747421D01*
X99976665Y-74557347D01*
X100882258Y-74557347D01*
X100937655Y-74787705D01*
X101419627Y-74955332D01*
X101929059Y-74925756D01*
X102262345Y-74787705D01*
X102317742Y-74557347D01*
X101600000Y-73839605D01*
X100882258Y-74557347D01*
X99976665Y-74557347D01*
X100147421Y-74386591D01*
X100331520Y-73942136D01*
X100334244Y-73989059D01*
X100472295Y-74322345D01*
X100702653Y-74377742D01*
X101420395Y-73660000D01*
X100702653Y-72942258D01*
X100472295Y-72997655D01*
X100336162Y-73389072D01*
X100147421Y-72933409D01*
X99976665Y-72762653D01*
X100882258Y-72762653D01*
X101600000Y-73480395D01*
X102317742Y-72762653D01*
X102262345Y-72532295D01*
X101780373Y-72364668D01*
X101270941Y-72394244D01*
X100937655Y-72532295D01*
X100882258Y-72762653D01*
X99976665Y-72762653D01*
X99786591Y-72572579D01*
X99315145Y-72377300D01*
X98956842Y-72377300D01*
X98942206Y-72355396D01*
X98880838Y-72314391D01*
X97509000Y-70942554D01*
X97509000Y-63953320D01*
X99176285Y-63953320D01*
X99305533Y-64246123D01*
X100005806Y-64514388D01*
X100755435Y-64494250D01*
X101354467Y-64246123D01*
X101483715Y-63953320D01*
X100330000Y-62799605D01*
X99176285Y-63953320D01*
X97509000Y-63953320D01*
X97509000Y-62295806D01*
X98435612Y-62295806D01*
X98455750Y-63045435D01*
X98703877Y-63644467D01*
X98996680Y-63773715D01*
X100150395Y-62620000D01*
X100509605Y-62620000D01*
X101663320Y-63773715D01*
X101956123Y-63644467D01*
X102224388Y-62944194D01*
X102204250Y-62194565D01*
X101956123Y-61595533D01*
X101663320Y-61466285D01*
X100509605Y-62620000D01*
X100150395Y-62620000D01*
X98996680Y-61466285D01*
X98703877Y-61595533D01*
X98435612Y-62295806D01*
X97509000Y-62295806D01*
X97509000Y-61286680D01*
X99176285Y-61286680D01*
X100330000Y-62440395D01*
X101483715Y-61286680D01*
X101354467Y-60993877D01*
X100654194Y-60725612D01*
X99904565Y-60745750D01*
X99305533Y-60993877D01*
X99176285Y-61286680D01*
X97509000Y-61286680D01*
X97509000Y-57170000D01*
X98432560Y-57170000D01*
X98432560Y-59670000D01*
X98481843Y-59917765D01*
X98622191Y-60127809D01*
X98832235Y-60268157D01*
X99080000Y-60317440D01*
X101580000Y-60317440D01*
X101827765Y-60268157D01*
X102037809Y-60127809D01*
X102178157Y-59917765D01*
X102227440Y-59670000D01*
X102227440Y-57170000D01*
X102178157Y-56922235D01*
X102037809Y-56712191D01*
X101827765Y-56571843D01*
X101580000Y-56522560D01*
X99080000Y-56522560D01*
X98832235Y-56571843D01*
X98622191Y-56712191D01*
X98481843Y-56922235D01*
X98432560Y-57170000D01*
X97509000Y-57170000D01*
X97509000Y-53263446D01*
X99491447Y-51281000D01*
X105718463Y-51281000D01*
X105844146Y-51306000D01*
X112669421Y-51306000D01*
X104083847Y-59891575D01*
X104009951Y-59940951D01*
X103814348Y-60233691D01*
X103763000Y-60491836D01*
X103763000Y-60491839D01*
X103745663Y-60579000D01*
X103763000Y-60666161D01*
X103763001Y-62135420D01*
X100889132Y-65009289D01*
X100515655Y-64935000D01*
X100144345Y-64935000D01*
X99594510Y-65044369D01*
X98970991Y-65460991D01*
X98554369Y-66084510D01*
X98408071Y-66820000D01*
X98554369Y-67555490D01*
X98970991Y-68179009D01*
X99594510Y-68595631D01*
X100144345Y-68705000D01*
X100515655Y-68705000D01*
X101065490Y-68595631D01*
X101689009Y-68179009D01*
X102105631Y-67555490D01*
X102251929Y-66820000D01*
X102140711Y-66260868D01*
X104563356Y-63838223D01*
X111583035Y-63838223D01*
X111610222Y-64408454D01*
X111776136Y-64809005D01*
X112022255Y-64883139D01*
X112850395Y-64055000D01*
X113209605Y-64055000D01*
X114037745Y-64883139D01*
X114283864Y-64809005D01*
X114476965Y-64271777D01*
X114449778Y-63701546D01*
X114283864Y-63300995D01*
X114037745Y-63226861D01*
X113209605Y-64055000D01*
X112850395Y-64055000D01*
X112022255Y-63226861D01*
X111776136Y-63300995D01*
X111583035Y-63838223D01*
X104563356Y-63838223D01*
X105212156Y-63189423D01*
X105286049Y-63140049D01*
X105348053Y-63047255D01*
X112201861Y-63047255D01*
X113030000Y-63875395D01*
X113858139Y-63047255D01*
X113784005Y-62801136D01*
X113246777Y-62608035D01*
X112676546Y-62635222D01*
X112275995Y-62801136D01*
X112201861Y-63047255D01*
X105348053Y-63047255D01*
X105481651Y-62847311D01*
X105481652Y-62847310D01*
X105533000Y-62589165D01*
X105533000Y-62589161D01*
X105550337Y-62502001D01*
X105533000Y-62414841D01*
X105533000Y-60945578D01*
X108223578Y-58255000D01*
X111582560Y-58255000D01*
X111582560Y-59855000D01*
X111631843Y-60102765D01*
X111772191Y-60312809D01*
X111982235Y-60453157D01*
X112230000Y-60502440D01*
X113830000Y-60502440D01*
X114077765Y-60453157D01*
X114287809Y-60312809D01*
X114428157Y-60102765D01*
X114477440Y-59855000D01*
X114477440Y-58769561D01*
X121120000Y-58769561D01*
X121120000Y-59340439D01*
X121338466Y-59867862D01*
X121742138Y-60271534D01*
X122269561Y-60490000D01*
X122840439Y-60490000D01*
X123367862Y-60271534D01*
X123771534Y-59867862D01*
X123990000Y-59340439D01*
X123990000Y-58769561D01*
X123771534Y-58242138D01*
X123367862Y-57838466D01*
X122840439Y-57620000D01*
X122269561Y-57620000D01*
X121742138Y-57838466D01*
X121338466Y-58242138D01*
X121120000Y-58769561D01*
X114477440Y-58769561D01*
X114477440Y-58255000D01*
X114428157Y-58007235D01*
X114287809Y-57797191D01*
X114077765Y-57656843D01*
X113830000Y-57607560D01*
X112230000Y-57607560D01*
X111982235Y-57656843D01*
X111772191Y-57797191D01*
X111631843Y-58007235D01*
X111582560Y-58255000D01*
X108223578Y-58255000D01*
X110939888Y-55538690D01*
X126785000Y-55538690D01*
X126785000Y-56229250D01*
X126943750Y-56388000D01*
X128143000Y-56388000D01*
X128143000Y-55188750D01*
X128397000Y-55188750D01*
X128397000Y-56388000D01*
X129596250Y-56388000D01*
X129755000Y-56229250D01*
X129755000Y-55538690D01*
X129658327Y-55305301D01*
X129479698Y-55126673D01*
X129246309Y-55030000D01*
X128555750Y-55030000D01*
X128397000Y-55188750D01*
X128143000Y-55188750D01*
X127984250Y-55030000D01*
X127293691Y-55030000D01*
X127060302Y-55126673D01*
X126881673Y-55305301D01*
X126785000Y-55538690D01*
X110939888Y-55538690D01*
X114285579Y-52193000D01*
X152033422Y-52193000D01*
X152150001Y-52309580D01*
X152150000Y-60400344D01*
X151964375Y-60524375D01*
X151890000Y-60635685D01*
X151890000Y-55573846D01*
X151904888Y-55498999D01*
X151890000Y-55424152D01*
X151890000Y-55424148D01*
X151845904Y-55202463D01*
X151788239Y-55116161D01*
X151720329Y-55014526D01*
X151720327Y-55014524D01*
X151677929Y-54951071D01*
X151614476Y-54908673D01*
X150196331Y-53490530D01*
X150153929Y-53427071D01*
X149902537Y-53259096D01*
X149680852Y-53215000D01*
X149680847Y-53215000D01*
X149606000Y-53200112D01*
X149531153Y-53215000D01*
X148182440Y-53215000D01*
X148182440Y-53125000D01*
X148133157Y-52877235D01*
X147992809Y-52667191D01*
X147782765Y-52526843D01*
X147535000Y-52477560D01*
X145835000Y-52477560D01*
X145587235Y-52526843D01*
X145377191Y-52667191D01*
X145236843Y-52877235D01*
X145227816Y-52922619D01*
X145215625Y-52904375D01*
X144724418Y-52576161D01*
X144291256Y-52490000D01*
X143998744Y-52490000D01*
X143565582Y-52576161D01*
X143074375Y-52904375D01*
X142746161Y-53395582D01*
X142630908Y-53975000D01*
X142746161Y-54554418D01*
X143074375Y-55045625D01*
X143372761Y-55245000D01*
X143074375Y-55444375D01*
X142746161Y-55935582D01*
X142630908Y-56515000D01*
X142746161Y-57094418D01*
X143074375Y-57585625D01*
X143565582Y-57913839D01*
X143998744Y-58000000D01*
X144291256Y-58000000D01*
X144724418Y-57913839D01*
X145215625Y-57585625D01*
X145415000Y-57287239D01*
X145614375Y-57585625D01*
X146105582Y-57913839D01*
X146538744Y-58000000D01*
X146831256Y-58000000D01*
X147051408Y-57956209D01*
X148973001Y-59877803D01*
X148973000Y-78538153D01*
X148958112Y-78613000D01*
X148973000Y-78687847D01*
X148973000Y-78687851D01*
X149017096Y-78909536D01*
X149185071Y-79160929D01*
X149248530Y-79203331D01*
X151593791Y-81548592D01*
X151520908Y-81915000D01*
X151603457Y-82330001D01*
X139279925Y-82330001D01*
X139228575Y-82319787D01*
X139309092Y-81915000D01*
X139193839Y-81335582D01*
X138865625Y-80844375D01*
X138567239Y-80645000D01*
X138865625Y-80445625D01*
X139193839Y-79954418D01*
X139309092Y-79375000D01*
X139193839Y-78795582D01*
X138865625Y-78304375D01*
X138567239Y-78105000D01*
X138865625Y-77905625D01*
X139193839Y-77414418D01*
X139309092Y-76835000D01*
X139193839Y-76255582D01*
X138865625Y-75764375D01*
X138567239Y-75565000D01*
X138865625Y-75365625D01*
X139193839Y-74874418D01*
X139309092Y-74295000D01*
X139193839Y-73715582D01*
X138865625Y-73224375D01*
X138567239Y-73025000D01*
X138865625Y-72825625D01*
X139193839Y-72334418D01*
X139309092Y-71755000D01*
X139193839Y-71175582D01*
X138865625Y-70684375D01*
X138567239Y-70485000D01*
X138865625Y-70285625D01*
X139193839Y-69794418D01*
X139309092Y-69215000D01*
X139193839Y-68635582D01*
X138865625Y-68144375D01*
X138567239Y-67945000D01*
X138865625Y-67745625D01*
X139193839Y-67254418D01*
X139309092Y-66675000D01*
X139193839Y-66095582D01*
X138865625Y-65604375D01*
X138567239Y-65405000D01*
X138865625Y-65205625D01*
X139193839Y-64714418D01*
X139309092Y-64135000D01*
X139193839Y-63555582D01*
X138865625Y-63064375D01*
X138843967Y-63049904D01*
X139004698Y-62983327D01*
X139183327Y-62804699D01*
X139280000Y-62571310D01*
X139280000Y-61880750D01*
X139121250Y-61722000D01*
X137922000Y-61722000D01*
X137922000Y-61742000D01*
X137668000Y-61742000D01*
X137668000Y-61722000D01*
X136468750Y-61722000D01*
X136310000Y-61880750D01*
X136310000Y-62571310D01*
X136406673Y-62804699D01*
X136585302Y-62983327D01*
X136746033Y-63049904D01*
X136724375Y-63064375D01*
X136656061Y-63166614D01*
X134108137Y-60618690D01*
X136310000Y-60618690D01*
X136310000Y-61309250D01*
X136468750Y-61468000D01*
X137668000Y-61468000D01*
X137668000Y-60268750D01*
X137922000Y-60268750D01*
X137922000Y-61468000D01*
X139121250Y-61468000D01*
X139280000Y-61309250D01*
X139280000Y-60618690D01*
X139183327Y-60385301D01*
X139004698Y-60206673D01*
X138771309Y-60110000D01*
X138080750Y-60110000D01*
X137922000Y-60268750D01*
X137668000Y-60268750D01*
X137509250Y-60110000D01*
X136818691Y-60110000D01*
X136585302Y-60206673D01*
X136406673Y-60385301D01*
X136310000Y-60618690D01*
X134108137Y-60618690D01*
X132075911Y-58586465D01*
X132034905Y-58525095D01*
X131791783Y-58362646D01*
X131577388Y-58320000D01*
X131577384Y-58320000D01*
X131505000Y-58305602D01*
X131432616Y-58320000D01*
X129564882Y-58320000D01*
X129340625Y-57984375D01*
X129318967Y-57969904D01*
X129479698Y-57903327D01*
X129658327Y-57724699D01*
X129755000Y-57491310D01*
X129755000Y-56800750D01*
X129596250Y-56642000D01*
X128397000Y-56642000D01*
X128397000Y-56662000D01*
X128143000Y-56662000D01*
X128143000Y-56642000D01*
X126943750Y-56642000D01*
X126785000Y-56800750D01*
X126785000Y-57491310D01*
X126881673Y-57724699D01*
X127060302Y-57903327D01*
X127221033Y-57969904D01*
X127199375Y-57984375D01*
X126991822Y-58295000D01*
X125964846Y-58295000D01*
X125889998Y-58280112D01*
X125815150Y-58295000D01*
X125815146Y-58295000D01*
X125641603Y-58329520D01*
X125593460Y-58339096D01*
X125406416Y-58464076D01*
X125342069Y-58507071D01*
X125299669Y-58570527D01*
X118590197Y-65280000D01*
X113792699Y-65280000D01*
X113858139Y-65062745D01*
X113030000Y-64234605D01*
X112201861Y-65062745D01*
X112267301Y-65280000D01*
X111834846Y-65280000D01*
X111759999Y-65265112D01*
X111685152Y-65280000D01*
X111685148Y-65280000D01*
X111463463Y-65324096D01*
X111400902Y-65365898D01*
X111275526Y-65449671D01*
X111275524Y-65449673D01*
X111212071Y-65492071D01*
X111169673Y-65555524D01*
X104347899Y-72377300D01*
X103884855Y-72377300D01*
X103413409Y-72572579D01*
X103052579Y-72933409D01*
X102868480Y-73377864D01*
X102865756Y-73330941D01*
X102727705Y-72997655D01*
X102497347Y-72942258D01*
X101779605Y-73660000D01*
X102497347Y-74377742D01*
X102727705Y-74322345D01*
X102863838Y-73930928D01*
X103052579Y-74386591D01*
X103413409Y-74747421D01*
X103884855Y-74942700D01*
X104395145Y-74942700D01*
X104866591Y-74747421D01*
X105227421Y-74386591D01*
X105410000Y-73945806D01*
X105592579Y-74386591D01*
X105953409Y-74747421D01*
X106424855Y-74942700D01*
X106935145Y-74942700D01*
X107406591Y-74747421D01*
X107767421Y-74386591D01*
X107950000Y-73945806D01*
X108132579Y-74386591D01*
X108493409Y-74747421D01*
X108964855Y-74942700D01*
X109475145Y-74942700D01*
X109946591Y-74747421D01*
X110307421Y-74386591D01*
X110490000Y-73945806D01*
X110672579Y-74386591D01*
X111033409Y-74747421D01*
X111504855Y-74942700D01*
X112015145Y-74942700D01*
X112486591Y-74747421D01*
X112847421Y-74386591D01*
X113030000Y-73945806D01*
X113212579Y-74386591D01*
X113573409Y-74747421D01*
X114044855Y-74942700D01*
X114555145Y-74942700D01*
X115026591Y-74747421D01*
X115387421Y-74386591D01*
X115570000Y-73945806D01*
X115752579Y-74386591D01*
X116113409Y-74747421D01*
X116584855Y-74942700D01*
X117095145Y-74942700D01*
X117566591Y-74747421D01*
X117927421Y-74386591D01*
X118110000Y-73945806D01*
X118292579Y-74386591D01*
X118653409Y-74747421D01*
X119124855Y-74942700D01*
X119635145Y-74942700D01*
X120106591Y-74747421D01*
X120467421Y-74386591D01*
X120650000Y-73945806D01*
X120832579Y-74386591D01*
X121193409Y-74747421D01*
X121664855Y-74942700D01*
X122175145Y-74942700D01*
X122646591Y-74747421D01*
X123007421Y-74386591D01*
X123202700Y-73915145D01*
X123202700Y-73404855D01*
X123007421Y-72933409D01*
X122646591Y-72572579D01*
X122175145Y-72377300D01*
X121664855Y-72377300D01*
X121193409Y-72572579D01*
X120832579Y-72933409D01*
X120650000Y-73374194D01*
X120467421Y-72933409D01*
X120106591Y-72572579D01*
X119635145Y-72377300D01*
X119124855Y-72377300D01*
X118653409Y-72572579D01*
X118292579Y-72933409D01*
X118110000Y-73374194D01*
X117927421Y-72933409D01*
X117566591Y-72572579D01*
X117095145Y-72377300D01*
X116584855Y-72377300D01*
X116113409Y-72572579D01*
X115752579Y-72933409D01*
X115570000Y-73374194D01*
X115387421Y-72933409D01*
X115026591Y-72572579D01*
X114555145Y-72377300D01*
X114044855Y-72377300D01*
X113573409Y-72572579D01*
X113212579Y-72933409D01*
X113030000Y-73374194D01*
X112847421Y-72933409D01*
X112486591Y-72572579D01*
X112015145Y-72377300D01*
X111504855Y-72377300D01*
X111033409Y-72572579D01*
X110672579Y-72933409D01*
X110490000Y-73374194D01*
X110307421Y-72933409D01*
X109946591Y-72572579D01*
X109475145Y-72377300D01*
X109037501Y-72377300D01*
X113852802Y-67562000D01*
X122988153Y-67562000D01*
X123063000Y-67576888D01*
X123137847Y-67562000D01*
X123137852Y-67562000D01*
X123359537Y-67517904D01*
X123610929Y-67349929D01*
X123653331Y-67286470D01*
X126764020Y-64175782D01*
X126871161Y-64714418D01*
X127199375Y-65205625D01*
X127497761Y-65405000D01*
X127199375Y-65604375D01*
X126871161Y-66095582D01*
X126755908Y-66675000D01*
X126871161Y-67254418D01*
X127199375Y-67745625D01*
X127497761Y-67945000D01*
X127199375Y-68144375D01*
X126871161Y-68635582D01*
X126755908Y-69215000D01*
X126871161Y-69794418D01*
X127199375Y-70285625D01*
X127497761Y-70485000D01*
X127199375Y-70684375D01*
X126871161Y-71175582D01*
X126755908Y-71755000D01*
X126871161Y-72334418D01*
X127199375Y-72825625D01*
X127497761Y-73025000D01*
X127199375Y-73224375D01*
X126871161Y-73715582D01*
X126755908Y-74295000D01*
X126871161Y-74874418D01*
X127199375Y-75365625D01*
X127497761Y-75565000D01*
X127199375Y-75764375D01*
X126871161Y-76255582D01*
X126755908Y-76835000D01*
X126871161Y-77414418D01*
X127199375Y-77905625D01*
X127497761Y-78105000D01*
X127199375Y-78304375D01*
X126871161Y-78795582D01*
X126755908Y-79375000D01*
X126871161Y-79954418D01*
X127199375Y-80445625D01*
X127497761Y-80645000D01*
X127199375Y-80844375D01*
X126871161Y-81335582D01*
X126755908Y-81915000D01*
X126871161Y-82494418D01*
X127199375Y-82985625D01*
X127497761Y-83185000D01*
X127199375Y-83384375D01*
X126871161Y-83875582D01*
X126755908Y-84455000D01*
X126871161Y-85034418D01*
X127199375Y-85525625D01*
X127497761Y-85725000D01*
X127199375Y-85924375D01*
X126871161Y-86415582D01*
X126755908Y-86995000D01*
X126871161Y-87574418D01*
X127199375Y-88065625D01*
X127497761Y-88265000D01*
X127199375Y-88464375D01*
X126871161Y-88955582D01*
X126755908Y-89535000D01*
X126871161Y-90114418D01*
X127199375Y-90605625D01*
X127497761Y-90805000D01*
X127199375Y-91004375D01*
X126871161Y-91495582D01*
X126755908Y-92075000D01*
X126871161Y-92654418D01*
X127199375Y-93145625D01*
X127497761Y-93345000D01*
X127199375Y-93544375D01*
X126871161Y-94035582D01*
X126755908Y-94615000D01*
X126871161Y-95194418D01*
X127199375Y-95685625D01*
X127497761Y-95885000D01*
X127199375Y-96084375D01*
X126871161Y-96575582D01*
X126793349Y-96966771D01*
X124710000Y-94883422D01*
X124710000Y-94274012D01*
X124912421Y-94071591D01*
X125107700Y-93600145D01*
X125107700Y-93089855D01*
X124912421Y-92618409D01*
X124551591Y-92257579D01*
X124080145Y-92062300D01*
X123617102Y-92062300D01*
X122764331Y-91209530D01*
X122721929Y-91146071D01*
X122470537Y-90978096D01*
X122248852Y-90934000D01*
X122248847Y-90934000D01*
X122174000Y-90919112D01*
X122099153Y-90934000D01*
X115390848Y-90934000D01*
X115316000Y-90919112D01*
X115241152Y-90934000D01*
X115241148Y-90934000D01*
X115019463Y-90978096D01*
X114768071Y-91146071D01*
X114725671Y-91209527D01*
X113872899Y-92062300D01*
X113409855Y-92062300D01*
X112938409Y-92257579D01*
X112577579Y-92618409D01*
X112395000Y-93059194D01*
X112212421Y-92618409D01*
X111851591Y-92257579D01*
X111380145Y-92062300D01*
X110869855Y-92062300D01*
X110398409Y-92257579D01*
X110037579Y-92618409D01*
X109855000Y-93059194D01*
X109672421Y-92618409D01*
X109311591Y-92257579D01*
X108840145Y-92062300D01*
X108329855Y-92062300D01*
X107858409Y-92257579D01*
X107497579Y-92618409D01*
X107315000Y-93059194D01*
X107132421Y-92618409D01*
X106771591Y-92257579D01*
X106300145Y-92062300D01*
X105789855Y-92062300D01*
X105318409Y-92257579D01*
X104957579Y-92618409D01*
X104762300Y-93089855D01*
X104762300Y-93600145D01*
X104957579Y-94071591D01*
X105318409Y-94432421D01*
X105789855Y-94627700D01*
X106300145Y-94627700D01*
X106771591Y-94432421D01*
X107132421Y-94071591D01*
X107315000Y-93630806D01*
X107497579Y-94071591D01*
X107858409Y-94432421D01*
X108329855Y-94627700D01*
X108840145Y-94627700D01*
X109311591Y-94432421D01*
X109672421Y-94071591D01*
X109855000Y-93630806D01*
X110037579Y-94071591D01*
X110398409Y-94432421D01*
X110869855Y-94627700D01*
X111380145Y-94627700D01*
X111851591Y-94432421D01*
X112212421Y-94071591D01*
X112395000Y-93630806D01*
X112577579Y-94071591D01*
X112938409Y-94432421D01*
X113409855Y-94627700D01*
X113920145Y-94627700D01*
X114391591Y-94432421D01*
X114752421Y-94071591D01*
X114935000Y-93630806D01*
X115117579Y-94071591D01*
X115478409Y-94432421D01*
X115949855Y-94627700D01*
X116460145Y-94627700D01*
X116931591Y-94432421D01*
X117292421Y-94071591D01*
X117323284Y-93997080D01*
X117337301Y-94067546D01*
X117337302Y-96344896D01*
X116652199Y-97030000D01*
X114248043Y-97030000D01*
X114064577Y-96755423D01*
X113589909Y-96438260D01*
X113171333Y-96355000D01*
X112888667Y-96355000D01*
X112470091Y-96438260D01*
X111995423Y-96755423D01*
X111811957Y-97030000D01*
X105089802Y-97030000D01*
X103041209Y-94981408D01*
X103114092Y-94615000D01*
X102998839Y-94035582D01*
X102670625Y-93544375D01*
X102372239Y-93345000D01*
X102670625Y-93145625D01*
X102998839Y-92654418D01*
X103114092Y-92075000D01*
X102998839Y-91495582D01*
X102670625Y-91004375D01*
X102372239Y-90805000D01*
X102670625Y-90605625D01*
X102878178Y-90295000D01*
X121820555Y-90295000D01*
X121895402Y-90309888D01*
X121970249Y-90295000D01*
X121970254Y-90295000D01*
X122191939Y-90250904D01*
X122443331Y-90082929D01*
X122485733Y-90019470D01*
X126087476Y-86417729D01*
X126150929Y-86375331D01*
X126193327Y-86311878D01*
X126193329Y-86311876D01*
X126318903Y-86123940D01*
X126318904Y-86123939D01*
X126363000Y-85902254D01*
X126363000Y-85902250D01*
X126377888Y-85827403D01*
X126363000Y-85752556D01*
X126363000Y-84275848D01*
X126377888Y-84201000D01*
X126363000Y-84126152D01*
X126363000Y-84126148D01*
X126318904Y-83904463D01*
X126150929Y-83653071D01*
X126087473Y-83610671D01*
X125558331Y-83081530D01*
X125515929Y-83018071D01*
X125264537Y-82850096D01*
X125042852Y-82806000D01*
X125042847Y-82806000D01*
X124968000Y-82791112D01*
X124893153Y-82806000D01*
X123518846Y-82806000D01*
X123443999Y-82791112D01*
X123369152Y-82806000D01*
X123369148Y-82806000D01*
X123147463Y-82850096D01*
X122896071Y-83018071D01*
X122853671Y-83081527D01*
X121492899Y-84442300D01*
X121029855Y-84442300D01*
X120558409Y-84637579D01*
X120197579Y-84998409D01*
X120015000Y-85439194D01*
X119832421Y-84998409D01*
X119471591Y-84637579D01*
X119000145Y-84442300D01*
X118537102Y-84442300D01*
X116657501Y-82562700D01*
X117095145Y-82562700D01*
X117566591Y-82367421D01*
X117927421Y-82006591D01*
X118110000Y-81565806D01*
X118292579Y-82006591D01*
X118653409Y-82367421D01*
X119124855Y-82562700D01*
X119635145Y-82562700D01*
X120106591Y-82367421D01*
X120467421Y-82006591D01*
X120650000Y-81565806D01*
X120832579Y-82006591D01*
X121193409Y-82367421D01*
X121664855Y-82562700D01*
X122175145Y-82562700D01*
X122646591Y-82367421D01*
X123007421Y-82006591D01*
X123202700Y-81535145D01*
X123202700Y-81024855D01*
X123007421Y-80553409D01*
X122646591Y-80192579D01*
X122175145Y-79997300D01*
X121664855Y-79997300D01*
X121193409Y-80192579D01*
X120832579Y-80553409D01*
X120650000Y-80994194D01*
X120467421Y-80553409D01*
X120106591Y-80192579D01*
X119635145Y-79997300D01*
X119124855Y-79997300D01*
X118653409Y-80192579D01*
X118292579Y-80553409D01*
X118110000Y-80994194D01*
X117927421Y-80553409D01*
X117566591Y-80192579D01*
X117095145Y-79997300D01*
X116584855Y-79997300D01*
X116113409Y-80192579D01*
X115752579Y-80553409D01*
X115570000Y-80994194D01*
X115387421Y-80553409D01*
X115026591Y-80192579D01*
X114555145Y-79997300D01*
X114044855Y-79997300D01*
X113573409Y-80192579D01*
X113212579Y-80553409D01*
X113030000Y-80994194D01*
X112847421Y-80553409D01*
X112486591Y-80192579D01*
X112015145Y-79997300D01*
X111504855Y-79997300D01*
X111033409Y-80192579D01*
X110672579Y-80553409D01*
X110490000Y-80994194D01*
X110307421Y-80553409D01*
X109946591Y-80192579D01*
X109475145Y-79997300D01*
X108964855Y-79997300D01*
X108493409Y-80192579D01*
X108132579Y-80553409D01*
X107950000Y-80994194D01*
X107767421Y-80553409D01*
X107406591Y-80192579D01*
X106935145Y-79997300D01*
X106424855Y-79997300D01*
X105953409Y-80192579D01*
X105592579Y-80553409D01*
X105410000Y-80994194D01*
X105227421Y-80553409D01*
X104866591Y-80192579D01*
X104395145Y-79997300D01*
X103884855Y-79997300D01*
X103413409Y-80192579D01*
X103052579Y-80553409D01*
X102870000Y-80994194D01*
X102687421Y-80553409D01*
X102326591Y-80192579D01*
X101855145Y-79997300D01*
X101344855Y-79997300D01*
X100873409Y-80192579D01*
X100512579Y-80553409D01*
X100355140Y-80933501D01*
X100355140Y-80632300D01*
X100305857Y-80384535D01*
X100165509Y-80174491D01*
X99955465Y-80034143D01*
X99707700Y-79984860D01*
X98412300Y-79984860D01*
X98164535Y-80034143D01*
X97954491Y-80174491D01*
X97814143Y-80384535D01*
X97764860Y-80632300D01*
X97764860Y-81927700D01*
X97814143Y-82175465D01*
X97954491Y-82385509D01*
X98164535Y-82525857D01*
X98411398Y-82574961D01*
X98444834Y-82625000D01*
X98512072Y-82725629D01*
X98575528Y-82768029D01*
X99857970Y-84050472D01*
X99900371Y-84113929D01*
X99963827Y-84156329D01*
X100151762Y-84281904D01*
X100199905Y-84291480D01*
X100373448Y-84326000D01*
X100373452Y-84326000D01*
X100448300Y-84340888D01*
X100523148Y-84326000D01*
X113731199Y-84326000D01*
X113847499Y-84442300D01*
X113409855Y-84442300D01*
X112938409Y-84637579D01*
X112577579Y-84998409D01*
X112395000Y-85439194D01*
X112212421Y-84998409D01*
X111851591Y-84637579D01*
X111380145Y-84442300D01*
X110869855Y-84442300D01*
X110398409Y-84637579D01*
X110037579Y-84998409D01*
X109855000Y-85439194D01*
X109672421Y-84998409D01*
X109311591Y-84637579D01*
X108840145Y-84442300D01*
X108329855Y-84442300D01*
X107858409Y-84637579D01*
X107497579Y-84998409D01*
X107313480Y-85442864D01*
X107310756Y-85395941D01*
X107172705Y-85062655D01*
X106942347Y-85007258D01*
X106224605Y-85725000D01*
X106942347Y-86442742D01*
X107172705Y-86387345D01*
X107308838Y-85995928D01*
X107497579Y-86451591D01*
X107858409Y-86812421D01*
X108329855Y-87007700D01*
X108840145Y-87007700D01*
X109311591Y-86812421D01*
X109672421Y-86451591D01*
X109855000Y-86010806D01*
X110037579Y-86451591D01*
X110398409Y-86812421D01*
X110869855Y-87007700D01*
X111380145Y-87007700D01*
X111851591Y-86812421D01*
X112212421Y-86451591D01*
X112395000Y-86010806D01*
X112577579Y-86451591D01*
X112938409Y-86812421D01*
X113409855Y-87007700D01*
X113920145Y-87007700D01*
X114391591Y-86812421D01*
X114752421Y-86451591D01*
X114935000Y-86010806D01*
X115117579Y-86451591D01*
X115478409Y-86812421D01*
X115949855Y-87007700D01*
X116460145Y-87007700D01*
X116931591Y-86812421D01*
X117292421Y-86451591D01*
X117475000Y-86010806D01*
X117657579Y-86451591D01*
X118018409Y-86812421D01*
X118489855Y-87007700D01*
X119000145Y-87007700D01*
X119471591Y-86812421D01*
X119832421Y-86451591D01*
X120015000Y-86010806D01*
X120197579Y-86451591D01*
X120558409Y-86812421D01*
X121029855Y-87007700D01*
X121540145Y-87007700D01*
X122011591Y-86812421D01*
X122372421Y-86451591D01*
X122529860Y-86071499D01*
X122529860Y-86372700D01*
X122579143Y-86620465D01*
X122648554Y-86724345D01*
X122121899Y-87251000D01*
X104030802Y-87251000D01*
X103402149Y-86622347D01*
X105327258Y-86622347D01*
X105382655Y-86852705D01*
X105864627Y-87020332D01*
X106374059Y-86990756D01*
X106707345Y-86852705D01*
X106762742Y-86622347D01*
X106045000Y-85904605D01*
X105327258Y-86622347D01*
X103402149Y-86622347D01*
X103290331Y-86510530D01*
X103247929Y-86447071D01*
X103097440Y-86346517D01*
X103097440Y-86145000D01*
X103048157Y-85897235D01*
X102907809Y-85687191D01*
X102697765Y-85546843D01*
X102686625Y-85544627D01*
X104749668Y-85544627D01*
X104779244Y-86054059D01*
X104917295Y-86387345D01*
X105147653Y-86442742D01*
X105865395Y-85725000D01*
X105147653Y-85007258D01*
X104917295Y-85062655D01*
X104749668Y-85544627D01*
X102686625Y-85544627D01*
X102450000Y-85497560D01*
X100750000Y-85497560D01*
X100502235Y-85546843D01*
X100292191Y-85687191D01*
X100151843Y-85897235D01*
X100102560Y-86145000D01*
X100102560Y-86409994D01*
X100020095Y-86465095D01*
X99979091Y-86526463D01*
X97067465Y-89438089D01*
X97006095Y-89479095D01*
X96843646Y-89722218D01*
X96801000Y-89936613D01*
X96801000Y-89936616D01*
X96786602Y-90009000D01*
X96801000Y-90081384D01*
X96801001Y-106600709D01*
X96743345Y-106658365D01*
X96601000Y-107002017D01*
X96601000Y-107373983D01*
X96743345Y-107717635D01*
X97006365Y-107980655D01*
X97350017Y-108123000D01*
X97721983Y-108123000D01*
X98052290Y-107986183D01*
X97781465Y-108257008D01*
X97720095Y-108298014D01*
X97557646Y-108541137D01*
X97515000Y-108755532D01*
X97515000Y-108755535D01*
X97500602Y-108827919D01*
X97515000Y-108900303D01*
X97515001Y-114657611D01*
X97500602Y-114730000D01*
X97557646Y-115016782D01*
X97646659Y-115149999D01*
X97720096Y-115259905D01*
X97781463Y-115300909D01*
X109097178Y-126616625D01*
X109026887Y-126970000D01*
X109138260Y-127529909D01*
X109455423Y-128004577D01*
X109930091Y-128321740D01*
X110348667Y-128405000D01*
X110631333Y-128405000D01*
X111049909Y-128321740D01*
X111524577Y-128004577D01*
X111841740Y-127529909D01*
X111877716Y-127349041D01*
X122433086Y-127349041D01*
X122672611Y-127855134D01*
X123087577Y-128231041D01*
X123475961Y-128391904D01*
X123698000Y-128269915D01*
X123698000Y-127127000D01*
X123952000Y-127127000D01*
X123952000Y-128269915D01*
X124174039Y-128391904D01*
X124562423Y-128231041D01*
X124977389Y-127855134D01*
X125216914Y-127349041D01*
X125095629Y-127127000D01*
X123952000Y-127127000D01*
X123698000Y-127127000D01*
X122554371Y-127127000D01*
X122433086Y-127349041D01*
X111877716Y-127349041D01*
X111953113Y-126970000D01*
X111889652Y-126650959D01*
X122433086Y-126650959D01*
X122554371Y-126873000D01*
X123698000Y-126873000D01*
X123698000Y-125730085D01*
X123952000Y-125730085D01*
X123952000Y-126873000D01*
X125095629Y-126873000D01*
X125216914Y-126650959D01*
X124977389Y-126144866D01*
X124562423Y-125768959D01*
X124174039Y-125608096D01*
X123952000Y-125730085D01*
X123698000Y-125730085D01*
X123475961Y-125608096D01*
X123087577Y-125768959D01*
X122672611Y-126144866D01*
X122433086Y-126650959D01*
X111889652Y-126650959D01*
X111841740Y-126410091D01*
X111524577Y-125935423D01*
X111049909Y-125618260D01*
X110631333Y-125535000D01*
X110348667Y-125535000D01*
X110136625Y-125577178D01*
X104482159Y-119922713D01*
X104661215Y-120042354D01*
X104875610Y-120085000D01*
X104875613Y-120085000D01*
X104947997Y-120099398D01*
X105020381Y-120085000D01*
X109241214Y-120085000D01*
X109273466Y-120162862D01*
X109677138Y-120566534D01*
X110204561Y-120785000D01*
X110775439Y-120785000D01*
X111302862Y-120566534D01*
X111706534Y-120162862D01*
X111925000Y-119635439D01*
X111925000Y-119064561D01*
X111706534Y-118537138D01*
X111302862Y-118133466D01*
X110775439Y-117915000D01*
X110204561Y-117915000D01*
X109677138Y-118133466D01*
X109273466Y-118537138D01*
X109241214Y-118615000D01*
X105252445Y-118615000D01*
X102842445Y-116205000D01*
X109026887Y-116205000D01*
X109138260Y-116764909D01*
X109455423Y-117239577D01*
X109930091Y-117556740D01*
X110348667Y-117640000D01*
X110631333Y-117640000D01*
X111049909Y-117556740D01*
X111524577Y-117239577D01*
X111841740Y-116764909D01*
X111953113Y-116205000D01*
X113471887Y-116205000D01*
X113583260Y-116764909D01*
X113900423Y-117239577D01*
X114375091Y-117556740D01*
X114793667Y-117640000D01*
X115076333Y-117640000D01*
X115494909Y-117556740D01*
X115969577Y-117239577D01*
X116286740Y-116764909D01*
X116398113Y-116205000D01*
X117916887Y-116205000D01*
X118028260Y-116764909D01*
X118345423Y-117239577D01*
X118820091Y-117556740D01*
X119238667Y-117640000D01*
X119521333Y-117640000D01*
X119939909Y-117556740D01*
X120414577Y-117239577D01*
X120731740Y-116764909D01*
X120843113Y-116205000D01*
X122361887Y-116205000D01*
X122473260Y-116764909D01*
X122790423Y-117239577D01*
X123090000Y-117439748D01*
X123090000Y-118131214D01*
X123012138Y-118163466D01*
X122608466Y-118567138D01*
X122390000Y-119094561D01*
X122390000Y-119665439D01*
X122608466Y-120192862D01*
X123012138Y-120596534D01*
X123539561Y-120815000D01*
X124110439Y-120815000D01*
X124637862Y-120596534D01*
X125041534Y-120192862D01*
X125260000Y-119665439D01*
X125260000Y-119094561D01*
X125041534Y-118567138D01*
X124637862Y-118163466D01*
X124560000Y-118131214D01*
X124560000Y-117439748D01*
X124859577Y-117239577D01*
X125176740Y-116764909D01*
X125288113Y-116205000D01*
X125176740Y-115645091D01*
X124859577Y-115170423D01*
X124384909Y-114853260D01*
X123966333Y-114770000D01*
X123683667Y-114770000D01*
X123265091Y-114853260D01*
X122790423Y-115170423D01*
X122473260Y-115645091D01*
X122361887Y-116205000D01*
X120843113Y-116205000D01*
X120731740Y-115645091D01*
X120414577Y-115170423D01*
X119939909Y-114853260D01*
X119521333Y-114770000D01*
X119238667Y-114770000D01*
X118820091Y-114853260D01*
X118345423Y-115170423D01*
X118028260Y-115645091D01*
X117916887Y-116205000D01*
X116398113Y-116205000D01*
X116286740Y-115645091D01*
X115969577Y-115170423D01*
X115494909Y-114853260D01*
X115076333Y-114770000D01*
X114793667Y-114770000D01*
X114375091Y-114853260D01*
X113900423Y-115170423D01*
X113583260Y-115645091D01*
X113471887Y-116205000D01*
X111953113Y-116205000D01*
X111841740Y-115645091D01*
X111524577Y-115170423D01*
X111049909Y-114853260D01*
X110631333Y-114770000D01*
X110348667Y-114770000D01*
X109930091Y-114853260D01*
X109455423Y-115170423D01*
X109138260Y-115645091D01*
X109026887Y-116205000D01*
X102842445Y-116205000D01*
X101852445Y-115215001D01*
X106332838Y-115215001D01*
X106419999Y-115232338D01*
X106507160Y-115215001D01*
X106507164Y-115215001D01*
X106765309Y-115163653D01*
X107058048Y-114968050D01*
X107107424Y-114894154D01*
X109164156Y-112837423D01*
X109238049Y-112788049D01*
X109296883Y-112699999D01*
X109433652Y-112495310D01*
X109439390Y-112466462D01*
X109485000Y-112237165D01*
X109485000Y-112237161D01*
X109502337Y-112150000D01*
X109485000Y-112062839D01*
X109485000Y-110841578D01*
X110306579Y-110020000D01*
X110775439Y-110020000D01*
X111302862Y-109801534D01*
X111634396Y-109470000D01*
X113790604Y-109470000D01*
X114122138Y-109801534D01*
X114649561Y-110020000D01*
X115220439Y-110020000D01*
X115747862Y-109801534D01*
X116079396Y-109470000D01*
X118235604Y-109470000D01*
X118567138Y-109801534D01*
X119094561Y-110020000D01*
X119665439Y-110020000D01*
X120192862Y-109801534D01*
X120524396Y-109470000D01*
X122680604Y-109470000D01*
X123012138Y-109801534D01*
X123539561Y-110020000D01*
X124110439Y-110020000D01*
X124637862Y-109801534D01*
X125041534Y-109397862D01*
X125260000Y-108870439D01*
X125260000Y-108401578D01*
X128834156Y-104827423D01*
X128908049Y-104778049D01*
X128971865Y-104682543D01*
X129060427Y-104550000D01*
X129103652Y-104485310D01*
X129155000Y-104227165D01*
X129155000Y-104227161D01*
X129172337Y-104140001D01*
X129155000Y-104052841D01*
X129155000Y-100889656D01*
X129340625Y-100765625D01*
X129668839Y-100274418D01*
X129698124Y-100127193D01*
X129788119Y-100261880D01*
X129847402Y-100301492D01*
X132040001Y-102494092D01*
X132040000Y-113180076D01*
X132026091Y-113250000D01*
X132040000Y-113319924D01*
X132040000Y-113319925D01*
X132081195Y-113527027D01*
X132238119Y-113761880D01*
X132297402Y-113801492D01*
X133010910Y-114515000D01*
X132764017Y-114515000D01*
X132420365Y-114657345D01*
X132157345Y-114920365D01*
X132015000Y-115264017D01*
X132015000Y-115635983D01*
X132157345Y-115979635D01*
X132240000Y-116062290D01*
X132240001Y-116945907D01*
X131683675Y-117502234D01*
X131689092Y-117475000D01*
X131573839Y-116895582D01*
X131245625Y-116404375D01*
X130947239Y-116205000D01*
X131245625Y-116005625D01*
X131573839Y-115514418D01*
X131689092Y-114935000D01*
X131573839Y-114355582D01*
X131245625Y-113864375D01*
X130947239Y-113665000D01*
X131245625Y-113465625D01*
X131573839Y-112974418D01*
X131689092Y-112395000D01*
X131573839Y-111815582D01*
X131245625Y-111324375D01*
X130947239Y-111125000D01*
X131245625Y-110925625D01*
X131573839Y-110434418D01*
X131689092Y-109855000D01*
X131573839Y-109275582D01*
X131245625Y-108784375D01*
X131227381Y-108772184D01*
X131272765Y-108763157D01*
X131482809Y-108622809D01*
X131623157Y-108412765D01*
X131672440Y-108165000D01*
X131672440Y-106465000D01*
X131623157Y-106217235D01*
X131482809Y-106007191D01*
X131272765Y-105866843D01*
X131025000Y-105817560D01*
X129325000Y-105817560D01*
X129077235Y-105866843D01*
X128867191Y-106007191D01*
X128726843Y-106217235D01*
X128677560Y-106465000D01*
X128677560Y-106580000D01*
X127707383Y-106580000D01*
X127634999Y-106565602D01*
X127562615Y-106580000D01*
X127562612Y-106580000D01*
X127348217Y-106622646D01*
X127105095Y-106785095D01*
X127064089Y-106846465D01*
X126781465Y-107129089D01*
X126720095Y-107170095D01*
X126557646Y-107413218D01*
X126515000Y-107627613D01*
X126515000Y-107627616D01*
X126500602Y-107700000D01*
X126515000Y-107772384D01*
X126515001Y-127127611D01*
X126500602Y-127200000D01*
X126557646Y-127486782D01*
X126557647Y-127486783D01*
X126720096Y-127729905D01*
X126781463Y-127770909D01*
X129379091Y-130368537D01*
X129420095Y-130429905D01*
X129663217Y-130592354D01*
X129877612Y-130635000D01*
X129950000Y-130649399D01*
X130022388Y-130635000D01*
X146182616Y-130635000D01*
X146255000Y-130649398D01*
X146327384Y-130635000D01*
X146327388Y-130635000D01*
X146541783Y-130592354D01*
X146784905Y-130429905D01*
X146825911Y-130368535D01*
X148151655Y-129042791D01*
X148392373Y-129142500D01*
X148498815Y-129142500D01*
X150989202Y-131632888D01*
X151066471Y-131748529D01*
X151524600Y-132054641D01*
X151928593Y-132135000D01*
X152064999Y-132162133D01*
X152201405Y-132135000D01*
X184063593Y-132135000D01*
X184200000Y-132162133D01*
X184336407Y-132135000D01*
X184740400Y-132054641D01*
X185198529Y-131748529D01*
X185275799Y-131632886D01*
X189932888Y-126975798D01*
X190048529Y-126898529D01*
X190354641Y-126440400D01*
X190435000Y-126036407D01*
X190462133Y-125900000D01*
X190435000Y-125763593D01*
X190435000Y-97786407D01*
X190462133Y-97650000D01*
X190354641Y-97109600D01*
X190125797Y-96767111D01*
X190125795Y-96767109D01*
X190048528Y-96651471D01*
X189932890Y-96574204D01*
X188360799Y-95002114D01*
X188283529Y-94886471D01*
X187825400Y-94580359D01*
X187421407Y-94500000D01*
X187285000Y-94472867D01*
X187148593Y-94500000D01*
X186392161Y-94500000D01*
X186432440Y-94297500D01*
X186432440Y-92392500D01*
X186383157Y-92144735D01*
X186242809Y-91934691D01*
X186032765Y-91794343D01*
X185785000Y-91745060D01*
X183785000Y-91745060D01*
X183537235Y-91794343D01*
X183327191Y-91934691D01*
X183287773Y-91993683D01*
X182691494Y-91397404D01*
X182651881Y-91338119D01*
X182417028Y-91181195D01*
X182209926Y-91140000D01*
X182209924Y-91140000D01*
X182140000Y-91126091D01*
X182070076Y-91140000D01*
X175012422Y-91140000D01*
X174942498Y-91126091D01*
X174872573Y-91140000D01*
X174872572Y-91140000D01*
X174665470Y-91181195D01*
X174430617Y-91338119D01*
X174391006Y-91397401D01*
X169897402Y-95891006D01*
X169838119Y-95930618D01*
X169783405Y-96012503D01*
X169105910Y-96690000D01*
X157860031Y-96690000D01*
X157772007Y-96631184D01*
X157564905Y-96589989D01*
X157564903Y-96589989D01*
X157494979Y-96576080D01*
X157425055Y-96589989D01*
X156024945Y-96589989D01*
X155955020Y-96576080D01*
X155885096Y-96589989D01*
X155885095Y-96589989D01*
X155677993Y-96631184D01*
X155443140Y-96788108D01*
X155403529Y-96847390D01*
X154447402Y-97803518D01*
X154388119Y-97843130D01*
X154231195Y-98077983D01*
X154223832Y-98115000D01*
X153844126Y-98115000D01*
X153799318Y-98133560D01*
X153700655Y-97895365D01*
X153437635Y-97632345D01*
X153093983Y-97490000D01*
X152722017Y-97490000D01*
X152378365Y-97632345D01*
X152115345Y-97895365D01*
X151973000Y-98239017D01*
X151973000Y-98610983D01*
X152036796Y-98765000D01*
X151694126Y-98765000D01*
X151313720Y-98922569D01*
X151146289Y-99090000D01*
X150169924Y-99090000D01*
X150100000Y-99076091D01*
X150030075Y-99090000D01*
X150030074Y-99090000D01*
X149822972Y-99131195D01*
X149588119Y-99288119D01*
X149548508Y-99347401D01*
X146847402Y-102048508D01*
X146788120Y-102088119D01*
X146672016Y-102261881D01*
X146631196Y-102322972D01*
X146576091Y-102600000D01*
X146590001Y-102669929D01*
X146590000Y-103223929D01*
X145931122Y-103882807D01*
X145881413Y-103892695D01*
X145671369Y-104033043D01*
X145415000Y-104289412D01*
X145158631Y-104033043D01*
X144948587Y-103892695D01*
X144885000Y-103880047D01*
X144885000Y-103764017D01*
X144742655Y-103420365D01*
X144479635Y-103157345D01*
X144135983Y-103015000D01*
X143764017Y-103015000D01*
X143420365Y-103157345D01*
X143157345Y-103420365D01*
X143076725Y-103615000D01*
X142964017Y-103615000D01*
X142620365Y-103757345D01*
X142357345Y-104020365D01*
X142316328Y-104119388D01*
X142295435Y-104088119D01*
X142060582Y-103931195D01*
X141989308Y-103917018D01*
X141829635Y-103757345D01*
X141485983Y-103615000D01*
X141114017Y-103615000D01*
X140770365Y-103757345D01*
X140507345Y-104020365D01*
X140365000Y-104364017D01*
X140365000Y-104735983D01*
X140503734Y-105070918D01*
X140368552Y-105397278D01*
X140368552Y-105769244D01*
X140510897Y-106112896D01*
X140773917Y-106375916D01*
X141117569Y-106518261D01*
X141489535Y-106518261D01*
X141833187Y-106375916D01*
X141840729Y-106368374D01*
X141884051Y-106411696D01*
X141861394Y-106445605D01*
X141768139Y-106507916D01*
X141570149Y-106705906D01*
X141507838Y-106799161D01*
X141414586Y-106861470D01*
X141216596Y-107059460D01*
X141154286Y-107152713D01*
X141061033Y-107215023D01*
X140863043Y-107413013D01*
X140722695Y-107623057D01*
X140673412Y-107870822D01*
X140722695Y-108118587D01*
X140863043Y-108328631D01*
X141119412Y-108585000D01*
X140863043Y-108841369D01*
X140722695Y-109051413D01*
X140717282Y-109078627D01*
X140505909Y-109290000D01*
X140094091Y-109290000D01*
X139960000Y-109155910D01*
X139960000Y-99344090D01*
X143979091Y-95325000D01*
X151723413Y-95325000D01*
X151964375Y-95685625D01*
X152455582Y-96013839D01*
X152888744Y-96100000D01*
X153181256Y-96100000D01*
X153614418Y-96013839D01*
X154105625Y-95685625D01*
X154433839Y-95194418D01*
X154549092Y-94615000D01*
X154433839Y-94035582D01*
X154105625Y-93544375D01*
X153807239Y-93345000D01*
X154105625Y-93145625D01*
X154433839Y-92654418D01*
X154549092Y-92075000D01*
X154433839Y-91495582D01*
X154105625Y-91004375D01*
X153807239Y-90805000D01*
X154105625Y-90605625D01*
X154433839Y-90114418D01*
X154549092Y-89535000D01*
X154433839Y-88955582D01*
X154105625Y-88464375D01*
X153807239Y-88265000D01*
X154105625Y-88065625D01*
X154433839Y-87574418D01*
X154549092Y-86995000D01*
X154476489Y-86629996D01*
X173425000Y-86629996D01*
X173425000Y-87360004D01*
X173704362Y-88034444D01*
X174220556Y-88550638D01*
X174894996Y-88830000D01*
X175625004Y-88830000D01*
X176299444Y-88550638D01*
X176470082Y-88380000D01*
X186761264Y-88380000D01*
X189165000Y-90783737D01*
X189165000Y-91336406D01*
X189245359Y-91740399D01*
X189551471Y-92198528D01*
X190009600Y-92504641D01*
X190550000Y-92612133D01*
X191090399Y-92504641D01*
X191548528Y-92198529D01*
X191854641Y-91740400D01*
X191935000Y-91336407D01*
X191935000Y-90346458D01*
X191962133Y-90210051D01*
X191854641Y-89669651D01*
X191764670Y-89535000D01*
X191548529Y-89211522D01*
X191432888Y-89134253D01*
X188410748Y-86112114D01*
X188333478Y-85996471D01*
X187875349Y-85690359D01*
X187471356Y-85610000D01*
X187334949Y-85582867D01*
X187198542Y-85610000D01*
X176470082Y-85610000D01*
X176299444Y-85439362D01*
X175625004Y-85160000D01*
X174894996Y-85160000D01*
X174220556Y-85439362D01*
X173704362Y-85955556D01*
X173425000Y-86629996D01*
X154476489Y-86629996D01*
X154455848Y-86526229D01*
X154671882Y-86381880D01*
X154711495Y-86322595D01*
X159631698Y-81402393D01*
X159734561Y-81445000D01*
X160305439Y-81445000D01*
X160832862Y-81226534D01*
X161236534Y-80822862D01*
X161455000Y-80295439D01*
X161455000Y-79724561D01*
X161288668Y-79323000D01*
X162773910Y-79323000D01*
X163072607Y-79621698D01*
X163030000Y-79724561D01*
X163030000Y-80295439D01*
X163248466Y-80822862D01*
X163652138Y-81226534D01*
X164179561Y-81445000D01*
X164750439Y-81445000D01*
X165277862Y-81226534D01*
X165681534Y-80822862D01*
X165900000Y-80295439D01*
X165900000Y-79724561D01*
X165681534Y-79197138D01*
X165277862Y-78793466D01*
X164750439Y-78575000D01*
X164179561Y-78575000D01*
X164076698Y-78617607D01*
X163619494Y-78160404D01*
X163579881Y-78101119D01*
X163345028Y-77944195D01*
X163137926Y-77903000D01*
X163137924Y-77903000D01*
X163068000Y-77889091D01*
X162998076Y-77903000D01*
X159895924Y-77903000D01*
X159825998Y-77889091D01*
X159548969Y-77944195D01*
X159373397Y-78061509D01*
X159314117Y-78101119D01*
X159274508Y-78160398D01*
X155104907Y-82330001D01*
X154466543Y-82330001D01*
X154549092Y-81915000D01*
X154433839Y-81335582D01*
X154105625Y-80844375D01*
X153807239Y-80645000D01*
X154105625Y-80445625D01*
X154433839Y-79954418D01*
X154549092Y-79375000D01*
X154433839Y-78795582D01*
X154105625Y-78304375D01*
X153807239Y-78105000D01*
X154105625Y-77905625D01*
X154433839Y-77414418D01*
X154549092Y-76835000D01*
X154433839Y-76255582D01*
X154105625Y-75764375D01*
X153807239Y-75565000D01*
X154105625Y-75365625D01*
X154433839Y-74874418D01*
X154549092Y-74295000D01*
X154433839Y-73715582D01*
X154105625Y-73224375D01*
X153807239Y-73025000D01*
X154105625Y-72825625D01*
X154433839Y-72334418D01*
X154549092Y-71755000D01*
X154433839Y-71175582D01*
X154105625Y-70684375D01*
X153807239Y-70485000D01*
X154105625Y-70285625D01*
X154433839Y-69794418D01*
X154540980Y-69255781D01*
X158159671Y-72874473D01*
X158202071Y-72937929D01*
X158453463Y-73105904D01*
X158675148Y-73150000D01*
X158675152Y-73150000D01*
X158750000Y-73164888D01*
X158804642Y-73154019D01*
X158985423Y-73424577D01*
X159460091Y-73741740D01*
X159878667Y-73825000D01*
X160161333Y-73825000D01*
X160579909Y-73741740D01*
X161054577Y-73424577D01*
X161238043Y-73150000D01*
X163246957Y-73150000D01*
X163430423Y-73424577D01*
X163905091Y-73741740D01*
X164323667Y-73825000D01*
X164606333Y-73825000D01*
X165024909Y-73741740D01*
X165499577Y-73424577D01*
X165816740Y-72949909D01*
X165928113Y-72390000D01*
X165816740Y-71830091D01*
X165499577Y-71355423D01*
X165024909Y-71038260D01*
X164606333Y-70955000D01*
X164323667Y-70955000D01*
X163905091Y-71038260D01*
X163430423Y-71355423D01*
X163246957Y-71630000D01*
X161238043Y-71630000D01*
X161054577Y-71355423D01*
X160579909Y-71038260D01*
X160161333Y-70955000D01*
X159878667Y-70955000D01*
X159460091Y-71038260D01*
X158985423Y-71355423D01*
X158907238Y-71472436D01*
X154869801Y-67435000D01*
X157278153Y-67435000D01*
X157353000Y-67449888D01*
X157427847Y-67435000D01*
X157427852Y-67435000D01*
X157649537Y-67390904D01*
X157900929Y-67222929D01*
X157943331Y-67159470D01*
X158091470Y-67011331D01*
X158154929Y-66968929D01*
X158322904Y-66717537D01*
X158367000Y-66495852D01*
X158367000Y-66495848D01*
X158381888Y-66421001D01*
X158367000Y-66346154D01*
X158367000Y-63046290D01*
X158399655Y-63013635D01*
X158542000Y-62669983D01*
X158542000Y-62480000D01*
X171845422Y-62480000D01*
X176749577Y-67384156D01*
X176798951Y-67458049D01*
X176872844Y-67507423D01*
X176872845Y-67507424D01*
X176944781Y-67555490D01*
X177091690Y-67653652D01*
X177349835Y-67705000D01*
X177349839Y-67705000D01*
X177437000Y-67722337D01*
X177524161Y-67705000D01*
X186284268Y-67705000D01*
X186600991Y-68179009D01*
X187224510Y-68595631D01*
X187774345Y-68705000D01*
X188145655Y-68705000D01*
X188695490Y-68595631D01*
X189319009Y-68179009D01*
X189735631Y-67555490D01*
X189881929Y-66820000D01*
X189777673Y-66295866D01*
X192625000Y-66295866D01*
X192625000Y-67344134D01*
X193026155Y-68312608D01*
X193767392Y-69053845D01*
X194735866Y-69455000D01*
X195784134Y-69455000D01*
X196752608Y-69053845D01*
X197493845Y-68312608D01*
X197895000Y-67344134D01*
X197895000Y-66295866D01*
X197493845Y-65327392D01*
X196752608Y-64586155D01*
X195784134Y-64185000D01*
X194735866Y-64185000D01*
X193767392Y-64586155D01*
X193026155Y-65327392D01*
X192625000Y-66295866D01*
X189777673Y-66295866D01*
X189735631Y-66084510D01*
X189319009Y-65460991D01*
X188695490Y-65044369D01*
X188145655Y-64935000D01*
X187774345Y-64935000D01*
X187224510Y-65044369D01*
X186600991Y-65460991D01*
X186284268Y-65935000D01*
X177803579Y-65935000D01*
X175821899Y-63953320D01*
X186806285Y-63953320D01*
X186935533Y-64246123D01*
X187635806Y-64514388D01*
X188385435Y-64494250D01*
X188984467Y-64246123D01*
X189113715Y-63953320D01*
X187960000Y-62799605D01*
X186806285Y-63953320D01*
X175821899Y-63953320D01*
X174164385Y-62295806D01*
X186065612Y-62295806D01*
X186085750Y-63045435D01*
X186333877Y-63644467D01*
X186626680Y-63773715D01*
X187780395Y-62620000D01*
X188139605Y-62620000D01*
X189293320Y-63773715D01*
X189586123Y-63644467D01*
X189854388Y-62944194D01*
X189834250Y-62194565D01*
X189586123Y-61595533D01*
X189293320Y-61466285D01*
X188139605Y-62620000D01*
X187780395Y-62620000D01*
X186626680Y-61466285D01*
X186333877Y-61595533D01*
X186065612Y-62295806D01*
X174164385Y-62295806D01*
X173155259Y-61286680D01*
X186806285Y-61286680D01*
X187960000Y-62440395D01*
X189113715Y-61286680D01*
X188984467Y-60993877D01*
X188284194Y-60725612D01*
X187534565Y-60745750D01*
X186935533Y-60993877D01*
X186806285Y-61286680D01*
X173155259Y-61286680D01*
X172899425Y-61030847D01*
X172850049Y-60956951D01*
X172557310Y-60761348D01*
X172299165Y-60710000D01*
X172299161Y-60710000D01*
X172212000Y-60692663D01*
X172124839Y-60710000D01*
X154229656Y-60710000D01*
X154105625Y-60524375D01*
X153920000Y-60400344D01*
X153920000Y-52378801D01*
X156847000Y-55305802D01*
X156847001Y-58492709D01*
X156814345Y-58525365D01*
X156672000Y-58869017D01*
X156672000Y-59240983D01*
X156814345Y-59584635D01*
X157077365Y-59847655D01*
X157421017Y-59990000D01*
X157792983Y-59990000D01*
X158136635Y-59847655D01*
X158399655Y-59584635D01*
X158542000Y-59240983D01*
X158542000Y-58869017D01*
X158399655Y-58525365D01*
X158367000Y-58492710D01*
X158367000Y-56926807D01*
X173471797Y-56926807D01*
X173765508Y-57579776D01*
X174286742Y-58070642D01*
X174848195Y-58303195D01*
X175133000Y-58186432D01*
X175133000Y-56642000D01*
X175387000Y-56642000D01*
X175387000Y-58186432D01*
X175671805Y-58303195D01*
X176233258Y-58070642D01*
X176754492Y-57579776D01*
X176938812Y-57170000D01*
X186062560Y-57170000D01*
X186062560Y-59670000D01*
X186111843Y-59917765D01*
X186252191Y-60127809D01*
X186462235Y-60268157D01*
X186710000Y-60317440D01*
X189210000Y-60317440D01*
X189457765Y-60268157D01*
X189667809Y-60127809D01*
X189808157Y-59917765D01*
X189857440Y-59670000D01*
X189857440Y-57895866D01*
X192625000Y-57895866D01*
X192625000Y-58944134D01*
X193026155Y-59912608D01*
X193767392Y-60653845D01*
X194735866Y-61055000D01*
X195784134Y-61055000D01*
X196752608Y-60653845D01*
X197493845Y-59912608D01*
X197895000Y-58944134D01*
X197895000Y-57895866D01*
X197493845Y-56927392D01*
X196752608Y-56186155D01*
X195784134Y-55785000D01*
X194735866Y-55785000D01*
X193767392Y-56186155D01*
X193026155Y-56927392D01*
X192625000Y-57895866D01*
X189857440Y-57895866D01*
X189857440Y-57170000D01*
X189808157Y-56922235D01*
X189667809Y-56712191D01*
X189457765Y-56571843D01*
X189210000Y-56522560D01*
X186710000Y-56522560D01*
X186462235Y-56571843D01*
X186252191Y-56712191D01*
X186111843Y-56922235D01*
X186062560Y-57170000D01*
X176938812Y-57170000D01*
X177048203Y-56926807D01*
X176931858Y-56642000D01*
X175387000Y-56642000D01*
X175133000Y-56642000D01*
X173588142Y-56642000D01*
X173471797Y-56926807D01*
X158367000Y-56926807D01*
X158367000Y-56103193D01*
X173471797Y-56103193D01*
X173588142Y-56388000D01*
X175133000Y-56388000D01*
X175133000Y-54843568D01*
X175387000Y-54843568D01*
X175387000Y-56388000D01*
X176931858Y-56388000D01*
X177048203Y-56103193D01*
X176754492Y-55450224D01*
X176233258Y-54959358D01*
X175671805Y-54726805D01*
X175387000Y-54843568D01*
X175133000Y-54843568D01*
X174848195Y-54726805D01*
X174286742Y-54959358D01*
X173765508Y-55450224D01*
X173471797Y-56103193D01*
X158367000Y-56103193D01*
X158367000Y-55065846D01*
X158381888Y-54990999D01*
X158367000Y-54916152D01*
X158367000Y-54916148D01*
X158322904Y-54694463D01*
X158154929Y-54443071D01*
X158091473Y-54400671D01*
X154769003Y-51078202D01*
X171576223Y-51180998D01*
X171576450Y-51180999D01*
X200787000Y-51307452D01*
X200787000Y-134366000D01*
X87631547Y-134366000D01*
X88231102Y-84827653D01*
X105327258Y-84827653D01*
X106045000Y-85545395D01*
X106762742Y-84827653D01*
X106707345Y-84597295D01*
X106225373Y-84429668D01*
X105715941Y-84459244D01*
X105382655Y-84597295D01*
X105327258Y-84827653D01*
X88231102Y-84827653D01*
X88455390Y-66295866D01*
X90395000Y-66295866D01*
X90395000Y-67344134D01*
X90796155Y-68312608D01*
X91537392Y-69053845D01*
X92505866Y-69455000D01*
X93554134Y-69455000D01*
X94522608Y-69053845D01*
X95263845Y-68312608D01*
X95665000Y-67344134D01*
X95665000Y-66295866D01*
X95263845Y-65327392D01*
X94522608Y-64586155D01*
X93554134Y-64185000D01*
X92505866Y-64185000D01*
X91537392Y-64586155D01*
X90796155Y-65327392D01*
X90395000Y-66295866D01*
X88455390Y-66295866D01*
X88557054Y-57895866D01*
X90395000Y-57895866D01*
X90395000Y-58944134D01*
X90796155Y-59912608D01*
X91537392Y-60653845D01*
X92505866Y-61055000D01*
X93554134Y-61055000D01*
X94522608Y-60653845D01*
X95263845Y-59912608D01*
X95665000Y-58944134D01*
X95665000Y-57895866D01*
X95263845Y-56927392D01*
X94522608Y-56186155D01*
X93554134Y-55785000D01*
X92505866Y-55785000D01*
X91537392Y-56186155D01*
X90796155Y-56927392D01*
X90395000Y-57895866D01*
X88557054Y-57895866D01*
X88644463Y-50673770D01*
X97962791Y-50730763D01*
X97962791Y-50730763D01*
G37*
X97962791Y-50730763D02*
X96305463Y-52388091D01*
X96244096Y-52429095D01*
X96203092Y-52490462D01*
X96203091Y-52490463D01*
X96081646Y-52672218D01*
X96024602Y-52959000D01*
X96039001Y-53031389D01*
X96039000Y-71174616D01*
X96024602Y-71247000D01*
X96039000Y-71319384D01*
X96039000Y-71319387D01*
X96081646Y-71533782D01*
X96244095Y-71776905D01*
X96305465Y-71817911D01*
X97703388Y-73215835D01*
X97719947Y-73299083D01*
X97782398Y-73392548D01*
X97777300Y-73404855D01*
X97777300Y-73915145D01*
X97972579Y-74386591D01*
X98333409Y-74747421D01*
X98804855Y-74942700D01*
X99315145Y-74942700D01*
X99786591Y-74747421D01*
X99976665Y-74557347D01*
X100882258Y-74557347D01*
X100937655Y-74787705D01*
X101419627Y-74955332D01*
X101929059Y-74925756D01*
X102262345Y-74787705D01*
X102317742Y-74557347D01*
X101600000Y-73839605D01*
X100882258Y-74557347D01*
X99976665Y-74557347D01*
X100147421Y-74386591D01*
X100331520Y-73942136D01*
X100334244Y-73989059D01*
X100472295Y-74322345D01*
X100702653Y-74377742D01*
X101420395Y-73660000D01*
X100702653Y-72942258D01*
X100472295Y-72997655D01*
X100336162Y-73389072D01*
X100147421Y-72933409D01*
X99976665Y-72762653D01*
X100882258Y-72762653D01*
X101600000Y-73480395D01*
X102317742Y-72762653D01*
X102262345Y-72532295D01*
X101780373Y-72364668D01*
X101270941Y-72394244D01*
X100937655Y-72532295D01*
X100882258Y-72762653D01*
X99976665Y-72762653D01*
X99786591Y-72572579D01*
X99315145Y-72377300D01*
X98956842Y-72377300D01*
X98942206Y-72355396D01*
X98880838Y-72314391D01*
X97509000Y-70942554D01*
X97509000Y-63953320D01*
X99176285Y-63953320D01*
X99305533Y-64246123D01*
X100005806Y-64514388D01*
X100755435Y-64494250D01*
X101354467Y-64246123D01*
X101483715Y-63953320D01*
X100330000Y-62799605D01*
X99176285Y-63953320D01*
X97509000Y-63953320D01*
X97509000Y-62295806D01*
X98435612Y-62295806D01*
X98455750Y-63045435D01*
X98703877Y-63644467D01*
X98996680Y-63773715D01*
X100150395Y-62620000D01*
X100509605Y-62620000D01*
X101663320Y-63773715D01*
X101956123Y-63644467D01*
X102224388Y-62944194D01*
X102204250Y-62194565D01*
X101956123Y-61595533D01*
X101663320Y-61466285D01*
X100509605Y-62620000D01*
X100150395Y-62620000D01*
X98996680Y-61466285D01*
X98703877Y-61595533D01*
X98435612Y-62295806D01*
X97509000Y-62295806D01*
X97509000Y-61286680D01*
X99176285Y-61286680D01*
X100330000Y-62440395D01*
X101483715Y-61286680D01*
X101354467Y-60993877D01*
X100654194Y-60725612D01*
X99904565Y-60745750D01*
X99305533Y-60993877D01*
X99176285Y-61286680D01*
X97509000Y-61286680D01*
X97509000Y-57170000D01*
X98432560Y-57170000D01*
X98432560Y-59670000D01*
X98481843Y-59917765D01*
X98622191Y-60127809D01*
X98832235Y-60268157D01*
X99080000Y-60317440D01*
X101580000Y-60317440D01*
X101827765Y-60268157D01*
X102037809Y-60127809D01*
X102178157Y-59917765D01*
X102227440Y-59670000D01*
X102227440Y-57170000D01*
X102178157Y-56922235D01*
X102037809Y-56712191D01*
X101827765Y-56571843D01*
X101580000Y-56522560D01*
X99080000Y-56522560D01*
X98832235Y-56571843D01*
X98622191Y-56712191D01*
X98481843Y-56922235D01*
X98432560Y-57170000D01*
X97509000Y-57170000D01*
X97509000Y-53263446D01*
X99491447Y-51281000D01*
X105718463Y-51281000D01*
X105844146Y-51306000D01*
X112669421Y-51306000D01*
X104083847Y-59891575D01*
X104009951Y-59940951D01*
X103814348Y-60233691D01*
X103763000Y-60491836D01*
X103763000Y-60491839D01*
X103745663Y-60579000D01*
X103763000Y-60666161D01*
X103763001Y-62135420D01*
X100889132Y-65009289D01*
X100515655Y-64935000D01*
X100144345Y-64935000D01*
X99594510Y-65044369D01*
X98970991Y-65460991D01*
X98554369Y-66084510D01*
X98408071Y-66820000D01*
X98554369Y-67555490D01*
X98970991Y-68179009D01*
X99594510Y-68595631D01*
X100144345Y-68705000D01*
X100515655Y-68705000D01*
X101065490Y-68595631D01*
X101689009Y-68179009D01*
X102105631Y-67555490D01*
X102251929Y-66820000D01*
X102140711Y-66260868D01*
X104563356Y-63838223D01*
X111583035Y-63838223D01*
X111610222Y-64408454D01*
X111776136Y-64809005D01*
X112022255Y-64883139D01*
X112850395Y-64055000D01*
X113209605Y-64055000D01*
X114037745Y-64883139D01*
X114283864Y-64809005D01*
X114476965Y-64271777D01*
X114449778Y-63701546D01*
X114283864Y-63300995D01*
X114037745Y-63226861D01*
X113209605Y-64055000D01*
X112850395Y-64055000D01*
X112022255Y-63226861D01*
X111776136Y-63300995D01*
X111583035Y-63838223D01*
X104563356Y-63838223D01*
X105212156Y-63189423D01*
X105286049Y-63140049D01*
X105348053Y-63047255D01*
X112201861Y-63047255D01*
X113030000Y-63875395D01*
X113858139Y-63047255D01*
X113784005Y-62801136D01*
X113246777Y-62608035D01*
X112676546Y-62635222D01*
X112275995Y-62801136D01*
X112201861Y-63047255D01*
X105348053Y-63047255D01*
X105481651Y-62847311D01*
X105481652Y-62847310D01*
X105533000Y-62589165D01*
X105533000Y-62589161D01*
X105550337Y-62502001D01*
X105533000Y-62414841D01*
X105533000Y-60945578D01*
X108223578Y-58255000D01*
X111582560Y-58255000D01*
X111582560Y-59855000D01*
X111631843Y-60102765D01*
X111772191Y-60312809D01*
X111982235Y-60453157D01*
X112230000Y-60502440D01*
X113830000Y-60502440D01*
X114077765Y-60453157D01*
X114287809Y-60312809D01*
X114428157Y-60102765D01*
X114477440Y-59855000D01*
X114477440Y-58769561D01*
X121120000Y-58769561D01*
X121120000Y-59340439D01*
X121338466Y-59867862D01*
X121742138Y-60271534D01*
X122269561Y-60490000D01*
X122840439Y-60490000D01*
X123367862Y-60271534D01*
X123771534Y-59867862D01*
X123990000Y-59340439D01*
X123990000Y-58769561D01*
X123771534Y-58242138D01*
X123367862Y-57838466D01*
X122840439Y-57620000D01*
X122269561Y-57620000D01*
X121742138Y-57838466D01*
X121338466Y-58242138D01*
X121120000Y-58769561D01*
X114477440Y-58769561D01*
X114477440Y-58255000D01*
X114428157Y-58007235D01*
X114287809Y-57797191D01*
X114077765Y-57656843D01*
X113830000Y-57607560D01*
X112230000Y-57607560D01*
X111982235Y-57656843D01*
X111772191Y-57797191D01*
X111631843Y-58007235D01*
X111582560Y-58255000D01*
X108223578Y-58255000D01*
X110939888Y-55538690D01*
X126785000Y-55538690D01*
X126785000Y-56229250D01*
X126943750Y-56388000D01*
X128143000Y-56388000D01*
X128143000Y-55188750D01*
X128397000Y-55188750D01*
X128397000Y-56388000D01*
X129596250Y-56388000D01*
X129755000Y-56229250D01*
X129755000Y-55538690D01*
X129658327Y-55305301D01*
X129479698Y-55126673D01*
X129246309Y-55030000D01*
X128555750Y-55030000D01*
X128397000Y-55188750D01*
X128143000Y-55188750D01*
X127984250Y-55030000D01*
X127293691Y-55030000D01*
X127060302Y-55126673D01*
X126881673Y-55305301D01*
X126785000Y-55538690D01*
X110939888Y-55538690D01*
X114285579Y-52193000D01*
X152033422Y-52193000D01*
X152150001Y-52309580D01*
X152150000Y-60400344D01*
X151964375Y-60524375D01*
X151890000Y-60635685D01*
X151890000Y-55573846D01*
X151904888Y-55498999D01*
X151890000Y-55424152D01*
X151890000Y-55424148D01*
X151845904Y-55202463D01*
X151788239Y-55116161D01*
X151720329Y-55014526D01*
X151720327Y-55014524D01*
X151677929Y-54951071D01*
X151614476Y-54908673D01*
X150196331Y-53490530D01*
X150153929Y-53427071D01*
X149902537Y-53259096D01*
X149680852Y-53215000D01*
X149680847Y-53215000D01*
X149606000Y-53200112D01*
X149531153Y-53215000D01*
X148182440Y-53215000D01*
X148182440Y-53125000D01*
X148133157Y-52877235D01*
X147992809Y-52667191D01*
X147782765Y-52526843D01*
X147535000Y-52477560D01*
X145835000Y-52477560D01*
X145587235Y-52526843D01*
X145377191Y-52667191D01*
X145236843Y-52877235D01*
X145227816Y-52922619D01*
X145215625Y-52904375D01*
X144724418Y-52576161D01*
X144291256Y-52490000D01*
X143998744Y-52490000D01*
X143565582Y-52576161D01*
X143074375Y-52904375D01*
X142746161Y-53395582D01*
X142630908Y-53975000D01*
X142746161Y-54554418D01*
X143074375Y-55045625D01*
X143372761Y-55245000D01*
X143074375Y-55444375D01*
X142746161Y-55935582D01*
X142630908Y-56515000D01*
X142746161Y-57094418D01*
X143074375Y-57585625D01*
X143565582Y-57913839D01*
X143998744Y-58000000D01*
X144291256Y-58000000D01*
X144724418Y-57913839D01*
X145215625Y-57585625D01*
X145415000Y-57287239D01*
X145614375Y-57585625D01*
X146105582Y-57913839D01*
X146538744Y-58000000D01*
X146831256Y-58000000D01*
X147051408Y-57956209D01*
X148973001Y-59877803D01*
X148973000Y-78538153D01*
X148958112Y-78613000D01*
X148973000Y-78687847D01*
X148973000Y-78687851D01*
X149017096Y-78909536D01*
X149185071Y-79160929D01*
X149248530Y-79203331D01*
X151593791Y-81548592D01*
X151520908Y-81915000D01*
X151603457Y-82330001D01*
X139279925Y-82330001D01*
X139228575Y-82319787D01*
X139309092Y-81915000D01*
X139193839Y-81335582D01*
X138865625Y-80844375D01*
X138567239Y-80645000D01*
X138865625Y-80445625D01*
X139193839Y-79954418D01*
X139309092Y-79375000D01*
X139193839Y-78795582D01*
X138865625Y-78304375D01*
X138567239Y-78105000D01*
X138865625Y-77905625D01*
X139193839Y-77414418D01*
X139309092Y-76835000D01*
X139193839Y-76255582D01*
X138865625Y-75764375D01*
X138567239Y-75565000D01*
X138865625Y-75365625D01*
X139193839Y-74874418D01*
X139309092Y-74295000D01*
X139193839Y-73715582D01*
X138865625Y-73224375D01*
X138567239Y-73025000D01*
X138865625Y-72825625D01*
X139193839Y-72334418D01*
X139309092Y-71755000D01*
X139193839Y-71175582D01*
X138865625Y-70684375D01*
X138567239Y-70485000D01*
X138865625Y-70285625D01*
X139193839Y-69794418D01*
X139309092Y-69215000D01*
X139193839Y-68635582D01*
X138865625Y-68144375D01*
X138567239Y-67945000D01*
X138865625Y-67745625D01*
X139193839Y-67254418D01*
X139309092Y-66675000D01*
X139193839Y-66095582D01*
X138865625Y-65604375D01*
X138567239Y-65405000D01*
X138865625Y-65205625D01*
X139193839Y-64714418D01*
X139309092Y-64135000D01*
X139193839Y-63555582D01*
X138865625Y-63064375D01*
X138843967Y-63049904D01*
X139004698Y-62983327D01*
X139183327Y-62804699D01*
X139280000Y-62571310D01*
X139280000Y-61880750D01*
X139121250Y-61722000D01*
X137922000Y-61722000D01*
X137922000Y-61742000D01*
X137668000Y-61742000D01*
X137668000Y-61722000D01*
X136468750Y-61722000D01*
X136310000Y-61880750D01*
X136310000Y-62571310D01*
X136406673Y-62804699D01*
X136585302Y-62983327D01*
X136746033Y-63049904D01*
X136724375Y-63064375D01*
X136656061Y-63166614D01*
X134108137Y-60618690D01*
X136310000Y-60618690D01*
X136310000Y-61309250D01*
X136468750Y-61468000D01*
X137668000Y-61468000D01*
X137668000Y-60268750D01*
X137922000Y-60268750D01*
X137922000Y-61468000D01*
X139121250Y-61468000D01*
X139280000Y-61309250D01*
X139280000Y-60618690D01*
X139183327Y-60385301D01*
X139004698Y-60206673D01*
X138771309Y-60110000D01*
X138080750Y-60110000D01*
X137922000Y-60268750D01*
X137668000Y-60268750D01*
X137509250Y-60110000D01*
X136818691Y-60110000D01*
X136585302Y-60206673D01*
X136406673Y-60385301D01*
X136310000Y-60618690D01*
X134108137Y-60618690D01*
X132075911Y-58586465D01*
X132034905Y-58525095D01*
X131791783Y-58362646D01*
X131577388Y-58320000D01*
X131577384Y-58320000D01*
X131505000Y-58305602D01*
X131432616Y-58320000D01*
X129564882Y-58320000D01*
X129340625Y-57984375D01*
X129318967Y-57969904D01*
X129479698Y-57903327D01*
X129658327Y-57724699D01*
X129755000Y-57491310D01*
X129755000Y-56800750D01*
X129596250Y-56642000D01*
X128397000Y-56642000D01*
X128397000Y-56662000D01*
X128143000Y-56662000D01*
X128143000Y-56642000D01*
X126943750Y-56642000D01*
X126785000Y-56800750D01*
X126785000Y-57491310D01*
X126881673Y-57724699D01*
X127060302Y-57903327D01*
X127221033Y-57969904D01*
X127199375Y-57984375D01*
X126991822Y-58295000D01*
X125964846Y-58295000D01*
X125889998Y-58280112D01*
X125815150Y-58295000D01*
X125815146Y-58295000D01*
X125641603Y-58329520D01*
X125593460Y-58339096D01*
X125406416Y-58464076D01*
X125342069Y-58507071D01*
X125299669Y-58570527D01*
X118590197Y-65280000D01*
X113792699Y-65280000D01*
X113858139Y-65062745D01*
X113030000Y-64234605D01*
X112201861Y-65062745D01*
X112267301Y-65280000D01*
X111834846Y-65280000D01*
X111759999Y-65265112D01*
X111685152Y-65280000D01*
X111685148Y-65280000D01*
X111463463Y-65324096D01*
X111400902Y-65365898D01*
X111275526Y-65449671D01*
X111275524Y-65449673D01*
X111212071Y-65492071D01*
X111169673Y-65555524D01*
X104347899Y-72377300D01*
X103884855Y-72377300D01*
X103413409Y-72572579D01*
X103052579Y-72933409D01*
X102868480Y-73377864D01*
X102865756Y-73330941D01*
X102727705Y-72997655D01*
X102497347Y-72942258D01*
X101779605Y-73660000D01*
X102497347Y-74377742D01*
X102727705Y-74322345D01*
X102863838Y-73930928D01*
X103052579Y-74386591D01*
X103413409Y-74747421D01*
X103884855Y-74942700D01*
X104395145Y-74942700D01*
X104866591Y-74747421D01*
X105227421Y-74386591D01*
X105410000Y-73945806D01*
X105592579Y-74386591D01*
X105953409Y-74747421D01*
X106424855Y-74942700D01*
X106935145Y-74942700D01*
X107406591Y-74747421D01*
X107767421Y-74386591D01*
X107950000Y-73945806D01*
X108132579Y-74386591D01*
X108493409Y-74747421D01*
X108964855Y-74942700D01*
X109475145Y-74942700D01*
X109946591Y-74747421D01*
X110307421Y-74386591D01*
X110490000Y-73945806D01*
X110672579Y-74386591D01*
X111033409Y-74747421D01*
X111504855Y-74942700D01*
X112015145Y-74942700D01*
X112486591Y-74747421D01*
X112847421Y-74386591D01*
X113030000Y-73945806D01*
X113212579Y-74386591D01*
X113573409Y-74747421D01*
X114044855Y-74942700D01*
X114555145Y-74942700D01*
X115026591Y-74747421D01*
X115387421Y-74386591D01*
X115570000Y-73945806D01*
X115752579Y-74386591D01*
X116113409Y-74747421D01*
X116584855Y-74942700D01*
X117095145Y-74942700D01*
X117566591Y-74747421D01*
X117927421Y-74386591D01*
X118110000Y-73945806D01*
X118292579Y-74386591D01*
X118653409Y-74747421D01*
X119124855Y-74942700D01*
X119635145Y-74942700D01*
X120106591Y-74747421D01*
X120467421Y-74386591D01*
X120650000Y-73945806D01*
X120832579Y-74386591D01*
X121193409Y-74747421D01*
X121664855Y-74942700D01*
X122175145Y-74942700D01*
X122646591Y-74747421D01*
X123007421Y-74386591D01*
X123202700Y-73915145D01*
X123202700Y-73404855D01*
X123007421Y-72933409D01*
X122646591Y-72572579D01*
X122175145Y-72377300D01*
X121664855Y-72377300D01*
X121193409Y-72572579D01*
X120832579Y-72933409D01*
X120650000Y-73374194D01*
X120467421Y-72933409D01*
X120106591Y-72572579D01*
X119635145Y-72377300D01*
X119124855Y-72377300D01*
X118653409Y-72572579D01*
X118292579Y-72933409D01*
X118110000Y-73374194D01*
X117927421Y-72933409D01*
X117566591Y-72572579D01*
X117095145Y-72377300D01*
X116584855Y-72377300D01*
X116113409Y-72572579D01*
X115752579Y-72933409D01*
X115570000Y-73374194D01*
X115387421Y-72933409D01*
X115026591Y-72572579D01*
X114555145Y-72377300D01*
X114044855Y-72377300D01*
X113573409Y-72572579D01*
X113212579Y-72933409D01*
X113030000Y-73374194D01*
X112847421Y-72933409D01*
X112486591Y-72572579D01*
X112015145Y-72377300D01*
X111504855Y-72377300D01*
X111033409Y-72572579D01*
X110672579Y-72933409D01*
X110490000Y-73374194D01*
X110307421Y-72933409D01*
X109946591Y-72572579D01*
X109475145Y-72377300D01*
X109037501Y-72377300D01*
X113852802Y-67562000D01*
X122988153Y-67562000D01*
X123063000Y-67576888D01*
X123137847Y-67562000D01*
X123137852Y-67562000D01*
X123359537Y-67517904D01*
X123610929Y-67349929D01*
X123653331Y-67286470D01*
X126764020Y-64175782D01*
X126871161Y-64714418D01*
X127199375Y-65205625D01*
X127497761Y-65405000D01*
X127199375Y-65604375D01*
X126871161Y-66095582D01*
X126755908Y-66675000D01*
X126871161Y-67254418D01*
X127199375Y-67745625D01*
X127497761Y-67945000D01*
X127199375Y-68144375D01*
X126871161Y-68635582D01*
X126755908Y-69215000D01*
X126871161Y-69794418D01*
X127199375Y-70285625D01*
X127497761Y-70485000D01*
X127199375Y-70684375D01*
X126871161Y-71175582D01*
X126755908Y-71755000D01*
X126871161Y-72334418D01*
X127199375Y-72825625D01*
X127497761Y-73025000D01*
X127199375Y-73224375D01*
X126871161Y-73715582D01*
X126755908Y-74295000D01*
X126871161Y-74874418D01*
X127199375Y-75365625D01*
X127497761Y-75565000D01*
X127199375Y-75764375D01*
X126871161Y-76255582D01*
X126755908Y-76835000D01*
X126871161Y-77414418D01*
X127199375Y-77905625D01*
X127497761Y-78105000D01*
X127199375Y-78304375D01*
X126871161Y-78795582D01*
X126755908Y-79375000D01*
X126871161Y-79954418D01*
X127199375Y-80445625D01*
X127497761Y-80645000D01*
X127199375Y-80844375D01*
X126871161Y-81335582D01*
X126755908Y-81915000D01*
X126871161Y-82494418D01*
X127199375Y-82985625D01*
X127497761Y-83185000D01*
X127199375Y-83384375D01*
X126871161Y-83875582D01*
X126755908Y-84455000D01*
X126871161Y-85034418D01*
X127199375Y-85525625D01*
X127497761Y-85725000D01*
X127199375Y-85924375D01*
X126871161Y-86415582D01*
X126755908Y-86995000D01*
X126871161Y-87574418D01*
X127199375Y-88065625D01*
X127497761Y-88265000D01*
X127199375Y-88464375D01*
X126871161Y-88955582D01*
X126755908Y-89535000D01*
X126871161Y-90114418D01*
X127199375Y-90605625D01*
X127497761Y-90805000D01*
X127199375Y-91004375D01*
X126871161Y-91495582D01*
X126755908Y-92075000D01*
X126871161Y-92654418D01*
X127199375Y-93145625D01*
X127497761Y-93345000D01*
X127199375Y-93544375D01*
X126871161Y-94035582D01*
X126755908Y-94615000D01*
X126871161Y-95194418D01*
X127199375Y-95685625D01*
X127497761Y-95885000D01*
X127199375Y-96084375D01*
X126871161Y-96575582D01*
X126793349Y-96966771D01*
X124710000Y-94883422D01*
X124710000Y-94274012D01*
X124912421Y-94071591D01*
X125107700Y-93600145D01*
X125107700Y-93089855D01*
X124912421Y-92618409D01*
X124551591Y-92257579D01*
X124080145Y-92062300D01*
X123617102Y-92062300D01*
X122764331Y-91209530D01*
X122721929Y-91146071D01*
X122470537Y-90978096D01*
X122248852Y-90934000D01*
X122248847Y-90934000D01*
X122174000Y-90919112D01*
X122099153Y-90934000D01*
X115390848Y-90934000D01*
X115316000Y-90919112D01*
X115241152Y-90934000D01*
X115241148Y-90934000D01*
X115019463Y-90978096D01*
X114768071Y-91146071D01*
X114725671Y-91209527D01*
X113872899Y-92062300D01*
X113409855Y-92062300D01*
X112938409Y-92257579D01*
X112577579Y-92618409D01*
X112395000Y-93059194D01*
X112212421Y-92618409D01*
X111851591Y-92257579D01*
X111380145Y-92062300D01*
X110869855Y-92062300D01*
X110398409Y-92257579D01*
X110037579Y-92618409D01*
X109855000Y-93059194D01*
X109672421Y-92618409D01*
X109311591Y-92257579D01*
X108840145Y-92062300D01*
X108329855Y-92062300D01*
X107858409Y-92257579D01*
X107497579Y-92618409D01*
X107315000Y-93059194D01*
X107132421Y-92618409D01*
X106771591Y-92257579D01*
X106300145Y-92062300D01*
X105789855Y-92062300D01*
X105318409Y-92257579D01*
X104957579Y-92618409D01*
X104762300Y-93089855D01*
X104762300Y-93600145D01*
X104957579Y-94071591D01*
X105318409Y-94432421D01*
X105789855Y-94627700D01*
X106300145Y-94627700D01*
X106771591Y-94432421D01*
X107132421Y-94071591D01*
X107315000Y-93630806D01*
X107497579Y-94071591D01*
X107858409Y-94432421D01*
X108329855Y-94627700D01*
X108840145Y-94627700D01*
X109311591Y-94432421D01*
X109672421Y-94071591D01*
X109855000Y-93630806D01*
X110037579Y-94071591D01*
X110398409Y-94432421D01*
X110869855Y-94627700D01*
X111380145Y-94627700D01*
X111851591Y-94432421D01*
X112212421Y-94071591D01*
X112395000Y-93630806D01*
X112577579Y-94071591D01*
X112938409Y-94432421D01*
X113409855Y-94627700D01*
X113920145Y-94627700D01*
X114391591Y-94432421D01*
X114752421Y-94071591D01*
X114935000Y-93630806D01*
X115117579Y-94071591D01*
X115478409Y-94432421D01*
X115949855Y-94627700D01*
X116460145Y-94627700D01*
X116931591Y-94432421D01*
X117292421Y-94071591D01*
X117323284Y-93997080D01*
X117337301Y-94067546D01*
X117337302Y-96344896D01*
X116652199Y-97030000D01*
X114248043Y-97030000D01*
X114064577Y-96755423D01*
X113589909Y-96438260D01*
X113171333Y-96355000D01*
X112888667Y-96355000D01*
X112470091Y-96438260D01*
X111995423Y-96755423D01*
X111811957Y-97030000D01*
X105089802Y-97030000D01*
X103041209Y-94981408D01*
X103114092Y-94615000D01*
X102998839Y-94035582D01*
X102670625Y-93544375D01*
X102372239Y-93345000D01*
X102670625Y-93145625D01*
X102998839Y-92654418D01*
X103114092Y-92075000D01*
X102998839Y-91495582D01*
X102670625Y-91004375D01*
X102372239Y-90805000D01*
X102670625Y-90605625D01*
X102878178Y-90295000D01*
X121820555Y-90295000D01*
X121895402Y-90309888D01*
X121970249Y-90295000D01*
X121970254Y-90295000D01*
X122191939Y-90250904D01*
X122443331Y-90082929D01*
X122485733Y-90019470D01*
X126087476Y-86417729D01*
X126150929Y-86375331D01*
X126193327Y-86311878D01*
X126193329Y-86311876D01*
X126318903Y-86123940D01*
X126318904Y-86123939D01*
X126363000Y-85902254D01*
X126363000Y-85902250D01*
X126377888Y-85827403D01*
X126363000Y-85752556D01*
X126363000Y-84275848D01*
X126377888Y-84201000D01*
X126363000Y-84126152D01*
X126363000Y-84126148D01*
X126318904Y-83904463D01*
X126150929Y-83653071D01*
X126087473Y-83610671D01*
X125558331Y-83081530D01*
X125515929Y-83018071D01*
X125264537Y-82850096D01*
X125042852Y-82806000D01*
X125042847Y-82806000D01*
X124968000Y-82791112D01*
X124893153Y-82806000D01*
X123518846Y-82806000D01*
X123443999Y-82791112D01*
X123369152Y-82806000D01*
X123369148Y-82806000D01*
X123147463Y-82850096D01*
X122896071Y-83018071D01*
X122853671Y-83081527D01*
X121492899Y-84442300D01*
X121029855Y-84442300D01*
X120558409Y-84637579D01*
X120197579Y-84998409D01*
X120015000Y-85439194D01*
X119832421Y-84998409D01*
X119471591Y-84637579D01*
X119000145Y-84442300D01*
X118537102Y-84442300D01*
X116657501Y-82562700D01*
X117095145Y-82562700D01*
X117566591Y-82367421D01*
X117927421Y-82006591D01*
X118110000Y-81565806D01*
X118292579Y-82006591D01*
X118653409Y-82367421D01*
X119124855Y-82562700D01*
X119635145Y-82562700D01*
X120106591Y-82367421D01*
X120467421Y-82006591D01*
X120650000Y-81565806D01*
X120832579Y-82006591D01*
X121193409Y-82367421D01*
X121664855Y-82562700D01*
X122175145Y-82562700D01*
X122646591Y-82367421D01*
X123007421Y-82006591D01*
X123202700Y-81535145D01*
X123202700Y-81024855D01*
X123007421Y-80553409D01*
X122646591Y-80192579D01*
X122175145Y-79997300D01*
X121664855Y-79997300D01*
X121193409Y-80192579D01*
X120832579Y-80553409D01*
X120650000Y-80994194D01*
X120467421Y-80553409D01*
X120106591Y-80192579D01*
X119635145Y-79997300D01*
X119124855Y-79997300D01*
X118653409Y-80192579D01*
X118292579Y-80553409D01*
X118110000Y-80994194D01*
X117927421Y-80553409D01*
X117566591Y-80192579D01*
X117095145Y-79997300D01*
X116584855Y-79997300D01*
X116113409Y-80192579D01*
X115752579Y-80553409D01*
X115570000Y-80994194D01*
X115387421Y-80553409D01*
X115026591Y-80192579D01*
X114555145Y-79997300D01*
X114044855Y-79997300D01*
X113573409Y-80192579D01*
X113212579Y-80553409D01*
X113030000Y-80994194D01*
X112847421Y-80553409D01*
X112486591Y-80192579D01*
X112015145Y-79997300D01*
X111504855Y-79997300D01*
X111033409Y-80192579D01*
X110672579Y-80553409D01*
X110490000Y-80994194D01*
X110307421Y-80553409D01*
X109946591Y-80192579D01*
X109475145Y-79997300D01*
X108964855Y-79997300D01*
X108493409Y-80192579D01*
X108132579Y-80553409D01*
X107950000Y-80994194D01*
X107767421Y-80553409D01*
X107406591Y-80192579D01*
X106935145Y-79997300D01*
X106424855Y-79997300D01*
X105953409Y-80192579D01*
X105592579Y-80553409D01*
X105410000Y-80994194D01*
X105227421Y-80553409D01*
X104866591Y-80192579D01*
X104395145Y-79997300D01*
X103884855Y-79997300D01*
X103413409Y-80192579D01*
X103052579Y-80553409D01*
X102870000Y-80994194D01*
X102687421Y-80553409D01*
X102326591Y-80192579D01*
X101855145Y-79997300D01*
X101344855Y-79997300D01*
X100873409Y-80192579D01*
X100512579Y-80553409D01*
X100355140Y-80933501D01*
X100355140Y-80632300D01*
X100305857Y-80384535D01*
X100165509Y-80174491D01*
X99955465Y-80034143D01*
X99707700Y-79984860D01*
X98412300Y-79984860D01*
X98164535Y-80034143D01*
X97954491Y-80174491D01*
X97814143Y-80384535D01*
X97764860Y-80632300D01*
X97764860Y-81927700D01*
X97814143Y-82175465D01*
X97954491Y-82385509D01*
X98164535Y-82525857D01*
X98411398Y-82574961D01*
X98444834Y-82625000D01*
X98512072Y-82725629D01*
X98575528Y-82768029D01*
X99857970Y-84050472D01*
X99900371Y-84113929D01*
X99963827Y-84156329D01*
X100151762Y-84281904D01*
X100199905Y-84291480D01*
X100373448Y-84326000D01*
X100373452Y-84326000D01*
X100448300Y-84340888D01*
X100523148Y-84326000D01*
X113731199Y-84326000D01*
X113847499Y-84442300D01*
X113409855Y-84442300D01*
X112938409Y-84637579D01*
X112577579Y-84998409D01*
X112395000Y-85439194D01*
X112212421Y-84998409D01*
X111851591Y-84637579D01*
X111380145Y-84442300D01*
X110869855Y-84442300D01*
X110398409Y-84637579D01*
X110037579Y-84998409D01*
X109855000Y-85439194D01*
X109672421Y-84998409D01*
X109311591Y-84637579D01*
X108840145Y-84442300D01*
X108329855Y-84442300D01*
X107858409Y-84637579D01*
X107497579Y-84998409D01*
X107313480Y-85442864D01*
X107310756Y-85395941D01*
X107172705Y-85062655D01*
X106942347Y-85007258D01*
X106224605Y-85725000D01*
X106942347Y-86442742D01*
X107172705Y-86387345D01*
X107308838Y-85995928D01*
X107497579Y-86451591D01*
X107858409Y-86812421D01*
X108329855Y-87007700D01*
X108840145Y-87007700D01*
X109311591Y-86812421D01*
X109672421Y-86451591D01*
X109855000Y-86010806D01*
X110037579Y-86451591D01*
X110398409Y-86812421D01*
X110869855Y-87007700D01*
X111380145Y-87007700D01*
X111851591Y-86812421D01*
X112212421Y-86451591D01*
X112395000Y-86010806D01*
X112577579Y-86451591D01*
X112938409Y-86812421D01*
X113409855Y-87007700D01*
X113920145Y-87007700D01*
X114391591Y-86812421D01*
X114752421Y-86451591D01*
X114935000Y-86010806D01*
X115117579Y-86451591D01*
X115478409Y-86812421D01*
X115949855Y-87007700D01*
X116460145Y-87007700D01*
X116931591Y-86812421D01*
X117292421Y-86451591D01*
X117475000Y-86010806D01*
X117657579Y-86451591D01*
X118018409Y-86812421D01*
X118489855Y-87007700D01*
X119000145Y-87007700D01*
X119471591Y-86812421D01*
X119832421Y-86451591D01*
X120015000Y-86010806D01*
X120197579Y-86451591D01*
X120558409Y-86812421D01*
X121029855Y-87007700D01*
X121540145Y-87007700D01*
X122011591Y-86812421D01*
X122372421Y-86451591D01*
X122529860Y-86071499D01*
X122529860Y-86372700D01*
X122579143Y-86620465D01*
X122648554Y-86724345D01*
X122121899Y-87251000D01*
X104030802Y-87251000D01*
X103402149Y-86622347D01*
X105327258Y-86622347D01*
X105382655Y-86852705D01*
X105864627Y-87020332D01*
X106374059Y-86990756D01*
X106707345Y-86852705D01*
X106762742Y-86622347D01*
X106045000Y-85904605D01*
X105327258Y-86622347D01*
X103402149Y-86622347D01*
X103290331Y-86510530D01*
X103247929Y-86447071D01*
X103097440Y-86346517D01*
X103097440Y-86145000D01*
X103048157Y-85897235D01*
X102907809Y-85687191D01*
X102697765Y-85546843D01*
X102686625Y-85544627D01*
X104749668Y-85544627D01*
X104779244Y-86054059D01*
X104917295Y-86387345D01*
X105147653Y-86442742D01*
X105865395Y-85725000D01*
X105147653Y-85007258D01*
X104917295Y-85062655D01*
X104749668Y-85544627D01*
X102686625Y-85544627D01*
X102450000Y-85497560D01*
X100750000Y-85497560D01*
X100502235Y-85546843D01*
X100292191Y-85687191D01*
X100151843Y-85897235D01*
X100102560Y-86145000D01*
X100102560Y-86409994D01*
X100020095Y-86465095D01*
X99979091Y-86526463D01*
X97067465Y-89438089D01*
X97006095Y-89479095D01*
X96843646Y-89722218D01*
X96801000Y-89936613D01*
X96801000Y-89936616D01*
X96786602Y-90009000D01*
X96801000Y-90081384D01*
X96801001Y-106600709D01*
X96743345Y-106658365D01*
X96601000Y-107002017D01*
X96601000Y-107373983D01*
X96743345Y-107717635D01*
X97006365Y-107980655D01*
X97350017Y-108123000D01*
X97721983Y-108123000D01*
X98052290Y-107986183D01*
X97781465Y-108257008D01*
X97720095Y-108298014D01*
X97557646Y-108541137D01*
X97515000Y-108755532D01*
X97515000Y-108755535D01*
X97500602Y-108827919D01*
X97515000Y-108900303D01*
X97515001Y-114657611D01*
X97500602Y-114730000D01*
X97557646Y-115016782D01*
X97646659Y-115149999D01*
X97720096Y-115259905D01*
X97781463Y-115300909D01*
X109097178Y-126616625D01*
X109026887Y-126970000D01*
X109138260Y-127529909D01*
X109455423Y-128004577D01*
X109930091Y-128321740D01*
X110348667Y-128405000D01*
X110631333Y-128405000D01*
X111049909Y-128321740D01*
X111524577Y-128004577D01*
X111841740Y-127529909D01*
X111877716Y-127349041D01*
X122433086Y-127349041D01*
X122672611Y-127855134D01*
X123087577Y-128231041D01*
X123475961Y-128391904D01*
X123698000Y-128269915D01*
X123698000Y-127127000D01*
X123952000Y-127127000D01*
X123952000Y-128269915D01*
X124174039Y-128391904D01*
X124562423Y-128231041D01*
X124977389Y-127855134D01*
X125216914Y-127349041D01*
X125095629Y-127127000D01*
X123952000Y-127127000D01*
X123698000Y-127127000D01*
X122554371Y-127127000D01*
X122433086Y-127349041D01*
X111877716Y-127349041D01*
X111953113Y-126970000D01*
X111889652Y-126650959D01*
X122433086Y-126650959D01*
X122554371Y-126873000D01*
X123698000Y-126873000D01*
X123698000Y-125730085D01*
X123952000Y-125730085D01*
X123952000Y-126873000D01*
X125095629Y-126873000D01*
X125216914Y-126650959D01*
X124977389Y-126144866D01*
X124562423Y-125768959D01*
X124174039Y-125608096D01*
X123952000Y-125730085D01*
X123698000Y-125730085D01*
X123475961Y-125608096D01*
X123087577Y-125768959D01*
X122672611Y-126144866D01*
X122433086Y-126650959D01*
X111889652Y-126650959D01*
X111841740Y-126410091D01*
X111524577Y-125935423D01*
X111049909Y-125618260D01*
X110631333Y-125535000D01*
X110348667Y-125535000D01*
X110136625Y-125577178D01*
X104482159Y-119922713D01*
X104661215Y-120042354D01*
X104875610Y-120085000D01*
X104875613Y-120085000D01*
X104947997Y-120099398D01*
X105020381Y-120085000D01*
X109241214Y-120085000D01*
X109273466Y-120162862D01*
X109677138Y-120566534D01*
X110204561Y-120785000D01*
X110775439Y-120785000D01*
X111302862Y-120566534D01*
X111706534Y-120162862D01*
X111925000Y-119635439D01*
X111925000Y-119064561D01*
X111706534Y-118537138D01*
X111302862Y-118133466D01*
X110775439Y-117915000D01*
X110204561Y-117915000D01*
X109677138Y-118133466D01*
X109273466Y-118537138D01*
X109241214Y-118615000D01*
X105252445Y-118615000D01*
X102842445Y-116205000D01*
X109026887Y-116205000D01*
X109138260Y-116764909D01*
X109455423Y-117239577D01*
X109930091Y-117556740D01*
X110348667Y-117640000D01*
X110631333Y-117640000D01*
X111049909Y-117556740D01*
X111524577Y-117239577D01*
X111841740Y-116764909D01*
X111953113Y-116205000D01*
X113471887Y-116205000D01*
X113583260Y-116764909D01*
X113900423Y-117239577D01*
X114375091Y-117556740D01*
X114793667Y-117640000D01*
X115076333Y-117640000D01*
X115494909Y-117556740D01*
X115969577Y-117239577D01*
X116286740Y-116764909D01*
X116398113Y-116205000D01*
X117916887Y-116205000D01*
X118028260Y-116764909D01*
X118345423Y-117239577D01*
X118820091Y-117556740D01*
X119238667Y-117640000D01*
X119521333Y-117640000D01*
X119939909Y-117556740D01*
X120414577Y-117239577D01*
X120731740Y-116764909D01*
X120843113Y-116205000D01*
X122361887Y-116205000D01*
X122473260Y-116764909D01*
X122790423Y-117239577D01*
X123090000Y-117439748D01*
X123090000Y-118131214D01*
X123012138Y-118163466D01*
X122608466Y-118567138D01*
X122390000Y-119094561D01*
X122390000Y-119665439D01*
X122608466Y-120192862D01*
X123012138Y-120596534D01*
X123539561Y-120815000D01*
X124110439Y-120815000D01*
X124637862Y-120596534D01*
X125041534Y-120192862D01*
X125260000Y-119665439D01*
X125260000Y-119094561D01*
X125041534Y-118567138D01*
X124637862Y-118163466D01*
X124560000Y-118131214D01*
X124560000Y-117439748D01*
X124859577Y-117239577D01*
X125176740Y-116764909D01*
X125288113Y-116205000D01*
X125176740Y-115645091D01*
X124859577Y-115170423D01*
X124384909Y-114853260D01*
X123966333Y-114770000D01*
X123683667Y-114770000D01*
X123265091Y-114853260D01*
X122790423Y-115170423D01*
X122473260Y-115645091D01*
X122361887Y-116205000D01*
X120843113Y-116205000D01*
X120731740Y-115645091D01*
X120414577Y-115170423D01*
X119939909Y-114853260D01*
X119521333Y-114770000D01*
X119238667Y-114770000D01*
X118820091Y-114853260D01*
X118345423Y-115170423D01*
X118028260Y-115645091D01*
X117916887Y-116205000D01*
X116398113Y-116205000D01*
X116286740Y-115645091D01*
X115969577Y-115170423D01*
X115494909Y-114853260D01*
X115076333Y-114770000D01*
X114793667Y-114770000D01*
X114375091Y-114853260D01*
X113900423Y-115170423D01*
X113583260Y-115645091D01*
X113471887Y-116205000D01*
X111953113Y-116205000D01*
X111841740Y-115645091D01*
X111524577Y-115170423D01*
X111049909Y-114853260D01*
X110631333Y-114770000D01*
X110348667Y-114770000D01*
X109930091Y-114853260D01*
X109455423Y-115170423D01*
X109138260Y-115645091D01*
X109026887Y-116205000D01*
X102842445Y-116205000D01*
X101852445Y-115215001D01*
X106332838Y-115215001D01*
X106419999Y-115232338D01*
X106507160Y-115215001D01*
X106507164Y-115215001D01*
X106765309Y-115163653D01*
X107058048Y-114968050D01*
X107107424Y-114894154D01*
X109164156Y-112837423D01*
X109238049Y-112788049D01*
X109296883Y-112699999D01*
X109433652Y-112495310D01*
X109439390Y-112466462D01*
X109485000Y-112237165D01*
X109485000Y-112237161D01*
X109502337Y-112150000D01*
X109485000Y-112062839D01*
X109485000Y-110841578D01*
X110306579Y-110020000D01*
X110775439Y-110020000D01*
X111302862Y-109801534D01*
X111634396Y-109470000D01*
X113790604Y-109470000D01*
X114122138Y-109801534D01*
X114649561Y-110020000D01*
X115220439Y-110020000D01*
X115747862Y-109801534D01*
X116079396Y-109470000D01*
X118235604Y-109470000D01*
X118567138Y-109801534D01*
X119094561Y-110020000D01*
X119665439Y-110020000D01*
X120192862Y-109801534D01*
X120524396Y-109470000D01*
X122680604Y-109470000D01*
X123012138Y-109801534D01*
X123539561Y-110020000D01*
X124110439Y-110020000D01*
X124637862Y-109801534D01*
X125041534Y-109397862D01*
X125260000Y-108870439D01*
X125260000Y-108401578D01*
X128834156Y-104827423D01*
X128908049Y-104778049D01*
X128971865Y-104682543D01*
X129060427Y-104550000D01*
X129103652Y-104485310D01*
X129155000Y-104227165D01*
X129155000Y-104227161D01*
X129172337Y-104140001D01*
X129155000Y-104052841D01*
X129155000Y-100889656D01*
X129340625Y-100765625D01*
X129668839Y-100274418D01*
X129698124Y-100127193D01*
X129788119Y-100261880D01*
X129847402Y-100301492D01*
X132040001Y-102494092D01*
X132040000Y-113180076D01*
X132026091Y-113250000D01*
X132040000Y-113319924D01*
X132040000Y-113319925D01*
X132081195Y-113527027D01*
X132238119Y-113761880D01*
X132297402Y-113801492D01*
X133010910Y-114515000D01*
X132764017Y-114515000D01*
X132420365Y-114657345D01*
X132157345Y-114920365D01*
X132015000Y-115264017D01*
X132015000Y-115635983D01*
X132157345Y-115979635D01*
X132240000Y-116062290D01*
X132240001Y-116945907D01*
X131683675Y-117502234D01*
X131689092Y-117475000D01*
X131573839Y-116895582D01*
X131245625Y-116404375D01*
X130947239Y-116205000D01*
X131245625Y-116005625D01*
X131573839Y-115514418D01*
X131689092Y-114935000D01*
X131573839Y-114355582D01*
X131245625Y-113864375D01*
X130947239Y-113665000D01*
X131245625Y-113465625D01*
X131573839Y-112974418D01*
X131689092Y-112395000D01*
X131573839Y-111815582D01*
X131245625Y-111324375D01*
X130947239Y-111125000D01*
X131245625Y-110925625D01*
X131573839Y-110434418D01*
X131689092Y-109855000D01*
X131573839Y-109275582D01*
X131245625Y-108784375D01*
X131227381Y-108772184D01*
X131272765Y-108763157D01*
X131482809Y-108622809D01*
X131623157Y-108412765D01*
X131672440Y-108165000D01*
X131672440Y-106465000D01*
X131623157Y-106217235D01*
X131482809Y-106007191D01*
X131272765Y-105866843D01*
X131025000Y-105817560D01*
X129325000Y-105817560D01*
X129077235Y-105866843D01*
X128867191Y-106007191D01*
X128726843Y-106217235D01*
X128677560Y-106465000D01*
X128677560Y-106580000D01*
X127707383Y-106580000D01*
X127634999Y-106565602D01*
X127562615Y-106580000D01*
X127562612Y-106580000D01*
X127348217Y-106622646D01*
X127105095Y-106785095D01*
X127064089Y-106846465D01*
X126781465Y-107129089D01*
X126720095Y-107170095D01*
X126557646Y-107413218D01*
X126515000Y-107627613D01*
X126515000Y-107627616D01*
X126500602Y-107700000D01*
X126515000Y-107772384D01*
X126515001Y-127127611D01*
X126500602Y-127200000D01*
X126557646Y-127486782D01*
X126557647Y-127486783D01*
X126720096Y-127729905D01*
X126781463Y-127770909D01*
X129379091Y-130368537D01*
X129420095Y-130429905D01*
X129663217Y-130592354D01*
X129877612Y-130635000D01*
X129950000Y-130649399D01*
X130022388Y-130635000D01*
X146182616Y-130635000D01*
X146255000Y-130649398D01*
X146327384Y-130635000D01*
X146327388Y-130635000D01*
X146541783Y-130592354D01*
X146784905Y-130429905D01*
X146825911Y-130368535D01*
X148151655Y-129042791D01*
X148392373Y-129142500D01*
X148498815Y-129142500D01*
X150989202Y-131632888D01*
X151066471Y-131748529D01*
X151524600Y-132054641D01*
X151928593Y-132135000D01*
X152064999Y-132162133D01*
X152201405Y-132135000D01*
X184063593Y-132135000D01*
X184200000Y-132162133D01*
X184336407Y-132135000D01*
X184740400Y-132054641D01*
X185198529Y-131748529D01*
X185275799Y-131632886D01*
X189932888Y-126975798D01*
X190048529Y-126898529D01*
X190354641Y-126440400D01*
X190435000Y-126036407D01*
X190462133Y-125900000D01*
X190435000Y-125763593D01*
X190435000Y-97786407D01*
X190462133Y-97650000D01*
X190354641Y-97109600D01*
X190125797Y-96767111D01*
X190125795Y-96767109D01*
X190048528Y-96651471D01*
X189932890Y-96574204D01*
X188360799Y-95002114D01*
X188283529Y-94886471D01*
X187825400Y-94580359D01*
X187421407Y-94500000D01*
X187285000Y-94472867D01*
X187148593Y-94500000D01*
X186392161Y-94500000D01*
X186432440Y-94297500D01*
X186432440Y-92392500D01*
X186383157Y-92144735D01*
X186242809Y-91934691D01*
X186032765Y-91794343D01*
X185785000Y-91745060D01*
X183785000Y-91745060D01*
X183537235Y-91794343D01*
X183327191Y-91934691D01*
X183287773Y-91993683D01*
X182691494Y-91397404D01*
X182651881Y-91338119D01*
X182417028Y-91181195D01*
X182209926Y-91140000D01*
X182209924Y-91140000D01*
X182140000Y-91126091D01*
X182070076Y-91140000D01*
X175012422Y-91140000D01*
X174942498Y-91126091D01*
X174872573Y-91140000D01*
X174872572Y-91140000D01*
X174665470Y-91181195D01*
X174430617Y-91338119D01*
X174391006Y-91397401D01*
X169897402Y-95891006D01*
X169838119Y-95930618D01*
X169783405Y-96012503D01*
X169105910Y-96690000D01*
X157860031Y-96690000D01*
X157772007Y-96631184D01*
X157564905Y-96589989D01*
X157564903Y-96589989D01*
X157494979Y-96576080D01*
X157425055Y-96589989D01*
X156024945Y-96589989D01*
X155955020Y-96576080D01*
X155885096Y-96589989D01*
X155885095Y-96589989D01*
X155677993Y-96631184D01*
X155443140Y-96788108D01*
X155403529Y-96847390D01*
X154447402Y-97803518D01*
X154388119Y-97843130D01*
X154231195Y-98077983D01*
X154223832Y-98115000D01*
X153844126Y-98115000D01*
X153799318Y-98133560D01*
X153700655Y-97895365D01*
X153437635Y-97632345D01*
X153093983Y-97490000D01*
X152722017Y-97490000D01*
X152378365Y-97632345D01*
X152115345Y-97895365D01*
X151973000Y-98239017D01*
X151973000Y-98610983D01*
X152036796Y-98765000D01*
X151694126Y-98765000D01*
X151313720Y-98922569D01*
X151146289Y-99090000D01*
X150169924Y-99090000D01*
X150100000Y-99076091D01*
X150030075Y-99090000D01*
X150030074Y-99090000D01*
X149822972Y-99131195D01*
X149588119Y-99288119D01*
X149548508Y-99347401D01*
X146847402Y-102048508D01*
X146788120Y-102088119D01*
X146672016Y-102261881D01*
X146631196Y-102322972D01*
X146576091Y-102600000D01*
X146590001Y-102669929D01*
X146590000Y-103223929D01*
X145931122Y-103882807D01*
X145881413Y-103892695D01*
X145671369Y-104033043D01*
X145415000Y-104289412D01*
X145158631Y-104033043D01*
X144948587Y-103892695D01*
X144885000Y-103880047D01*
X144885000Y-103764017D01*
X144742655Y-103420365D01*
X144479635Y-103157345D01*
X144135983Y-103015000D01*
X143764017Y-103015000D01*
X143420365Y-103157345D01*
X143157345Y-103420365D01*
X143076725Y-103615000D01*
X142964017Y-103615000D01*
X142620365Y-103757345D01*
X142357345Y-104020365D01*
X142316328Y-104119388D01*
X142295435Y-104088119D01*
X142060582Y-103931195D01*
X141989308Y-103917018D01*
X141829635Y-103757345D01*
X141485983Y-103615000D01*
X141114017Y-103615000D01*
X140770365Y-103757345D01*
X140507345Y-104020365D01*
X140365000Y-104364017D01*
X140365000Y-104735983D01*
X140503734Y-105070918D01*
X140368552Y-105397278D01*
X140368552Y-105769244D01*
X140510897Y-106112896D01*
X140773917Y-106375916D01*
X141117569Y-106518261D01*
X141489535Y-106518261D01*
X141833187Y-106375916D01*
X141840729Y-106368374D01*
X141884051Y-106411696D01*
X141861394Y-106445605D01*
X141768139Y-106507916D01*
X141570149Y-106705906D01*
X141507838Y-106799161D01*
X141414586Y-106861470D01*
X141216596Y-107059460D01*
X141154286Y-107152713D01*
X141061033Y-107215023D01*
X140863043Y-107413013D01*
X140722695Y-107623057D01*
X140673412Y-107870822D01*
X140722695Y-108118587D01*
X140863043Y-108328631D01*
X141119412Y-108585000D01*
X140863043Y-108841369D01*
X140722695Y-109051413D01*
X140717282Y-109078627D01*
X140505909Y-109290000D01*
X140094091Y-109290000D01*
X139960000Y-109155910D01*
X139960000Y-99344090D01*
X143979091Y-95325000D01*
X151723413Y-95325000D01*
X151964375Y-95685625D01*
X152455582Y-96013839D01*
X152888744Y-96100000D01*
X153181256Y-96100000D01*
X153614418Y-96013839D01*
X154105625Y-95685625D01*
X154433839Y-95194418D01*
X154549092Y-94615000D01*
X154433839Y-94035582D01*
X154105625Y-93544375D01*
X153807239Y-93345000D01*
X154105625Y-93145625D01*
X154433839Y-92654418D01*
X154549092Y-92075000D01*
X154433839Y-91495582D01*
X154105625Y-91004375D01*
X153807239Y-90805000D01*
X154105625Y-90605625D01*
X154433839Y-90114418D01*
X154549092Y-89535000D01*
X154433839Y-88955582D01*
X154105625Y-88464375D01*
X153807239Y-88265000D01*
X154105625Y-88065625D01*
X154433839Y-87574418D01*
X154549092Y-86995000D01*
X154476489Y-86629996D01*
X173425000Y-86629996D01*
X173425000Y-87360004D01*
X173704362Y-88034444D01*
X174220556Y-88550638D01*
X174894996Y-88830000D01*
X175625004Y-88830000D01*
X176299444Y-88550638D01*
X176470082Y-88380000D01*
X186761264Y-88380000D01*
X189165000Y-90783737D01*
X189165000Y-91336406D01*
X189245359Y-91740399D01*
X189551471Y-92198528D01*
X190009600Y-92504641D01*
X190550000Y-92612133D01*
X191090399Y-92504641D01*
X191548528Y-92198529D01*
X191854641Y-91740400D01*
X191935000Y-91336407D01*
X191935000Y-90346458D01*
X191962133Y-90210051D01*
X191854641Y-89669651D01*
X191764670Y-89535000D01*
X191548529Y-89211522D01*
X191432888Y-89134253D01*
X188410748Y-86112114D01*
X188333478Y-85996471D01*
X187875349Y-85690359D01*
X187471356Y-85610000D01*
X187334949Y-85582867D01*
X187198542Y-85610000D01*
X176470082Y-85610000D01*
X176299444Y-85439362D01*
X175625004Y-85160000D01*
X174894996Y-85160000D01*
X174220556Y-85439362D01*
X173704362Y-85955556D01*
X173425000Y-86629996D01*
X154476489Y-86629996D01*
X154455848Y-86526229D01*
X154671882Y-86381880D01*
X154711495Y-86322595D01*
X159631698Y-81402393D01*
X159734561Y-81445000D01*
X160305439Y-81445000D01*
X160832862Y-81226534D01*
X161236534Y-80822862D01*
X161455000Y-80295439D01*
X161455000Y-79724561D01*
X161288668Y-79323000D01*
X162773910Y-79323000D01*
X163072607Y-79621698D01*
X163030000Y-79724561D01*
X163030000Y-80295439D01*
X163248466Y-80822862D01*
X163652138Y-81226534D01*
X164179561Y-81445000D01*
X164750439Y-81445000D01*
X165277862Y-81226534D01*
X165681534Y-80822862D01*
X165900000Y-80295439D01*
X165900000Y-79724561D01*
X165681534Y-79197138D01*
X165277862Y-78793466D01*
X164750439Y-78575000D01*
X164179561Y-78575000D01*
X164076698Y-78617607D01*
X163619494Y-78160404D01*
X163579881Y-78101119D01*
X163345028Y-77944195D01*
X163137926Y-77903000D01*
X163137924Y-77903000D01*
X163068000Y-77889091D01*
X162998076Y-77903000D01*
X159895924Y-77903000D01*
X159825998Y-77889091D01*
X159548969Y-77944195D01*
X159373397Y-78061509D01*
X159314117Y-78101119D01*
X159274508Y-78160398D01*
X155104907Y-82330001D01*
X154466543Y-82330001D01*
X154549092Y-81915000D01*
X154433839Y-81335582D01*
X154105625Y-80844375D01*
X153807239Y-80645000D01*
X154105625Y-80445625D01*
X154433839Y-79954418D01*
X154549092Y-79375000D01*
X154433839Y-78795582D01*
X154105625Y-78304375D01*
X153807239Y-78105000D01*
X154105625Y-77905625D01*
X154433839Y-77414418D01*
X154549092Y-76835000D01*
X154433839Y-76255582D01*
X154105625Y-75764375D01*
X153807239Y-75565000D01*
X154105625Y-75365625D01*
X154433839Y-74874418D01*
X154549092Y-74295000D01*
X154433839Y-73715582D01*
X154105625Y-73224375D01*
X153807239Y-73025000D01*
X154105625Y-72825625D01*
X154433839Y-72334418D01*
X154549092Y-71755000D01*
X154433839Y-71175582D01*
X154105625Y-70684375D01*
X153807239Y-70485000D01*
X154105625Y-70285625D01*
X154433839Y-69794418D01*
X154540980Y-69255781D01*
X158159671Y-72874473D01*
X158202071Y-72937929D01*
X158453463Y-73105904D01*
X158675148Y-73150000D01*
X158675152Y-73150000D01*
X158750000Y-73164888D01*
X158804642Y-73154019D01*
X158985423Y-73424577D01*
X159460091Y-73741740D01*
X159878667Y-73825000D01*
X160161333Y-73825000D01*
X160579909Y-73741740D01*
X161054577Y-73424577D01*
X161238043Y-73150000D01*
X163246957Y-73150000D01*
X163430423Y-73424577D01*
X163905091Y-73741740D01*
X164323667Y-73825000D01*
X164606333Y-73825000D01*
X165024909Y-73741740D01*
X165499577Y-73424577D01*
X165816740Y-72949909D01*
X165928113Y-72390000D01*
X165816740Y-71830091D01*
X165499577Y-71355423D01*
X165024909Y-71038260D01*
X164606333Y-70955000D01*
X164323667Y-70955000D01*
X163905091Y-71038260D01*
X163430423Y-71355423D01*
X163246957Y-71630000D01*
X161238043Y-71630000D01*
X161054577Y-71355423D01*
X160579909Y-71038260D01*
X160161333Y-70955000D01*
X159878667Y-70955000D01*
X159460091Y-71038260D01*
X158985423Y-71355423D01*
X158907238Y-71472436D01*
X154869801Y-67435000D01*
X157278153Y-67435000D01*
X157353000Y-67449888D01*
X157427847Y-67435000D01*
X157427852Y-67435000D01*
X157649537Y-67390904D01*
X157900929Y-67222929D01*
X157943331Y-67159470D01*
X158091470Y-67011331D01*
X158154929Y-66968929D01*
X158322904Y-66717537D01*
X158367000Y-66495852D01*
X158367000Y-66495848D01*
X158381888Y-66421001D01*
X158367000Y-66346154D01*
X158367000Y-63046290D01*
X158399655Y-63013635D01*
X158542000Y-62669983D01*
X158542000Y-62480000D01*
X171845422Y-62480000D01*
X176749577Y-67384156D01*
X176798951Y-67458049D01*
X176872844Y-67507423D01*
X176872845Y-67507424D01*
X176944781Y-67555490D01*
X177091690Y-67653652D01*
X177349835Y-67705000D01*
X177349839Y-67705000D01*
X177437000Y-67722337D01*
X177524161Y-67705000D01*
X186284268Y-67705000D01*
X186600991Y-68179009D01*
X187224510Y-68595631D01*
X187774345Y-68705000D01*
X188145655Y-68705000D01*
X188695490Y-68595631D01*
X189319009Y-68179009D01*
X189735631Y-67555490D01*
X189881929Y-66820000D01*
X189777673Y-66295866D01*
X192625000Y-66295866D01*
X192625000Y-67344134D01*
X193026155Y-68312608D01*
X193767392Y-69053845D01*
X194735866Y-69455000D01*
X195784134Y-69455000D01*
X196752608Y-69053845D01*
X197493845Y-68312608D01*
X197895000Y-67344134D01*
X197895000Y-66295866D01*
X197493845Y-65327392D01*
X196752608Y-64586155D01*
X195784134Y-64185000D01*
X194735866Y-64185000D01*
X193767392Y-64586155D01*
X193026155Y-65327392D01*
X192625000Y-66295866D01*
X189777673Y-66295866D01*
X189735631Y-66084510D01*
X189319009Y-65460991D01*
X188695490Y-65044369D01*
X188145655Y-64935000D01*
X187774345Y-64935000D01*
X187224510Y-65044369D01*
X186600991Y-65460991D01*
X186284268Y-65935000D01*
X177803579Y-65935000D01*
X175821899Y-63953320D01*
X186806285Y-63953320D01*
X186935533Y-64246123D01*
X187635806Y-64514388D01*
X188385435Y-64494250D01*
X188984467Y-64246123D01*
X189113715Y-63953320D01*
X187960000Y-62799605D01*
X186806285Y-63953320D01*
X175821899Y-63953320D01*
X174164385Y-62295806D01*
X186065612Y-62295806D01*
X186085750Y-63045435D01*
X186333877Y-63644467D01*
X186626680Y-63773715D01*
X187780395Y-62620000D01*
X188139605Y-62620000D01*
X189293320Y-63773715D01*
X189586123Y-63644467D01*
X189854388Y-62944194D01*
X189834250Y-62194565D01*
X189586123Y-61595533D01*
X189293320Y-61466285D01*
X188139605Y-62620000D01*
X187780395Y-62620000D01*
X186626680Y-61466285D01*
X186333877Y-61595533D01*
X186065612Y-62295806D01*
X174164385Y-62295806D01*
X173155259Y-61286680D01*
X186806285Y-61286680D01*
X187960000Y-62440395D01*
X189113715Y-61286680D01*
X188984467Y-60993877D01*
X188284194Y-60725612D01*
X187534565Y-60745750D01*
X186935533Y-60993877D01*
X186806285Y-61286680D01*
X173155259Y-61286680D01*
X172899425Y-61030847D01*
X172850049Y-60956951D01*
X172557310Y-60761348D01*
X172299165Y-60710000D01*
X172299161Y-60710000D01*
X172212000Y-60692663D01*
X172124839Y-60710000D01*
X154229656Y-60710000D01*
X154105625Y-60524375D01*
X153920000Y-60400344D01*
X153920000Y-52378801D01*
X156847000Y-55305802D01*
X156847001Y-58492709D01*
X156814345Y-58525365D01*
X156672000Y-58869017D01*
X156672000Y-59240983D01*
X156814345Y-59584635D01*
X157077365Y-59847655D01*
X157421017Y-59990000D01*
X157792983Y-59990000D01*
X158136635Y-59847655D01*
X158399655Y-59584635D01*
X158542000Y-59240983D01*
X158542000Y-58869017D01*
X158399655Y-58525365D01*
X158367000Y-58492710D01*
X158367000Y-56926807D01*
X173471797Y-56926807D01*
X173765508Y-57579776D01*
X174286742Y-58070642D01*
X174848195Y-58303195D01*
X175133000Y-58186432D01*
X175133000Y-56642000D01*
X175387000Y-56642000D01*
X175387000Y-58186432D01*
X175671805Y-58303195D01*
X176233258Y-58070642D01*
X176754492Y-57579776D01*
X176938812Y-57170000D01*
X186062560Y-57170000D01*
X186062560Y-59670000D01*
X186111843Y-59917765D01*
X186252191Y-60127809D01*
X186462235Y-60268157D01*
X186710000Y-60317440D01*
X189210000Y-60317440D01*
X189457765Y-60268157D01*
X189667809Y-60127809D01*
X189808157Y-59917765D01*
X189857440Y-59670000D01*
X189857440Y-57895866D01*
X192625000Y-57895866D01*
X192625000Y-58944134D01*
X193026155Y-59912608D01*
X193767392Y-60653845D01*
X194735866Y-61055000D01*
X195784134Y-61055000D01*
X196752608Y-60653845D01*
X197493845Y-59912608D01*
X197895000Y-58944134D01*
X197895000Y-57895866D01*
X197493845Y-56927392D01*
X196752608Y-56186155D01*
X195784134Y-55785000D01*
X194735866Y-55785000D01*
X193767392Y-56186155D01*
X193026155Y-56927392D01*
X192625000Y-57895866D01*
X189857440Y-57895866D01*
X189857440Y-57170000D01*
X189808157Y-56922235D01*
X189667809Y-56712191D01*
X189457765Y-56571843D01*
X189210000Y-56522560D01*
X186710000Y-56522560D01*
X186462235Y-56571843D01*
X186252191Y-56712191D01*
X186111843Y-56922235D01*
X186062560Y-57170000D01*
X176938812Y-57170000D01*
X177048203Y-56926807D01*
X176931858Y-56642000D01*
X175387000Y-56642000D01*
X175133000Y-56642000D01*
X173588142Y-56642000D01*
X173471797Y-56926807D01*
X158367000Y-56926807D01*
X158367000Y-56103193D01*
X173471797Y-56103193D01*
X173588142Y-56388000D01*
X175133000Y-56388000D01*
X175133000Y-54843568D01*
X175387000Y-54843568D01*
X175387000Y-56388000D01*
X176931858Y-56388000D01*
X177048203Y-56103193D01*
X176754492Y-55450224D01*
X176233258Y-54959358D01*
X175671805Y-54726805D01*
X175387000Y-54843568D01*
X175133000Y-54843568D01*
X174848195Y-54726805D01*
X174286742Y-54959358D01*
X173765508Y-55450224D01*
X173471797Y-56103193D01*
X158367000Y-56103193D01*
X158367000Y-55065846D01*
X158381888Y-54990999D01*
X158367000Y-54916152D01*
X158367000Y-54916148D01*
X158322904Y-54694463D01*
X158154929Y-54443071D01*
X158091473Y-54400671D01*
X154769003Y-51078202D01*
X171576223Y-51180998D01*
X171576450Y-51180999D01*
X200787000Y-51307452D01*
X200787000Y-134366000D01*
X87631547Y-134366000D01*
X88231102Y-84827653D01*
X105327258Y-84827653D01*
X106045000Y-85545395D01*
X106762742Y-84827653D01*
X106707345Y-84597295D01*
X106225373Y-84429668D01*
X105715941Y-84459244D01*
X105382655Y-84597295D01*
X105327258Y-84827653D01*
X88231102Y-84827653D01*
X88455390Y-66295866D01*
X90395000Y-66295866D01*
X90395000Y-67344134D01*
X90796155Y-68312608D01*
X91537392Y-69053845D01*
X92505866Y-69455000D01*
X93554134Y-69455000D01*
X94522608Y-69053845D01*
X95263845Y-68312608D01*
X95665000Y-67344134D01*
X95665000Y-66295866D01*
X95263845Y-65327392D01*
X94522608Y-64586155D01*
X93554134Y-64185000D01*
X92505866Y-64185000D01*
X91537392Y-64586155D01*
X90796155Y-65327392D01*
X90395000Y-66295866D01*
X88455390Y-66295866D01*
X88557054Y-57895866D01*
X90395000Y-57895866D01*
X90395000Y-58944134D01*
X90796155Y-59912608D01*
X91537392Y-60653845D01*
X92505866Y-61055000D01*
X93554134Y-61055000D01*
X94522608Y-60653845D01*
X95263845Y-59912608D01*
X95665000Y-58944134D01*
X95665000Y-57895866D01*
X95263845Y-56927392D01*
X94522608Y-56186155D01*
X93554134Y-55785000D01*
X92505866Y-55785000D01*
X91537392Y-56186155D01*
X90796155Y-56927392D01*
X90395000Y-57895866D01*
X88557054Y-57895866D01*
X88644463Y-50673770D01*
X97962791Y-50730763D01*
G36*
X129129090Y-125868537D02*
X129170095Y-125929905D01*
X129413217Y-126092354D01*
X129627612Y-126135000D01*
X129627615Y-126135000D01*
X129699999Y-126149398D01*
X129772383Y-126135000D01*
X139184017Y-126135000D01*
X138874735Y-126444282D01*
X138612500Y-127077373D01*
X138612500Y-127762627D01*
X138874735Y-128395718D01*
X139359282Y-128880265D01*
X139992373Y-129142500D01*
X140677627Y-129142500D01*
X141310718Y-128880265D01*
X141555155Y-128635828D01*
X143498777Y-128635828D01*
X143608153Y-128911762D01*
X144249577Y-129152897D01*
X144934455Y-129130216D01*
X145461847Y-128911762D01*
X145571223Y-128635828D01*
X144535000Y-127599605D01*
X143498777Y-128635828D01*
X141555155Y-128635828D01*
X141795265Y-128395718D01*
X142057500Y-127762627D01*
X142057500Y-127134577D01*
X142802103Y-127134577D01*
X142824784Y-127819455D01*
X143043238Y-128346847D01*
X143319172Y-128456223D01*
X144355395Y-127420000D01*
X144714605Y-127420000D01*
X145750828Y-128456223D01*
X146026762Y-128346847D01*
X146267897Y-127705423D01*
X146245216Y-127020545D01*
X146026762Y-126493153D01*
X145750828Y-126383777D01*
X144714605Y-127420000D01*
X144355395Y-127420000D01*
X143319172Y-126383777D01*
X143043238Y-126493153D01*
X142802103Y-127134577D01*
X142057500Y-127134577D01*
X142057500Y-127077373D01*
X141795265Y-126444282D01*
X141485983Y-126135000D01*
X143526196Y-126135000D01*
X143498777Y-126204172D01*
X144535000Y-127240395D01*
X145571223Y-126204172D01*
X145543804Y-126135000D01*
X147584017Y-126135000D01*
X147274735Y-126444282D01*
X147012500Y-127077373D01*
X147012500Y-127762627D01*
X147112209Y-128003345D01*
X145950554Y-129165000D01*
X130254447Y-129165000D01*
X127985000Y-126895554D01*
X127985000Y-124724446D01*
X129129090Y-125868537D01*
X129129090Y-125868537D01*
G37*
X129129090Y-125868537D02*
X129170095Y-125929905D01*
X129413217Y-126092354D01*
X129627612Y-126135000D01*
X129627615Y-126135000D01*
X129699999Y-126149398D01*
X129772383Y-126135000D01*
X139184017Y-126135000D01*
X138874735Y-126444282D01*
X138612500Y-127077373D01*
X138612500Y-127762627D01*
X138874735Y-128395718D01*
X139359282Y-128880265D01*
X139992373Y-129142500D01*
X140677627Y-129142500D01*
X141310718Y-128880265D01*
X141555155Y-128635828D01*
X143498777Y-128635828D01*
X143608153Y-128911762D01*
X144249577Y-129152897D01*
X144934455Y-129130216D01*
X145461847Y-128911762D01*
X145571223Y-128635828D01*
X144535000Y-127599605D01*
X143498777Y-128635828D01*
X141555155Y-128635828D01*
X141795265Y-128395718D01*
X142057500Y-127762627D01*
X142057500Y-127134577D01*
X142802103Y-127134577D01*
X142824784Y-127819455D01*
X143043238Y-128346847D01*
X143319172Y-128456223D01*
X144355395Y-127420000D01*
X144714605Y-127420000D01*
X145750828Y-128456223D01*
X146026762Y-128346847D01*
X146267897Y-127705423D01*
X146245216Y-127020545D01*
X146026762Y-126493153D01*
X145750828Y-126383777D01*
X144714605Y-127420000D01*
X144355395Y-127420000D01*
X143319172Y-126383777D01*
X143043238Y-126493153D01*
X142802103Y-127134577D01*
X142057500Y-127134577D01*
X142057500Y-127077373D01*
X141795265Y-126444282D01*
X141485983Y-126135000D01*
X143526196Y-126135000D01*
X143498777Y-126204172D01*
X144535000Y-127240395D01*
X145571223Y-126204172D01*
X145543804Y-126135000D01*
X147584017Y-126135000D01*
X147274735Y-126444282D01*
X147012500Y-127077373D01*
X147012500Y-127762627D01*
X147112209Y-128003345D01*
X145950554Y-129165000D01*
X130254447Y-129165000D01*
X127985000Y-126895554D01*
X127985000Y-124724446D01*
X129129090Y-125868537D01*
G36*
X156113720Y-99277431D02*
X156494126Y-99435000D01*
X156578837Y-99435000D01*
X156672569Y-99661290D01*
X156963720Y-99952441D01*
X157344126Y-100110010D01*
X157437424Y-100110010D01*
X157496121Y-100251719D01*
X157487715Y-100260125D01*
X157330146Y-100640531D01*
X157330146Y-101052279D01*
X157487715Y-101432685D01*
X157778866Y-101723836D01*
X158159272Y-101881405D01*
X158571020Y-101881405D01*
X158951426Y-101723836D01*
X159118857Y-101556405D01*
X163002314Y-101556405D01*
X163390001Y-101944092D01*
X163390000Y-115280076D01*
X163376091Y-115350000D01*
X163390000Y-115419924D01*
X163390000Y-115419925D01*
X163431195Y-115627027D01*
X163588119Y-115861880D01*
X163647402Y-115901492D01*
X165673510Y-117927602D01*
X165713119Y-117986881D01*
X165772398Y-118026490D01*
X165772399Y-118026491D01*
X165947971Y-118143805D01*
X166225000Y-118198909D01*
X166294926Y-118185000D01*
X174247560Y-118185000D01*
X174247560Y-118427500D01*
X174296843Y-118675265D01*
X174437191Y-118885309D01*
X174614088Y-119003509D01*
X174352109Y-119395589D01*
X174228900Y-120015000D01*
X174352109Y-120634411D01*
X174702977Y-121159523D01*
X174718657Y-121170000D01*
X173328685Y-121170000D01*
X173195800Y-121037115D01*
X173118529Y-120921471D01*
X172660400Y-120615359D01*
X172256407Y-120535000D01*
X172120000Y-120507867D01*
X171983593Y-120535000D01*
X153985983Y-120535000D01*
X153910718Y-120459735D01*
X153277627Y-120197500D01*
X152592373Y-120197500D01*
X151959282Y-120459735D01*
X151474735Y-120944282D01*
X151212500Y-121577373D01*
X151212500Y-122262627D01*
X151312209Y-122503345D01*
X149950554Y-123865000D01*
X130887375Y-123865000D01*
X131245625Y-123625625D01*
X131486587Y-123265000D01*
X134585076Y-123265000D01*
X134655000Y-123278909D01*
X134724924Y-123265000D01*
X134724926Y-123265000D01*
X134932028Y-123223805D01*
X135166881Y-123066881D01*
X135206494Y-123007596D01*
X136902601Y-121311490D01*
X136961880Y-121271881D01*
X137118805Y-121037028D01*
X137159488Y-120832500D01*
X138600060Y-120832500D01*
X138600060Y-123007500D01*
X138649343Y-123255265D01*
X138789691Y-123465309D01*
X138999735Y-123605657D01*
X139247500Y-123654940D01*
X141422500Y-123654940D01*
X141670265Y-123605657D01*
X141880309Y-123465309D01*
X142020657Y-123255265D01*
X142069940Y-123007500D01*
X142069940Y-121577373D01*
X142812500Y-121577373D01*
X142812500Y-122262627D01*
X143074735Y-122895718D01*
X143559282Y-123380265D01*
X144192373Y-123642500D01*
X144877627Y-123642500D01*
X145510718Y-123380265D01*
X145995265Y-122895718D01*
X146257500Y-122262627D01*
X146257500Y-121577373D01*
X145995265Y-120944282D01*
X145510718Y-120459735D01*
X144877627Y-120197500D01*
X144192373Y-120197500D01*
X143559282Y-120459735D01*
X143074735Y-120944282D01*
X142812500Y-121577373D01*
X142069940Y-121577373D01*
X142069940Y-120832500D01*
X142020657Y-120584735D01*
X141880309Y-120374691D01*
X141670265Y-120234343D01*
X141422500Y-120185060D01*
X139247500Y-120185060D01*
X138999735Y-120234343D01*
X138789691Y-120374691D01*
X138649343Y-120584735D01*
X138600060Y-120832500D01*
X137159488Y-120832500D01*
X137160000Y-120829926D01*
X137160000Y-120829922D01*
X137173908Y-120760001D01*
X137160000Y-120690080D01*
X137160000Y-119912290D01*
X137242655Y-119829635D01*
X137385000Y-119485983D01*
X137385000Y-119114017D01*
X137242655Y-118770365D01*
X136979635Y-118507345D01*
X136635983Y-118365000D01*
X136264017Y-118365000D01*
X135920365Y-118507345D01*
X135657345Y-118770365D01*
X135515000Y-119114017D01*
X135515000Y-119485983D01*
X135657345Y-119829635D01*
X135740001Y-119912291D01*
X135740000Y-120465909D01*
X134360910Y-121845000D01*
X131486587Y-121845000D01*
X131245625Y-121484375D01*
X130947239Y-121285000D01*
X131245625Y-121085625D01*
X131573839Y-120594418D01*
X131689092Y-120015000D01*
X131604478Y-119589613D01*
X133402602Y-117791490D01*
X133461881Y-117751881D01*
X133511897Y-117677028D01*
X133618805Y-117517028D01*
X133644072Y-117390000D01*
X133660000Y-117309926D01*
X133673909Y-117240000D01*
X133660000Y-117170074D01*
X133660000Y-116062290D01*
X133742655Y-115979635D01*
X133885000Y-115635983D01*
X133885000Y-115389091D01*
X137048510Y-118552602D01*
X137088119Y-118611881D01*
X137147398Y-118651490D01*
X137147399Y-118651491D01*
X137322971Y-118768805D01*
X137600000Y-118823909D01*
X137669926Y-118810000D01*
X147530076Y-118810000D01*
X147600000Y-118823909D01*
X147669924Y-118810000D01*
X147669926Y-118810000D01*
X147877028Y-118768805D01*
X148000000Y-118686637D01*
X148000000Y-120360026D01*
X147759282Y-120459735D01*
X147274735Y-120944282D01*
X147012500Y-121577373D01*
X147012500Y-122262627D01*
X147274735Y-122895718D01*
X147759282Y-123380265D01*
X148392373Y-123642500D01*
X149077627Y-123642500D01*
X149710718Y-123380265D01*
X150195265Y-122895718D01*
X150457500Y-122262627D01*
X150457500Y-121577373D01*
X150195265Y-120944282D01*
X149710718Y-120459735D01*
X149470000Y-120360026D01*
X149470000Y-115307745D01*
X156016861Y-115307745D01*
X156090995Y-115553864D01*
X156628223Y-115746965D01*
X157198454Y-115719778D01*
X157599005Y-115553864D01*
X157673139Y-115307745D01*
X156845000Y-114479605D01*
X156016861Y-115307745D01*
X149470000Y-115307745D01*
X149470000Y-113007383D01*
X149484398Y-112934999D01*
X149472662Y-112876000D01*
X154886554Y-112876000D01*
X155179090Y-113168537D01*
X155220095Y-113229905D01*
X155463217Y-113392354D01*
X155677612Y-113435000D01*
X155677615Y-113435000D01*
X155749999Y-113449398D01*
X155804041Y-113438649D01*
X155837253Y-113471861D01*
X155591136Y-113545995D01*
X155398035Y-114083223D01*
X155425222Y-114653454D01*
X155591136Y-115054005D01*
X155837255Y-115128139D01*
X156665395Y-114300000D01*
X156651252Y-114285858D01*
X156830858Y-114106252D01*
X156845000Y-114120395D01*
X156859142Y-114106252D01*
X157038748Y-114285858D01*
X157024605Y-114300000D01*
X157852745Y-115128139D01*
X158098864Y-115054005D01*
X158291965Y-114516777D01*
X158264778Y-113946546D01*
X158098864Y-113545995D01*
X157852747Y-113471861D01*
X157889608Y-113435000D01*
X159940554Y-113435000D01*
X160442252Y-113936698D01*
X160410000Y-114014561D01*
X160410000Y-114585439D01*
X160628466Y-115112862D01*
X161032138Y-115516534D01*
X161559561Y-115735000D01*
X162130439Y-115735000D01*
X162657862Y-115516534D01*
X163061534Y-115112862D01*
X163280000Y-114585439D01*
X163280000Y-114014561D01*
X163061534Y-113487138D01*
X162657862Y-113083466D01*
X162130439Y-112865000D01*
X161559561Y-112865000D01*
X161481698Y-112897252D01*
X160815911Y-112231465D01*
X160774905Y-112170095D01*
X160531783Y-112007646D01*
X160317388Y-111965000D01*
X160317384Y-111965000D01*
X160245000Y-111950602D01*
X160193181Y-111960909D01*
X160573091Y-111581000D01*
X160585859Y-111581000D01*
X160628466Y-111683862D01*
X161032138Y-112087534D01*
X161559561Y-112306000D01*
X162130439Y-112306000D01*
X162657862Y-112087534D01*
X163061534Y-111683862D01*
X163280000Y-111156439D01*
X163280000Y-110585561D01*
X163061534Y-110058138D01*
X162657862Y-109654466D01*
X162130439Y-109436000D01*
X161559561Y-109436000D01*
X161032138Y-109654466D01*
X160628466Y-110058138D01*
X160585859Y-110161000D01*
X160348920Y-110161000D01*
X160278999Y-110147092D01*
X160209078Y-110161000D01*
X160209074Y-110161000D01*
X160001972Y-110202195D01*
X159767119Y-110359119D01*
X159727508Y-110418401D01*
X158555910Y-111590000D01*
X158111446Y-111590000D01*
X158291965Y-111087777D01*
X158264778Y-110517546D01*
X158098864Y-110116995D01*
X157852747Y-110042861D01*
X157960608Y-109935000D01*
X159887616Y-109935000D01*
X159960000Y-109949398D01*
X160032384Y-109935000D01*
X160032388Y-109935000D01*
X160246783Y-109892354D01*
X160489905Y-109729905D01*
X160530911Y-109668535D01*
X161481698Y-108717748D01*
X161559561Y-108750000D01*
X162130439Y-108750000D01*
X162657862Y-108531534D01*
X163061534Y-108127862D01*
X163280000Y-107600439D01*
X163280000Y-107029561D01*
X163061534Y-106502138D01*
X162657862Y-106098466D01*
X162130439Y-105880000D01*
X161559561Y-105880000D01*
X161032138Y-106098466D01*
X160628466Y-106502138D01*
X160410000Y-107029561D01*
X160410000Y-107600439D01*
X160442252Y-107678302D01*
X159655554Y-108465000D01*
X157724396Y-108465000D01*
X158061534Y-108127862D01*
X158280000Y-107600439D01*
X158280000Y-107029561D01*
X158061534Y-106502138D01*
X157719396Y-106160000D01*
X159830076Y-106160000D01*
X159900000Y-106173909D01*
X159969924Y-106160000D01*
X159969926Y-106160000D01*
X160177028Y-106118805D01*
X160411881Y-105961881D01*
X160451494Y-105902596D01*
X161456698Y-104897393D01*
X161559561Y-104940000D01*
X162130439Y-104940000D01*
X162657862Y-104721534D01*
X163061534Y-104317862D01*
X163280000Y-103790439D01*
X163280000Y-103219561D01*
X163061534Y-102692138D01*
X162657862Y-102288466D01*
X162130439Y-102070000D01*
X161559561Y-102070000D01*
X161032138Y-102288466D01*
X160628466Y-102692138D01*
X160410000Y-103219561D01*
X160410000Y-103790439D01*
X160452607Y-103893302D01*
X159605910Y-104740000D01*
X157613281Y-104740000D01*
X157657862Y-104721534D01*
X158061534Y-104317862D01*
X158280000Y-103790439D01*
X158280000Y-103219561D01*
X158061534Y-102692138D01*
X157657862Y-102288466D01*
X157130439Y-102070000D01*
X156559561Y-102070000D01*
X156032138Y-102288466D01*
X155628466Y-102692138D01*
X155410000Y-103219561D01*
X155410000Y-103790439D01*
X155628466Y-104317862D01*
X155928256Y-104617652D01*
X154647402Y-105898508D01*
X154588120Y-105938119D01*
X154480311Y-106099466D01*
X154431196Y-106172972D01*
X154376091Y-106450000D01*
X154390001Y-106519929D01*
X154390000Y-108255909D01*
X153605910Y-109040000D01*
X150099679Y-109040000D01*
X149966957Y-108841369D01*
X149710588Y-108585000D01*
X149966957Y-108328631D01*
X150096338Y-108135000D01*
X152571289Y-108135000D01*
X152713720Y-108277431D01*
X153094126Y-108435000D01*
X153505874Y-108435000D01*
X153886280Y-108277431D01*
X154177431Y-107986280D01*
X154335000Y-107605874D01*
X154335000Y-107194126D01*
X154177431Y-106813720D01*
X153886280Y-106522569D01*
X153505874Y-106365000D01*
X153094126Y-106365000D01*
X152713720Y-106522569D01*
X152571289Y-106665000D01*
X151439090Y-106665000D01*
X155802601Y-102301490D01*
X155861880Y-102261881D01*
X156018805Y-102027028D01*
X156060000Y-101819926D01*
X156060000Y-101819922D01*
X156073908Y-101750001D01*
X156060000Y-101680080D01*
X156060000Y-99223711D01*
X156113720Y-99277431D01*
X156113720Y-99277431D01*
G37*
X156113720Y-99277431D02*
X156494126Y-99435000D01*
X156578837Y-99435000D01*
X156672569Y-99661290D01*
X156963720Y-99952441D01*
X157344126Y-100110010D01*
X157437424Y-100110010D01*
X157496121Y-100251719D01*
X157487715Y-100260125D01*
X157330146Y-100640531D01*
X157330146Y-101052279D01*
X157487715Y-101432685D01*
X157778866Y-101723836D01*
X158159272Y-101881405D01*
X158571020Y-101881405D01*
X158951426Y-101723836D01*
X159118857Y-101556405D01*
X163002314Y-101556405D01*
X163390001Y-101944092D01*
X163390000Y-115280076D01*
X163376091Y-115350000D01*
X163390000Y-115419924D01*
X163390000Y-115419925D01*
X163431195Y-115627027D01*
X163588119Y-115861880D01*
X163647402Y-115901492D01*
X165673510Y-117927602D01*
X165713119Y-117986881D01*
X165772398Y-118026490D01*
X165772399Y-118026491D01*
X165947971Y-118143805D01*
X166225000Y-118198909D01*
X166294926Y-118185000D01*
X174247560Y-118185000D01*
X174247560Y-118427500D01*
X174296843Y-118675265D01*
X174437191Y-118885309D01*
X174614088Y-119003509D01*
X174352109Y-119395589D01*
X174228900Y-120015000D01*
X174352109Y-120634411D01*
X174702977Y-121159523D01*
X174718657Y-121170000D01*
X173328685Y-121170000D01*
X173195800Y-121037115D01*
X173118529Y-120921471D01*
X172660400Y-120615359D01*
X172256407Y-120535000D01*
X172120000Y-120507867D01*
X171983593Y-120535000D01*
X153985983Y-120535000D01*
X153910718Y-120459735D01*
X153277627Y-120197500D01*
X152592373Y-120197500D01*
X151959282Y-120459735D01*
X151474735Y-120944282D01*
X151212500Y-121577373D01*
X151212500Y-122262627D01*
X151312209Y-122503345D01*
X149950554Y-123865000D01*
X130887375Y-123865000D01*
X131245625Y-123625625D01*
X131486587Y-123265000D01*
X134585076Y-123265000D01*
X134655000Y-123278909D01*
X134724924Y-123265000D01*
X134724926Y-123265000D01*
X134932028Y-123223805D01*
X135166881Y-123066881D01*
X135206494Y-123007596D01*
X136902601Y-121311490D01*
X136961880Y-121271881D01*
X137118805Y-121037028D01*
X137159488Y-120832500D01*
X138600060Y-120832500D01*
X138600060Y-123007500D01*
X138649343Y-123255265D01*
X138789691Y-123465309D01*
X138999735Y-123605657D01*
X139247500Y-123654940D01*
X141422500Y-123654940D01*
X141670265Y-123605657D01*
X141880309Y-123465309D01*
X142020657Y-123255265D01*
X142069940Y-123007500D01*
X142069940Y-121577373D01*
X142812500Y-121577373D01*
X142812500Y-122262627D01*
X143074735Y-122895718D01*
X143559282Y-123380265D01*
X144192373Y-123642500D01*
X144877627Y-123642500D01*
X145510718Y-123380265D01*
X145995265Y-122895718D01*
X146257500Y-122262627D01*
X146257500Y-121577373D01*
X145995265Y-120944282D01*
X145510718Y-120459735D01*
X144877627Y-120197500D01*
X144192373Y-120197500D01*
X143559282Y-120459735D01*
X143074735Y-120944282D01*
X142812500Y-121577373D01*
X142069940Y-121577373D01*
X142069940Y-120832500D01*
X142020657Y-120584735D01*
X141880309Y-120374691D01*
X141670265Y-120234343D01*
X141422500Y-120185060D01*
X139247500Y-120185060D01*
X138999735Y-120234343D01*
X138789691Y-120374691D01*
X138649343Y-120584735D01*
X138600060Y-120832500D01*
X137159488Y-120832500D01*
X137160000Y-120829926D01*
X137160000Y-120829922D01*
X137173908Y-120760001D01*
X137160000Y-120690080D01*
X137160000Y-119912290D01*
X137242655Y-119829635D01*
X137385000Y-119485983D01*
X137385000Y-119114017D01*
X137242655Y-118770365D01*
X136979635Y-118507345D01*
X136635983Y-118365000D01*
X136264017Y-118365000D01*
X135920365Y-118507345D01*
X135657345Y-118770365D01*
X135515000Y-119114017D01*
X135515000Y-119485983D01*
X135657345Y-119829635D01*
X135740001Y-119912291D01*
X135740000Y-120465909D01*
X134360910Y-121845000D01*
X131486587Y-121845000D01*
X131245625Y-121484375D01*
X130947239Y-121285000D01*
X131245625Y-121085625D01*
X131573839Y-120594418D01*
X131689092Y-120015000D01*
X131604478Y-119589613D01*
X133402602Y-117791490D01*
X133461881Y-117751881D01*
X133511897Y-117677028D01*
X133618805Y-117517028D01*
X133644072Y-117390000D01*
X133660000Y-117309926D01*
X133673909Y-117240000D01*
X133660000Y-117170074D01*
X133660000Y-116062290D01*
X133742655Y-115979635D01*
X133885000Y-115635983D01*
X133885000Y-115389091D01*
X137048510Y-118552602D01*
X137088119Y-118611881D01*
X137147398Y-118651490D01*
X137147399Y-118651491D01*
X137322971Y-118768805D01*
X137600000Y-118823909D01*
X137669926Y-118810000D01*
X147530076Y-118810000D01*
X147600000Y-118823909D01*
X147669924Y-118810000D01*
X147669926Y-118810000D01*
X147877028Y-118768805D01*
X148000000Y-118686637D01*
X148000000Y-120360026D01*
X147759282Y-120459735D01*
X147274735Y-120944282D01*
X147012500Y-121577373D01*
X147012500Y-122262627D01*
X147274735Y-122895718D01*
X147759282Y-123380265D01*
X148392373Y-123642500D01*
X149077627Y-123642500D01*
X149710718Y-123380265D01*
X150195265Y-122895718D01*
X150457500Y-122262627D01*
X150457500Y-121577373D01*
X150195265Y-120944282D01*
X149710718Y-120459735D01*
X149470000Y-120360026D01*
X149470000Y-115307745D01*
X156016861Y-115307745D01*
X156090995Y-115553864D01*
X156628223Y-115746965D01*
X157198454Y-115719778D01*
X157599005Y-115553864D01*
X157673139Y-115307745D01*
X156845000Y-114479605D01*
X156016861Y-115307745D01*
X149470000Y-115307745D01*
X149470000Y-113007383D01*
X149484398Y-112934999D01*
X149472662Y-112876000D01*
X154886554Y-112876000D01*
X155179090Y-113168537D01*
X155220095Y-113229905D01*
X155463217Y-113392354D01*
X155677612Y-113435000D01*
X155677615Y-113435000D01*
X155749999Y-113449398D01*
X155804041Y-113438649D01*
X155837253Y-113471861D01*
X155591136Y-113545995D01*
X155398035Y-114083223D01*
X155425222Y-114653454D01*
X155591136Y-115054005D01*
X155837255Y-115128139D01*
X156665395Y-114300000D01*
X156651252Y-114285858D01*
X156830858Y-114106252D01*
X156845000Y-114120395D01*
X156859142Y-114106252D01*
X157038748Y-114285858D01*
X157024605Y-114300000D01*
X157852745Y-115128139D01*
X158098864Y-115054005D01*
X158291965Y-114516777D01*
X158264778Y-113946546D01*
X158098864Y-113545995D01*
X157852747Y-113471861D01*
X157889608Y-113435000D01*
X159940554Y-113435000D01*
X160442252Y-113936698D01*
X160410000Y-114014561D01*
X160410000Y-114585439D01*
X160628466Y-115112862D01*
X161032138Y-115516534D01*
X161559561Y-115735000D01*
X162130439Y-115735000D01*
X162657862Y-115516534D01*
X163061534Y-115112862D01*
X163280000Y-114585439D01*
X163280000Y-114014561D01*
X163061534Y-113487138D01*
X162657862Y-113083466D01*
X162130439Y-112865000D01*
X161559561Y-112865000D01*
X161481698Y-112897252D01*
X160815911Y-112231465D01*
X160774905Y-112170095D01*
X160531783Y-112007646D01*
X160317388Y-111965000D01*
X160317384Y-111965000D01*
X160245000Y-111950602D01*
X160193181Y-111960909D01*
X160573091Y-111581000D01*
X160585859Y-111581000D01*
X160628466Y-111683862D01*
X161032138Y-112087534D01*
X161559561Y-112306000D01*
X162130439Y-112306000D01*
X162657862Y-112087534D01*
X163061534Y-111683862D01*
X163280000Y-111156439D01*
X163280000Y-110585561D01*
X163061534Y-110058138D01*
X162657862Y-109654466D01*
X162130439Y-109436000D01*
X161559561Y-109436000D01*
X161032138Y-109654466D01*
X160628466Y-110058138D01*
X160585859Y-110161000D01*
X160348920Y-110161000D01*
X160278999Y-110147092D01*
X160209078Y-110161000D01*
X160209074Y-110161000D01*
X160001972Y-110202195D01*
X159767119Y-110359119D01*
X159727508Y-110418401D01*
X158555910Y-111590000D01*
X158111446Y-111590000D01*
X158291965Y-111087777D01*
X158264778Y-110517546D01*
X158098864Y-110116995D01*
X157852747Y-110042861D01*
X157960608Y-109935000D01*
X159887616Y-109935000D01*
X159960000Y-109949398D01*
X160032384Y-109935000D01*
X160032388Y-109935000D01*
X160246783Y-109892354D01*
X160489905Y-109729905D01*
X160530911Y-109668535D01*
X161481698Y-108717748D01*
X161559561Y-108750000D01*
X162130439Y-108750000D01*
X162657862Y-108531534D01*
X163061534Y-108127862D01*
X163280000Y-107600439D01*
X163280000Y-107029561D01*
X163061534Y-106502138D01*
X162657862Y-106098466D01*
X162130439Y-105880000D01*
X161559561Y-105880000D01*
X161032138Y-106098466D01*
X160628466Y-106502138D01*
X160410000Y-107029561D01*
X160410000Y-107600439D01*
X160442252Y-107678302D01*
X159655554Y-108465000D01*
X157724396Y-108465000D01*
X158061534Y-108127862D01*
X158280000Y-107600439D01*
X158280000Y-107029561D01*
X158061534Y-106502138D01*
X157719396Y-106160000D01*
X159830076Y-106160000D01*
X159900000Y-106173909D01*
X159969924Y-106160000D01*
X159969926Y-106160000D01*
X160177028Y-106118805D01*
X160411881Y-105961881D01*
X160451494Y-105902596D01*
X161456698Y-104897393D01*
X161559561Y-104940000D01*
X162130439Y-104940000D01*
X162657862Y-104721534D01*
X163061534Y-104317862D01*
X163280000Y-103790439D01*
X163280000Y-103219561D01*
X163061534Y-102692138D01*
X162657862Y-102288466D01*
X162130439Y-102070000D01*
X161559561Y-102070000D01*
X161032138Y-102288466D01*
X160628466Y-102692138D01*
X160410000Y-103219561D01*
X160410000Y-103790439D01*
X160452607Y-103893302D01*
X159605910Y-104740000D01*
X157613281Y-104740000D01*
X157657862Y-104721534D01*
X158061534Y-104317862D01*
X158280000Y-103790439D01*
X158280000Y-103219561D01*
X158061534Y-102692138D01*
X157657862Y-102288466D01*
X157130439Y-102070000D01*
X156559561Y-102070000D01*
X156032138Y-102288466D01*
X155628466Y-102692138D01*
X155410000Y-103219561D01*
X155410000Y-103790439D01*
X155628466Y-104317862D01*
X155928256Y-104617652D01*
X154647402Y-105898508D01*
X154588120Y-105938119D01*
X154480311Y-106099466D01*
X154431196Y-106172972D01*
X154376091Y-106450000D01*
X154390001Y-106519929D01*
X154390000Y-108255909D01*
X153605910Y-109040000D01*
X150099679Y-109040000D01*
X149966957Y-108841369D01*
X149710588Y-108585000D01*
X149966957Y-108328631D01*
X150096338Y-108135000D01*
X152571289Y-108135000D01*
X152713720Y-108277431D01*
X153094126Y-108435000D01*
X153505874Y-108435000D01*
X153886280Y-108277431D01*
X154177431Y-107986280D01*
X154335000Y-107605874D01*
X154335000Y-107194126D01*
X154177431Y-106813720D01*
X153886280Y-106522569D01*
X153505874Y-106365000D01*
X153094126Y-106365000D01*
X152713720Y-106522569D01*
X152571289Y-106665000D01*
X151439090Y-106665000D01*
X155802601Y-102301490D01*
X155861880Y-102261881D01*
X156018805Y-102027028D01*
X156060000Y-101819926D01*
X156060000Y-101819922D01*
X156073908Y-101750001D01*
X156060000Y-101680080D01*
X156060000Y-99223711D01*
X156113720Y-99277431D01*
G36*
X122737579Y-94071591D02*
X122940000Y-94274012D01*
X122940001Y-95162835D01*
X122922663Y-95250000D01*
X122991348Y-95595309D01*
X123137576Y-95814154D01*
X123137578Y-95814156D01*
X123186952Y-95888049D01*
X123260845Y-95937423D01*
X126799462Y-99476040D01*
X126755908Y-99695000D01*
X126871161Y-100274418D01*
X127199375Y-100765625D01*
X127385001Y-100889656D01*
X127385000Y-103773421D01*
X124008422Y-107150000D01*
X123539561Y-107150000D01*
X123012138Y-107368466D01*
X122680604Y-107700000D01*
X120524396Y-107700000D01*
X120192862Y-107368466D01*
X119665439Y-107150000D01*
X119094561Y-107150000D01*
X118567138Y-107368466D01*
X118235604Y-107700000D01*
X116079396Y-107700000D01*
X115747862Y-107368466D01*
X115220439Y-107150000D01*
X114649561Y-107150000D01*
X114122138Y-107368466D01*
X113790604Y-107700000D01*
X111634396Y-107700000D01*
X111302862Y-107368466D01*
X110775439Y-107150000D01*
X110204561Y-107150000D01*
X109677138Y-107368466D01*
X109273466Y-107772138D01*
X109055000Y-108299561D01*
X109055000Y-108768421D01*
X108035845Y-109787577D01*
X107961952Y-109836951D01*
X107912578Y-109910844D01*
X107912576Y-109910846D01*
X107766348Y-110129691D01*
X107697663Y-110475000D01*
X107715001Y-110562165D01*
X107715000Y-111783421D01*
X106053421Y-113445001D01*
X104367440Y-113445001D01*
X104367440Y-112180000D01*
X104318157Y-111932235D01*
X104177809Y-111722191D01*
X103967765Y-111581843D01*
X103864292Y-111561261D01*
X104141645Y-111256924D01*
X104311476Y-110846890D01*
X104190155Y-110617000D01*
X102997000Y-110617000D01*
X102997000Y-110637000D01*
X102743000Y-110637000D01*
X102743000Y-110617000D01*
X102723000Y-110617000D01*
X102723000Y-110363000D01*
X102743000Y-110363000D01*
X102743000Y-110343000D01*
X102997000Y-110343000D01*
X102997000Y-110363000D01*
X104190155Y-110363000D01*
X104311476Y-110133110D01*
X104141645Y-109723076D01*
X103751358Y-109294817D01*
X103621522Y-109233843D01*
X103940625Y-109020625D01*
X104268839Y-108529418D01*
X104384092Y-107950000D01*
X104268839Y-107370582D01*
X103940625Y-106879375D01*
X103642239Y-106680000D01*
X103940625Y-106480625D01*
X104164882Y-106145000D01*
X112957616Y-106145000D01*
X113030000Y-106159398D01*
X113102384Y-106145000D01*
X113102388Y-106145000D01*
X113316783Y-106102354D01*
X113559905Y-105939905D01*
X113600911Y-105878535D01*
X120286699Y-99192748D01*
X120364561Y-99225000D01*
X120935439Y-99225000D01*
X121462862Y-99006534D01*
X121866534Y-98602862D01*
X122085000Y-98075439D01*
X122085000Y-97504561D01*
X121866534Y-96977138D01*
X121462862Y-96573466D01*
X121410000Y-96551570D01*
X121410000Y-94627700D01*
X121540145Y-94627700D01*
X122011591Y-94432421D01*
X122372421Y-94071591D01*
X122555000Y-93630806D01*
X122737579Y-94071591D01*
X122737579Y-94071591D01*
G37*
X122737579Y-94071591D02*
X122940000Y-94274012D01*
X122940001Y-95162835D01*
X122922663Y-95250000D01*
X122991348Y-95595309D01*
X123137576Y-95814154D01*
X123137578Y-95814156D01*
X123186952Y-95888049D01*
X123260845Y-95937423D01*
X126799462Y-99476040D01*
X126755908Y-99695000D01*
X126871161Y-100274418D01*
X127199375Y-100765625D01*
X127385001Y-100889656D01*
X127385000Y-103773421D01*
X124008422Y-107150000D01*
X123539561Y-107150000D01*
X123012138Y-107368466D01*
X122680604Y-107700000D01*
X120524396Y-107700000D01*
X120192862Y-107368466D01*
X119665439Y-107150000D01*
X119094561Y-107150000D01*
X118567138Y-107368466D01*
X118235604Y-107700000D01*
X116079396Y-107700000D01*
X115747862Y-107368466D01*
X115220439Y-107150000D01*
X114649561Y-107150000D01*
X114122138Y-107368466D01*
X113790604Y-107700000D01*
X111634396Y-107700000D01*
X111302862Y-107368466D01*
X110775439Y-107150000D01*
X110204561Y-107150000D01*
X109677138Y-107368466D01*
X109273466Y-107772138D01*
X109055000Y-108299561D01*
X109055000Y-108768421D01*
X108035845Y-109787577D01*
X107961952Y-109836951D01*
X107912578Y-109910844D01*
X107912576Y-109910846D01*
X107766348Y-110129691D01*
X107697663Y-110475000D01*
X107715001Y-110562165D01*
X107715000Y-111783421D01*
X106053421Y-113445001D01*
X104367440Y-113445001D01*
X104367440Y-112180000D01*
X104318157Y-111932235D01*
X104177809Y-111722191D01*
X103967765Y-111581843D01*
X103864292Y-111561261D01*
X104141645Y-111256924D01*
X104311476Y-110846890D01*
X104190155Y-110617000D01*
X102997000Y-110617000D01*
X102997000Y-110637000D01*
X102743000Y-110637000D01*
X102743000Y-110617000D01*
X102723000Y-110617000D01*
X102723000Y-110363000D01*
X102743000Y-110363000D01*
X102743000Y-110343000D01*
X102997000Y-110343000D01*
X102997000Y-110363000D01*
X104190155Y-110363000D01*
X104311476Y-110133110D01*
X104141645Y-109723076D01*
X103751358Y-109294817D01*
X103621522Y-109233843D01*
X103940625Y-109020625D01*
X104268839Y-108529418D01*
X104384092Y-107950000D01*
X104268839Y-107370582D01*
X103940625Y-106879375D01*
X103642239Y-106680000D01*
X103940625Y-106480625D01*
X104164882Y-106145000D01*
X112957616Y-106145000D01*
X113030000Y-106159398D01*
X113102384Y-106145000D01*
X113102388Y-106145000D01*
X113316783Y-106102354D01*
X113559905Y-105939905D01*
X113600911Y-105878535D01*
X120286699Y-99192748D01*
X120364561Y-99225000D01*
X120935439Y-99225000D01*
X121462862Y-99006534D01*
X121866534Y-98602862D01*
X122085000Y-98075439D01*
X122085000Y-97504561D01*
X121866534Y-96977138D01*
X121462862Y-96573466D01*
X121410000Y-96551570D01*
X121410000Y-94627700D01*
X121540145Y-94627700D01*
X122011591Y-94432421D01*
X122372421Y-94071591D01*
X122555000Y-93630806D01*
X122737579Y-94071591D01*
G36*
X157038748Y-110856858D02*
X157024605Y-110871000D01*
X157038748Y-110885142D01*
X156859142Y-111064748D01*
X156845000Y-111050605D01*
X156830858Y-111064748D01*
X156651252Y-110885142D01*
X156665395Y-110871000D01*
X156651253Y-110856858D01*
X156830858Y-110677253D01*
X156845000Y-110691395D01*
X156859142Y-110677252D01*
X157038748Y-110856858D01*
X157038748Y-110856858D01*
G37*
X157038748Y-110856858D02*
X157024605Y-110871000D01*
X157038748Y-110885142D01*
X156859142Y-111064748D01*
X156845000Y-111050605D01*
X156830858Y-111064748D01*
X156651252Y-110885142D01*
X156665395Y-110871000D01*
X156651253Y-110856858D01*
X156830858Y-110677253D01*
X156845000Y-110691395D01*
X156859142Y-110677252D01*
X157038748Y-110856858D01*
G36*
X146701339Y-107163119D02*
X146797182Y-107202818D01*
X146836881Y-107298661D01*
X146949953Y-107411733D01*
X146767872Y-107411733D01*
X145594605Y-108585000D01*
X145608748Y-108599143D01*
X145429143Y-108778748D01*
X145415000Y-108764605D01*
X144241733Y-109937872D01*
X144241733Y-110119953D01*
X144128661Y-110006881D01*
X144032818Y-109967182D01*
X143993119Y-109871339D01*
X143880047Y-109758267D01*
X144062128Y-109758267D01*
X145235395Y-108585000D01*
X145221253Y-108570858D01*
X145400858Y-108391253D01*
X145415000Y-108405395D01*
X146588267Y-107232128D01*
X146588267Y-107050047D01*
X146701339Y-107163119D01*
X146701339Y-107163119D01*
G37*
X146701339Y-107163119D02*
X146797182Y-107202818D01*
X146836881Y-107298661D01*
X146949953Y-107411733D01*
X146767872Y-107411733D01*
X145594605Y-108585000D01*
X145608748Y-108599143D01*
X145429143Y-108778748D01*
X145415000Y-108764605D01*
X144241733Y-109937872D01*
X144241733Y-110119953D01*
X144128661Y-110006881D01*
X144032818Y-109967182D01*
X143993119Y-109871339D01*
X143880047Y-109758267D01*
X144062128Y-109758267D01*
X145235395Y-108585000D01*
X145221253Y-108570858D01*
X145400858Y-108391253D01*
X145415000Y-108405395D01*
X146588267Y-107232128D01*
X146588267Y-107050047D01*
X146701339Y-107163119D01*
G36*
X127199375Y-60125625D02*
X127497761Y-60325000D01*
X127199375Y-60524375D01*
X126871161Y-61015582D01*
X126755908Y-61595000D01*
X126828791Y-61961407D01*
X122748199Y-66042000D01*
X119977799Y-66042000D01*
X120957054Y-65062745D01*
X121726861Y-65062745D01*
X121800995Y-65308864D01*
X122338223Y-65501965D01*
X122908454Y-65474778D01*
X123309005Y-65308864D01*
X123383139Y-65062745D01*
X122555000Y-64234605D01*
X121726861Y-65062745D01*
X120957054Y-65062745D01*
X121274675Y-64745124D01*
X121301136Y-64809005D01*
X121547255Y-64883139D01*
X122375395Y-64055000D01*
X122734605Y-64055000D01*
X123562745Y-64883139D01*
X123808864Y-64809005D01*
X124001965Y-64271777D01*
X123974778Y-63701546D01*
X123808864Y-63300995D01*
X123562745Y-63226861D01*
X122734605Y-64055000D01*
X122375395Y-64055000D01*
X122361253Y-64040858D01*
X122540858Y-63861253D01*
X122555000Y-63875395D01*
X123383139Y-63047255D01*
X123309005Y-62801136D01*
X123242550Y-62777249D01*
X126204800Y-59815000D01*
X126991822Y-59815000D01*
X127199375Y-60125625D01*
X127199375Y-60125625D01*
G37*
X127199375Y-60125625D02*
X127497761Y-60325000D01*
X127199375Y-60524375D01*
X126871161Y-61015582D01*
X126755908Y-61595000D01*
X126828791Y-61961407D01*
X122748199Y-66042000D01*
X119977799Y-66042000D01*
X120957054Y-65062745D01*
X121726861Y-65062745D01*
X121800995Y-65308864D01*
X122338223Y-65501965D01*
X122908454Y-65474778D01*
X123309005Y-65308864D01*
X123383139Y-65062745D01*
X122555000Y-64234605D01*
X121726861Y-65062745D01*
X120957054Y-65062745D01*
X121274675Y-64745124D01*
X121301136Y-64809005D01*
X121547255Y-64883139D01*
X122375395Y-64055000D01*
X122734605Y-64055000D01*
X123562745Y-64883139D01*
X123808864Y-64809005D01*
X124001965Y-64271777D01*
X123974778Y-63701546D01*
X123808864Y-63300995D01*
X123562745Y-63226861D01*
X122734605Y-64055000D01*
X122375395Y-64055000D01*
X122361253Y-64040858D01*
X122540858Y-63861253D01*
X122555000Y-63875395D01*
X123383139Y-63047255D01*
X123309005Y-62801136D01*
X123242550Y-62777249D01*
X126204800Y-59815000D01*
X126991822Y-59815000D01*
X127199375Y-60125625D01*
G36*
X156672000Y-62669983D02*
X156814345Y-63013635D01*
X156847000Y-63046290D01*
X156847001Y-65915000D01*
X154313178Y-65915000D01*
X154105625Y-65604375D01*
X153786522Y-65391157D01*
X153916358Y-65330183D01*
X154306645Y-64901924D01*
X154476476Y-64491890D01*
X154355155Y-64262000D01*
X153162000Y-64262000D01*
X153162000Y-64282000D01*
X152908000Y-64282000D01*
X152908000Y-64262000D01*
X152888000Y-64262000D01*
X152888000Y-64008000D01*
X152908000Y-64008000D01*
X152908000Y-63988000D01*
X153162000Y-63988000D01*
X153162000Y-64008000D01*
X154355155Y-64008000D01*
X154476476Y-63778110D01*
X154306645Y-63368076D01*
X153916358Y-62939817D01*
X153786522Y-62878843D01*
X154105625Y-62665625D01*
X154229656Y-62480000D01*
X156672000Y-62480000D01*
X156672000Y-62669983D01*
X156672000Y-62669983D01*
G37*
X156672000Y-62669983D02*
X156814345Y-63013635D01*
X156847000Y-63046290D01*
X156847001Y-65915000D01*
X154313178Y-65915000D01*
X154105625Y-65604375D01*
X153786522Y-65391157D01*
X153916358Y-65330183D01*
X154306645Y-64901924D01*
X154476476Y-64491890D01*
X154355155Y-64262000D01*
X153162000Y-64262000D01*
X153162000Y-64282000D01*
X152908000Y-64282000D01*
X152908000Y-64262000D01*
X152888000Y-64262000D01*
X152888000Y-64008000D01*
X152908000Y-64008000D01*
X152908000Y-63988000D01*
X153162000Y-63988000D01*
X153162000Y-64008000D01*
X154355155Y-64008000D01*
X154476476Y-63778110D01*
X154306645Y-63368076D01*
X153916358Y-62939817D01*
X153786522Y-62878843D01*
X154105625Y-62665625D01*
X154229656Y-62480000D01*
X156672000Y-62480000D01*
X156672000Y-62669983D01*
G04 #@! TD*
M02*
