G04 #@! TF.GenerationSoftware,KiCad,Pcbnew,(5.0.0)*
G04 #@! TF.CreationDate,2018-10-12T19:52:20-04:00*
G04 #@! TF.ProjectId,DRV8308_BreakoutBoard,445256383330385F427265616B6F7574,rev?*
G04 #@! TF.SameCoordinates,Original*
G04 #@! TF.FileFunction,Copper,L2,Bot,Signal*
G04 #@! TF.FilePolarity,Positive*
%FSLAX46Y46*%
G04 Gerber Fmt 4.6, Leading zero omitted, Abs format (unit mm)*
G04 Created by KiCad (PCBNEW (5.0.0)) date 10/12/18 19:52:20*
%MOMM*%
%LPD*%
G01*
G04 APERTURE LIST*
G04 #@! TA.AperFunction,ComponentPad*
%ADD10R,1.700000X1.700000*%
G04 #@! TD*
G04 #@! TA.AperFunction,ComponentPad*
%ADD11O,1.700000X1.700000*%
G04 #@! TD*
G04 #@! TA.AperFunction,ViaPad*
%ADD12C,0.685800*%
G04 #@! TD*
G04 #@! TA.AperFunction,Conductor*
%ADD13C,0.152400*%
G04 #@! TD*
G04 APERTURE END LIST*
D10*
G04 #@! TO.P,J1,1*
G04 #@! TO.N,Net-(J1-Pad1)*
X139700000Y-76200000D03*
D11*
G04 #@! TO.P,J1,2*
G04 #@! TO.N,Net-(J1-Pad2)*
X139700000Y-78740000D03*
G04 #@! TO.P,J1,3*
G04 #@! TO.N,Net-(J1-Pad3)*
X139700000Y-81280000D03*
G04 #@! TO.P,J1,4*
G04 #@! TO.N,Net-(J1-Pad4)*
X139700000Y-83820000D03*
G04 #@! TO.P,J1,5*
G04 #@! TO.N,Net-(J1-Pad5)*
X139700000Y-86360000D03*
G04 #@! TO.P,J1,6*
G04 #@! TO.N,Net-(J1-Pad6)*
X139700000Y-88900000D03*
G04 #@! TO.P,J1,7*
G04 #@! TO.N,Net-(J1-Pad7)*
X139700000Y-91440000D03*
G04 #@! TO.P,J1,8*
G04 #@! TO.N,Net-(J1-Pad8)*
X139700000Y-93980000D03*
G04 #@! TO.P,J1,9*
G04 #@! TO.N,Net-(J1-Pad9)*
X139700000Y-96520000D03*
G04 #@! TO.P,J1,10*
G04 #@! TO.N,Net-(J1-Pad10)*
X139700000Y-99060000D03*
G04 #@! TO.P,J1,11*
G04 #@! TO.N,Net-(J1-Pad11)*
X139700000Y-101600000D03*
G04 #@! TO.P,J1,12*
G04 #@! TO.N,Net-(J1-Pad12)*
X139700000Y-104140000D03*
G04 #@! TO.P,J1,13*
G04 #@! TO.N,Net-(J1-Pad13)*
X139700000Y-106680000D03*
G04 #@! TO.P,J1,14*
G04 #@! TO.N,Net-(J1-Pad14)*
X139700000Y-109220000D03*
G04 #@! TO.P,J1,15*
G04 #@! TO.N,Net-(J1-Pad15)*
X139700000Y-111760000D03*
G04 #@! TO.P,J1,16*
G04 #@! TO.N,Net-(J1-Pad16)*
X139700000Y-114300000D03*
G04 #@! TO.P,J1,17*
G04 #@! TO.N,Net-(J1-Pad17)*
X139700000Y-116840000D03*
G04 #@! TO.P,J1,18*
G04 #@! TO.N,Net-(J1-Pad18)*
X139700000Y-119380000D03*
G04 #@! TO.P,J1,19*
G04 #@! TO.N,Net-(J1-Pad19)*
X139700000Y-121920000D03*
G04 #@! TO.P,J1,20*
G04 #@! TO.N,Net-(J1-Pad20)*
X139700000Y-124460000D03*
G04 #@! TD*
G04 #@! TO.P,J2,21*
G04 #@! TO.N,Net-(J2-Pad21)*
X157480000Y-73660000D03*
G04 #@! TO.P,J2,20*
G04 #@! TO.N,Net-(J2-Pad20)*
X157480000Y-76200000D03*
G04 #@! TO.P,J2,19*
G04 #@! TO.N,Net-(J2-Pad19)*
X157480000Y-78740000D03*
G04 #@! TO.P,J2,18*
G04 #@! TO.N,Net-(J2-Pad18)*
X157480000Y-81280000D03*
G04 #@! TO.P,J2,17*
G04 #@! TO.N,Net-(J2-Pad17)*
X157480000Y-83820000D03*
G04 #@! TO.P,J2,16*
G04 #@! TO.N,Net-(J2-Pad16)*
X157480000Y-86360000D03*
G04 #@! TO.P,J2,15*
G04 #@! TO.N,Net-(J2-Pad15)*
X157480000Y-88900000D03*
G04 #@! TO.P,J2,14*
G04 #@! TO.N,Net-(J2-Pad14)*
X157480000Y-91440000D03*
G04 #@! TO.P,J2,13*
G04 #@! TO.N,Net-(J2-Pad13)*
X157480000Y-93980000D03*
G04 #@! TO.P,J2,12*
G04 #@! TO.N,Net-(J2-Pad12)*
X157480000Y-96520000D03*
G04 #@! TO.P,J2,11*
G04 #@! TO.N,Net-(J2-Pad11)*
X157480000Y-99060000D03*
G04 #@! TO.P,J2,10*
G04 #@! TO.N,Net-(J2-Pad10)*
X157480000Y-101600000D03*
G04 #@! TO.P,J2,9*
G04 #@! TO.N,Net-(J2-Pad9)*
X157480000Y-104140000D03*
G04 #@! TO.P,J2,8*
G04 #@! TO.N,Net-(J2-Pad8)*
X157480000Y-106680000D03*
G04 #@! TO.P,J2,7*
G04 #@! TO.N,Net-(J2-Pad7)*
X157480000Y-109220000D03*
G04 #@! TO.P,J2,6*
G04 #@! TO.N,Net-(J2-Pad6)*
X157480000Y-111760000D03*
G04 #@! TO.P,J2,5*
G04 #@! TO.N,Net-(J2-Pad5)*
X157480000Y-114300000D03*
G04 #@! TO.P,J2,4*
G04 #@! TO.N,Net-(J2-Pad4)*
X157480000Y-116840000D03*
G04 #@! TO.P,J2,3*
G04 #@! TO.N,Net-(J2-Pad3)*
X157480000Y-119380000D03*
G04 #@! TO.P,J2,2*
G04 #@! TO.N,Net-(J2-Pad2)*
X157480000Y-121920000D03*
D10*
G04 #@! TO.P,J2,1*
G04 #@! TO.N,Net-(J2-Pad1)*
X157480000Y-124460000D03*
G04 #@! TD*
D12*
G04 #@! TO.N,Net-(J2-Pad21)*
X148590000Y-96393000D03*
X148463000Y-92837000D03*
G04 #@! TD*
D13*
G04 #@! TO.N,Net-(J2-Pad21)*
X148590000Y-95908067D02*
X148463000Y-95781067D01*
X148590000Y-96393000D02*
X148590000Y-95908067D01*
X148463000Y-95781067D02*
X148463000Y-92837000D01*
G04 #@! TD*
M02*
