M48
INCH,TZ
T1C0.0130
T2C0.0394
%
G90
G05
T1
X58450Y-36550
X58500Y-37950
T2
X55000Y-30000
X55000Y-31000
X55000Y-32000
X55000Y-33000
X55000Y-34000
X55000Y-35000
X55000Y-36000
X55000Y-37000
X55000Y-38000
X55000Y-39000
X55000Y-40000
X55000Y-41000
X55000Y-42000
X55000Y-43000
X55000Y-44000
X55000Y-45000
X55000Y-46000
X55000Y-47000
X55000Y-48000
X55000Y-49000
X62000Y-29000
X62000Y-30000
X62000Y-31000
X62000Y-32000
X62000Y-33000
X62000Y-34000
X62000Y-35000
X62000Y-36000
X62000Y-37000
X62000Y-38000
X62000Y-39000
X62000Y-40000
X62000Y-41000
X62000Y-42000
X62000Y-43000
X62000Y-44000
X62000Y-45000
X62000Y-46000
X62000Y-47000
X62000Y-48000
X62000Y-49000
T0
M30
