G04 #@! TF.GenerationSoftware,KiCad,Pcbnew,(5.0.0)*
G04 #@! TF.CreationDate,2018-10-12T19:52:20-04:00*
G04 #@! TF.ProjectId,DRV8308_BreakoutBoard,445256383330385F427265616B6F7574,rev?*
G04 #@! TF.SameCoordinates,Original*
G04 #@! TF.FileFunction,Other,Fab,Top*
%FSLAX46Y46*%
G04 Gerber Fmt 4.6, Leading zero omitted, Abs format (unit mm)*
G04 Created by KiCad (PCBNEW (5.0.0)) date 10/12/18 19:52:20*
%MOMM*%
%LPD*%
G01*
G04 APERTURE LIST*
%ADD10C,0.152400*%
%ADD11C,0.100000*%
%ADD12C,0.150000*%
G04 APERTURE END LIST*
D10*
G04 #@! TO.C,U1*
X147691974Y-95609319D02*
X149488026Y-95609319D01*
X144241293Y-99060000D02*
X148590000Y-103408707D01*
X148590000Y-103408707D02*
X152938707Y-99060000D01*
X152938707Y-99060000D02*
X148590000Y-94711293D01*
X148590000Y-94711293D02*
X144241293Y-99060000D01*
D11*
G04 #@! TO.C,J1*
X138430000Y-74930000D02*
X140335000Y-74930000D01*
X140335000Y-74930000D02*
X140970000Y-75565000D01*
X140970000Y-75565000D02*
X140970000Y-125730000D01*
X140970000Y-125730000D02*
X138430000Y-125730000D01*
X138430000Y-125730000D02*
X138430000Y-74930000D01*
G04 #@! TO.C,J2*
X158750000Y-72390000D02*
X158750000Y-125730000D01*
X156210000Y-72390000D02*
X158750000Y-72390000D01*
X156210000Y-125095000D02*
X156210000Y-72390000D01*
X156845000Y-125730000D02*
X156210000Y-125095000D01*
X158750000Y-125730000D02*
X156845000Y-125730000D01*
G04 #@! TD*
G04 #@! TO.C,U1*
D12*
X149121475Y-95281490D02*
X148953116Y-95449849D01*
X148852101Y-95214147D02*
X148953116Y-95449849D01*
X149188818Y-95550864D01*
X148717414Y-95483521D02*
X148953116Y-95449849D01*
X148919444Y-95685551D01*
G04 #@! TO.C,J1*
X132914285Y-129897142D02*
X132866666Y-129944761D01*
X132723809Y-129992380D01*
X132628571Y-129992380D01*
X132485714Y-129944761D01*
X132390476Y-129849523D01*
X132342857Y-129754285D01*
X132295238Y-129563809D01*
X132295238Y-129420952D01*
X132342857Y-129230476D01*
X132390476Y-129135238D01*
X132485714Y-129040000D01*
X132628571Y-128992380D01*
X132723809Y-128992380D01*
X132866666Y-129040000D01*
X132914285Y-129087619D01*
X133485714Y-129992380D02*
X133390476Y-129944761D01*
X133342857Y-129897142D01*
X133295238Y-129801904D01*
X133295238Y-129516190D01*
X133342857Y-129420952D01*
X133390476Y-129373333D01*
X133485714Y-129325714D01*
X133628571Y-129325714D01*
X133723809Y-129373333D01*
X133771428Y-129420952D01*
X133819047Y-129516190D01*
X133819047Y-129801904D01*
X133771428Y-129897142D01*
X133723809Y-129944761D01*
X133628571Y-129992380D01*
X133485714Y-129992380D01*
X134247619Y-129325714D02*
X134247619Y-129992380D01*
X134247619Y-129420952D02*
X134295238Y-129373333D01*
X134390476Y-129325714D01*
X134533333Y-129325714D01*
X134628571Y-129373333D01*
X134676190Y-129468571D01*
X134676190Y-129992380D01*
X135152380Y-129325714D02*
X135152380Y-129992380D01*
X135152380Y-129420952D02*
X135200000Y-129373333D01*
X135295238Y-129325714D01*
X135438095Y-129325714D01*
X135533333Y-129373333D01*
X135580952Y-129468571D01*
X135580952Y-129992380D01*
X135819047Y-130087619D02*
X136580952Y-130087619D01*
X137009523Y-128992380D02*
X137104761Y-128992380D01*
X137200000Y-129040000D01*
X137247619Y-129087619D01*
X137295238Y-129182857D01*
X137342857Y-129373333D01*
X137342857Y-129611428D01*
X137295238Y-129801904D01*
X137247619Y-129897142D01*
X137200000Y-129944761D01*
X137104761Y-129992380D01*
X137009523Y-129992380D01*
X136914285Y-129944761D01*
X136866666Y-129897142D01*
X136819047Y-129801904D01*
X136771428Y-129611428D01*
X136771428Y-129373333D01*
X136819047Y-129182857D01*
X136866666Y-129087619D01*
X136914285Y-129040000D01*
X137009523Y-128992380D01*
X138295238Y-129992380D02*
X137723809Y-129992380D01*
X138009523Y-129992380D02*
X138009523Y-128992380D01*
X137914285Y-129135238D01*
X137819047Y-129230476D01*
X137723809Y-129278095D01*
X138628571Y-129992380D02*
X139152380Y-129325714D01*
X138628571Y-129325714D02*
X139152380Y-129992380D01*
X139485714Y-129087619D02*
X139533333Y-129040000D01*
X139628571Y-128992380D01*
X139866666Y-128992380D01*
X139961904Y-129040000D01*
X140009523Y-129087619D01*
X140057142Y-129182857D01*
X140057142Y-129278095D01*
X140009523Y-129420952D01*
X139438095Y-129992380D01*
X140057142Y-129992380D01*
X140676190Y-128992380D02*
X140771428Y-128992380D01*
X140866666Y-129040000D01*
X140914285Y-129087619D01*
X140961904Y-129182857D01*
X141009523Y-129373333D01*
X141009523Y-129611428D01*
X140961904Y-129801904D01*
X140914285Y-129897142D01*
X140866666Y-129944761D01*
X140771428Y-129992380D01*
X140676190Y-129992380D01*
X140580952Y-129944761D01*
X140533333Y-129897142D01*
X140485714Y-129801904D01*
X140438095Y-129611428D01*
X140438095Y-129373333D01*
X140485714Y-129182857D01*
X140533333Y-129087619D01*
X140580952Y-129040000D01*
X140676190Y-128992380D01*
X141200000Y-130087619D02*
X141961904Y-130087619D01*
X142533333Y-129468571D02*
X142200000Y-129468571D01*
X142200000Y-129992380D02*
X142200000Y-128992380D01*
X142676190Y-128992380D01*
X143438095Y-129944761D02*
X143342857Y-129992380D01*
X143152380Y-129992380D01*
X143057142Y-129944761D01*
X143009523Y-129849523D01*
X143009523Y-129468571D01*
X143057142Y-129373333D01*
X143152380Y-129325714D01*
X143342857Y-129325714D01*
X143438095Y-129373333D01*
X143485714Y-129468571D01*
X143485714Y-129563809D01*
X143009523Y-129659047D01*
X143914285Y-129992380D02*
X143914285Y-129325714D01*
X143914285Y-129420952D02*
X143961904Y-129373333D01*
X144057142Y-129325714D01*
X144200000Y-129325714D01*
X144295238Y-129373333D01*
X144342857Y-129468571D01*
X144342857Y-129992380D01*
X144342857Y-129468571D02*
X144390476Y-129373333D01*
X144485714Y-129325714D01*
X144628571Y-129325714D01*
X144723809Y-129373333D01*
X144771428Y-129468571D01*
X144771428Y-129992380D01*
X145676190Y-129992380D02*
X145676190Y-129468571D01*
X145628571Y-129373333D01*
X145533333Y-129325714D01*
X145342857Y-129325714D01*
X145247619Y-129373333D01*
X145676190Y-129944761D02*
X145580952Y-129992380D01*
X145342857Y-129992380D01*
X145247619Y-129944761D01*
X145200000Y-129849523D01*
X145200000Y-129754285D01*
X145247619Y-129659047D01*
X145342857Y-129611428D01*
X145580952Y-129611428D01*
X145676190Y-129563809D01*
X146295238Y-129992380D02*
X146200000Y-129944761D01*
X146152380Y-129849523D01*
X146152380Y-128992380D01*
X147057142Y-129944761D02*
X146961904Y-129992380D01*
X146771428Y-129992380D01*
X146676190Y-129944761D01*
X146628571Y-129849523D01*
X146628571Y-129468571D01*
X146676190Y-129373333D01*
X146771428Y-129325714D01*
X146961904Y-129325714D01*
X147057142Y-129373333D01*
X147104761Y-129468571D01*
X147104761Y-129563809D01*
X146628571Y-129659047D01*
X139152380Y-100663333D02*
X139866666Y-100663333D01*
X140009523Y-100710952D01*
X140104761Y-100806190D01*
X140152380Y-100949047D01*
X140152380Y-101044285D01*
X140152380Y-99663333D02*
X140152380Y-100234761D01*
X140152380Y-99949047D02*
X139152380Y-99949047D01*
X139295238Y-100044285D01*
X139390476Y-100139523D01*
X139438095Y-100234761D01*
G04 #@! TO.C,J2*
X150694285Y-68937142D02*
X150646666Y-68984761D01*
X150503809Y-69032380D01*
X150408571Y-69032380D01*
X150265714Y-68984761D01*
X150170476Y-68889523D01*
X150122857Y-68794285D01*
X150075238Y-68603809D01*
X150075238Y-68460952D01*
X150122857Y-68270476D01*
X150170476Y-68175238D01*
X150265714Y-68080000D01*
X150408571Y-68032380D01*
X150503809Y-68032380D01*
X150646666Y-68080000D01*
X150694285Y-68127619D01*
X151265714Y-69032380D02*
X151170476Y-68984761D01*
X151122857Y-68937142D01*
X151075238Y-68841904D01*
X151075238Y-68556190D01*
X151122857Y-68460952D01*
X151170476Y-68413333D01*
X151265714Y-68365714D01*
X151408571Y-68365714D01*
X151503809Y-68413333D01*
X151551428Y-68460952D01*
X151599047Y-68556190D01*
X151599047Y-68841904D01*
X151551428Y-68937142D01*
X151503809Y-68984761D01*
X151408571Y-69032380D01*
X151265714Y-69032380D01*
X152027619Y-68365714D02*
X152027619Y-69032380D01*
X152027619Y-68460952D02*
X152075238Y-68413333D01*
X152170476Y-68365714D01*
X152313333Y-68365714D01*
X152408571Y-68413333D01*
X152456190Y-68508571D01*
X152456190Y-69032380D01*
X152932380Y-68365714D02*
X152932380Y-69032380D01*
X152932380Y-68460952D02*
X152980000Y-68413333D01*
X153075238Y-68365714D01*
X153218095Y-68365714D01*
X153313333Y-68413333D01*
X153360952Y-68508571D01*
X153360952Y-69032380D01*
X153599047Y-69127619D02*
X154360952Y-69127619D01*
X154789523Y-68032380D02*
X154884761Y-68032380D01*
X154980000Y-68080000D01*
X155027619Y-68127619D01*
X155075238Y-68222857D01*
X155122857Y-68413333D01*
X155122857Y-68651428D01*
X155075238Y-68841904D01*
X155027619Y-68937142D01*
X154980000Y-68984761D01*
X154884761Y-69032380D01*
X154789523Y-69032380D01*
X154694285Y-68984761D01*
X154646666Y-68937142D01*
X154599047Y-68841904D01*
X154551428Y-68651428D01*
X154551428Y-68413333D01*
X154599047Y-68222857D01*
X154646666Y-68127619D01*
X154694285Y-68080000D01*
X154789523Y-68032380D01*
X156075238Y-69032380D02*
X155503809Y-69032380D01*
X155789523Y-69032380D02*
X155789523Y-68032380D01*
X155694285Y-68175238D01*
X155599047Y-68270476D01*
X155503809Y-68318095D01*
X156408571Y-69032380D02*
X156932380Y-68365714D01*
X156408571Y-68365714D02*
X156932380Y-69032380D01*
X157265714Y-68127619D02*
X157313333Y-68080000D01*
X157408571Y-68032380D01*
X157646666Y-68032380D01*
X157741904Y-68080000D01*
X157789523Y-68127619D01*
X157837142Y-68222857D01*
X157837142Y-68318095D01*
X157789523Y-68460952D01*
X157218095Y-69032380D01*
X157837142Y-69032380D01*
X158789523Y-69032380D02*
X158218095Y-69032380D01*
X158503809Y-69032380D02*
X158503809Y-68032380D01*
X158408571Y-68175238D01*
X158313333Y-68270476D01*
X158218095Y-68318095D01*
X158980000Y-69127619D02*
X159741904Y-69127619D01*
X160313333Y-68508571D02*
X159980000Y-68508571D01*
X159980000Y-69032380D02*
X159980000Y-68032380D01*
X160456190Y-68032380D01*
X161218095Y-68984761D02*
X161122857Y-69032380D01*
X160932380Y-69032380D01*
X160837142Y-68984761D01*
X160789523Y-68889523D01*
X160789523Y-68508571D01*
X160837142Y-68413333D01*
X160932380Y-68365714D01*
X161122857Y-68365714D01*
X161218095Y-68413333D01*
X161265714Y-68508571D01*
X161265714Y-68603809D01*
X160789523Y-68699047D01*
X161694285Y-69032380D02*
X161694285Y-68365714D01*
X161694285Y-68460952D02*
X161741904Y-68413333D01*
X161837142Y-68365714D01*
X161980000Y-68365714D01*
X162075238Y-68413333D01*
X162122857Y-68508571D01*
X162122857Y-69032380D01*
X162122857Y-68508571D02*
X162170476Y-68413333D01*
X162265714Y-68365714D01*
X162408571Y-68365714D01*
X162503809Y-68413333D01*
X162551428Y-68508571D01*
X162551428Y-69032380D01*
X163456190Y-69032380D02*
X163456190Y-68508571D01*
X163408571Y-68413333D01*
X163313333Y-68365714D01*
X163122857Y-68365714D01*
X163027619Y-68413333D01*
X163456190Y-68984761D02*
X163360952Y-69032380D01*
X163122857Y-69032380D01*
X163027619Y-68984761D01*
X162980000Y-68889523D01*
X162980000Y-68794285D01*
X163027619Y-68699047D01*
X163122857Y-68651428D01*
X163360952Y-68651428D01*
X163456190Y-68603809D01*
X164075238Y-69032380D02*
X163980000Y-68984761D01*
X163932380Y-68889523D01*
X163932380Y-68032380D01*
X164837142Y-68984761D02*
X164741904Y-69032380D01*
X164551428Y-69032380D01*
X164456190Y-68984761D01*
X164408571Y-68889523D01*
X164408571Y-68508571D01*
X164456190Y-68413333D01*
X164551428Y-68365714D01*
X164741904Y-68365714D01*
X164837142Y-68413333D01*
X164884761Y-68508571D01*
X164884761Y-68603809D01*
X164408571Y-68699047D01*
X156932380Y-99393333D02*
X157646666Y-99393333D01*
X157789523Y-99440952D01*
X157884761Y-99536190D01*
X157932380Y-99679047D01*
X157932380Y-99774285D01*
X157027619Y-98964761D02*
X156980000Y-98917142D01*
X156932380Y-98821904D01*
X156932380Y-98583809D01*
X156980000Y-98488571D01*
X157027619Y-98440952D01*
X157122857Y-98393333D01*
X157218095Y-98393333D01*
X157360952Y-98440952D01*
X157932380Y-99012380D01*
X157932380Y-98393333D01*
G04 #@! TD*
M02*
