M48
;DRILL file {KiCad (5.0.0)} date 10/11/18 22:57:38
;FORMAT={-:-/ absolute / inch / decimal}
FMAT,2
INCH,TZ
T1C0.0130
T2C0.0394
%
G90
G05
M72
T1
X5.85Y-3.825
T2
X5.4Y-3.
X5.4Y-3.1
X5.4Y-3.2
X5.4Y-3.3
X5.4Y-3.4
X5.4Y-3.5
X5.4Y-3.6
X5.4Y-3.7
X5.4Y-3.8
X5.4Y-3.9
X5.4Y-4.
X5.4Y-4.1
X5.4Y-4.2
X5.4Y-4.3
X5.4Y-4.4
X5.4Y-4.5
X5.4Y-4.6
X5.4Y-4.7
X5.4Y-4.8
X5.4Y-4.9
X6.3Y-2.9
X6.3Y-3.
X6.3Y-3.1
X6.3Y-3.2
X6.3Y-3.3
X6.3Y-3.4
X6.3Y-3.5
X6.3Y-3.6
X6.3Y-3.7
X6.3Y-3.8
X6.3Y-3.9
X6.3Y-4.
X6.3Y-4.1
X6.3Y-4.2
X6.3Y-4.3
X6.3Y-4.4
X6.3Y-4.5
X6.3Y-4.6
X6.3Y-4.7
X6.3Y-4.8
X6.3Y-4.9
T0
M30
