G04 #@! TF.GenerationSoftware,KiCad,Pcbnew,(5.0.0)*
G04 #@! TF.CreationDate,2019-11-15T12:31:31-05:00*
G04 #@! TF.ProjectId,PCB_v2,5043425F76322E6B696361645F706362,rev?*
G04 #@! TF.SameCoordinates,Original*
G04 #@! TF.FileFunction,Soldermask,Bot*
G04 #@! TF.FilePolarity,Negative*
%FSLAX46Y46*%
G04 Gerber Fmt 4.6, Leading zero omitted, Abs format (unit mm)*
G04 Created by KiCad (PCBNEW (5.0.0)) date 11/15/19 12:31:31*
%MOMM*%
%LPD*%
G01*
G04 APERTURE LIST*
%ADD10C,2.000000*%
%ADD11R,2.000000X2.000000*%
%ADD12R,2.100000X2.100000*%
%ADD13O,2.100000X2.100000*%
%ADD14R,2.575000X2.575000*%
%ADD15C,2.575000*%
%ADD16C,3.600000*%
%ADD17R,2.900000X2.900000*%
%ADD18C,2.900000*%
%ADD19O,2.900000X2.900000*%
%ADD20C,4.400000*%
%ADD21R,2.400000X2.305000*%
%ADD22O,2.400000X2.305000*%
G04 APERTURE END LIST*
D10*
G04 #@! TO.C,C2*
X135810000Y-103505000D03*
D11*
X130810000Y-103505000D03*
G04 #@! TD*
D12*
G04 #@! TO.C,J4*
X179832000Y-63500000D03*
D13*
X179832000Y-78740000D03*
X177292000Y-63500000D03*
X177292000Y-78740000D03*
X174752000Y-63500000D03*
X174752000Y-78740000D03*
X172212000Y-63500000D03*
X172212000Y-78740000D03*
X169672000Y-63500000D03*
X169672000Y-78740000D03*
X167132000Y-63500000D03*
X167132000Y-78740000D03*
X164592000Y-63500000D03*
X164592000Y-78740000D03*
X162052000Y-63500000D03*
X162052000Y-78740000D03*
X159512000Y-63500000D03*
X159512000Y-78740000D03*
X156972000Y-63500000D03*
X156972000Y-78740000D03*
X154432000Y-63500000D03*
X154432000Y-78740000D03*
X151892000Y-63500000D03*
X151892000Y-78740000D03*
X149352000Y-63500000D03*
X149352000Y-78740000D03*
X146812000Y-63500000D03*
X146812000Y-78740000D03*
G04 #@! TD*
D14*
G04 #@! TO.C,J1*
X175539400Y-116408200D03*
D15*
X179739400Y-116408200D03*
X183939400Y-116408200D03*
X188139400Y-116408200D03*
X175539400Y-121908200D03*
X179739400Y-121908200D03*
X183939400Y-121908200D03*
X188139400Y-121908200D03*
G04 #@! TD*
D16*
G04 #@! TO.C,REF\002A\002A*
X201295000Y-63500000D03*
G04 #@! TD*
G04 #@! TO.C,REF\002A\002A*
X128905000Y-64135000D03*
G04 #@! TD*
G04 #@! TO.C,REF\002A\002A*
X128600200Y-110515400D03*
G04 #@! TD*
G04 #@! TO.C,REF\002A\002A*
X201295000Y-110490000D03*
G04 #@! TD*
D12*
G04 #@! TO.C,J2*
X160223200Y-125552200D03*
D13*
X160223200Y-128092200D03*
X157683200Y-125552200D03*
X157683200Y-128092200D03*
X155143200Y-125552200D03*
X155143200Y-128092200D03*
X152603200Y-125552200D03*
X152603200Y-128092200D03*
X150063200Y-125552200D03*
X150063200Y-128092200D03*
G04 #@! TD*
D17*
G04 #@! TO.C,J3*
X127635000Y-116205000D03*
D18*
X131835000Y-116205000D03*
D19*
X136035000Y-116205000D03*
D20*
X136035000Y-123505000D03*
X127635000Y-123505000D03*
G04 #@! TD*
D17*
G04 #@! TO.C,J5*
X202565000Y-116205000D03*
D18*
X198365000Y-116205000D03*
D19*
X194165000Y-116205000D03*
D20*
X194165000Y-123505000D03*
X202565000Y-123505000D03*
G04 #@! TD*
D12*
G04 #@! TO.C,J6*
X193040000Y-68580000D03*
D13*
X195580000Y-68580000D03*
X193040000Y-71120000D03*
X195580000Y-71120000D03*
X193040000Y-73660000D03*
X195580000Y-73660000D03*
G04 #@! TD*
D12*
G04 #@! TO.C,J9*
X138684000Y-62484000D03*
D13*
X136144000Y-62484000D03*
X138684000Y-65024000D03*
X136144000Y-65024000D03*
G04 #@! TD*
D21*
G04 #@! TO.C,Q1*
X151765000Y-115570000D03*
D22*
X151765000Y-113030000D03*
X151765000Y-110490000D03*
G04 #@! TD*
D21*
G04 #@! TO.C,Q2*
X161290000Y-115570000D03*
D22*
X161290000Y-113030000D03*
X161290000Y-110490000D03*
G04 #@! TD*
D21*
G04 #@! TO.C,Q3*
X151765000Y-102870000D03*
D22*
X151765000Y-100330000D03*
X151765000Y-97790000D03*
G04 #@! TD*
G04 #@! TO.C,Q4*
X161290000Y-97790000D03*
X161290000Y-100330000D03*
D21*
X161290000Y-102870000D03*
G04 #@! TD*
G04 #@! TO.C,Q5*
X151765000Y-90170000D03*
D22*
X151765000Y-87630000D03*
X151765000Y-85090000D03*
G04 #@! TD*
G04 #@! TO.C,Q6*
X161290000Y-85090000D03*
X161290000Y-87630000D03*
D21*
X161290000Y-90170000D03*
G04 #@! TD*
M02*
