G04 #@! TF.GenerationSoftware,KiCad,Pcbnew,(5.0.0)*
G04 #@! TF.CreationDate,2019-11-15T12:31:31-05:00*
G04 #@! TF.ProjectId,PCB_v2,5043425F76322E6B696361645F706362,rev?*
G04 #@! TF.SameCoordinates,Original*
G04 #@! TF.FileFunction,Soldermask,Top*
G04 #@! TF.FilePolarity,Negative*
%FSLAX46Y46*%
G04 Gerber Fmt 4.6, Leading zero omitted, Abs format (unit mm)*
G04 Created by KiCad (PCBNEW (5.0.0)) date 11/15/19 12:31:31*
%MOMM*%
%LPD*%
G01*
G04 APERTURE LIST*
%ADD10C,2.000000*%
%ADD11R,2.000000X2.000000*%
%ADD12C,0.100000*%
%ADD13C,1.925000*%
%ADD14R,2.100000X2.100000*%
%ADD15O,2.100000X2.100000*%
%ADD16R,2.575000X2.575000*%
%ADD17C,2.575000*%
%ADD18C,3.600000*%
%ADD19C,1.825000*%
%ADD20R,2.900000X2.900000*%
%ADD21C,2.900000*%
%ADD22O,2.900000X2.900000*%
%ADD23C,4.400000*%
%ADD24R,2.400000X2.305000*%
%ADD25O,2.400000X2.305000*%
%ADD26C,3.020000*%
%ADD27C,0.650000*%
%ADD28R,1.850000X0.850000*%
%ADD29C,1.000000*%
%ADD30R,2.400000X4.200000*%
%ADD31R,2.400000X1.900000*%
G04 APERTURE END LIST*
D10*
G04 #@! TO.C,C2*
X135810000Y-103505000D03*
D11*
X130810000Y-103505000D03*
G04 #@! TD*
D12*
G04 #@! TO.C,R6*
G36*
X176342359Y-73146520D02*
X176372993Y-73151064D01*
X176403034Y-73158588D01*
X176432192Y-73169021D01*
X176460188Y-73182262D01*
X176486750Y-73198183D01*
X176511625Y-73216632D01*
X176534571Y-73237429D01*
X176555368Y-73260375D01*
X176573817Y-73285250D01*
X176589738Y-73311812D01*
X176602979Y-73339808D01*
X176613412Y-73368966D01*
X176620936Y-73399007D01*
X176625480Y-73429641D01*
X176627000Y-73460572D01*
X176627000Y-74754428D01*
X176625480Y-74785359D01*
X176620936Y-74815993D01*
X176613412Y-74846034D01*
X176602979Y-74875192D01*
X176589738Y-74903188D01*
X176573817Y-74929750D01*
X176555368Y-74954625D01*
X176534571Y-74977571D01*
X176511625Y-74998368D01*
X176486750Y-75016817D01*
X176460188Y-75032738D01*
X176432192Y-75045979D01*
X176403034Y-75056412D01*
X176372993Y-75063936D01*
X176342359Y-75068480D01*
X176311428Y-75070000D01*
X173192572Y-75070000D01*
X173161641Y-75068480D01*
X173131007Y-75063936D01*
X173100966Y-75056412D01*
X173071808Y-75045979D01*
X173043812Y-75032738D01*
X173017250Y-75016817D01*
X172992375Y-74998368D01*
X172969429Y-74977571D01*
X172948632Y-74954625D01*
X172930183Y-74929750D01*
X172914262Y-74903188D01*
X172901021Y-74875192D01*
X172890588Y-74846034D01*
X172883064Y-74815993D01*
X172878520Y-74785359D01*
X172877000Y-74754428D01*
X172877000Y-73460572D01*
X172878520Y-73429641D01*
X172883064Y-73399007D01*
X172890588Y-73368966D01*
X172901021Y-73339808D01*
X172914262Y-73311812D01*
X172930183Y-73285250D01*
X172948632Y-73260375D01*
X172969429Y-73237429D01*
X172992375Y-73216632D01*
X173017250Y-73198183D01*
X173043812Y-73182262D01*
X173071808Y-73169021D01*
X173100966Y-73158588D01*
X173131007Y-73151064D01*
X173161641Y-73146520D01*
X173192572Y-73145000D01*
X176311428Y-73145000D01*
X176342359Y-73146520D01*
X176342359Y-73146520D01*
G37*
D13*
X174752000Y-74107500D03*
D12*
G36*
X176342359Y-67171520D02*
X176372993Y-67176064D01*
X176403034Y-67183588D01*
X176432192Y-67194021D01*
X176460188Y-67207262D01*
X176486750Y-67223183D01*
X176511625Y-67241632D01*
X176534571Y-67262429D01*
X176555368Y-67285375D01*
X176573817Y-67310250D01*
X176589738Y-67336812D01*
X176602979Y-67364808D01*
X176613412Y-67393966D01*
X176620936Y-67424007D01*
X176625480Y-67454641D01*
X176627000Y-67485572D01*
X176627000Y-68779428D01*
X176625480Y-68810359D01*
X176620936Y-68840993D01*
X176613412Y-68871034D01*
X176602979Y-68900192D01*
X176589738Y-68928188D01*
X176573817Y-68954750D01*
X176555368Y-68979625D01*
X176534571Y-69002571D01*
X176511625Y-69023368D01*
X176486750Y-69041817D01*
X176460188Y-69057738D01*
X176432192Y-69070979D01*
X176403034Y-69081412D01*
X176372993Y-69088936D01*
X176342359Y-69093480D01*
X176311428Y-69095000D01*
X173192572Y-69095000D01*
X173161641Y-69093480D01*
X173131007Y-69088936D01*
X173100966Y-69081412D01*
X173071808Y-69070979D01*
X173043812Y-69057738D01*
X173017250Y-69041817D01*
X172992375Y-69023368D01*
X172969429Y-69002571D01*
X172948632Y-68979625D01*
X172930183Y-68954750D01*
X172914262Y-68928188D01*
X172901021Y-68900192D01*
X172890588Y-68871034D01*
X172883064Y-68840993D01*
X172878520Y-68810359D01*
X172877000Y-68779428D01*
X172877000Y-67485572D01*
X172878520Y-67454641D01*
X172883064Y-67424007D01*
X172890588Y-67393966D01*
X172901021Y-67364808D01*
X172914262Y-67336812D01*
X172930183Y-67310250D01*
X172948632Y-67285375D01*
X172969429Y-67262429D01*
X172992375Y-67241632D01*
X173017250Y-67223183D01*
X173043812Y-67207262D01*
X173071808Y-67194021D01*
X173100966Y-67183588D01*
X173131007Y-67176064D01*
X173161641Y-67171520D01*
X173192572Y-67170000D01*
X176311428Y-67170000D01*
X176342359Y-67171520D01*
X176342359Y-67171520D01*
G37*
D13*
X174752000Y-68132500D03*
G04 #@! TD*
D14*
G04 #@! TO.C,J4*
X179832000Y-63500000D03*
D15*
X179832000Y-78740000D03*
X177292000Y-63500000D03*
X177292000Y-78740000D03*
X174752000Y-63500000D03*
X174752000Y-78740000D03*
X172212000Y-63500000D03*
X172212000Y-78740000D03*
X169672000Y-63500000D03*
X169672000Y-78740000D03*
X167132000Y-63500000D03*
X167132000Y-78740000D03*
X164592000Y-63500000D03*
X164592000Y-78740000D03*
X162052000Y-63500000D03*
X162052000Y-78740000D03*
X159512000Y-63500000D03*
X159512000Y-78740000D03*
X156972000Y-63500000D03*
X156972000Y-78740000D03*
X154432000Y-63500000D03*
X154432000Y-78740000D03*
X151892000Y-63500000D03*
X151892000Y-78740000D03*
X149352000Y-63500000D03*
X149352000Y-78740000D03*
X146812000Y-63500000D03*
X146812000Y-78740000D03*
G04 #@! TD*
D16*
G04 #@! TO.C,J1*
X175539400Y-116408200D03*
D17*
X179739400Y-116408200D03*
X183939400Y-116408200D03*
X188139400Y-116408200D03*
X175539400Y-121908200D03*
X179739400Y-121908200D03*
X183939400Y-121908200D03*
X188139400Y-121908200D03*
G04 #@! TD*
D12*
G04 #@! TO.C,R1*
G36*
X153132359Y-72496520D02*
X153162993Y-72501064D01*
X153193034Y-72508588D01*
X153222192Y-72519021D01*
X153250188Y-72532262D01*
X153276750Y-72548183D01*
X153301625Y-72566632D01*
X153324571Y-72587429D01*
X153345368Y-72610375D01*
X153363817Y-72635250D01*
X153379738Y-72661812D01*
X153392979Y-72689808D01*
X153403412Y-72718966D01*
X153410936Y-72749007D01*
X153415480Y-72779641D01*
X153417000Y-72810572D01*
X153417000Y-74104428D01*
X153415480Y-74135359D01*
X153410936Y-74165993D01*
X153403412Y-74196034D01*
X153392979Y-74225192D01*
X153379738Y-74253188D01*
X153363817Y-74279750D01*
X153345368Y-74304625D01*
X153324571Y-74327571D01*
X153301625Y-74348368D01*
X153276750Y-74366817D01*
X153250188Y-74382738D01*
X153222192Y-74395979D01*
X153193034Y-74406412D01*
X153162993Y-74413936D01*
X153132359Y-74418480D01*
X153101428Y-74420000D01*
X150682572Y-74420000D01*
X150651641Y-74418480D01*
X150621007Y-74413936D01*
X150590966Y-74406412D01*
X150561808Y-74395979D01*
X150533812Y-74382738D01*
X150507250Y-74366817D01*
X150482375Y-74348368D01*
X150459429Y-74327571D01*
X150438632Y-74304625D01*
X150420183Y-74279750D01*
X150404262Y-74253188D01*
X150391021Y-74225192D01*
X150380588Y-74196034D01*
X150373064Y-74165993D01*
X150368520Y-74135359D01*
X150367000Y-74104428D01*
X150367000Y-72810572D01*
X150368520Y-72779641D01*
X150373064Y-72749007D01*
X150380588Y-72718966D01*
X150391021Y-72689808D01*
X150404262Y-72661812D01*
X150420183Y-72635250D01*
X150438632Y-72610375D01*
X150459429Y-72587429D01*
X150482375Y-72566632D01*
X150507250Y-72548183D01*
X150533812Y-72532262D01*
X150561808Y-72519021D01*
X150590966Y-72508588D01*
X150621007Y-72501064D01*
X150651641Y-72496520D01*
X150682572Y-72495000D01*
X153101428Y-72495000D01*
X153132359Y-72496520D01*
X153132359Y-72496520D01*
G37*
D13*
X151892000Y-73457500D03*
D12*
G36*
X153132359Y-67821520D02*
X153162993Y-67826064D01*
X153193034Y-67833588D01*
X153222192Y-67844021D01*
X153250188Y-67857262D01*
X153276750Y-67873183D01*
X153301625Y-67891632D01*
X153324571Y-67912429D01*
X153345368Y-67935375D01*
X153363817Y-67960250D01*
X153379738Y-67986812D01*
X153392979Y-68014808D01*
X153403412Y-68043966D01*
X153410936Y-68074007D01*
X153415480Y-68104641D01*
X153417000Y-68135572D01*
X153417000Y-69429428D01*
X153415480Y-69460359D01*
X153410936Y-69490993D01*
X153403412Y-69521034D01*
X153392979Y-69550192D01*
X153379738Y-69578188D01*
X153363817Y-69604750D01*
X153345368Y-69629625D01*
X153324571Y-69652571D01*
X153301625Y-69673368D01*
X153276750Y-69691817D01*
X153250188Y-69707738D01*
X153222192Y-69720979D01*
X153193034Y-69731412D01*
X153162993Y-69738936D01*
X153132359Y-69743480D01*
X153101428Y-69745000D01*
X150682572Y-69745000D01*
X150651641Y-69743480D01*
X150621007Y-69738936D01*
X150590966Y-69731412D01*
X150561808Y-69720979D01*
X150533812Y-69707738D01*
X150507250Y-69691817D01*
X150482375Y-69673368D01*
X150459429Y-69652571D01*
X150438632Y-69629625D01*
X150420183Y-69604750D01*
X150404262Y-69578188D01*
X150391021Y-69550192D01*
X150380588Y-69521034D01*
X150373064Y-69490993D01*
X150368520Y-69460359D01*
X150367000Y-69429428D01*
X150367000Y-68135572D01*
X150368520Y-68104641D01*
X150373064Y-68074007D01*
X150380588Y-68043966D01*
X150391021Y-68014808D01*
X150404262Y-67986812D01*
X150420183Y-67960250D01*
X150438632Y-67935375D01*
X150459429Y-67912429D01*
X150482375Y-67891632D01*
X150507250Y-67873183D01*
X150533812Y-67857262D01*
X150561808Y-67844021D01*
X150590966Y-67833588D01*
X150621007Y-67826064D01*
X150651641Y-67821520D01*
X150682572Y-67820000D01*
X153101428Y-67820000D01*
X153132359Y-67821520D01*
X153132359Y-67821520D01*
G37*
D13*
X151892000Y-68782500D03*
G04 #@! TD*
D18*
G04 #@! TO.C,REF\002A\002A*
X201295000Y-63500000D03*
G04 #@! TD*
G04 #@! TO.C,REF\002A\002A*
X128905000Y-64135000D03*
G04 #@! TD*
G04 #@! TO.C,REF\002A\002A*
X128600200Y-110515400D03*
G04 #@! TD*
G04 #@! TO.C,REF\002A\002A*
X201295000Y-110490000D03*
G04 #@! TD*
D12*
G04 #@! TO.C,C1*
G36*
X130671707Y-94684542D02*
X130702787Y-94689152D01*
X130733266Y-94696787D01*
X130762850Y-94707372D01*
X130791254Y-94720806D01*
X130818204Y-94736959D01*
X130843442Y-94755677D01*
X130866723Y-94776777D01*
X130887823Y-94800058D01*
X130906541Y-94825296D01*
X130922694Y-94852246D01*
X130936128Y-94880650D01*
X130946713Y-94910234D01*
X130954348Y-94940713D01*
X130958958Y-94971793D01*
X130960500Y-95003176D01*
X130960500Y-96512824D01*
X130958958Y-96544207D01*
X130954348Y-96575287D01*
X130946713Y-96605766D01*
X130936128Y-96635350D01*
X130922694Y-96663754D01*
X130906541Y-96690704D01*
X130887823Y-96715942D01*
X130866723Y-96739223D01*
X130843442Y-96760323D01*
X130818204Y-96779041D01*
X130791254Y-96795194D01*
X130762850Y-96808628D01*
X130733266Y-96819213D01*
X130702787Y-96826848D01*
X130671707Y-96831458D01*
X130640324Y-96833000D01*
X129455676Y-96833000D01*
X129424293Y-96831458D01*
X129393213Y-96826848D01*
X129362734Y-96819213D01*
X129333150Y-96808628D01*
X129304746Y-96795194D01*
X129277796Y-96779041D01*
X129252558Y-96760323D01*
X129229277Y-96739223D01*
X129208177Y-96715942D01*
X129189459Y-96690704D01*
X129173306Y-96663754D01*
X129159872Y-96635350D01*
X129149287Y-96605766D01*
X129141652Y-96575287D01*
X129137042Y-96544207D01*
X129135500Y-96512824D01*
X129135500Y-95003176D01*
X129137042Y-94971793D01*
X129141652Y-94940713D01*
X129149287Y-94910234D01*
X129159872Y-94880650D01*
X129173306Y-94852246D01*
X129189459Y-94825296D01*
X129208177Y-94800058D01*
X129229277Y-94776777D01*
X129252558Y-94755677D01*
X129277796Y-94736959D01*
X129304746Y-94720806D01*
X129333150Y-94707372D01*
X129362734Y-94696787D01*
X129393213Y-94689152D01*
X129424293Y-94684542D01*
X129455676Y-94683000D01*
X130640324Y-94683000D01*
X130671707Y-94684542D01*
X130671707Y-94684542D01*
G37*
D19*
X130048000Y-95758000D03*
D12*
G36*
X127696707Y-94684542D02*
X127727787Y-94689152D01*
X127758266Y-94696787D01*
X127787850Y-94707372D01*
X127816254Y-94720806D01*
X127843204Y-94736959D01*
X127868442Y-94755677D01*
X127891723Y-94776777D01*
X127912823Y-94800058D01*
X127931541Y-94825296D01*
X127947694Y-94852246D01*
X127961128Y-94880650D01*
X127971713Y-94910234D01*
X127979348Y-94940713D01*
X127983958Y-94971793D01*
X127985500Y-95003176D01*
X127985500Y-96512824D01*
X127983958Y-96544207D01*
X127979348Y-96575287D01*
X127971713Y-96605766D01*
X127961128Y-96635350D01*
X127947694Y-96663754D01*
X127931541Y-96690704D01*
X127912823Y-96715942D01*
X127891723Y-96739223D01*
X127868442Y-96760323D01*
X127843204Y-96779041D01*
X127816254Y-96795194D01*
X127787850Y-96808628D01*
X127758266Y-96819213D01*
X127727787Y-96826848D01*
X127696707Y-96831458D01*
X127665324Y-96833000D01*
X126480676Y-96833000D01*
X126449293Y-96831458D01*
X126418213Y-96826848D01*
X126387734Y-96819213D01*
X126358150Y-96808628D01*
X126329746Y-96795194D01*
X126302796Y-96779041D01*
X126277558Y-96760323D01*
X126254277Y-96739223D01*
X126233177Y-96715942D01*
X126214459Y-96690704D01*
X126198306Y-96663754D01*
X126184872Y-96635350D01*
X126174287Y-96605766D01*
X126166652Y-96575287D01*
X126162042Y-96544207D01*
X126160500Y-96512824D01*
X126160500Y-95003176D01*
X126162042Y-94971793D01*
X126166652Y-94940713D01*
X126174287Y-94910234D01*
X126184872Y-94880650D01*
X126198306Y-94852246D01*
X126214459Y-94825296D01*
X126233177Y-94800058D01*
X126254277Y-94776777D01*
X126277558Y-94755677D01*
X126302796Y-94736959D01*
X126329746Y-94720806D01*
X126358150Y-94707372D01*
X126387734Y-94696787D01*
X126418213Y-94689152D01*
X126449293Y-94684542D01*
X126480676Y-94683000D01*
X127665324Y-94683000D01*
X127696707Y-94684542D01*
X127696707Y-94684542D01*
G37*
D19*
X127073000Y-95758000D03*
G04 #@! TD*
D12*
G04 #@! TO.C,C3*
G36*
X138255207Y-79190542D02*
X138286287Y-79195152D01*
X138316766Y-79202787D01*
X138346350Y-79213372D01*
X138374754Y-79226806D01*
X138401704Y-79242959D01*
X138426942Y-79261677D01*
X138450223Y-79282777D01*
X138471323Y-79306058D01*
X138490041Y-79331296D01*
X138506194Y-79358246D01*
X138519628Y-79386650D01*
X138530213Y-79416234D01*
X138537848Y-79446713D01*
X138542458Y-79477793D01*
X138544000Y-79509176D01*
X138544000Y-81018824D01*
X138542458Y-81050207D01*
X138537848Y-81081287D01*
X138530213Y-81111766D01*
X138519628Y-81141350D01*
X138506194Y-81169754D01*
X138490041Y-81196704D01*
X138471323Y-81221942D01*
X138450223Y-81245223D01*
X138426942Y-81266323D01*
X138401704Y-81285041D01*
X138374754Y-81301194D01*
X138346350Y-81314628D01*
X138316766Y-81325213D01*
X138286287Y-81332848D01*
X138255207Y-81337458D01*
X138223824Y-81339000D01*
X137039176Y-81339000D01*
X137007793Y-81337458D01*
X136976713Y-81332848D01*
X136946234Y-81325213D01*
X136916650Y-81314628D01*
X136888246Y-81301194D01*
X136861296Y-81285041D01*
X136836058Y-81266323D01*
X136812777Y-81245223D01*
X136791677Y-81221942D01*
X136772959Y-81196704D01*
X136756806Y-81169754D01*
X136743372Y-81141350D01*
X136732787Y-81111766D01*
X136725152Y-81081287D01*
X136720542Y-81050207D01*
X136719000Y-81018824D01*
X136719000Y-79509176D01*
X136720542Y-79477793D01*
X136725152Y-79446713D01*
X136732787Y-79416234D01*
X136743372Y-79386650D01*
X136756806Y-79358246D01*
X136772959Y-79331296D01*
X136791677Y-79306058D01*
X136812777Y-79282777D01*
X136836058Y-79261677D01*
X136861296Y-79242959D01*
X136888246Y-79226806D01*
X136916650Y-79213372D01*
X136946234Y-79202787D01*
X136976713Y-79195152D01*
X137007793Y-79190542D01*
X137039176Y-79189000D01*
X138223824Y-79189000D01*
X138255207Y-79190542D01*
X138255207Y-79190542D01*
G37*
D19*
X137631500Y-80264000D03*
D12*
G36*
X135280207Y-79190542D02*
X135311287Y-79195152D01*
X135341766Y-79202787D01*
X135371350Y-79213372D01*
X135399754Y-79226806D01*
X135426704Y-79242959D01*
X135451942Y-79261677D01*
X135475223Y-79282777D01*
X135496323Y-79306058D01*
X135515041Y-79331296D01*
X135531194Y-79358246D01*
X135544628Y-79386650D01*
X135555213Y-79416234D01*
X135562848Y-79446713D01*
X135567458Y-79477793D01*
X135569000Y-79509176D01*
X135569000Y-81018824D01*
X135567458Y-81050207D01*
X135562848Y-81081287D01*
X135555213Y-81111766D01*
X135544628Y-81141350D01*
X135531194Y-81169754D01*
X135515041Y-81196704D01*
X135496323Y-81221942D01*
X135475223Y-81245223D01*
X135451942Y-81266323D01*
X135426704Y-81285041D01*
X135399754Y-81301194D01*
X135371350Y-81314628D01*
X135341766Y-81325213D01*
X135311287Y-81332848D01*
X135280207Y-81337458D01*
X135248824Y-81339000D01*
X134064176Y-81339000D01*
X134032793Y-81337458D01*
X134001713Y-81332848D01*
X133971234Y-81325213D01*
X133941650Y-81314628D01*
X133913246Y-81301194D01*
X133886296Y-81285041D01*
X133861058Y-81266323D01*
X133837777Y-81245223D01*
X133816677Y-81221942D01*
X133797959Y-81196704D01*
X133781806Y-81169754D01*
X133768372Y-81141350D01*
X133757787Y-81111766D01*
X133750152Y-81081287D01*
X133745542Y-81050207D01*
X133744000Y-81018824D01*
X133744000Y-79509176D01*
X133745542Y-79477793D01*
X133750152Y-79446713D01*
X133757787Y-79416234D01*
X133768372Y-79386650D01*
X133781806Y-79358246D01*
X133797959Y-79331296D01*
X133816677Y-79306058D01*
X133837777Y-79282777D01*
X133861058Y-79261677D01*
X133886296Y-79242959D01*
X133913246Y-79226806D01*
X133941650Y-79213372D01*
X133971234Y-79202787D01*
X134001713Y-79195152D01*
X134032793Y-79190542D01*
X134064176Y-79189000D01*
X135248824Y-79189000D01*
X135280207Y-79190542D01*
X135280207Y-79190542D01*
G37*
D19*
X134656500Y-80264000D03*
G04 #@! TD*
D12*
G04 #@! TO.C,C4*
G36*
X128204707Y-76142542D02*
X128235787Y-76147152D01*
X128266266Y-76154787D01*
X128295850Y-76165372D01*
X128324254Y-76178806D01*
X128351204Y-76194959D01*
X128376442Y-76213677D01*
X128399723Y-76234777D01*
X128420823Y-76258058D01*
X128439541Y-76283296D01*
X128455694Y-76310246D01*
X128469128Y-76338650D01*
X128479713Y-76368234D01*
X128487348Y-76398713D01*
X128491958Y-76429793D01*
X128493500Y-76461176D01*
X128493500Y-77970824D01*
X128491958Y-78002207D01*
X128487348Y-78033287D01*
X128479713Y-78063766D01*
X128469128Y-78093350D01*
X128455694Y-78121754D01*
X128439541Y-78148704D01*
X128420823Y-78173942D01*
X128399723Y-78197223D01*
X128376442Y-78218323D01*
X128351204Y-78237041D01*
X128324254Y-78253194D01*
X128295850Y-78266628D01*
X128266266Y-78277213D01*
X128235787Y-78284848D01*
X128204707Y-78289458D01*
X128173324Y-78291000D01*
X126988676Y-78291000D01*
X126957293Y-78289458D01*
X126926213Y-78284848D01*
X126895734Y-78277213D01*
X126866150Y-78266628D01*
X126837746Y-78253194D01*
X126810796Y-78237041D01*
X126785558Y-78218323D01*
X126762277Y-78197223D01*
X126741177Y-78173942D01*
X126722459Y-78148704D01*
X126706306Y-78121754D01*
X126692872Y-78093350D01*
X126682287Y-78063766D01*
X126674652Y-78033287D01*
X126670042Y-78002207D01*
X126668500Y-77970824D01*
X126668500Y-76461176D01*
X126670042Y-76429793D01*
X126674652Y-76398713D01*
X126682287Y-76368234D01*
X126692872Y-76338650D01*
X126706306Y-76310246D01*
X126722459Y-76283296D01*
X126741177Y-76258058D01*
X126762277Y-76234777D01*
X126785558Y-76213677D01*
X126810796Y-76194959D01*
X126837746Y-76178806D01*
X126866150Y-76165372D01*
X126895734Y-76154787D01*
X126926213Y-76147152D01*
X126957293Y-76142542D01*
X126988676Y-76141000D01*
X128173324Y-76141000D01*
X128204707Y-76142542D01*
X128204707Y-76142542D01*
G37*
D19*
X127581000Y-77216000D03*
D12*
G36*
X131179707Y-76142542D02*
X131210787Y-76147152D01*
X131241266Y-76154787D01*
X131270850Y-76165372D01*
X131299254Y-76178806D01*
X131326204Y-76194959D01*
X131351442Y-76213677D01*
X131374723Y-76234777D01*
X131395823Y-76258058D01*
X131414541Y-76283296D01*
X131430694Y-76310246D01*
X131444128Y-76338650D01*
X131454713Y-76368234D01*
X131462348Y-76398713D01*
X131466958Y-76429793D01*
X131468500Y-76461176D01*
X131468500Y-77970824D01*
X131466958Y-78002207D01*
X131462348Y-78033287D01*
X131454713Y-78063766D01*
X131444128Y-78093350D01*
X131430694Y-78121754D01*
X131414541Y-78148704D01*
X131395823Y-78173942D01*
X131374723Y-78197223D01*
X131351442Y-78218323D01*
X131326204Y-78237041D01*
X131299254Y-78253194D01*
X131270850Y-78266628D01*
X131241266Y-78277213D01*
X131210787Y-78284848D01*
X131179707Y-78289458D01*
X131148324Y-78291000D01*
X129963676Y-78291000D01*
X129932293Y-78289458D01*
X129901213Y-78284848D01*
X129870734Y-78277213D01*
X129841150Y-78266628D01*
X129812746Y-78253194D01*
X129785796Y-78237041D01*
X129760558Y-78218323D01*
X129737277Y-78197223D01*
X129716177Y-78173942D01*
X129697459Y-78148704D01*
X129681306Y-78121754D01*
X129667872Y-78093350D01*
X129657287Y-78063766D01*
X129649652Y-78033287D01*
X129645042Y-78002207D01*
X129643500Y-77970824D01*
X129643500Y-76461176D01*
X129645042Y-76429793D01*
X129649652Y-76398713D01*
X129657287Y-76368234D01*
X129667872Y-76338650D01*
X129681306Y-76310246D01*
X129697459Y-76283296D01*
X129716177Y-76258058D01*
X129737277Y-76234777D01*
X129760558Y-76213677D01*
X129785796Y-76194959D01*
X129812746Y-76178806D01*
X129841150Y-76165372D01*
X129870734Y-76154787D01*
X129901213Y-76147152D01*
X129932293Y-76142542D01*
X129963676Y-76141000D01*
X131148324Y-76141000D01*
X131179707Y-76142542D01*
X131179707Y-76142542D01*
G37*
D19*
X130556000Y-77216000D03*
G04 #@! TD*
D12*
G04 #@! TO.C,C5*
G36*
X131143207Y-79190542D02*
X131174287Y-79195152D01*
X131204766Y-79202787D01*
X131234350Y-79213372D01*
X131262754Y-79226806D01*
X131289704Y-79242959D01*
X131314942Y-79261677D01*
X131338223Y-79282777D01*
X131359323Y-79306058D01*
X131378041Y-79331296D01*
X131394194Y-79358246D01*
X131407628Y-79386650D01*
X131418213Y-79416234D01*
X131425848Y-79446713D01*
X131430458Y-79477793D01*
X131432000Y-79509176D01*
X131432000Y-81018824D01*
X131430458Y-81050207D01*
X131425848Y-81081287D01*
X131418213Y-81111766D01*
X131407628Y-81141350D01*
X131394194Y-81169754D01*
X131378041Y-81196704D01*
X131359323Y-81221942D01*
X131338223Y-81245223D01*
X131314942Y-81266323D01*
X131289704Y-81285041D01*
X131262754Y-81301194D01*
X131234350Y-81314628D01*
X131204766Y-81325213D01*
X131174287Y-81332848D01*
X131143207Y-81337458D01*
X131111824Y-81339000D01*
X129927176Y-81339000D01*
X129895793Y-81337458D01*
X129864713Y-81332848D01*
X129834234Y-81325213D01*
X129804650Y-81314628D01*
X129776246Y-81301194D01*
X129749296Y-81285041D01*
X129724058Y-81266323D01*
X129700777Y-81245223D01*
X129679677Y-81221942D01*
X129660959Y-81196704D01*
X129644806Y-81169754D01*
X129631372Y-81141350D01*
X129620787Y-81111766D01*
X129613152Y-81081287D01*
X129608542Y-81050207D01*
X129607000Y-81018824D01*
X129607000Y-79509176D01*
X129608542Y-79477793D01*
X129613152Y-79446713D01*
X129620787Y-79416234D01*
X129631372Y-79386650D01*
X129644806Y-79358246D01*
X129660959Y-79331296D01*
X129679677Y-79306058D01*
X129700777Y-79282777D01*
X129724058Y-79261677D01*
X129749296Y-79242959D01*
X129776246Y-79226806D01*
X129804650Y-79213372D01*
X129834234Y-79202787D01*
X129864713Y-79195152D01*
X129895793Y-79190542D01*
X129927176Y-79189000D01*
X131111824Y-79189000D01*
X131143207Y-79190542D01*
X131143207Y-79190542D01*
G37*
D19*
X130519500Y-80264000D03*
D12*
G36*
X128168207Y-79190542D02*
X128199287Y-79195152D01*
X128229766Y-79202787D01*
X128259350Y-79213372D01*
X128287754Y-79226806D01*
X128314704Y-79242959D01*
X128339942Y-79261677D01*
X128363223Y-79282777D01*
X128384323Y-79306058D01*
X128403041Y-79331296D01*
X128419194Y-79358246D01*
X128432628Y-79386650D01*
X128443213Y-79416234D01*
X128450848Y-79446713D01*
X128455458Y-79477793D01*
X128457000Y-79509176D01*
X128457000Y-81018824D01*
X128455458Y-81050207D01*
X128450848Y-81081287D01*
X128443213Y-81111766D01*
X128432628Y-81141350D01*
X128419194Y-81169754D01*
X128403041Y-81196704D01*
X128384323Y-81221942D01*
X128363223Y-81245223D01*
X128339942Y-81266323D01*
X128314704Y-81285041D01*
X128287754Y-81301194D01*
X128259350Y-81314628D01*
X128229766Y-81325213D01*
X128199287Y-81332848D01*
X128168207Y-81337458D01*
X128136824Y-81339000D01*
X126952176Y-81339000D01*
X126920793Y-81337458D01*
X126889713Y-81332848D01*
X126859234Y-81325213D01*
X126829650Y-81314628D01*
X126801246Y-81301194D01*
X126774296Y-81285041D01*
X126749058Y-81266323D01*
X126725777Y-81245223D01*
X126704677Y-81221942D01*
X126685959Y-81196704D01*
X126669806Y-81169754D01*
X126656372Y-81141350D01*
X126645787Y-81111766D01*
X126638152Y-81081287D01*
X126633542Y-81050207D01*
X126632000Y-81018824D01*
X126632000Y-79509176D01*
X126633542Y-79477793D01*
X126638152Y-79446713D01*
X126645787Y-79416234D01*
X126656372Y-79386650D01*
X126669806Y-79358246D01*
X126685959Y-79331296D01*
X126704677Y-79306058D01*
X126725777Y-79282777D01*
X126749058Y-79261677D01*
X126774296Y-79242959D01*
X126801246Y-79226806D01*
X126829650Y-79213372D01*
X126859234Y-79202787D01*
X126889713Y-79195152D01*
X126920793Y-79190542D01*
X126952176Y-79189000D01*
X128136824Y-79189000D01*
X128168207Y-79190542D01*
X128168207Y-79190542D01*
G37*
D19*
X127544500Y-80264000D03*
G04 #@! TD*
D12*
G04 #@! TO.C,C6*
G36*
X128204707Y-73602542D02*
X128235787Y-73607152D01*
X128266266Y-73614787D01*
X128295850Y-73625372D01*
X128324254Y-73638806D01*
X128351204Y-73654959D01*
X128376442Y-73673677D01*
X128399723Y-73694777D01*
X128420823Y-73718058D01*
X128439541Y-73743296D01*
X128455694Y-73770246D01*
X128469128Y-73798650D01*
X128479713Y-73828234D01*
X128487348Y-73858713D01*
X128491958Y-73889793D01*
X128493500Y-73921176D01*
X128493500Y-75430824D01*
X128491958Y-75462207D01*
X128487348Y-75493287D01*
X128479713Y-75523766D01*
X128469128Y-75553350D01*
X128455694Y-75581754D01*
X128439541Y-75608704D01*
X128420823Y-75633942D01*
X128399723Y-75657223D01*
X128376442Y-75678323D01*
X128351204Y-75697041D01*
X128324254Y-75713194D01*
X128295850Y-75726628D01*
X128266266Y-75737213D01*
X128235787Y-75744848D01*
X128204707Y-75749458D01*
X128173324Y-75751000D01*
X126988676Y-75751000D01*
X126957293Y-75749458D01*
X126926213Y-75744848D01*
X126895734Y-75737213D01*
X126866150Y-75726628D01*
X126837746Y-75713194D01*
X126810796Y-75697041D01*
X126785558Y-75678323D01*
X126762277Y-75657223D01*
X126741177Y-75633942D01*
X126722459Y-75608704D01*
X126706306Y-75581754D01*
X126692872Y-75553350D01*
X126682287Y-75523766D01*
X126674652Y-75493287D01*
X126670042Y-75462207D01*
X126668500Y-75430824D01*
X126668500Y-73921176D01*
X126670042Y-73889793D01*
X126674652Y-73858713D01*
X126682287Y-73828234D01*
X126692872Y-73798650D01*
X126706306Y-73770246D01*
X126722459Y-73743296D01*
X126741177Y-73718058D01*
X126762277Y-73694777D01*
X126785558Y-73673677D01*
X126810796Y-73654959D01*
X126837746Y-73638806D01*
X126866150Y-73625372D01*
X126895734Y-73614787D01*
X126926213Y-73607152D01*
X126957293Y-73602542D01*
X126988676Y-73601000D01*
X128173324Y-73601000D01*
X128204707Y-73602542D01*
X128204707Y-73602542D01*
G37*
D19*
X127581000Y-74676000D03*
D12*
G36*
X131179707Y-73602542D02*
X131210787Y-73607152D01*
X131241266Y-73614787D01*
X131270850Y-73625372D01*
X131299254Y-73638806D01*
X131326204Y-73654959D01*
X131351442Y-73673677D01*
X131374723Y-73694777D01*
X131395823Y-73718058D01*
X131414541Y-73743296D01*
X131430694Y-73770246D01*
X131444128Y-73798650D01*
X131454713Y-73828234D01*
X131462348Y-73858713D01*
X131466958Y-73889793D01*
X131468500Y-73921176D01*
X131468500Y-75430824D01*
X131466958Y-75462207D01*
X131462348Y-75493287D01*
X131454713Y-75523766D01*
X131444128Y-75553350D01*
X131430694Y-75581754D01*
X131414541Y-75608704D01*
X131395823Y-75633942D01*
X131374723Y-75657223D01*
X131351442Y-75678323D01*
X131326204Y-75697041D01*
X131299254Y-75713194D01*
X131270850Y-75726628D01*
X131241266Y-75737213D01*
X131210787Y-75744848D01*
X131179707Y-75749458D01*
X131148324Y-75751000D01*
X129963676Y-75751000D01*
X129932293Y-75749458D01*
X129901213Y-75744848D01*
X129870734Y-75737213D01*
X129841150Y-75726628D01*
X129812746Y-75713194D01*
X129785796Y-75697041D01*
X129760558Y-75678323D01*
X129737277Y-75657223D01*
X129716177Y-75633942D01*
X129697459Y-75608704D01*
X129681306Y-75581754D01*
X129667872Y-75553350D01*
X129657287Y-75523766D01*
X129649652Y-75493287D01*
X129645042Y-75462207D01*
X129643500Y-75430824D01*
X129643500Y-73921176D01*
X129645042Y-73889793D01*
X129649652Y-73858713D01*
X129657287Y-73828234D01*
X129667872Y-73798650D01*
X129681306Y-73770246D01*
X129697459Y-73743296D01*
X129716177Y-73718058D01*
X129737277Y-73694777D01*
X129760558Y-73673677D01*
X129785796Y-73654959D01*
X129812746Y-73638806D01*
X129841150Y-73625372D01*
X129870734Y-73614787D01*
X129901213Y-73607152D01*
X129932293Y-73602542D01*
X129963676Y-73601000D01*
X131148324Y-73601000D01*
X131179707Y-73602542D01*
X131179707Y-73602542D01*
G37*
D19*
X130556000Y-74676000D03*
G04 #@! TD*
D14*
G04 #@! TO.C,J2*
X160223200Y-125552200D03*
D15*
X160223200Y-128092200D03*
X157683200Y-125552200D03*
X157683200Y-128092200D03*
X155143200Y-125552200D03*
X155143200Y-128092200D03*
X152603200Y-125552200D03*
X152603200Y-128092200D03*
X150063200Y-125552200D03*
X150063200Y-128092200D03*
G04 #@! TD*
D20*
G04 #@! TO.C,J3*
X127635000Y-116205000D03*
D21*
X131835000Y-116205000D03*
D22*
X136035000Y-116205000D03*
D23*
X136035000Y-123505000D03*
X127635000Y-123505000D03*
G04 #@! TD*
D20*
G04 #@! TO.C,J5*
X202565000Y-116205000D03*
D21*
X198365000Y-116205000D03*
D22*
X194165000Y-116205000D03*
D23*
X194165000Y-123505000D03*
X202565000Y-123505000D03*
G04 #@! TD*
D14*
G04 #@! TO.C,J6*
X193040000Y-68580000D03*
D15*
X195580000Y-68580000D03*
X193040000Y-71120000D03*
X195580000Y-71120000D03*
X193040000Y-73660000D03*
X195580000Y-73660000D03*
G04 #@! TD*
D14*
G04 #@! TO.C,J9*
X138684000Y-62484000D03*
D15*
X136144000Y-62484000D03*
X138684000Y-65024000D03*
X136144000Y-65024000D03*
G04 #@! TD*
D24*
G04 #@! TO.C,Q1*
X151765000Y-115570000D03*
D25*
X151765000Y-113030000D03*
X151765000Y-110490000D03*
G04 #@! TD*
D24*
G04 #@! TO.C,Q2*
X161290000Y-115570000D03*
D25*
X161290000Y-113030000D03*
X161290000Y-110490000D03*
G04 #@! TD*
D24*
G04 #@! TO.C,Q3*
X151765000Y-102870000D03*
D25*
X151765000Y-100330000D03*
X151765000Y-97790000D03*
G04 #@! TD*
G04 #@! TO.C,Q4*
X161290000Y-97790000D03*
X161290000Y-100330000D03*
D24*
X161290000Y-102870000D03*
G04 #@! TD*
G04 #@! TO.C,Q5*
X151765000Y-90170000D03*
D25*
X151765000Y-87630000D03*
X151765000Y-85090000D03*
G04 #@! TD*
G04 #@! TO.C,Q6*
X161290000Y-85090000D03*
X161290000Y-87630000D03*
D24*
X161290000Y-90170000D03*
G04 #@! TD*
D12*
G04 #@! TO.C,R2*
G36*
X157704359Y-67821520D02*
X157734993Y-67826064D01*
X157765034Y-67833588D01*
X157794192Y-67844021D01*
X157822188Y-67857262D01*
X157848750Y-67873183D01*
X157873625Y-67891632D01*
X157896571Y-67912429D01*
X157917368Y-67935375D01*
X157935817Y-67960250D01*
X157951738Y-67986812D01*
X157964979Y-68014808D01*
X157975412Y-68043966D01*
X157982936Y-68074007D01*
X157987480Y-68104641D01*
X157989000Y-68135572D01*
X157989000Y-69429428D01*
X157987480Y-69460359D01*
X157982936Y-69490993D01*
X157975412Y-69521034D01*
X157964979Y-69550192D01*
X157951738Y-69578188D01*
X157935817Y-69604750D01*
X157917368Y-69629625D01*
X157896571Y-69652571D01*
X157873625Y-69673368D01*
X157848750Y-69691817D01*
X157822188Y-69707738D01*
X157794192Y-69720979D01*
X157765034Y-69731412D01*
X157734993Y-69738936D01*
X157704359Y-69743480D01*
X157673428Y-69745000D01*
X155254572Y-69745000D01*
X155223641Y-69743480D01*
X155193007Y-69738936D01*
X155162966Y-69731412D01*
X155133808Y-69720979D01*
X155105812Y-69707738D01*
X155079250Y-69691817D01*
X155054375Y-69673368D01*
X155031429Y-69652571D01*
X155010632Y-69629625D01*
X154992183Y-69604750D01*
X154976262Y-69578188D01*
X154963021Y-69550192D01*
X154952588Y-69521034D01*
X154945064Y-69490993D01*
X154940520Y-69460359D01*
X154939000Y-69429428D01*
X154939000Y-68135572D01*
X154940520Y-68104641D01*
X154945064Y-68074007D01*
X154952588Y-68043966D01*
X154963021Y-68014808D01*
X154976262Y-67986812D01*
X154992183Y-67960250D01*
X155010632Y-67935375D01*
X155031429Y-67912429D01*
X155054375Y-67891632D01*
X155079250Y-67873183D01*
X155105812Y-67857262D01*
X155133808Y-67844021D01*
X155162966Y-67833588D01*
X155193007Y-67826064D01*
X155223641Y-67821520D01*
X155254572Y-67820000D01*
X157673428Y-67820000D01*
X157704359Y-67821520D01*
X157704359Y-67821520D01*
G37*
D13*
X156464000Y-68782500D03*
D12*
G36*
X157704359Y-72496520D02*
X157734993Y-72501064D01*
X157765034Y-72508588D01*
X157794192Y-72519021D01*
X157822188Y-72532262D01*
X157848750Y-72548183D01*
X157873625Y-72566632D01*
X157896571Y-72587429D01*
X157917368Y-72610375D01*
X157935817Y-72635250D01*
X157951738Y-72661812D01*
X157964979Y-72689808D01*
X157975412Y-72718966D01*
X157982936Y-72749007D01*
X157987480Y-72779641D01*
X157989000Y-72810572D01*
X157989000Y-74104428D01*
X157987480Y-74135359D01*
X157982936Y-74165993D01*
X157975412Y-74196034D01*
X157964979Y-74225192D01*
X157951738Y-74253188D01*
X157935817Y-74279750D01*
X157917368Y-74304625D01*
X157896571Y-74327571D01*
X157873625Y-74348368D01*
X157848750Y-74366817D01*
X157822188Y-74382738D01*
X157794192Y-74395979D01*
X157765034Y-74406412D01*
X157734993Y-74413936D01*
X157704359Y-74418480D01*
X157673428Y-74420000D01*
X155254572Y-74420000D01*
X155223641Y-74418480D01*
X155193007Y-74413936D01*
X155162966Y-74406412D01*
X155133808Y-74395979D01*
X155105812Y-74382738D01*
X155079250Y-74366817D01*
X155054375Y-74348368D01*
X155031429Y-74327571D01*
X155010632Y-74304625D01*
X154992183Y-74279750D01*
X154976262Y-74253188D01*
X154963021Y-74225192D01*
X154952588Y-74196034D01*
X154945064Y-74165993D01*
X154940520Y-74135359D01*
X154939000Y-74104428D01*
X154939000Y-72810572D01*
X154940520Y-72779641D01*
X154945064Y-72749007D01*
X154952588Y-72718966D01*
X154963021Y-72689808D01*
X154976262Y-72661812D01*
X154992183Y-72635250D01*
X155010632Y-72610375D01*
X155031429Y-72587429D01*
X155054375Y-72566632D01*
X155079250Y-72548183D01*
X155105812Y-72532262D01*
X155133808Y-72519021D01*
X155162966Y-72508588D01*
X155193007Y-72501064D01*
X155223641Y-72496520D01*
X155254572Y-72495000D01*
X157673428Y-72495000D01*
X157704359Y-72496520D01*
X157704359Y-72496520D01*
G37*
D13*
X156464000Y-73457500D03*
G04 #@! TD*
D12*
G04 #@! TO.C,R3*
G36*
X162276359Y-72496520D02*
X162306993Y-72501064D01*
X162337034Y-72508588D01*
X162366192Y-72519021D01*
X162394188Y-72532262D01*
X162420750Y-72548183D01*
X162445625Y-72566632D01*
X162468571Y-72587429D01*
X162489368Y-72610375D01*
X162507817Y-72635250D01*
X162523738Y-72661812D01*
X162536979Y-72689808D01*
X162547412Y-72718966D01*
X162554936Y-72749007D01*
X162559480Y-72779641D01*
X162561000Y-72810572D01*
X162561000Y-74104428D01*
X162559480Y-74135359D01*
X162554936Y-74165993D01*
X162547412Y-74196034D01*
X162536979Y-74225192D01*
X162523738Y-74253188D01*
X162507817Y-74279750D01*
X162489368Y-74304625D01*
X162468571Y-74327571D01*
X162445625Y-74348368D01*
X162420750Y-74366817D01*
X162394188Y-74382738D01*
X162366192Y-74395979D01*
X162337034Y-74406412D01*
X162306993Y-74413936D01*
X162276359Y-74418480D01*
X162245428Y-74420000D01*
X159826572Y-74420000D01*
X159795641Y-74418480D01*
X159765007Y-74413936D01*
X159734966Y-74406412D01*
X159705808Y-74395979D01*
X159677812Y-74382738D01*
X159651250Y-74366817D01*
X159626375Y-74348368D01*
X159603429Y-74327571D01*
X159582632Y-74304625D01*
X159564183Y-74279750D01*
X159548262Y-74253188D01*
X159535021Y-74225192D01*
X159524588Y-74196034D01*
X159517064Y-74165993D01*
X159512520Y-74135359D01*
X159511000Y-74104428D01*
X159511000Y-72810572D01*
X159512520Y-72779641D01*
X159517064Y-72749007D01*
X159524588Y-72718966D01*
X159535021Y-72689808D01*
X159548262Y-72661812D01*
X159564183Y-72635250D01*
X159582632Y-72610375D01*
X159603429Y-72587429D01*
X159626375Y-72566632D01*
X159651250Y-72548183D01*
X159677812Y-72532262D01*
X159705808Y-72519021D01*
X159734966Y-72508588D01*
X159765007Y-72501064D01*
X159795641Y-72496520D01*
X159826572Y-72495000D01*
X162245428Y-72495000D01*
X162276359Y-72496520D01*
X162276359Y-72496520D01*
G37*
D13*
X161036000Y-73457500D03*
D12*
G36*
X162276359Y-67821520D02*
X162306993Y-67826064D01*
X162337034Y-67833588D01*
X162366192Y-67844021D01*
X162394188Y-67857262D01*
X162420750Y-67873183D01*
X162445625Y-67891632D01*
X162468571Y-67912429D01*
X162489368Y-67935375D01*
X162507817Y-67960250D01*
X162523738Y-67986812D01*
X162536979Y-68014808D01*
X162547412Y-68043966D01*
X162554936Y-68074007D01*
X162559480Y-68104641D01*
X162561000Y-68135572D01*
X162561000Y-69429428D01*
X162559480Y-69460359D01*
X162554936Y-69490993D01*
X162547412Y-69521034D01*
X162536979Y-69550192D01*
X162523738Y-69578188D01*
X162507817Y-69604750D01*
X162489368Y-69629625D01*
X162468571Y-69652571D01*
X162445625Y-69673368D01*
X162420750Y-69691817D01*
X162394188Y-69707738D01*
X162366192Y-69720979D01*
X162337034Y-69731412D01*
X162306993Y-69738936D01*
X162276359Y-69743480D01*
X162245428Y-69745000D01*
X159826572Y-69745000D01*
X159795641Y-69743480D01*
X159765007Y-69738936D01*
X159734966Y-69731412D01*
X159705808Y-69720979D01*
X159677812Y-69707738D01*
X159651250Y-69691817D01*
X159626375Y-69673368D01*
X159603429Y-69652571D01*
X159582632Y-69629625D01*
X159564183Y-69604750D01*
X159548262Y-69578188D01*
X159535021Y-69550192D01*
X159524588Y-69521034D01*
X159517064Y-69490993D01*
X159512520Y-69460359D01*
X159511000Y-69429428D01*
X159511000Y-68135572D01*
X159512520Y-68104641D01*
X159517064Y-68074007D01*
X159524588Y-68043966D01*
X159535021Y-68014808D01*
X159548262Y-67986812D01*
X159564183Y-67960250D01*
X159582632Y-67935375D01*
X159603429Y-67912429D01*
X159626375Y-67891632D01*
X159651250Y-67873183D01*
X159677812Y-67857262D01*
X159705808Y-67844021D01*
X159734966Y-67833588D01*
X159765007Y-67826064D01*
X159795641Y-67821520D01*
X159826572Y-67820000D01*
X162245428Y-67820000D01*
X162276359Y-67821520D01*
X162276359Y-67821520D01*
G37*
D13*
X161036000Y-68782500D03*
G04 #@! TD*
D12*
G04 #@! TO.C,R4*
G36*
X166848359Y-72496520D02*
X166878993Y-72501064D01*
X166909034Y-72508588D01*
X166938192Y-72519021D01*
X166966188Y-72532262D01*
X166992750Y-72548183D01*
X167017625Y-72566632D01*
X167040571Y-72587429D01*
X167061368Y-72610375D01*
X167079817Y-72635250D01*
X167095738Y-72661812D01*
X167108979Y-72689808D01*
X167119412Y-72718966D01*
X167126936Y-72749007D01*
X167131480Y-72779641D01*
X167133000Y-72810572D01*
X167133000Y-74104428D01*
X167131480Y-74135359D01*
X167126936Y-74165993D01*
X167119412Y-74196034D01*
X167108979Y-74225192D01*
X167095738Y-74253188D01*
X167079817Y-74279750D01*
X167061368Y-74304625D01*
X167040571Y-74327571D01*
X167017625Y-74348368D01*
X166992750Y-74366817D01*
X166966188Y-74382738D01*
X166938192Y-74395979D01*
X166909034Y-74406412D01*
X166878993Y-74413936D01*
X166848359Y-74418480D01*
X166817428Y-74420000D01*
X164398572Y-74420000D01*
X164367641Y-74418480D01*
X164337007Y-74413936D01*
X164306966Y-74406412D01*
X164277808Y-74395979D01*
X164249812Y-74382738D01*
X164223250Y-74366817D01*
X164198375Y-74348368D01*
X164175429Y-74327571D01*
X164154632Y-74304625D01*
X164136183Y-74279750D01*
X164120262Y-74253188D01*
X164107021Y-74225192D01*
X164096588Y-74196034D01*
X164089064Y-74165993D01*
X164084520Y-74135359D01*
X164083000Y-74104428D01*
X164083000Y-72810572D01*
X164084520Y-72779641D01*
X164089064Y-72749007D01*
X164096588Y-72718966D01*
X164107021Y-72689808D01*
X164120262Y-72661812D01*
X164136183Y-72635250D01*
X164154632Y-72610375D01*
X164175429Y-72587429D01*
X164198375Y-72566632D01*
X164223250Y-72548183D01*
X164249812Y-72532262D01*
X164277808Y-72519021D01*
X164306966Y-72508588D01*
X164337007Y-72501064D01*
X164367641Y-72496520D01*
X164398572Y-72495000D01*
X166817428Y-72495000D01*
X166848359Y-72496520D01*
X166848359Y-72496520D01*
G37*
D13*
X165608000Y-73457500D03*
D12*
G36*
X166848359Y-67821520D02*
X166878993Y-67826064D01*
X166909034Y-67833588D01*
X166938192Y-67844021D01*
X166966188Y-67857262D01*
X166992750Y-67873183D01*
X167017625Y-67891632D01*
X167040571Y-67912429D01*
X167061368Y-67935375D01*
X167079817Y-67960250D01*
X167095738Y-67986812D01*
X167108979Y-68014808D01*
X167119412Y-68043966D01*
X167126936Y-68074007D01*
X167131480Y-68104641D01*
X167133000Y-68135572D01*
X167133000Y-69429428D01*
X167131480Y-69460359D01*
X167126936Y-69490993D01*
X167119412Y-69521034D01*
X167108979Y-69550192D01*
X167095738Y-69578188D01*
X167079817Y-69604750D01*
X167061368Y-69629625D01*
X167040571Y-69652571D01*
X167017625Y-69673368D01*
X166992750Y-69691817D01*
X166966188Y-69707738D01*
X166938192Y-69720979D01*
X166909034Y-69731412D01*
X166878993Y-69738936D01*
X166848359Y-69743480D01*
X166817428Y-69745000D01*
X164398572Y-69745000D01*
X164367641Y-69743480D01*
X164337007Y-69738936D01*
X164306966Y-69731412D01*
X164277808Y-69720979D01*
X164249812Y-69707738D01*
X164223250Y-69691817D01*
X164198375Y-69673368D01*
X164175429Y-69652571D01*
X164154632Y-69629625D01*
X164136183Y-69604750D01*
X164120262Y-69578188D01*
X164107021Y-69550192D01*
X164096588Y-69521034D01*
X164089064Y-69490993D01*
X164084520Y-69460359D01*
X164083000Y-69429428D01*
X164083000Y-68135572D01*
X164084520Y-68104641D01*
X164089064Y-68074007D01*
X164096588Y-68043966D01*
X164107021Y-68014808D01*
X164120262Y-67986812D01*
X164136183Y-67960250D01*
X164154632Y-67935375D01*
X164175429Y-67912429D01*
X164198375Y-67891632D01*
X164223250Y-67873183D01*
X164249812Y-67857262D01*
X164277808Y-67844021D01*
X164306966Y-67833588D01*
X164337007Y-67826064D01*
X164367641Y-67821520D01*
X164398572Y-67820000D01*
X166817428Y-67820000D01*
X166848359Y-67821520D01*
X166848359Y-67821520D01*
G37*
D13*
X165608000Y-68782500D03*
G04 #@! TD*
D12*
G04 #@! TO.C,R5*
G36*
X171420359Y-72496520D02*
X171450993Y-72501064D01*
X171481034Y-72508588D01*
X171510192Y-72519021D01*
X171538188Y-72532262D01*
X171564750Y-72548183D01*
X171589625Y-72566632D01*
X171612571Y-72587429D01*
X171633368Y-72610375D01*
X171651817Y-72635250D01*
X171667738Y-72661812D01*
X171680979Y-72689808D01*
X171691412Y-72718966D01*
X171698936Y-72749007D01*
X171703480Y-72779641D01*
X171705000Y-72810572D01*
X171705000Y-74104428D01*
X171703480Y-74135359D01*
X171698936Y-74165993D01*
X171691412Y-74196034D01*
X171680979Y-74225192D01*
X171667738Y-74253188D01*
X171651817Y-74279750D01*
X171633368Y-74304625D01*
X171612571Y-74327571D01*
X171589625Y-74348368D01*
X171564750Y-74366817D01*
X171538188Y-74382738D01*
X171510192Y-74395979D01*
X171481034Y-74406412D01*
X171450993Y-74413936D01*
X171420359Y-74418480D01*
X171389428Y-74420000D01*
X168970572Y-74420000D01*
X168939641Y-74418480D01*
X168909007Y-74413936D01*
X168878966Y-74406412D01*
X168849808Y-74395979D01*
X168821812Y-74382738D01*
X168795250Y-74366817D01*
X168770375Y-74348368D01*
X168747429Y-74327571D01*
X168726632Y-74304625D01*
X168708183Y-74279750D01*
X168692262Y-74253188D01*
X168679021Y-74225192D01*
X168668588Y-74196034D01*
X168661064Y-74165993D01*
X168656520Y-74135359D01*
X168655000Y-74104428D01*
X168655000Y-72810572D01*
X168656520Y-72779641D01*
X168661064Y-72749007D01*
X168668588Y-72718966D01*
X168679021Y-72689808D01*
X168692262Y-72661812D01*
X168708183Y-72635250D01*
X168726632Y-72610375D01*
X168747429Y-72587429D01*
X168770375Y-72566632D01*
X168795250Y-72548183D01*
X168821812Y-72532262D01*
X168849808Y-72519021D01*
X168878966Y-72508588D01*
X168909007Y-72501064D01*
X168939641Y-72496520D01*
X168970572Y-72495000D01*
X171389428Y-72495000D01*
X171420359Y-72496520D01*
X171420359Y-72496520D01*
G37*
D13*
X170180000Y-73457500D03*
D12*
G36*
X171420359Y-67821520D02*
X171450993Y-67826064D01*
X171481034Y-67833588D01*
X171510192Y-67844021D01*
X171538188Y-67857262D01*
X171564750Y-67873183D01*
X171589625Y-67891632D01*
X171612571Y-67912429D01*
X171633368Y-67935375D01*
X171651817Y-67960250D01*
X171667738Y-67986812D01*
X171680979Y-68014808D01*
X171691412Y-68043966D01*
X171698936Y-68074007D01*
X171703480Y-68104641D01*
X171705000Y-68135572D01*
X171705000Y-69429428D01*
X171703480Y-69460359D01*
X171698936Y-69490993D01*
X171691412Y-69521034D01*
X171680979Y-69550192D01*
X171667738Y-69578188D01*
X171651817Y-69604750D01*
X171633368Y-69629625D01*
X171612571Y-69652571D01*
X171589625Y-69673368D01*
X171564750Y-69691817D01*
X171538188Y-69707738D01*
X171510192Y-69720979D01*
X171481034Y-69731412D01*
X171450993Y-69738936D01*
X171420359Y-69743480D01*
X171389428Y-69745000D01*
X168970572Y-69745000D01*
X168939641Y-69743480D01*
X168909007Y-69738936D01*
X168878966Y-69731412D01*
X168849808Y-69720979D01*
X168821812Y-69707738D01*
X168795250Y-69691817D01*
X168770375Y-69673368D01*
X168747429Y-69652571D01*
X168726632Y-69629625D01*
X168708183Y-69604750D01*
X168692262Y-69578188D01*
X168679021Y-69550192D01*
X168668588Y-69521034D01*
X168661064Y-69490993D01*
X168656520Y-69460359D01*
X168655000Y-69429428D01*
X168655000Y-68135572D01*
X168656520Y-68104641D01*
X168661064Y-68074007D01*
X168668588Y-68043966D01*
X168679021Y-68014808D01*
X168692262Y-67986812D01*
X168708183Y-67960250D01*
X168726632Y-67935375D01*
X168747429Y-67912429D01*
X168770375Y-67891632D01*
X168795250Y-67873183D01*
X168821812Y-67857262D01*
X168849808Y-67844021D01*
X168878966Y-67833588D01*
X168909007Y-67826064D01*
X168939641Y-67821520D01*
X168970572Y-67820000D01*
X171389428Y-67820000D01*
X171420359Y-67821520D01*
X171420359Y-67821520D01*
G37*
D13*
X170180000Y-68782500D03*
G04 #@! TD*
D12*
G04 #@! TO.C,R7*
G36*
X188184359Y-103790020D02*
X188214993Y-103794564D01*
X188245034Y-103802088D01*
X188274192Y-103812521D01*
X188302188Y-103825762D01*
X188328750Y-103841683D01*
X188353625Y-103860132D01*
X188376571Y-103880929D01*
X188397368Y-103903875D01*
X188415817Y-103928750D01*
X188431738Y-103955312D01*
X188444979Y-103983308D01*
X188455412Y-104012466D01*
X188462936Y-104042507D01*
X188467480Y-104073141D01*
X188469000Y-104104072D01*
X188469000Y-105397928D01*
X188467480Y-105428859D01*
X188462936Y-105459493D01*
X188455412Y-105489534D01*
X188444979Y-105518692D01*
X188431738Y-105546688D01*
X188415817Y-105573250D01*
X188397368Y-105598125D01*
X188376571Y-105621071D01*
X188353625Y-105641868D01*
X188328750Y-105660317D01*
X188302188Y-105676238D01*
X188274192Y-105689479D01*
X188245034Y-105699912D01*
X188214993Y-105707436D01*
X188184359Y-105711980D01*
X188153428Y-105713500D01*
X185734572Y-105713500D01*
X185703641Y-105711980D01*
X185673007Y-105707436D01*
X185642966Y-105699912D01*
X185613808Y-105689479D01*
X185585812Y-105676238D01*
X185559250Y-105660317D01*
X185534375Y-105641868D01*
X185511429Y-105621071D01*
X185490632Y-105598125D01*
X185472183Y-105573250D01*
X185456262Y-105546688D01*
X185443021Y-105518692D01*
X185432588Y-105489534D01*
X185425064Y-105459493D01*
X185420520Y-105428859D01*
X185419000Y-105397928D01*
X185419000Y-104104072D01*
X185420520Y-104073141D01*
X185425064Y-104042507D01*
X185432588Y-104012466D01*
X185443021Y-103983308D01*
X185456262Y-103955312D01*
X185472183Y-103928750D01*
X185490632Y-103903875D01*
X185511429Y-103880929D01*
X185534375Y-103860132D01*
X185559250Y-103841683D01*
X185585812Y-103825762D01*
X185613808Y-103812521D01*
X185642966Y-103802088D01*
X185673007Y-103794564D01*
X185703641Y-103790020D01*
X185734572Y-103788500D01*
X188153428Y-103788500D01*
X188184359Y-103790020D01*
X188184359Y-103790020D01*
G37*
D13*
X186944000Y-104751000D03*
D12*
G36*
X188184359Y-99115020D02*
X188214993Y-99119564D01*
X188245034Y-99127088D01*
X188274192Y-99137521D01*
X188302188Y-99150762D01*
X188328750Y-99166683D01*
X188353625Y-99185132D01*
X188376571Y-99205929D01*
X188397368Y-99228875D01*
X188415817Y-99253750D01*
X188431738Y-99280312D01*
X188444979Y-99308308D01*
X188455412Y-99337466D01*
X188462936Y-99367507D01*
X188467480Y-99398141D01*
X188469000Y-99429072D01*
X188469000Y-100722928D01*
X188467480Y-100753859D01*
X188462936Y-100784493D01*
X188455412Y-100814534D01*
X188444979Y-100843692D01*
X188431738Y-100871688D01*
X188415817Y-100898250D01*
X188397368Y-100923125D01*
X188376571Y-100946071D01*
X188353625Y-100966868D01*
X188328750Y-100985317D01*
X188302188Y-101001238D01*
X188274192Y-101014479D01*
X188245034Y-101024912D01*
X188214993Y-101032436D01*
X188184359Y-101036980D01*
X188153428Y-101038500D01*
X185734572Y-101038500D01*
X185703641Y-101036980D01*
X185673007Y-101032436D01*
X185642966Y-101024912D01*
X185613808Y-101014479D01*
X185585812Y-101001238D01*
X185559250Y-100985317D01*
X185534375Y-100966868D01*
X185511429Y-100946071D01*
X185490632Y-100923125D01*
X185472183Y-100898250D01*
X185456262Y-100871688D01*
X185443021Y-100843692D01*
X185432588Y-100814534D01*
X185425064Y-100784493D01*
X185420520Y-100753859D01*
X185419000Y-100722928D01*
X185419000Y-99429072D01*
X185420520Y-99398141D01*
X185425064Y-99367507D01*
X185432588Y-99337466D01*
X185443021Y-99308308D01*
X185456262Y-99280312D01*
X185472183Y-99253750D01*
X185490632Y-99228875D01*
X185511429Y-99205929D01*
X185534375Y-99185132D01*
X185559250Y-99166683D01*
X185585812Y-99150762D01*
X185613808Y-99137521D01*
X185642966Y-99127088D01*
X185673007Y-99119564D01*
X185703641Y-99115020D01*
X185734572Y-99113500D01*
X188153428Y-99113500D01*
X188184359Y-99115020D01*
X188184359Y-99115020D01*
G37*
D13*
X186944000Y-100076000D03*
G04 #@! TD*
D12*
G04 #@! TO.C,R8*
G36*
X188184359Y-96678020D02*
X188214993Y-96682564D01*
X188245034Y-96690088D01*
X188274192Y-96700521D01*
X188302188Y-96713762D01*
X188328750Y-96729683D01*
X188353625Y-96748132D01*
X188376571Y-96768929D01*
X188397368Y-96791875D01*
X188415817Y-96816750D01*
X188431738Y-96843312D01*
X188444979Y-96871308D01*
X188455412Y-96900466D01*
X188462936Y-96930507D01*
X188467480Y-96961141D01*
X188469000Y-96992072D01*
X188469000Y-98285928D01*
X188467480Y-98316859D01*
X188462936Y-98347493D01*
X188455412Y-98377534D01*
X188444979Y-98406692D01*
X188431738Y-98434688D01*
X188415817Y-98461250D01*
X188397368Y-98486125D01*
X188376571Y-98509071D01*
X188353625Y-98529868D01*
X188328750Y-98548317D01*
X188302188Y-98564238D01*
X188274192Y-98577479D01*
X188245034Y-98587912D01*
X188214993Y-98595436D01*
X188184359Y-98599980D01*
X188153428Y-98601500D01*
X185734572Y-98601500D01*
X185703641Y-98599980D01*
X185673007Y-98595436D01*
X185642966Y-98587912D01*
X185613808Y-98577479D01*
X185585812Y-98564238D01*
X185559250Y-98548317D01*
X185534375Y-98529868D01*
X185511429Y-98509071D01*
X185490632Y-98486125D01*
X185472183Y-98461250D01*
X185456262Y-98434688D01*
X185443021Y-98406692D01*
X185432588Y-98377534D01*
X185425064Y-98347493D01*
X185420520Y-98316859D01*
X185419000Y-98285928D01*
X185419000Y-96992072D01*
X185420520Y-96961141D01*
X185425064Y-96930507D01*
X185432588Y-96900466D01*
X185443021Y-96871308D01*
X185456262Y-96843312D01*
X185472183Y-96816750D01*
X185490632Y-96791875D01*
X185511429Y-96768929D01*
X185534375Y-96748132D01*
X185559250Y-96729683D01*
X185585812Y-96713762D01*
X185613808Y-96700521D01*
X185642966Y-96690088D01*
X185673007Y-96682564D01*
X185703641Y-96678020D01*
X185734572Y-96676500D01*
X188153428Y-96676500D01*
X188184359Y-96678020D01*
X188184359Y-96678020D01*
G37*
D13*
X186944000Y-97639000D03*
D12*
G36*
X188184359Y-92003020D02*
X188214993Y-92007564D01*
X188245034Y-92015088D01*
X188274192Y-92025521D01*
X188302188Y-92038762D01*
X188328750Y-92054683D01*
X188353625Y-92073132D01*
X188376571Y-92093929D01*
X188397368Y-92116875D01*
X188415817Y-92141750D01*
X188431738Y-92168312D01*
X188444979Y-92196308D01*
X188455412Y-92225466D01*
X188462936Y-92255507D01*
X188467480Y-92286141D01*
X188469000Y-92317072D01*
X188469000Y-93610928D01*
X188467480Y-93641859D01*
X188462936Y-93672493D01*
X188455412Y-93702534D01*
X188444979Y-93731692D01*
X188431738Y-93759688D01*
X188415817Y-93786250D01*
X188397368Y-93811125D01*
X188376571Y-93834071D01*
X188353625Y-93854868D01*
X188328750Y-93873317D01*
X188302188Y-93889238D01*
X188274192Y-93902479D01*
X188245034Y-93912912D01*
X188214993Y-93920436D01*
X188184359Y-93924980D01*
X188153428Y-93926500D01*
X185734572Y-93926500D01*
X185703641Y-93924980D01*
X185673007Y-93920436D01*
X185642966Y-93912912D01*
X185613808Y-93902479D01*
X185585812Y-93889238D01*
X185559250Y-93873317D01*
X185534375Y-93854868D01*
X185511429Y-93834071D01*
X185490632Y-93811125D01*
X185472183Y-93786250D01*
X185456262Y-93759688D01*
X185443021Y-93731692D01*
X185432588Y-93702534D01*
X185425064Y-93672493D01*
X185420520Y-93641859D01*
X185419000Y-93610928D01*
X185419000Y-92317072D01*
X185420520Y-92286141D01*
X185425064Y-92255507D01*
X185432588Y-92225466D01*
X185443021Y-92196308D01*
X185456262Y-92168312D01*
X185472183Y-92141750D01*
X185490632Y-92116875D01*
X185511429Y-92093929D01*
X185534375Y-92073132D01*
X185559250Y-92054683D01*
X185585812Y-92038762D01*
X185613808Y-92025521D01*
X185642966Y-92015088D01*
X185673007Y-92007564D01*
X185703641Y-92003020D01*
X185734572Y-92001500D01*
X188153428Y-92001500D01*
X188184359Y-92003020D01*
X188184359Y-92003020D01*
G37*
D13*
X186944000Y-92964000D03*
G04 #@! TD*
D12*
G04 #@! TO.C,U1*
G36*
X137506443Y-70819091D02*
X137534417Y-70823240D01*
X137561849Y-70830111D01*
X137588475Y-70839638D01*
X137614039Y-70851730D01*
X137638296Y-70866268D01*
X137661010Y-70883114D01*
X137681964Y-70902105D01*
X139409895Y-72630036D01*
X139428886Y-72650990D01*
X139445732Y-72673704D01*
X139460270Y-72697961D01*
X139472362Y-72723525D01*
X139481889Y-72750151D01*
X139488760Y-72777583D01*
X139492909Y-72805557D01*
X139494297Y-72833802D01*
X139492909Y-72862047D01*
X139488760Y-72890021D01*
X139481889Y-72917453D01*
X139472362Y-72944079D01*
X139460270Y-72969643D01*
X139445732Y-72993900D01*
X139428886Y-73016614D01*
X139409895Y-73037568D01*
X137045568Y-75401895D01*
X137024614Y-75420886D01*
X137001900Y-75437732D01*
X136977643Y-75452270D01*
X136952079Y-75464362D01*
X136925453Y-75473889D01*
X136898021Y-75480760D01*
X136870047Y-75484909D01*
X136841802Y-75486297D01*
X136813557Y-75484909D01*
X136785583Y-75480760D01*
X136758151Y-75473889D01*
X136731525Y-75464362D01*
X136705961Y-75452270D01*
X136681704Y-75437732D01*
X136658990Y-75420886D01*
X136638036Y-75401895D01*
X134910105Y-73673964D01*
X134891114Y-73653010D01*
X134874268Y-73630296D01*
X134859730Y-73606039D01*
X134847638Y-73580475D01*
X134838111Y-73553849D01*
X134831240Y-73526417D01*
X134827091Y-73498443D01*
X134825703Y-73470198D01*
X134827091Y-73441953D01*
X134831240Y-73413979D01*
X134838111Y-73386547D01*
X134847638Y-73359921D01*
X134859730Y-73334357D01*
X134874268Y-73310100D01*
X134891114Y-73287386D01*
X134910105Y-73266432D01*
X137274432Y-70902105D01*
X137295386Y-70883114D01*
X137318100Y-70866268D01*
X137342357Y-70851730D01*
X137367921Y-70839638D01*
X137394547Y-70830111D01*
X137421979Y-70823240D01*
X137449953Y-70819091D01*
X137478198Y-70817703D01*
X137506443Y-70819091D01*
X137506443Y-70819091D01*
G37*
D26*
X137160000Y-73152000D03*
D12*
G36*
X141065015Y-72053365D02*
X141080789Y-72055705D01*
X141096258Y-72059580D01*
X141111273Y-72064953D01*
X141125689Y-72071771D01*
X141139367Y-72079969D01*
X141152176Y-72089469D01*
X141163992Y-72100178D01*
X141393802Y-72329988D01*
X141404511Y-72341804D01*
X141414011Y-72354613D01*
X141422209Y-72368291D01*
X141429027Y-72382707D01*
X141434400Y-72397722D01*
X141438275Y-72413191D01*
X141440615Y-72428965D01*
X141441397Y-72444893D01*
X141440615Y-72460821D01*
X141438275Y-72476595D01*
X141434400Y-72492064D01*
X141429027Y-72507079D01*
X141422209Y-72521495D01*
X141414011Y-72535173D01*
X141404511Y-72547982D01*
X141393802Y-72559798D01*
X140722050Y-73231550D01*
X140710234Y-73242259D01*
X140697425Y-73251759D01*
X140683747Y-73259957D01*
X140669331Y-73266775D01*
X140654316Y-73272148D01*
X140638847Y-73276023D01*
X140623073Y-73278363D01*
X140607145Y-73279145D01*
X140591217Y-73278363D01*
X140575443Y-73276023D01*
X140559974Y-73272148D01*
X140544959Y-73266775D01*
X140530543Y-73259957D01*
X140516865Y-73251759D01*
X140504056Y-73242259D01*
X140492240Y-73231550D01*
X140262430Y-73001740D01*
X140251721Y-72989924D01*
X140242221Y-72977115D01*
X140234023Y-72963437D01*
X140227205Y-72949021D01*
X140221832Y-72934006D01*
X140217957Y-72918537D01*
X140215617Y-72902763D01*
X140214835Y-72886835D01*
X140215617Y-72870907D01*
X140217957Y-72855133D01*
X140221832Y-72839664D01*
X140227205Y-72824649D01*
X140234023Y-72810233D01*
X140242221Y-72796555D01*
X140251721Y-72783746D01*
X140262430Y-72771930D01*
X140934182Y-72100178D01*
X140945998Y-72089469D01*
X140958807Y-72079969D01*
X140972485Y-72071771D01*
X140986901Y-72064953D01*
X141001916Y-72059580D01*
X141017385Y-72055705D01*
X141033159Y-72053365D01*
X141049087Y-72052583D01*
X141065015Y-72053365D01*
X141065015Y-72053365D01*
G37*
D27*
X140828116Y-72665864D03*
D12*
G36*
X140711462Y-71699812D02*
X140727236Y-71702152D01*
X140742705Y-71706027D01*
X140757720Y-71711400D01*
X140772136Y-71718218D01*
X140785814Y-71726416D01*
X140798623Y-71735916D01*
X140810439Y-71746625D01*
X141040249Y-71976435D01*
X141050958Y-71988251D01*
X141060458Y-72001060D01*
X141068656Y-72014738D01*
X141075474Y-72029154D01*
X141080847Y-72044169D01*
X141084722Y-72059638D01*
X141087062Y-72075412D01*
X141087844Y-72091340D01*
X141087062Y-72107268D01*
X141084722Y-72123042D01*
X141080847Y-72138511D01*
X141075474Y-72153526D01*
X141068656Y-72167942D01*
X141060458Y-72181620D01*
X141050958Y-72194429D01*
X141040249Y-72206245D01*
X140368497Y-72877997D01*
X140356681Y-72888706D01*
X140343872Y-72898206D01*
X140330194Y-72906404D01*
X140315778Y-72913222D01*
X140300763Y-72918595D01*
X140285294Y-72922470D01*
X140269520Y-72924810D01*
X140253592Y-72925592D01*
X140237664Y-72924810D01*
X140221890Y-72922470D01*
X140206421Y-72918595D01*
X140191406Y-72913222D01*
X140176990Y-72906404D01*
X140163312Y-72898206D01*
X140150503Y-72888706D01*
X140138687Y-72877997D01*
X139908877Y-72648187D01*
X139898168Y-72636371D01*
X139888668Y-72623562D01*
X139880470Y-72609884D01*
X139873652Y-72595468D01*
X139868279Y-72580453D01*
X139864404Y-72564984D01*
X139862064Y-72549210D01*
X139861282Y-72533282D01*
X139862064Y-72517354D01*
X139864404Y-72501580D01*
X139868279Y-72486111D01*
X139873652Y-72471096D01*
X139880470Y-72456680D01*
X139888668Y-72443002D01*
X139898168Y-72430193D01*
X139908877Y-72418377D01*
X140580629Y-71746625D01*
X140592445Y-71735916D01*
X140605254Y-71726416D01*
X140618932Y-71718218D01*
X140633348Y-71711400D01*
X140648363Y-71706027D01*
X140663832Y-71702152D01*
X140679606Y-71699812D01*
X140695534Y-71699030D01*
X140711462Y-71699812D01*
X140711462Y-71699812D01*
G37*
D27*
X140474563Y-72312311D03*
D12*
G36*
X140357909Y-71346258D02*
X140373683Y-71348598D01*
X140389152Y-71352473D01*
X140404167Y-71357846D01*
X140418583Y-71364664D01*
X140432261Y-71372862D01*
X140445070Y-71382362D01*
X140456886Y-71393071D01*
X140686696Y-71622881D01*
X140697405Y-71634697D01*
X140706905Y-71647506D01*
X140715103Y-71661184D01*
X140721921Y-71675600D01*
X140727294Y-71690615D01*
X140731169Y-71706084D01*
X140733509Y-71721858D01*
X140734291Y-71737786D01*
X140733509Y-71753714D01*
X140731169Y-71769488D01*
X140727294Y-71784957D01*
X140721921Y-71799972D01*
X140715103Y-71814388D01*
X140706905Y-71828066D01*
X140697405Y-71840875D01*
X140686696Y-71852691D01*
X140014944Y-72524443D01*
X140003128Y-72535152D01*
X139990319Y-72544652D01*
X139976641Y-72552850D01*
X139962225Y-72559668D01*
X139947210Y-72565041D01*
X139931741Y-72568916D01*
X139915967Y-72571256D01*
X139900039Y-72572038D01*
X139884111Y-72571256D01*
X139868337Y-72568916D01*
X139852868Y-72565041D01*
X139837853Y-72559668D01*
X139823437Y-72552850D01*
X139809759Y-72544652D01*
X139796950Y-72535152D01*
X139785134Y-72524443D01*
X139555324Y-72294633D01*
X139544615Y-72282817D01*
X139535115Y-72270008D01*
X139526917Y-72256330D01*
X139520099Y-72241914D01*
X139514726Y-72226899D01*
X139510851Y-72211430D01*
X139508511Y-72195656D01*
X139507729Y-72179728D01*
X139508511Y-72163800D01*
X139510851Y-72148026D01*
X139514726Y-72132557D01*
X139520099Y-72117542D01*
X139526917Y-72103126D01*
X139535115Y-72089448D01*
X139544615Y-72076639D01*
X139555324Y-72064823D01*
X140227076Y-71393071D01*
X140238892Y-71382362D01*
X140251701Y-71372862D01*
X140265379Y-71364664D01*
X140279795Y-71357846D01*
X140294810Y-71352473D01*
X140310279Y-71348598D01*
X140326053Y-71346258D01*
X140341981Y-71345476D01*
X140357909Y-71346258D01*
X140357909Y-71346258D01*
G37*
D27*
X140121010Y-71958757D03*
D12*
G36*
X140004355Y-70992705D02*
X140020129Y-70995045D01*
X140035598Y-70998920D01*
X140050613Y-71004293D01*
X140065029Y-71011111D01*
X140078707Y-71019309D01*
X140091516Y-71028809D01*
X140103332Y-71039518D01*
X140333142Y-71269328D01*
X140343851Y-71281144D01*
X140353351Y-71293953D01*
X140361549Y-71307631D01*
X140368367Y-71322047D01*
X140373740Y-71337062D01*
X140377615Y-71352531D01*
X140379955Y-71368305D01*
X140380737Y-71384233D01*
X140379955Y-71400161D01*
X140377615Y-71415935D01*
X140373740Y-71431404D01*
X140368367Y-71446419D01*
X140361549Y-71460835D01*
X140353351Y-71474513D01*
X140343851Y-71487322D01*
X140333142Y-71499138D01*
X139661390Y-72170890D01*
X139649574Y-72181599D01*
X139636765Y-72191099D01*
X139623087Y-72199297D01*
X139608671Y-72206115D01*
X139593656Y-72211488D01*
X139578187Y-72215363D01*
X139562413Y-72217703D01*
X139546485Y-72218485D01*
X139530557Y-72217703D01*
X139514783Y-72215363D01*
X139499314Y-72211488D01*
X139484299Y-72206115D01*
X139469883Y-72199297D01*
X139456205Y-72191099D01*
X139443396Y-72181599D01*
X139431580Y-72170890D01*
X139201770Y-71941080D01*
X139191061Y-71929264D01*
X139181561Y-71916455D01*
X139173363Y-71902777D01*
X139166545Y-71888361D01*
X139161172Y-71873346D01*
X139157297Y-71857877D01*
X139154957Y-71842103D01*
X139154175Y-71826175D01*
X139154957Y-71810247D01*
X139157297Y-71794473D01*
X139161172Y-71779004D01*
X139166545Y-71763989D01*
X139173363Y-71749573D01*
X139181561Y-71735895D01*
X139191061Y-71723086D01*
X139201770Y-71711270D01*
X139873522Y-71039518D01*
X139885338Y-71028809D01*
X139898147Y-71019309D01*
X139911825Y-71011111D01*
X139926241Y-71004293D01*
X139941256Y-70998920D01*
X139956725Y-70995045D01*
X139972499Y-70992705D01*
X139988427Y-70991923D01*
X140004355Y-70992705D01*
X140004355Y-70992705D01*
G37*
D27*
X139767456Y-71605204D03*
D12*
G36*
X139650802Y-70639152D02*
X139666576Y-70641492D01*
X139682045Y-70645367D01*
X139697060Y-70650740D01*
X139711476Y-70657558D01*
X139725154Y-70665756D01*
X139737963Y-70675256D01*
X139749779Y-70685965D01*
X139979589Y-70915775D01*
X139990298Y-70927591D01*
X139999798Y-70940400D01*
X140007996Y-70954078D01*
X140014814Y-70968494D01*
X140020187Y-70983509D01*
X140024062Y-70998978D01*
X140026402Y-71014752D01*
X140027184Y-71030680D01*
X140026402Y-71046608D01*
X140024062Y-71062382D01*
X140020187Y-71077851D01*
X140014814Y-71092866D01*
X140007996Y-71107282D01*
X139999798Y-71120960D01*
X139990298Y-71133769D01*
X139979589Y-71145585D01*
X139307837Y-71817337D01*
X139296021Y-71828046D01*
X139283212Y-71837546D01*
X139269534Y-71845744D01*
X139255118Y-71852562D01*
X139240103Y-71857935D01*
X139224634Y-71861810D01*
X139208860Y-71864150D01*
X139192932Y-71864932D01*
X139177004Y-71864150D01*
X139161230Y-71861810D01*
X139145761Y-71857935D01*
X139130746Y-71852562D01*
X139116330Y-71845744D01*
X139102652Y-71837546D01*
X139089843Y-71828046D01*
X139078027Y-71817337D01*
X138848217Y-71587527D01*
X138837508Y-71575711D01*
X138828008Y-71562902D01*
X138819810Y-71549224D01*
X138812992Y-71534808D01*
X138807619Y-71519793D01*
X138803744Y-71504324D01*
X138801404Y-71488550D01*
X138800622Y-71472622D01*
X138801404Y-71456694D01*
X138803744Y-71440920D01*
X138807619Y-71425451D01*
X138812992Y-71410436D01*
X138819810Y-71396020D01*
X138828008Y-71382342D01*
X138837508Y-71369533D01*
X138848217Y-71357717D01*
X139519969Y-70685965D01*
X139531785Y-70675256D01*
X139544594Y-70665756D01*
X139558272Y-70657558D01*
X139572688Y-70650740D01*
X139587703Y-70645367D01*
X139603172Y-70641492D01*
X139618946Y-70639152D01*
X139634874Y-70638370D01*
X139650802Y-70639152D01*
X139650802Y-70639152D01*
G37*
D27*
X139413903Y-71251651D03*
D12*
G36*
X139297248Y-70285598D02*
X139313022Y-70287938D01*
X139328491Y-70291813D01*
X139343506Y-70297186D01*
X139357922Y-70304004D01*
X139371600Y-70312202D01*
X139384409Y-70321702D01*
X139396225Y-70332411D01*
X139626035Y-70562221D01*
X139636744Y-70574037D01*
X139646244Y-70586846D01*
X139654442Y-70600524D01*
X139661260Y-70614940D01*
X139666633Y-70629955D01*
X139670508Y-70645424D01*
X139672848Y-70661198D01*
X139673630Y-70677126D01*
X139672848Y-70693054D01*
X139670508Y-70708828D01*
X139666633Y-70724297D01*
X139661260Y-70739312D01*
X139654442Y-70753728D01*
X139646244Y-70767406D01*
X139636744Y-70780215D01*
X139626035Y-70792031D01*
X138954283Y-71463783D01*
X138942467Y-71474492D01*
X138929658Y-71483992D01*
X138915980Y-71492190D01*
X138901564Y-71499008D01*
X138886549Y-71504381D01*
X138871080Y-71508256D01*
X138855306Y-71510596D01*
X138839378Y-71511378D01*
X138823450Y-71510596D01*
X138807676Y-71508256D01*
X138792207Y-71504381D01*
X138777192Y-71499008D01*
X138762776Y-71492190D01*
X138749098Y-71483992D01*
X138736289Y-71474492D01*
X138724473Y-71463783D01*
X138494663Y-71233973D01*
X138483954Y-71222157D01*
X138474454Y-71209348D01*
X138466256Y-71195670D01*
X138459438Y-71181254D01*
X138454065Y-71166239D01*
X138450190Y-71150770D01*
X138447850Y-71134996D01*
X138447068Y-71119068D01*
X138447850Y-71103140D01*
X138450190Y-71087366D01*
X138454065Y-71071897D01*
X138459438Y-71056882D01*
X138466256Y-71042466D01*
X138474454Y-71028788D01*
X138483954Y-71015979D01*
X138494663Y-71004163D01*
X139166415Y-70332411D01*
X139178231Y-70321702D01*
X139191040Y-70312202D01*
X139204718Y-70304004D01*
X139219134Y-70297186D01*
X139234149Y-70291813D01*
X139249618Y-70287938D01*
X139265392Y-70285598D01*
X139281320Y-70284816D01*
X139297248Y-70285598D01*
X139297248Y-70285598D01*
G37*
D27*
X139060349Y-70898097D03*
D12*
G36*
X138943695Y-69932045D02*
X138959469Y-69934385D01*
X138974938Y-69938260D01*
X138989953Y-69943633D01*
X139004369Y-69950451D01*
X139018047Y-69958649D01*
X139030856Y-69968149D01*
X139042672Y-69978858D01*
X139272482Y-70208668D01*
X139283191Y-70220484D01*
X139292691Y-70233293D01*
X139300889Y-70246971D01*
X139307707Y-70261387D01*
X139313080Y-70276402D01*
X139316955Y-70291871D01*
X139319295Y-70307645D01*
X139320077Y-70323573D01*
X139319295Y-70339501D01*
X139316955Y-70355275D01*
X139313080Y-70370744D01*
X139307707Y-70385759D01*
X139300889Y-70400175D01*
X139292691Y-70413853D01*
X139283191Y-70426662D01*
X139272482Y-70438478D01*
X138600730Y-71110230D01*
X138588914Y-71120939D01*
X138576105Y-71130439D01*
X138562427Y-71138637D01*
X138548011Y-71145455D01*
X138532996Y-71150828D01*
X138517527Y-71154703D01*
X138501753Y-71157043D01*
X138485825Y-71157825D01*
X138469897Y-71157043D01*
X138454123Y-71154703D01*
X138438654Y-71150828D01*
X138423639Y-71145455D01*
X138409223Y-71138637D01*
X138395545Y-71130439D01*
X138382736Y-71120939D01*
X138370920Y-71110230D01*
X138141110Y-70880420D01*
X138130401Y-70868604D01*
X138120901Y-70855795D01*
X138112703Y-70842117D01*
X138105885Y-70827701D01*
X138100512Y-70812686D01*
X138096637Y-70797217D01*
X138094297Y-70781443D01*
X138093515Y-70765515D01*
X138094297Y-70749587D01*
X138096637Y-70733813D01*
X138100512Y-70718344D01*
X138105885Y-70703329D01*
X138112703Y-70688913D01*
X138120901Y-70675235D01*
X138130401Y-70662426D01*
X138141110Y-70650610D01*
X138812862Y-69978858D01*
X138824678Y-69968149D01*
X138837487Y-69958649D01*
X138851165Y-69950451D01*
X138865581Y-69943633D01*
X138880596Y-69938260D01*
X138896065Y-69934385D01*
X138911839Y-69932045D01*
X138927767Y-69931263D01*
X138943695Y-69932045D01*
X138943695Y-69932045D01*
G37*
D27*
X138706796Y-70544544D03*
D12*
G36*
X138590142Y-69578491D02*
X138605916Y-69580831D01*
X138621385Y-69584706D01*
X138636400Y-69590079D01*
X138650816Y-69596897D01*
X138664494Y-69605095D01*
X138677303Y-69614595D01*
X138689119Y-69625304D01*
X138918929Y-69855114D01*
X138929638Y-69866930D01*
X138939138Y-69879739D01*
X138947336Y-69893417D01*
X138954154Y-69907833D01*
X138959527Y-69922848D01*
X138963402Y-69938317D01*
X138965742Y-69954091D01*
X138966524Y-69970019D01*
X138965742Y-69985947D01*
X138963402Y-70001721D01*
X138959527Y-70017190D01*
X138954154Y-70032205D01*
X138947336Y-70046621D01*
X138939138Y-70060299D01*
X138929638Y-70073108D01*
X138918929Y-70084924D01*
X138247177Y-70756676D01*
X138235361Y-70767385D01*
X138222552Y-70776885D01*
X138208874Y-70785083D01*
X138194458Y-70791901D01*
X138179443Y-70797274D01*
X138163974Y-70801149D01*
X138148200Y-70803489D01*
X138132272Y-70804271D01*
X138116344Y-70803489D01*
X138100570Y-70801149D01*
X138085101Y-70797274D01*
X138070086Y-70791901D01*
X138055670Y-70785083D01*
X138041992Y-70776885D01*
X138029183Y-70767385D01*
X138017367Y-70756676D01*
X137787557Y-70526866D01*
X137776848Y-70515050D01*
X137767348Y-70502241D01*
X137759150Y-70488563D01*
X137752332Y-70474147D01*
X137746959Y-70459132D01*
X137743084Y-70443663D01*
X137740744Y-70427889D01*
X137739962Y-70411961D01*
X137740744Y-70396033D01*
X137743084Y-70380259D01*
X137746959Y-70364790D01*
X137752332Y-70349775D01*
X137759150Y-70335359D01*
X137767348Y-70321681D01*
X137776848Y-70308872D01*
X137787557Y-70297056D01*
X138459309Y-69625304D01*
X138471125Y-69614595D01*
X138483934Y-69605095D01*
X138497612Y-69596897D01*
X138512028Y-69590079D01*
X138527043Y-69584706D01*
X138542512Y-69580831D01*
X138558286Y-69578491D01*
X138574214Y-69577709D01*
X138590142Y-69578491D01*
X138590142Y-69578491D01*
G37*
D27*
X138353243Y-70190990D03*
D12*
G36*
X138236588Y-69224938D02*
X138252362Y-69227278D01*
X138267831Y-69231153D01*
X138282846Y-69236526D01*
X138297262Y-69243344D01*
X138310940Y-69251542D01*
X138323749Y-69261042D01*
X138335565Y-69271751D01*
X138565375Y-69501561D01*
X138576084Y-69513377D01*
X138585584Y-69526186D01*
X138593782Y-69539864D01*
X138600600Y-69554280D01*
X138605973Y-69569295D01*
X138609848Y-69584764D01*
X138612188Y-69600538D01*
X138612970Y-69616466D01*
X138612188Y-69632394D01*
X138609848Y-69648168D01*
X138605973Y-69663637D01*
X138600600Y-69678652D01*
X138593782Y-69693068D01*
X138585584Y-69706746D01*
X138576084Y-69719555D01*
X138565375Y-69731371D01*
X137893623Y-70403123D01*
X137881807Y-70413832D01*
X137868998Y-70423332D01*
X137855320Y-70431530D01*
X137840904Y-70438348D01*
X137825889Y-70443721D01*
X137810420Y-70447596D01*
X137794646Y-70449936D01*
X137778718Y-70450718D01*
X137762790Y-70449936D01*
X137747016Y-70447596D01*
X137731547Y-70443721D01*
X137716532Y-70438348D01*
X137702116Y-70431530D01*
X137688438Y-70423332D01*
X137675629Y-70413832D01*
X137663813Y-70403123D01*
X137434003Y-70173313D01*
X137423294Y-70161497D01*
X137413794Y-70148688D01*
X137405596Y-70135010D01*
X137398778Y-70120594D01*
X137393405Y-70105579D01*
X137389530Y-70090110D01*
X137387190Y-70074336D01*
X137386408Y-70058408D01*
X137387190Y-70042480D01*
X137389530Y-70026706D01*
X137393405Y-70011237D01*
X137398778Y-69996222D01*
X137405596Y-69981806D01*
X137413794Y-69968128D01*
X137423294Y-69955319D01*
X137434003Y-69943503D01*
X138105755Y-69271751D01*
X138117571Y-69261042D01*
X138130380Y-69251542D01*
X138144058Y-69243344D01*
X138158474Y-69236526D01*
X138173489Y-69231153D01*
X138188958Y-69227278D01*
X138204732Y-69224938D01*
X138220660Y-69224156D01*
X138236588Y-69224938D01*
X138236588Y-69224938D01*
G37*
D27*
X137999689Y-69837437D03*
D12*
G36*
X137883035Y-68871385D02*
X137898809Y-68873725D01*
X137914278Y-68877600D01*
X137929293Y-68882973D01*
X137943709Y-68889791D01*
X137957387Y-68897989D01*
X137970196Y-68907489D01*
X137982012Y-68918198D01*
X138211822Y-69148008D01*
X138222531Y-69159824D01*
X138232031Y-69172633D01*
X138240229Y-69186311D01*
X138247047Y-69200727D01*
X138252420Y-69215742D01*
X138256295Y-69231211D01*
X138258635Y-69246985D01*
X138259417Y-69262913D01*
X138258635Y-69278841D01*
X138256295Y-69294615D01*
X138252420Y-69310084D01*
X138247047Y-69325099D01*
X138240229Y-69339515D01*
X138232031Y-69353193D01*
X138222531Y-69366002D01*
X138211822Y-69377818D01*
X137540070Y-70049570D01*
X137528254Y-70060279D01*
X137515445Y-70069779D01*
X137501767Y-70077977D01*
X137487351Y-70084795D01*
X137472336Y-70090168D01*
X137456867Y-70094043D01*
X137441093Y-70096383D01*
X137425165Y-70097165D01*
X137409237Y-70096383D01*
X137393463Y-70094043D01*
X137377994Y-70090168D01*
X137362979Y-70084795D01*
X137348563Y-70077977D01*
X137334885Y-70069779D01*
X137322076Y-70060279D01*
X137310260Y-70049570D01*
X137080450Y-69819760D01*
X137069741Y-69807944D01*
X137060241Y-69795135D01*
X137052043Y-69781457D01*
X137045225Y-69767041D01*
X137039852Y-69752026D01*
X137035977Y-69736557D01*
X137033637Y-69720783D01*
X137032855Y-69704855D01*
X137033637Y-69688927D01*
X137035977Y-69673153D01*
X137039852Y-69657684D01*
X137045225Y-69642669D01*
X137052043Y-69628253D01*
X137060241Y-69614575D01*
X137069741Y-69601766D01*
X137080450Y-69589950D01*
X137752202Y-68918198D01*
X137764018Y-68907489D01*
X137776827Y-68897989D01*
X137790505Y-68889791D01*
X137804921Y-68882973D01*
X137819936Y-68877600D01*
X137835405Y-68873725D01*
X137851179Y-68871385D01*
X137867107Y-68870603D01*
X137883035Y-68871385D01*
X137883035Y-68871385D01*
G37*
D27*
X137646136Y-69483884D03*
D12*
G36*
X136468821Y-68871385D02*
X136484595Y-68873725D01*
X136500064Y-68877600D01*
X136515079Y-68882973D01*
X136529495Y-68889791D01*
X136543173Y-68897989D01*
X136555982Y-68907489D01*
X136567798Y-68918198D01*
X137239550Y-69589950D01*
X137250259Y-69601766D01*
X137259759Y-69614575D01*
X137267957Y-69628253D01*
X137274775Y-69642669D01*
X137280148Y-69657684D01*
X137284023Y-69673153D01*
X137286363Y-69688927D01*
X137287145Y-69704855D01*
X137286363Y-69720783D01*
X137284023Y-69736557D01*
X137280148Y-69752026D01*
X137274775Y-69767041D01*
X137267957Y-69781457D01*
X137259759Y-69795135D01*
X137250259Y-69807944D01*
X137239550Y-69819760D01*
X137009740Y-70049570D01*
X136997924Y-70060279D01*
X136985115Y-70069779D01*
X136971437Y-70077977D01*
X136957021Y-70084795D01*
X136942006Y-70090168D01*
X136926537Y-70094043D01*
X136910763Y-70096383D01*
X136894835Y-70097165D01*
X136878907Y-70096383D01*
X136863133Y-70094043D01*
X136847664Y-70090168D01*
X136832649Y-70084795D01*
X136818233Y-70077977D01*
X136804555Y-70069779D01*
X136791746Y-70060279D01*
X136779930Y-70049570D01*
X136108178Y-69377818D01*
X136097469Y-69366002D01*
X136087969Y-69353193D01*
X136079771Y-69339515D01*
X136072953Y-69325099D01*
X136067580Y-69310084D01*
X136063705Y-69294615D01*
X136061365Y-69278841D01*
X136060583Y-69262913D01*
X136061365Y-69246985D01*
X136063705Y-69231211D01*
X136067580Y-69215742D01*
X136072953Y-69200727D01*
X136079771Y-69186311D01*
X136087969Y-69172633D01*
X136097469Y-69159824D01*
X136108178Y-69148008D01*
X136337988Y-68918198D01*
X136349804Y-68907489D01*
X136362613Y-68897989D01*
X136376291Y-68889791D01*
X136390707Y-68882973D01*
X136405722Y-68877600D01*
X136421191Y-68873725D01*
X136436965Y-68871385D01*
X136452893Y-68870603D01*
X136468821Y-68871385D01*
X136468821Y-68871385D01*
G37*
D27*
X136673864Y-69483884D03*
D12*
G36*
X136115268Y-69224938D02*
X136131042Y-69227278D01*
X136146511Y-69231153D01*
X136161526Y-69236526D01*
X136175942Y-69243344D01*
X136189620Y-69251542D01*
X136202429Y-69261042D01*
X136214245Y-69271751D01*
X136885997Y-69943503D01*
X136896706Y-69955319D01*
X136906206Y-69968128D01*
X136914404Y-69981806D01*
X136921222Y-69996222D01*
X136926595Y-70011237D01*
X136930470Y-70026706D01*
X136932810Y-70042480D01*
X136933592Y-70058408D01*
X136932810Y-70074336D01*
X136930470Y-70090110D01*
X136926595Y-70105579D01*
X136921222Y-70120594D01*
X136914404Y-70135010D01*
X136906206Y-70148688D01*
X136896706Y-70161497D01*
X136885997Y-70173313D01*
X136656187Y-70403123D01*
X136644371Y-70413832D01*
X136631562Y-70423332D01*
X136617884Y-70431530D01*
X136603468Y-70438348D01*
X136588453Y-70443721D01*
X136572984Y-70447596D01*
X136557210Y-70449936D01*
X136541282Y-70450718D01*
X136525354Y-70449936D01*
X136509580Y-70447596D01*
X136494111Y-70443721D01*
X136479096Y-70438348D01*
X136464680Y-70431530D01*
X136451002Y-70423332D01*
X136438193Y-70413832D01*
X136426377Y-70403123D01*
X135754625Y-69731371D01*
X135743916Y-69719555D01*
X135734416Y-69706746D01*
X135726218Y-69693068D01*
X135719400Y-69678652D01*
X135714027Y-69663637D01*
X135710152Y-69648168D01*
X135707812Y-69632394D01*
X135707030Y-69616466D01*
X135707812Y-69600538D01*
X135710152Y-69584764D01*
X135714027Y-69569295D01*
X135719400Y-69554280D01*
X135726218Y-69539864D01*
X135734416Y-69526186D01*
X135743916Y-69513377D01*
X135754625Y-69501561D01*
X135984435Y-69271751D01*
X135996251Y-69261042D01*
X136009060Y-69251542D01*
X136022738Y-69243344D01*
X136037154Y-69236526D01*
X136052169Y-69231153D01*
X136067638Y-69227278D01*
X136083412Y-69224938D01*
X136099340Y-69224156D01*
X136115268Y-69224938D01*
X136115268Y-69224938D01*
G37*
D27*
X136320311Y-69837437D03*
D12*
G36*
X135761714Y-69578491D02*
X135777488Y-69580831D01*
X135792957Y-69584706D01*
X135807972Y-69590079D01*
X135822388Y-69596897D01*
X135836066Y-69605095D01*
X135848875Y-69614595D01*
X135860691Y-69625304D01*
X136532443Y-70297056D01*
X136543152Y-70308872D01*
X136552652Y-70321681D01*
X136560850Y-70335359D01*
X136567668Y-70349775D01*
X136573041Y-70364790D01*
X136576916Y-70380259D01*
X136579256Y-70396033D01*
X136580038Y-70411961D01*
X136579256Y-70427889D01*
X136576916Y-70443663D01*
X136573041Y-70459132D01*
X136567668Y-70474147D01*
X136560850Y-70488563D01*
X136552652Y-70502241D01*
X136543152Y-70515050D01*
X136532443Y-70526866D01*
X136302633Y-70756676D01*
X136290817Y-70767385D01*
X136278008Y-70776885D01*
X136264330Y-70785083D01*
X136249914Y-70791901D01*
X136234899Y-70797274D01*
X136219430Y-70801149D01*
X136203656Y-70803489D01*
X136187728Y-70804271D01*
X136171800Y-70803489D01*
X136156026Y-70801149D01*
X136140557Y-70797274D01*
X136125542Y-70791901D01*
X136111126Y-70785083D01*
X136097448Y-70776885D01*
X136084639Y-70767385D01*
X136072823Y-70756676D01*
X135401071Y-70084924D01*
X135390362Y-70073108D01*
X135380862Y-70060299D01*
X135372664Y-70046621D01*
X135365846Y-70032205D01*
X135360473Y-70017190D01*
X135356598Y-70001721D01*
X135354258Y-69985947D01*
X135353476Y-69970019D01*
X135354258Y-69954091D01*
X135356598Y-69938317D01*
X135360473Y-69922848D01*
X135365846Y-69907833D01*
X135372664Y-69893417D01*
X135380862Y-69879739D01*
X135390362Y-69866930D01*
X135401071Y-69855114D01*
X135630881Y-69625304D01*
X135642697Y-69614595D01*
X135655506Y-69605095D01*
X135669184Y-69596897D01*
X135683600Y-69590079D01*
X135698615Y-69584706D01*
X135714084Y-69580831D01*
X135729858Y-69578491D01*
X135745786Y-69577709D01*
X135761714Y-69578491D01*
X135761714Y-69578491D01*
G37*
D27*
X135966757Y-70190990D03*
D12*
G36*
X135408161Y-69932045D02*
X135423935Y-69934385D01*
X135439404Y-69938260D01*
X135454419Y-69943633D01*
X135468835Y-69950451D01*
X135482513Y-69958649D01*
X135495322Y-69968149D01*
X135507138Y-69978858D01*
X136178890Y-70650610D01*
X136189599Y-70662426D01*
X136199099Y-70675235D01*
X136207297Y-70688913D01*
X136214115Y-70703329D01*
X136219488Y-70718344D01*
X136223363Y-70733813D01*
X136225703Y-70749587D01*
X136226485Y-70765515D01*
X136225703Y-70781443D01*
X136223363Y-70797217D01*
X136219488Y-70812686D01*
X136214115Y-70827701D01*
X136207297Y-70842117D01*
X136199099Y-70855795D01*
X136189599Y-70868604D01*
X136178890Y-70880420D01*
X135949080Y-71110230D01*
X135937264Y-71120939D01*
X135924455Y-71130439D01*
X135910777Y-71138637D01*
X135896361Y-71145455D01*
X135881346Y-71150828D01*
X135865877Y-71154703D01*
X135850103Y-71157043D01*
X135834175Y-71157825D01*
X135818247Y-71157043D01*
X135802473Y-71154703D01*
X135787004Y-71150828D01*
X135771989Y-71145455D01*
X135757573Y-71138637D01*
X135743895Y-71130439D01*
X135731086Y-71120939D01*
X135719270Y-71110230D01*
X135047518Y-70438478D01*
X135036809Y-70426662D01*
X135027309Y-70413853D01*
X135019111Y-70400175D01*
X135012293Y-70385759D01*
X135006920Y-70370744D01*
X135003045Y-70355275D01*
X135000705Y-70339501D01*
X134999923Y-70323573D01*
X135000705Y-70307645D01*
X135003045Y-70291871D01*
X135006920Y-70276402D01*
X135012293Y-70261387D01*
X135019111Y-70246971D01*
X135027309Y-70233293D01*
X135036809Y-70220484D01*
X135047518Y-70208668D01*
X135277328Y-69978858D01*
X135289144Y-69968149D01*
X135301953Y-69958649D01*
X135315631Y-69950451D01*
X135330047Y-69943633D01*
X135345062Y-69938260D01*
X135360531Y-69934385D01*
X135376305Y-69932045D01*
X135392233Y-69931263D01*
X135408161Y-69932045D01*
X135408161Y-69932045D01*
G37*
D27*
X135613204Y-70544544D03*
D12*
G36*
X135054608Y-70285598D02*
X135070382Y-70287938D01*
X135085851Y-70291813D01*
X135100866Y-70297186D01*
X135115282Y-70304004D01*
X135128960Y-70312202D01*
X135141769Y-70321702D01*
X135153585Y-70332411D01*
X135825337Y-71004163D01*
X135836046Y-71015979D01*
X135845546Y-71028788D01*
X135853744Y-71042466D01*
X135860562Y-71056882D01*
X135865935Y-71071897D01*
X135869810Y-71087366D01*
X135872150Y-71103140D01*
X135872932Y-71119068D01*
X135872150Y-71134996D01*
X135869810Y-71150770D01*
X135865935Y-71166239D01*
X135860562Y-71181254D01*
X135853744Y-71195670D01*
X135845546Y-71209348D01*
X135836046Y-71222157D01*
X135825337Y-71233973D01*
X135595527Y-71463783D01*
X135583711Y-71474492D01*
X135570902Y-71483992D01*
X135557224Y-71492190D01*
X135542808Y-71499008D01*
X135527793Y-71504381D01*
X135512324Y-71508256D01*
X135496550Y-71510596D01*
X135480622Y-71511378D01*
X135464694Y-71510596D01*
X135448920Y-71508256D01*
X135433451Y-71504381D01*
X135418436Y-71499008D01*
X135404020Y-71492190D01*
X135390342Y-71483992D01*
X135377533Y-71474492D01*
X135365717Y-71463783D01*
X134693965Y-70792031D01*
X134683256Y-70780215D01*
X134673756Y-70767406D01*
X134665558Y-70753728D01*
X134658740Y-70739312D01*
X134653367Y-70724297D01*
X134649492Y-70708828D01*
X134647152Y-70693054D01*
X134646370Y-70677126D01*
X134647152Y-70661198D01*
X134649492Y-70645424D01*
X134653367Y-70629955D01*
X134658740Y-70614940D01*
X134665558Y-70600524D01*
X134673756Y-70586846D01*
X134683256Y-70574037D01*
X134693965Y-70562221D01*
X134923775Y-70332411D01*
X134935591Y-70321702D01*
X134948400Y-70312202D01*
X134962078Y-70304004D01*
X134976494Y-70297186D01*
X134991509Y-70291813D01*
X135006978Y-70287938D01*
X135022752Y-70285598D01*
X135038680Y-70284816D01*
X135054608Y-70285598D01*
X135054608Y-70285598D01*
G37*
D27*
X135259651Y-70898097D03*
D12*
G36*
X134701054Y-70639152D02*
X134716828Y-70641492D01*
X134732297Y-70645367D01*
X134747312Y-70650740D01*
X134761728Y-70657558D01*
X134775406Y-70665756D01*
X134788215Y-70675256D01*
X134800031Y-70685965D01*
X135471783Y-71357717D01*
X135482492Y-71369533D01*
X135491992Y-71382342D01*
X135500190Y-71396020D01*
X135507008Y-71410436D01*
X135512381Y-71425451D01*
X135516256Y-71440920D01*
X135518596Y-71456694D01*
X135519378Y-71472622D01*
X135518596Y-71488550D01*
X135516256Y-71504324D01*
X135512381Y-71519793D01*
X135507008Y-71534808D01*
X135500190Y-71549224D01*
X135491992Y-71562902D01*
X135482492Y-71575711D01*
X135471783Y-71587527D01*
X135241973Y-71817337D01*
X135230157Y-71828046D01*
X135217348Y-71837546D01*
X135203670Y-71845744D01*
X135189254Y-71852562D01*
X135174239Y-71857935D01*
X135158770Y-71861810D01*
X135142996Y-71864150D01*
X135127068Y-71864932D01*
X135111140Y-71864150D01*
X135095366Y-71861810D01*
X135079897Y-71857935D01*
X135064882Y-71852562D01*
X135050466Y-71845744D01*
X135036788Y-71837546D01*
X135023979Y-71828046D01*
X135012163Y-71817337D01*
X134340411Y-71145585D01*
X134329702Y-71133769D01*
X134320202Y-71120960D01*
X134312004Y-71107282D01*
X134305186Y-71092866D01*
X134299813Y-71077851D01*
X134295938Y-71062382D01*
X134293598Y-71046608D01*
X134292816Y-71030680D01*
X134293598Y-71014752D01*
X134295938Y-70998978D01*
X134299813Y-70983509D01*
X134305186Y-70968494D01*
X134312004Y-70954078D01*
X134320202Y-70940400D01*
X134329702Y-70927591D01*
X134340411Y-70915775D01*
X134570221Y-70685965D01*
X134582037Y-70675256D01*
X134594846Y-70665756D01*
X134608524Y-70657558D01*
X134622940Y-70650740D01*
X134637955Y-70645367D01*
X134653424Y-70641492D01*
X134669198Y-70639152D01*
X134685126Y-70638370D01*
X134701054Y-70639152D01*
X134701054Y-70639152D01*
G37*
D27*
X134906097Y-71251651D03*
D12*
G36*
X134347501Y-70992705D02*
X134363275Y-70995045D01*
X134378744Y-70998920D01*
X134393759Y-71004293D01*
X134408175Y-71011111D01*
X134421853Y-71019309D01*
X134434662Y-71028809D01*
X134446478Y-71039518D01*
X135118230Y-71711270D01*
X135128939Y-71723086D01*
X135138439Y-71735895D01*
X135146637Y-71749573D01*
X135153455Y-71763989D01*
X135158828Y-71779004D01*
X135162703Y-71794473D01*
X135165043Y-71810247D01*
X135165825Y-71826175D01*
X135165043Y-71842103D01*
X135162703Y-71857877D01*
X135158828Y-71873346D01*
X135153455Y-71888361D01*
X135146637Y-71902777D01*
X135138439Y-71916455D01*
X135128939Y-71929264D01*
X135118230Y-71941080D01*
X134888420Y-72170890D01*
X134876604Y-72181599D01*
X134863795Y-72191099D01*
X134850117Y-72199297D01*
X134835701Y-72206115D01*
X134820686Y-72211488D01*
X134805217Y-72215363D01*
X134789443Y-72217703D01*
X134773515Y-72218485D01*
X134757587Y-72217703D01*
X134741813Y-72215363D01*
X134726344Y-72211488D01*
X134711329Y-72206115D01*
X134696913Y-72199297D01*
X134683235Y-72191099D01*
X134670426Y-72181599D01*
X134658610Y-72170890D01*
X133986858Y-71499138D01*
X133976149Y-71487322D01*
X133966649Y-71474513D01*
X133958451Y-71460835D01*
X133951633Y-71446419D01*
X133946260Y-71431404D01*
X133942385Y-71415935D01*
X133940045Y-71400161D01*
X133939263Y-71384233D01*
X133940045Y-71368305D01*
X133942385Y-71352531D01*
X133946260Y-71337062D01*
X133951633Y-71322047D01*
X133958451Y-71307631D01*
X133966649Y-71293953D01*
X133976149Y-71281144D01*
X133986858Y-71269328D01*
X134216668Y-71039518D01*
X134228484Y-71028809D01*
X134241293Y-71019309D01*
X134254971Y-71011111D01*
X134269387Y-71004293D01*
X134284402Y-70998920D01*
X134299871Y-70995045D01*
X134315645Y-70992705D01*
X134331573Y-70991923D01*
X134347501Y-70992705D01*
X134347501Y-70992705D01*
G37*
D27*
X134552544Y-71605204D03*
D12*
G36*
X133993947Y-71346258D02*
X134009721Y-71348598D01*
X134025190Y-71352473D01*
X134040205Y-71357846D01*
X134054621Y-71364664D01*
X134068299Y-71372862D01*
X134081108Y-71382362D01*
X134092924Y-71393071D01*
X134764676Y-72064823D01*
X134775385Y-72076639D01*
X134784885Y-72089448D01*
X134793083Y-72103126D01*
X134799901Y-72117542D01*
X134805274Y-72132557D01*
X134809149Y-72148026D01*
X134811489Y-72163800D01*
X134812271Y-72179728D01*
X134811489Y-72195656D01*
X134809149Y-72211430D01*
X134805274Y-72226899D01*
X134799901Y-72241914D01*
X134793083Y-72256330D01*
X134784885Y-72270008D01*
X134775385Y-72282817D01*
X134764676Y-72294633D01*
X134534866Y-72524443D01*
X134523050Y-72535152D01*
X134510241Y-72544652D01*
X134496563Y-72552850D01*
X134482147Y-72559668D01*
X134467132Y-72565041D01*
X134451663Y-72568916D01*
X134435889Y-72571256D01*
X134419961Y-72572038D01*
X134404033Y-72571256D01*
X134388259Y-72568916D01*
X134372790Y-72565041D01*
X134357775Y-72559668D01*
X134343359Y-72552850D01*
X134329681Y-72544652D01*
X134316872Y-72535152D01*
X134305056Y-72524443D01*
X133633304Y-71852691D01*
X133622595Y-71840875D01*
X133613095Y-71828066D01*
X133604897Y-71814388D01*
X133598079Y-71799972D01*
X133592706Y-71784957D01*
X133588831Y-71769488D01*
X133586491Y-71753714D01*
X133585709Y-71737786D01*
X133586491Y-71721858D01*
X133588831Y-71706084D01*
X133592706Y-71690615D01*
X133598079Y-71675600D01*
X133604897Y-71661184D01*
X133613095Y-71647506D01*
X133622595Y-71634697D01*
X133633304Y-71622881D01*
X133863114Y-71393071D01*
X133874930Y-71382362D01*
X133887739Y-71372862D01*
X133901417Y-71364664D01*
X133915833Y-71357846D01*
X133930848Y-71352473D01*
X133946317Y-71348598D01*
X133962091Y-71346258D01*
X133978019Y-71345476D01*
X133993947Y-71346258D01*
X133993947Y-71346258D01*
G37*
D27*
X134198990Y-71958757D03*
D12*
G36*
X133640394Y-71699812D02*
X133656168Y-71702152D01*
X133671637Y-71706027D01*
X133686652Y-71711400D01*
X133701068Y-71718218D01*
X133714746Y-71726416D01*
X133727555Y-71735916D01*
X133739371Y-71746625D01*
X134411123Y-72418377D01*
X134421832Y-72430193D01*
X134431332Y-72443002D01*
X134439530Y-72456680D01*
X134446348Y-72471096D01*
X134451721Y-72486111D01*
X134455596Y-72501580D01*
X134457936Y-72517354D01*
X134458718Y-72533282D01*
X134457936Y-72549210D01*
X134455596Y-72564984D01*
X134451721Y-72580453D01*
X134446348Y-72595468D01*
X134439530Y-72609884D01*
X134431332Y-72623562D01*
X134421832Y-72636371D01*
X134411123Y-72648187D01*
X134181313Y-72877997D01*
X134169497Y-72888706D01*
X134156688Y-72898206D01*
X134143010Y-72906404D01*
X134128594Y-72913222D01*
X134113579Y-72918595D01*
X134098110Y-72922470D01*
X134082336Y-72924810D01*
X134066408Y-72925592D01*
X134050480Y-72924810D01*
X134034706Y-72922470D01*
X134019237Y-72918595D01*
X134004222Y-72913222D01*
X133989806Y-72906404D01*
X133976128Y-72898206D01*
X133963319Y-72888706D01*
X133951503Y-72877997D01*
X133279751Y-72206245D01*
X133269042Y-72194429D01*
X133259542Y-72181620D01*
X133251344Y-72167942D01*
X133244526Y-72153526D01*
X133239153Y-72138511D01*
X133235278Y-72123042D01*
X133232938Y-72107268D01*
X133232156Y-72091340D01*
X133232938Y-72075412D01*
X133235278Y-72059638D01*
X133239153Y-72044169D01*
X133244526Y-72029154D01*
X133251344Y-72014738D01*
X133259542Y-72001060D01*
X133269042Y-71988251D01*
X133279751Y-71976435D01*
X133509561Y-71746625D01*
X133521377Y-71735916D01*
X133534186Y-71726416D01*
X133547864Y-71718218D01*
X133562280Y-71711400D01*
X133577295Y-71706027D01*
X133592764Y-71702152D01*
X133608538Y-71699812D01*
X133624466Y-71699030D01*
X133640394Y-71699812D01*
X133640394Y-71699812D01*
G37*
D27*
X133845437Y-72312311D03*
D12*
G36*
X133286841Y-72053365D02*
X133302615Y-72055705D01*
X133318084Y-72059580D01*
X133333099Y-72064953D01*
X133347515Y-72071771D01*
X133361193Y-72079969D01*
X133374002Y-72089469D01*
X133385818Y-72100178D01*
X134057570Y-72771930D01*
X134068279Y-72783746D01*
X134077779Y-72796555D01*
X134085977Y-72810233D01*
X134092795Y-72824649D01*
X134098168Y-72839664D01*
X134102043Y-72855133D01*
X134104383Y-72870907D01*
X134105165Y-72886835D01*
X134104383Y-72902763D01*
X134102043Y-72918537D01*
X134098168Y-72934006D01*
X134092795Y-72949021D01*
X134085977Y-72963437D01*
X134077779Y-72977115D01*
X134068279Y-72989924D01*
X134057570Y-73001740D01*
X133827760Y-73231550D01*
X133815944Y-73242259D01*
X133803135Y-73251759D01*
X133789457Y-73259957D01*
X133775041Y-73266775D01*
X133760026Y-73272148D01*
X133744557Y-73276023D01*
X133728783Y-73278363D01*
X133712855Y-73279145D01*
X133696927Y-73278363D01*
X133681153Y-73276023D01*
X133665684Y-73272148D01*
X133650669Y-73266775D01*
X133636253Y-73259957D01*
X133622575Y-73251759D01*
X133609766Y-73242259D01*
X133597950Y-73231550D01*
X132926198Y-72559798D01*
X132915489Y-72547982D01*
X132905989Y-72535173D01*
X132897791Y-72521495D01*
X132890973Y-72507079D01*
X132885600Y-72492064D01*
X132881725Y-72476595D01*
X132879385Y-72460821D01*
X132878603Y-72444893D01*
X132879385Y-72428965D01*
X132881725Y-72413191D01*
X132885600Y-72397722D01*
X132890973Y-72382707D01*
X132897791Y-72368291D01*
X132905989Y-72354613D01*
X132915489Y-72341804D01*
X132926198Y-72329988D01*
X133156008Y-72100178D01*
X133167824Y-72089469D01*
X133180633Y-72079969D01*
X133194311Y-72071771D01*
X133208727Y-72064953D01*
X133223742Y-72059580D01*
X133239211Y-72055705D01*
X133254985Y-72053365D01*
X133270913Y-72052583D01*
X133286841Y-72053365D01*
X133286841Y-72053365D01*
G37*
D27*
X133491884Y-72665864D03*
D12*
G36*
X133728783Y-73025637D02*
X133744557Y-73027977D01*
X133760026Y-73031852D01*
X133775041Y-73037225D01*
X133789457Y-73044043D01*
X133803135Y-73052241D01*
X133815944Y-73061741D01*
X133827760Y-73072450D01*
X134057570Y-73302260D01*
X134068279Y-73314076D01*
X134077779Y-73326885D01*
X134085977Y-73340563D01*
X134092795Y-73354979D01*
X134098168Y-73369994D01*
X134102043Y-73385463D01*
X134104383Y-73401237D01*
X134105165Y-73417165D01*
X134104383Y-73433093D01*
X134102043Y-73448867D01*
X134098168Y-73464336D01*
X134092795Y-73479351D01*
X134085977Y-73493767D01*
X134077779Y-73507445D01*
X134068279Y-73520254D01*
X134057570Y-73532070D01*
X133385818Y-74203822D01*
X133374002Y-74214531D01*
X133361193Y-74224031D01*
X133347515Y-74232229D01*
X133333099Y-74239047D01*
X133318084Y-74244420D01*
X133302615Y-74248295D01*
X133286841Y-74250635D01*
X133270913Y-74251417D01*
X133254985Y-74250635D01*
X133239211Y-74248295D01*
X133223742Y-74244420D01*
X133208727Y-74239047D01*
X133194311Y-74232229D01*
X133180633Y-74224031D01*
X133167824Y-74214531D01*
X133156008Y-74203822D01*
X132926198Y-73974012D01*
X132915489Y-73962196D01*
X132905989Y-73949387D01*
X132897791Y-73935709D01*
X132890973Y-73921293D01*
X132885600Y-73906278D01*
X132881725Y-73890809D01*
X132879385Y-73875035D01*
X132878603Y-73859107D01*
X132879385Y-73843179D01*
X132881725Y-73827405D01*
X132885600Y-73811936D01*
X132890973Y-73796921D01*
X132897791Y-73782505D01*
X132905989Y-73768827D01*
X132915489Y-73756018D01*
X132926198Y-73744202D01*
X133597950Y-73072450D01*
X133609766Y-73061741D01*
X133622575Y-73052241D01*
X133636253Y-73044043D01*
X133650669Y-73037225D01*
X133665684Y-73031852D01*
X133681153Y-73027977D01*
X133696927Y-73025637D01*
X133712855Y-73024855D01*
X133728783Y-73025637D01*
X133728783Y-73025637D01*
G37*
D27*
X133491884Y-73638136D03*
D12*
G36*
X134082336Y-73379190D02*
X134098110Y-73381530D01*
X134113579Y-73385405D01*
X134128594Y-73390778D01*
X134143010Y-73397596D01*
X134156688Y-73405794D01*
X134169497Y-73415294D01*
X134181313Y-73426003D01*
X134411123Y-73655813D01*
X134421832Y-73667629D01*
X134431332Y-73680438D01*
X134439530Y-73694116D01*
X134446348Y-73708532D01*
X134451721Y-73723547D01*
X134455596Y-73739016D01*
X134457936Y-73754790D01*
X134458718Y-73770718D01*
X134457936Y-73786646D01*
X134455596Y-73802420D01*
X134451721Y-73817889D01*
X134446348Y-73832904D01*
X134439530Y-73847320D01*
X134431332Y-73860998D01*
X134421832Y-73873807D01*
X134411123Y-73885623D01*
X133739371Y-74557375D01*
X133727555Y-74568084D01*
X133714746Y-74577584D01*
X133701068Y-74585782D01*
X133686652Y-74592600D01*
X133671637Y-74597973D01*
X133656168Y-74601848D01*
X133640394Y-74604188D01*
X133624466Y-74604970D01*
X133608538Y-74604188D01*
X133592764Y-74601848D01*
X133577295Y-74597973D01*
X133562280Y-74592600D01*
X133547864Y-74585782D01*
X133534186Y-74577584D01*
X133521377Y-74568084D01*
X133509561Y-74557375D01*
X133279751Y-74327565D01*
X133269042Y-74315749D01*
X133259542Y-74302940D01*
X133251344Y-74289262D01*
X133244526Y-74274846D01*
X133239153Y-74259831D01*
X133235278Y-74244362D01*
X133232938Y-74228588D01*
X133232156Y-74212660D01*
X133232938Y-74196732D01*
X133235278Y-74180958D01*
X133239153Y-74165489D01*
X133244526Y-74150474D01*
X133251344Y-74136058D01*
X133259542Y-74122380D01*
X133269042Y-74109571D01*
X133279751Y-74097755D01*
X133951503Y-73426003D01*
X133963319Y-73415294D01*
X133976128Y-73405794D01*
X133989806Y-73397596D01*
X134004222Y-73390778D01*
X134019237Y-73385405D01*
X134034706Y-73381530D01*
X134050480Y-73379190D01*
X134066408Y-73378408D01*
X134082336Y-73379190D01*
X134082336Y-73379190D01*
G37*
D27*
X133845437Y-73991689D03*
D12*
G36*
X134435889Y-73732744D02*
X134451663Y-73735084D01*
X134467132Y-73738959D01*
X134482147Y-73744332D01*
X134496563Y-73751150D01*
X134510241Y-73759348D01*
X134523050Y-73768848D01*
X134534866Y-73779557D01*
X134764676Y-74009367D01*
X134775385Y-74021183D01*
X134784885Y-74033992D01*
X134793083Y-74047670D01*
X134799901Y-74062086D01*
X134805274Y-74077101D01*
X134809149Y-74092570D01*
X134811489Y-74108344D01*
X134812271Y-74124272D01*
X134811489Y-74140200D01*
X134809149Y-74155974D01*
X134805274Y-74171443D01*
X134799901Y-74186458D01*
X134793083Y-74200874D01*
X134784885Y-74214552D01*
X134775385Y-74227361D01*
X134764676Y-74239177D01*
X134092924Y-74910929D01*
X134081108Y-74921638D01*
X134068299Y-74931138D01*
X134054621Y-74939336D01*
X134040205Y-74946154D01*
X134025190Y-74951527D01*
X134009721Y-74955402D01*
X133993947Y-74957742D01*
X133978019Y-74958524D01*
X133962091Y-74957742D01*
X133946317Y-74955402D01*
X133930848Y-74951527D01*
X133915833Y-74946154D01*
X133901417Y-74939336D01*
X133887739Y-74931138D01*
X133874930Y-74921638D01*
X133863114Y-74910929D01*
X133633304Y-74681119D01*
X133622595Y-74669303D01*
X133613095Y-74656494D01*
X133604897Y-74642816D01*
X133598079Y-74628400D01*
X133592706Y-74613385D01*
X133588831Y-74597916D01*
X133586491Y-74582142D01*
X133585709Y-74566214D01*
X133586491Y-74550286D01*
X133588831Y-74534512D01*
X133592706Y-74519043D01*
X133598079Y-74504028D01*
X133604897Y-74489612D01*
X133613095Y-74475934D01*
X133622595Y-74463125D01*
X133633304Y-74451309D01*
X134305056Y-73779557D01*
X134316872Y-73768848D01*
X134329681Y-73759348D01*
X134343359Y-73751150D01*
X134357775Y-73744332D01*
X134372790Y-73738959D01*
X134388259Y-73735084D01*
X134404033Y-73732744D01*
X134419961Y-73731962D01*
X134435889Y-73732744D01*
X134435889Y-73732744D01*
G37*
D27*
X134198990Y-74345243D03*
D12*
G36*
X134789443Y-74086297D02*
X134805217Y-74088637D01*
X134820686Y-74092512D01*
X134835701Y-74097885D01*
X134850117Y-74104703D01*
X134863795Y-74112901D01*
X134876604Y-74122401D01*
X134888420Y-74133110D01*
X135118230Y-74362920D01*
X135128939Y-74374736D01*
X135138439Y-74387545D01*
X135146637Y-74401223D01*
X135153455Y-74415639D01*
X135158828Y-74430654D01*
X135162703Y-74446123D01*
X135165043Y-74461897D01*
X135165825Y-74477825D01*
X135165043Y-74493753D01*
X135162703Y-74509527D01*
X135158828Y-74524996D01*
X135153455Y-74540011D01*
X135146637Y-74554427D01*
X135138439Y-74568105D01*
X135128939Y-74580914D01*
X135118230Y-74592730D01*
X134446478Y-75264482D01*
X134434662Y-75275191D01*
X134421853Y-75284691D01*
X134408175Y-75292889D01*
X134393759Y-75299707D01*
X134378744Y-75305080D01*
X134363275Y-75308955D01*
X134347501Y-75311295D01*
X134331573Y-75312077D01*
X134315645Y-75311295D01*
X134299871Y-75308955D01*
X134284402Y-75305080D01*
X134269387Y-75299707D01*
X134254971Y-75292889D01*
X134241293Y-75284691D01*
X134228484Y-75275191D01*
X134216668Y-75264482D01*
X133986858Y-75034672D01*
X133976149Y-75022856D01*
X133966649Y-75010047D01*
X133958451Y-74996369D01*
X133951633Y-74981953D01*
X133946260Y-74966938D01*
X133942385Y-74951469D01*
X133940045Y-74935695D01*
X133939263Y-74919767D01*
X133940045Y-74903839D01*
X133942385Y-74888065D01*
X133946260Y-74872596D01*
X133951633Y-74857581D01*
X133958451Y-74843165D01*
X133966649Y-74829487D01*
X133976149Y-74816678D01*
X133986858Y-74804862D01*
X134658610Y-74133110D01*
X134670426Y-74122401D01*
X134683235Y-74112901D01*
X134696913Y-74104703D01*
X134711329Y-74097885D01*
X134726344Y-74092512D01*
X134741813Y-74088637D01*
X134757587Y-74086297D01*
X134773515Y-74085515D01*
X134789443Y-74086297D01*
X134789443Y-74086297D01*
G37*
D27*
X134552544Y-74698796D03*
D12*
G36*
X135142996Y-74439850D02*
X135158770Y-74442190D01*
X135174239Y-74446065D01*
X135189254Y-74451438D01*
X135203670Y-74458256D01*
X135217348Y-74466454D01*
X135230157Y-74475954D01*
X135241973Y-74486663D01*
X135471783Y-74716473D01*
X135482492Y-74728289D01*
X135491992Y-74741098D01*
X135500190Y-74754776D01*
X135507008Y-74769192D01*
X135512381Y-74784207D01*
X135516256Y-74799676D01*
X135518596Y-74815450D01*
X135519378Y-74831378D01*
X135518596Y-74847306D01*
X135516256Y-74863080D01*
X135512381Y-74878549D01*
X135507008Y-74893564D01*
X135500190Y-74907980D01*
X135491992Y-74921658D01*
X135482492Y-74934467D01*
X135471783Y-74946283D01*
X134800031Y-75618035D01*
X134788215Y-75628744D01*
X134775406Y-75638244D01*
X134761728Y-75646442D01*
X134747312Y-75653260D01*
X134732297Y-75658633D01*
X134716828Y-75662508D01*
X134701054Y-75664848D01*
X134685126Y-75665630D01*
X134669198Y-75664848D01*
X134653424Y-75662508D01*
X134637955Y-75658633D01*
X134622940Y-75653260D01*
X134608524Y-75646442D01*
X134594846Y-75638244D01*
X134582037Y-75628744D01*
X134570221Y-75618035D01*
X134340411Y-75388225D01*
X134329702Y-75376409D01*
X134320202Y-75363600D01*
X134312004Y-75349922D01*
X134305186Y-75335506D01*
X134299813Y-75320491D01*
X134295938Y-75305022D01*
X134293598Y-75289248D01*
X134292816Y-75273320D01*
X134293598Y-75257392D01*
X134295938Y-75241618D01*
X134299813Y-75226149D01*
X134305186Y-75211134D01*
X134312004Y-75196718D01*
X134320202Y-75183040D01*
X134329702Y-75170231D01*
X134340411Y-75158415D01*
X135012163Y-74486663D01*
X135023979Y-74475954D01*
X135036788Y-74466454D01*
X135050466Y-74458256D01*
X135064882Y-74451438D01*
X135079897Y-74446065D01*
X135095366Y-74442190D01*
X135111140Y-74439850D01*
X135127068Y-74439068D01*
X135142996Y-74439850D01*
X135142996Y-74439850D01*
G37*
D27*
X134906097Y-75052349D03*
D12*
G36*
X135496550Y-74793404D02*
X135512324Y-74795744D01*
X135527793Y-74799619D01*
X135542808Y-74804992D01*
X135557224Y-74811810D01*
X135570902Y-74820008D01*
X135583711Y-74829508D01*
X135595527Y-74840217D01*
X135825337Y-75070027D01*
X135836046Y-75081843D01*
X135845546Y-75094652D01*
X135853744Y-75108330D01*
X135860562Y-75122746D01*
X135865935Y-75137761D01*
X135869810Y-75153230D01*
X135872150Y-75169004D01*
X135872932Y-75184932D01*
X135872150Y-75200860D01*
X135869810Y-75216634D01*
X135865935Y-75232103D01*
X135860562Y-75247118D01*
X135853744Y-75261534D01*
X135845546Y-75275212D01*
X135836046Y-75288021D01*
X135825337Y-75299837D01*
X135153585Y-75971589D01*
X135141769Y-75982298D01*
X135128960Y-75991798D01*
X135115282Y-75999996D01*
X135100866Y-76006814D01*
X135085851Y-76012187D01*
X135070382Y-76016062D01*
X135054608Y-76018402D01*
X135038680Y-76019184D01*
X135022752Y-76018402D01*
X135006978Y-76016062D01*
X134991509Y-76012187D01*
X134976494Y-76006814D01*
X134962078Y-75999996D01*
X134948400Y-75991798D01*
X134935591Y-75982298D01*
X134923775Y-75971589D01*
X134693965Y-75741779D01*
X134683256Y-75729963D01*
X134673756Y-75717154D01*
X134665558Y-75703476D01*
X134658740Y-75689060D01*
X134653367Y-75674045D01*
X134649492Y-75658576D01*
X134647152Y-75642802D01*
X134646370Y-75626874D01*
X134647152Y-75610946D01*
X134649492Y-75595172D01*
X134653367Y-75579703D01*
X134658740Y-75564688D01*
X134665558Y-75550272D01*
X134673756Y-75536594D01*
X134683256Y-75523785D01*
X134693965Y-75511969D01*
X135365717Y-74840217D01*
X135377533Y-74829508D01*
X135390342Y-74820008D01*
X135404020Y-74811810D01*
X135418436Y-74804992D01*
X135433451Y-74799619D01*
X135448920Y-74795744D01*
X135464694Y-74793404D01*
X135480622Y-74792622D01*
X135496550Y-74793404D01*
X135496550Y-74793404D01*
G37*
D27*
X135259651Y-75405903D03*
D12*
G36*
X135850103Y-75146957D02*
X135865877Y-75149297D01*
X135881346Y-75153172D01*
X135896361Y-75158545D01*
X135910777Y-75165363D01*
X135924455Y-75173561D01*
X135937264Y-75183061D01*
X135949080Y-75193770D01*
X136178890Y-75423580D01*
X136189599Y-75435396D01*
X136199099Y-75448205D01*
X136207297Y-75461883D01*
X136214115Y-75476299D01*
X136219488Y-75491314D01*
X136223363Y-75506783D01*
X136225703Y-75522557D01*
X136226485Y-75538485D01*
X136225703Y-75554413D01*
X136223363Y-75570187D01*
X136219488Y-75585656D01*
X136214115Y-75600671D01*
X136207297Y-75615087D01*
X136199099Y-75628765D01*
X136189599Y-75641574D01*
X136178890Y-75653390D01*
X135507138Y-76325142D01*
X135495322Y-76335851D01*
X135482513Y-76345351D01*
X135468835Y-76353549D01*
X135454419Y-76360367D01*
X135439404Y-76365740D01*
X135423935Y-76369615D01*
X135408161Y-76371955D01*
X135392233Y-76372737D01*
X135376305Y-76371955D01*
X135360531Y-76369615D01*
X135345062Y-76365740D01*
X135330047Y-76360367D01*
X135315631Y-76353549D01*
X135301953Y-76345351D01*
X135289144Y-76335851D01*
X135277328Y-76325142D01*
X135047518Y-76095332D01*
X135036809Y-76083516D01*
X135027309Y-76070707D01*
X135019111Y-76057029D01*
X135012293Y-76042613D01*
X135006920Y-76027598D01*
X135003045Y-76012129D01*
X135000705Y-75996355D01*
X134999923Y-75980427D01*
X135000705Y-75964499D01*
X135003045Y-75948725D01*
X135006920Y-75933256D01*
X135012293Y-75918241D01*
X135019111Y-75903825D01*
X135027309Y-75890147D01*
X135036809Y-75877338D01*
X135047518Y-75865522D01*
X135719270Y-75193770D01*
X135731086Y-75183061D01*
X135743895Y-75173561D01*
X135757573Y-75165363D01*
X135771989Y-75158545D01*
X135787004Y-75153172D01*
X135802473Y-75149297D01*
X135818247Y-75146957D01*
X135834175Y-75146175D01*
X135850103Y-75146957D01*
X135850103Y-75146957D01*
G37*
D27*
X135613204Y-75759456D03*
D12*
G36*
X136203656Y-75500511D02*
X136219430Y-75502851D01*
X136234899Y-75506726D01*
X136249914Y-75512099D01*
X136264330Y-75518917D01*
X136278008Y-75527115D01*
X136290817Y-75536615D01*
X136302633Y-75547324D01*
X136532443Y-75777134D01*
X136543152Y-75788950D01*
X136552652Y-75801759D01*
X136560850Y-75815437D01*
X136567668Y-75829853D01*
X136573041Y-75844868D01*
X136576916Y-75860337D01*
X136579256Y-75876111D01*
X136580038Y-75892039D01*
X136579256Y-75907967D01*
X136576916Y-75923741D01*
X136573041Y-75939210D01*
X136567668Y-75954225D01*
X136560850Y-75968641D01*
X136552652Y-75982319D01*
X136543152Y-75995128D01*
X136532443Y-76006944D01*
X135860691Y-76678696D01*
X135848875Y-76689405D01*
X135836066Y-76698905D01*
X135822388Y-76707103D01*
X135807972Y-76713921D01*
X135792957Y-76719294D01*
X135777488Y-76723169D01*
X135761714Y-76725509D01*
X135745786Y-76726291D01*
X135729858Y-76725509D01*
X135714084Y-76723169D01*
X135698615Y-76719294D01*
X135683600Y-76713921D01*
X135669184Y-76707103D01*
X135655506Y-76698905D01*
X135642697Y-76689405D01*
X135630881Y-76678696D01*
X135401071Y-76448886D01*
X135390362Y-76437070D01*
X135380862Y-76424261D01*
X135372664Y-76410583D01*
X135365846Y-76396167D01*
X135360473Y-76381152D01*
X135356598Y-76365683D01*
X135354258Y-76349909D01*
X135353476Y-76333981D01*
X135354258Y-76318053D01*
X135356598Y-76302279D01*
X135360473Y-76286810D01*
X135365846Y-76271795D01*
X135372664Y-76257379D01*
X135380862Y-76243701D01*
X135390362Y-76230892D01*
X135401071Y-76219076D01*
X136072823Y-75547324D01*
X136084639Y-75536615D01*
X136097448Y-75527115D01*
X136111126Y-75518917D01*
X136125542Y-75512099D01*
X136140557Y-75506726D01*
X136156026Y-75502851D01*
X136171800Y-75500511D01*
X136187728Y-75499729D01*
X136203656Y-75500511D01*
X136203656Y-75500511D01*
G37*
D27*
X135966757Y-76113010D03*
D12*
G36*
X136557210Y-75854064D02*
X136572984Y-75856404D01*
X136588453Y-75860279D01*
X136603468Y-75865652D01*
X136617884Y-75872470D01*
X136631562Y-75880668D01*
X136644371Y-75890168D01*
X136656187Y-75900877D01*
X136885997Y-76130687D01*
X136896706Y-76142503D01*
X136906206Y-76155312D01*
X136914404Y-76168990D01*
X136921222Y-76183406D01*
X136926595Y-76198421D01*
X136930470Y-76213890D01*
X136932810Y-76229664D01*
X136933592Y-76245592D01*
X136932810Y-76261520D01*
X136930470Y-76277294D01*
X136926595Y-76292763D01*
X136921222Y-76307778D01*
X136914404Y-76322194D01*
X136906206Y-76335872D01*
X136896706Y-76348681D01*
X136885997Y-76360497D01*
X136214245Y-77032249D01*
X136202429Y-77042958D01*
X136189620Y-77052458D01*
X136175942Y-77060656D01*
X136161526Y-77067474D01*
X136146511Y-77072847D01*
X136131042Y-77076722D01*
X136115268Y-77079062D01*
X136099340Y-77079844D01*
X136083412Y-77079062D01*
X136067638Y-77076722D01*
X136052169Y-77072847D01*
X136037154Y-77067474D01*
X136022738Y-77060656D01*
X136009060Y-77052458D01*
X135996251Y-77042958D01*
X135984435Y-77032249D01*
X135754625Y-76802439D01*
X135743916Y-76790623D01*
X135734416Y-76777814D01*
X135726218Y-76764136D01*
X135719400Y-76749720D01*
X135714027Y-76734705D01*
X135710152Y-76719236D01*
X135707812Y-76703462D01*
X135707030Y-76687534D01*
X135707812Y-76671606D01*
X135710152Y-76655832D01*
X135714027Y-76640363D01*
X135719400Y-76625348D01*
X135726218Y-76610932D01*
X135734416Y-76597254D01*
X135743916Y-76584445D01*
X135754625Y-76572629D01*
X136426377Y-75900877D01*
X136438193Y-75890168D01*
X136451002Y-75880668D01*
X136464680Y-75872470D01*
X136479096Y-75865652D01*
X136494111Y-75860279D01*
X136509580Y-75856404D01*
X136525354Y-75854064D01*
X136541282Y-75853282D01*
X136557210Y-75854064D01*
X136557210Y-75854064D01*
G37*
D27*
X136320311Y-76466563D03*
D12*
G36*
X136910763Y-76207617D02*
X136926537Y-76209957D01*
X136942006Y-76213832D01*
X136957021Y-76219205D01*
X136971437Y-76226023D01*
X136985115Y-76234221D01*
X136997924Y-76243721D01*
X137009740Y-76254430D01*
X137239550Y-76484240D01*
X137250259Y-76496056D01*
X137259759Y-76508865D01*
X137267957Y-76522543D01*
X137274775Y-76536959D01*
X137280148Y-76551974D01*
X137284023Y-76567443D01*
X137286363Y-76583217D01*
X137287145Y-76599145D01*
X137286363Y-76615073D01*
X137284023Y-76630847D01*
X137280148Y-76646316D01*
X137274775Y-76661331D01*
X137267957Y-76675747D01*
X137259759Y-76689425D01*
X137250259Y-76702234D01*
X137239550Y-76714050D01*
X136567798Y-77385802D01*
X136555982Y-77396511D01*
X136543173Y-77406011D01*
X136529495Y-77414209D01*
X136515079Y-77421027D01*
X136500064Y-77426400D01*
X136484595Y-77430275D01*
X136468821Y-77432615D01*
X136452893Y-77433397D01*
X136436965Y-77432615D01*
X136421191Y-77430275D01*
X136405722Y-77426400D01*
X136390707Y-77421027D01*
X136376291Y-77414209D01*
X136362613Y-77406011D01*
X136349804Y-77396511D01*
X136337988Y-77385802D01*
X136108178Y-77155992D01*
X136097469Y-77144176D01*
X136087969Y-77131367D01*
X136079771Y-77117689D01*
X136072953Y-77103273D01*
X136067580Y-77088258D01*
X136063705Y-77072789D01*
X136061365Y-77057015D01*
X136060583Y-77041087D01*
X136061365Y-77025159D01*
X136063705Y-77009385D01*
X136067580Y-76993916D01*
X136072953Y-76978901D01*
X136079771Y-76964485D01*
X136087969Y-76950807D01*
X136097469Y-76937998D01*
X136108178Y-76926182D01*
X136779930Y-76254430D01*
X136791746Y-76243721D01*
X136804555Y-76234221D01*
X136818233Y-76226023D01*
X136832649Y-76219205D01*
X136847664Y-76213832D01*
X136863133Y-76209957D01*
X136878907Y-76207617D01*
X136894835Y-76206835D01*
X136910763Y-76207617D01*
X136910763Y-76207617D01*
G37*
D27*
X136673864Y-76820116D03*
D12*
G36*
X137441093Y-76207617D02*
X137456867Y-76209957D01*
X137472336Y-76213832D01*
X137487351Y-76219205D01*
X137501767Y-76226023D01*
X137515445Y-76234221D01*
X137528254Y-76243721D01*
X137540070Y-76254430D01*
X138211822Y-76926182D01*
X138222531Y-76937998D01*
X138232031Y-76950807D01*
X138240229Y-76964485D01*
X138247047Y-76978901D01*
X138252420Y-76993916D01*
X138256295Y-77009385D01*
X138258635Y-77025159D01*
X138259417Y-77041087D01*
X138258635Y-77057015D01*
X138256295Y-77072789D01*
X138252420Y-77088258D01*
X138247047Y-77103273D01*
X138240229Y-77117689D01*
X138232031Y-77131367D01*
X138222531Y-77144176D01*
X138211822Y-77155992D01*
X137982012Y-77385802D01*
X137970196Y-77396511D01*
X137957387Y-77406011D01*
X137943709Y-77414209D01*
X137929293Y-77421027D01*
X137914278Y-77426400D01*
X137898809Y-77430275D01*
X137883035Y-77432615D01*
X137867107Y-77433397D01*
X137851179Y-77432615D01*
X137835405Y-77430275D01*
X137819936Y-77426400D01*
X137804921Y-77421027D01*
X137790505Y-77414209D01*
X137776827Y-77406011D01*
X137764018Y-77396511D01*
X137752202Y-77385802D01*
X137080450Y-76714050D01*
X137069741Y-76702234D01*
X137060241Y-76689425D01*
X137052043Y-76675747D01*
X137045225Y-76661331D01*
X137039852Y-76646316D01*
X137035977Y-76630847D01*
X137033637Y-76615073D01*
X137032855Y-76599145D01*
X137033637Y-76583217D01*
X137035977Y-76567443D01*
X137039852Y-76551974D01*
X137045225Y-76536959D01*
X137052043Y-76522543D01*
X137060241Y-76508865D01*
X137069741Y-76496056D01*
X137080450Y-76484240D01*
X137310260Y-76254430D01*
X137322076Y-76243721D01*
X137334885Y-76234221D01*
X137348563Y-76226023D01*
X137362979Y-76219205D01*
X137377994Y-76213832D01*
X137393463Y-76209957D01*
X137409237Y-76207617D01*
X137425165Y-76206835D01*
X137441093Y-76207617D01*
X137441093Y-76207617D01*
G37*
D27*
X137646136Y-76820116D03*
D12*
G36*
X137794646Y-75854064D02*
X137810420Y-75856404D01*
X137825889Y-75860279D01*
X137840904Y-75865652D01*
X137855320Y-75872470D01*
X137868998Y-75880668D01*
X137881807Y-75890168D01*
X137893623Y-75900877D01*
X138565375Y-76572629D01*
X138576084Y-76584445D01*
X138585584Y-76597254D01*
X138593782Y-76610932D01*
X138600600Y-76625348D01*
X138605973Y-76640363D01*
X138609848Y-76655832D01*
X138612188Y-76671606D01*
X138612970Y-76687534D01*
X138612188Y-76703462D01*
X138609848Y-76719236D01*
X138605973Y-76734705D01*
X138600600Y-76749720D01*
X138593782Y-76764136D01*
X138585584Y-76777814D01*
X138576084Y-76790623D01*
X138565375Y-76802439D01*
X138335565Y-77032249D01*
X138323749Y-77042958D01*
X138310940Y-77052458D01*
X138297262Y-77060656D01*
X138282846Y-77067474D01*
X138267831Y-77072847D01*
X138252362Y-77076722D01*
X138236588Y-77079062D01*
X138220660Y-77079844D01*
X138204732Y-77079062D01*
X138188958Y-77076722D01*
X138173489Y-77072847D01*
X138158474Y-77067474D01*
X138144058Y-77060656D01*
X138130380Y-77052458D01*
X138117571Y-77042958D01*
X138105755Y-77032249D01*
X137434003Y-76360497D01*
X137423294Y-76348681D01*
X137413794Y-76335872D01*
X137405596Y-76322194D01*
X137398778Y-76307778D01*
X137393405Y-76292763D01*
X137389530Y-76277294D01*
X137387190Y-76261520D01*
X137386408Y-76245592D01*
X137387190Y-76229664D01*
X137389530Y-76213890D01*
X137393405Y-76198421D01*
X137398778Y-76183406D01*
X137405596Y-76168990D01*
X137413794Y-76155312D01*
X137423294Y-76142503D01*
X137434003Y-76130687D01*
X137663813Y-75900877D01*
X137675629Y-75890168D01*
X137688438Y-75880668D01*
X137702116Y-75872470D01*
X137716532Y-75865652D01*
X137731547Y-75860279D01*
X137747016Y-75856404D01*
X137762790Y-75854064D01*
X137778718Y-75853282D01*
X137794646Y-75854064D01*
X137794646Y-75854064D01*
G37*
D27*
X137999689Y-76466563D03*
D12*
G36*
X138148200Y-75500511D02*
X138163974Y-75502851D01*
X138179443Y-75506726D01*
X138194458Y-75512099D01*
X138208874Y-75518917D01*
X138222552Y-75527115D01*
X138235361Y-75536615D01*
X138247177Y-75547324D01*
X138918929Y-76219076D01*
X138929638Y-76230892D01*
X138939138Y-76243701D01*
X138947336Y-76257379D01*
X138954154Y-76271795D01*
X138959527Y-76286810D01*
X138963402Y-76302279D01*
X138965742Y-76318053D01*
X138966524Y-76333981D01*
X138965742Y-76349909D01*
X138963402Y-76365683D01*
X138959527Y-76381152D01*
X138954154Y-76396167D01*
X138947336Y-76410583D01*
X138939138Y-76424261D01*
X138929638Y-76437070D01*
X138918929Y-76448886D01*
X138689119Y-76678696D01*
X138677303Y-76689405D01*
X138664494Y-76698905D01*
X138650816Y-76707103D01*
X138636400Y-76713921D01*
X138621385Y-76719294D01*
X138605916Y-76723169D01*
X138590142Y-76725509D01*
X138574214Y-76726291D01*
X138558286Y-76725509D01*
X138542512Y-76723169D01*
X138527043Y-76719294D01*
X138512028Y-76713921D01*
X138497612Y-76707103D01*
X138483934Y-76698905D01*
X138471125Y-76689405D01*
X138459309Y-76678696D01*
X137787557Y-76006944D01*
X137776848Y-75995128D01*
X137767348Y-75982319D01*
X137759150Y-75968641D01*
X137752332Y-75954225D01*
X137746959Y-75939210D01*
X137743084Y-75923741D01*
X137740744Y-75907967D01*
X137739962Y-75892039D01*
X137740744Y-75876111D01*
X137743084Y-75860337D01*
X137746959Y-75844868D01*
X137752332Y-75829853D01*
X137759150Y-75815437D01*
X137767348Y-75801759D01*
X137776848Y-75788950D01*
X137787557Y-75777134D01*
X138017367Y-75547324D01*
X138029183Y-75536615D01*
X138041992Y-75527115D01*
X138055670Y-75518917D01*
X138070086Y-75512099D01*
X138085101Y-75506726D01*
X138100570Y-75502851D01*
X138116344Y-75500511D01*
X138132272Y-75499729D01*
X138148200Y-75500511D01*
X138148200Y-75500511D01*
G37*
D27*
X138353243Y-76113010D03*
D12*
G36*
X138501753Y-75146957D02*
X138517527Y-75149297D01*
X138532996Y-75153172D01*
X138548011Y-75158545D01*
X138562427Y-75165363D01*
X138576105Y-75173561D01*
X138588914Y-75183061D01*
X138600730Y-75193770D01*
X139272482Y-75865522D01*
X139283191Y-75877338D01*
X139292691Y-75890147D01*
X139300889Y-75903825D01*
X139307707Y-75918241D01*
X139313080Y-75933256D01*
X139316955Y-75948725D01*
X139319295Y-75964499D01*
X139320077Y-75980427D01*
X139319295Y-75996355D01*
X139316955Y-76012129D01*
X139313080Y-76027598D01*
X139307707Y-76042613D01*
X139300889Y-76057029D01*
X139292691Y-76070707D01*
X139283191Y-76083516D01*
X139272482Y-76095332D01*
X139042672Y-76325142D01*
X139030856Y-76335851D01*
X139018047Y-76345351D01*
X139004369Y-76353549D01*
X138989953Y-76360367D01*
X138974938Y-76365740D01*
X138959469Y-76369615D01*
X138943695Y-76371955D01*
X138927767Y-76372737D01*
X138911839Y-76371955D01*
X138896065Y-76369615D01*
X138880596Y-76365740D01*
X138865581Y-76360367D01*
X138851165Y-76353549D01*
X138837487Y-76345351D01*
X138824678Y-76335851D01*
X138812862Y-76325142D01*
X138141110Y-75653390D01*
X138130401Y-75641574D01*
X138120901Y-75628765D01*
X138112703Y-75615087D01*
X138105885Y-75600671D01*
X138100512Y-75585656D01*
X138096637Y-75570187D01*
X138094297Y-75554413D01*
X138093515Y-75538485D01*
X138094297Y-75522557D01*
X138096637Y-75506783D01*
X138100512Y-75491314D01*
X138105885Y-75476299D01*
X138112703Y-75461883D01*
X138120901Y-75448205D01*
X138130401Y-75435396D01*
X138141110Y-75423580D01*
X138370920Y-75193770D01*
X138382736Y-75183061D01*
X138395545Y-75173561D01*
X138409223Y-75165363D01*
X138423639Y-75158545D01*
X138438654Y-75153172D01*
X138454123Y-75149297D01*
X138469897Y-75146957D01*
X138485825Y-75146175D01*
X138501753Y-75146957D01*
X138501753Y-75146957D01*
G37*
D27*
X138706796Y-75759456D03*
D12*
G36*
X138855306Y-74793404D02*
X138871080Y-74795744D01*
X138886549Y-74799619D01*
X138901564Y-74804992D01*
X138915980Y-74811810D01*
X138929658Y-74820008D01*
X138942467Y-74829508D01*
X138954283Y-74840217D01*
X139626035Y-75511969D01*
X139636744Y-75523785D01*
X139646244Y-75536594D01*
X139654442Y-75550272D01*
X139661260Y-75564688D01*
X139666633Y-75579703D01*
X139670508Y-75595172D01*
X139672848Y-75610946D01*
X139673630Y-75626874D01*
X139672848Y-75642802D01*
X139670508Y-75658576D01*
X139666633Y-75674045D01*
X139661260Y-75689060D01*
X139654442Y-75703476D01*
X139646244Y-75717154D01*
X139636744Y-75729963D01*
X139626035Y-75741779D01*
X139396225Y-75971589D01*
X139384409Y-75982298D01*
X139371600Y-75991798D01*
X139357922Y-75999996D01*
X139343506Y-76006814D01*
X139328491Y-76012187D01*
X139313022Y-76016062D01*
X139297248Y-76018402D01*
X139281320Y-76019184D01*
X139265392Y-76018402D01*
X139249618Y-76016062D01*
X139234149Y-76012187D01*
X139219134Y-76006814D01*
X139204718Y-75999996D01*
X139191040Y-75991798D01*
X139178231Y-75982298D01*
X139166415Y-75971589D01*
X138494663Y-75299837D01*
X138483954Y-75288021D01*
X138474454Y-75275212D01*
X138466256Y-75261534D01*
X138459438Y-75247118D01*
X138454065Y-75232103D01*
X138450190Y-75216634D01*
X138447850Y-75200860D01*
X138447068Y-75184932D01*
X138447850Y-75169004D01*
X138450190Y-75153230D01*
X138454065Y-75137761D01*
X138459438Y-75122746D01*
X138466256Y-75108330D01*
X138474454Y-75094652D01*
X138483954Y-75081843D01*
X138494663Y-75070027D01*
X138724473Y-74840217D01*
X138736289Y-74829508D01*
X138749098Y-74820008D01*
X138762776Y-74811810D01*
X138777192Y-74804992D01*
X138792207Y-74799619D01*
X138807676Y-74795744D01*
X138823450Y-74793404D01*
X138839378Y-74792622D01*
X138855306Y-74793404D01*
X138855306Y-74793404D01*
G37*
D27*
X139060349Y-75405903D03*
D12*
G36*
X139208860Y-74439850D02*
X139224634Y-74442190D01*
X139240103Y-74446065D01*
X139255118Y-74451438D01*
X139269534Y-74458256D01*
X139283212Y-74466454D01*
X139296021Y-74475954D01*
X139307837Y-74486663D01*
X139979589Y-75158415D01*
X139990298Y-75170231D01*
X139999798Y-75183040D01*
X140007996Y-75196718D01*
X140014814Y-75211134D01*
X140020187Y-75226149D01*
X140024062Y-75241618D01*
X140026402Y-75257392D01*
X140027184Y-75273320D01*
X140026402Y-75289248D01*
X140024062Y-75305022D01*
X140020187Y-75320491D01*
X140014814Y-75335506D01*
X140007996Y-75349922D01*
X139999798Y-75363600D01*
X139990298Y-75376409D01*
X139979589Y-75388225D01*
X139749779Y-75618035D01*
X139737963Y-75628744D01*
X139725154Y-75638244D01*
X139711476Y-75646442D01*
X139697060Y-75653260D01*
X139682045Y-75658633D01*
X139666576Y-75662508D01*
X139650802Y-75664848D01*
X139634874Y-75665630D01*
X139618946Y-75664848D01*
X139603172Y-75662508D01*
X139587703Y-75658633D01*
X139572688Y-75653260D01*
X139558272Y-75646442D01*
X139544594Y-75638244D01*
X139531785Y-75628744D01*
X139519969Y-75618035D01*
X138848217Y-74946283D01*
X138837508Y-74934467D01*
X138828008Y-74921658D01*
X138819810Y-74907980D01*
X138812992Y-74893564D01*
X138807619Y-74878549D01*
X138803744Y-74863080D01*
X138801404Y-74847306D01*
X138800622Y-74831378D01*
X138801404Y-74815450D01*
X138803744Y-74799676D01*
X138807619Y-74784207D01*
X138812992Y-74769192D01*
X138819810Y-74754776D01*
X138828008Y-74741098D01*
X138837508Y-74728289D01*
X138848217Y-74716473D01*
X139078027Y-74486663D01*
X139089843Y-74475954D01*
X139102652Y-74466454D01*
X139116330Y-74458256D01*
X139130746Y-74451438D01*
X139145761Y-74446065D01*
X139161230Y-74442190D01*
X139177004Y-74439850D01*
X139192932Y-74439068D01*
X139208860Y-74439850D01*
X139208860Y-74439850D01*
G37*
D27*
X139413903Y-75052349D03*
D12*
G36*
X139562413Y-74086297D02*
X139578187Y-74088637D01*
X139593656Y-74092512D01*
X139608671Y-74097885D01*
X139623087Y-74104703D01*
X139636765Y-74112901D01*
X139649574Y-74122401D01*
X139661390Y-74133110D01*
X140333142Y-74804862D01*
X140343851Y-74816678D01*
X140353351Y-74829487D01*
X140361549Y-74843165D01*
X140368367Y-74857581D01*
X140373740Y-74872596D01*
X140377615Y-74888065D01*
X140379955Y-74903839D01*
X140380737Y-74919767D01*
X140379955Y-74935695D01*
X140377615Y-74951469D01*
X140373740Y-74966938D01*
X140368367Y-74981953D01*
X140361549Y-74996369D01*
X140353351Y-75010047D01*
X140343851Y-75022856D01*
X140333142Y-75034672D01*
X140103332Y-75264482D01*
X140091516Y-75275191D01*
X140078707Y-75284691D01*
X140065029Y-75292889D01*
X140050613Y-75299707D01*
X140035598Y-75305080D01*
X140020129Y-75308955D01*
X140004355Y-75311295D01*
X139988427Y-75312077D01*
X139972499Y-75311295D01*
X139956725Y-75308955D01*
X139941256Y-75305080D01*
X139926241Y-75299707D01*
X139911825Y-75292889D01*
X139898147Y-75284691D01*
X139885338Y-75275191D01*
X139873522Y-75264482D01*
X139201770Y-74592730D01*
X139191061Y-74580914D01*
X139181561Y-74568105D01*
X139173363Y-74554427D01*
X139166545Y-74540011D01*
X139161172Y-74524996D01*
X139157297Y-74509527D01*
X139154957Y-74493753D01*
X139154175Y-74477825D01*
X139154957Y-74461897D01*
X139157297Y-74446123D01*
X139161172Y-74430654D01*
X139166545Y-74415639D01*
X139173363Y-74401223D01*
X139181561Y-74387545D01*
X139191061Y-74374736D01*
X139201770Y-74362920D01*
X139431580Y-74133110D01*
X139443396Y-74122401D01*
X139456205Y-74112901D01*
X139469883Y-74104703D01*
X139484299Y-74097885D01*
X139499314Y-74092512D01*
X139514783Y-74088637D01*
X139530557Y-74086297D01*
X139546485Y-74085515D01*
X139562413Y-74086297D01*
X139562413Y-74086297D01*
G37*
D27*
X139767456Y-74698796D03*
D12*
G36*
X139915967Y-73732744D02*
X139931741Y-73735084D01*
X139947210Y-73738959D01*
X139962225Y-73744332D01*
X139976641Y-73751150D01*
X139990319Y-73759348D01*
X140003128Y-73768848D01*
X140014944Y-73779557D01*
X140686696Y-74451309D01*
X140697405Y-74463125D01*
X140706905Y-74475934D01*
X140715103Y-74489612D01*
X140721921Y-74504028D01*
X140727294Y-74519043D01*
X140731169Y-74534512D01*
X140733509Y-74550286D01*
X140734291Y-74566214D01*
X140733509Y-74582142D01*
X140731169Y-74597916D01*
X140727294Y-74613385D01*
X140721921Y-74628400D01*
X140715103Y-74642816D01*
X140706905Y-74656494D01*
X140697405Y-74669303D01*
X140686696Y-74681119D01*
X140456886Y-74910929D01*
X140445070Y-74921638D01*
X140432261Y-74931138D01*
X140418583Y-74939336D01*
X140404167Y-74946154D01*
X140389152Y-74951527D01*
X140373683Y-74955402D01*
X140357909Y-74957742D01*
X140341981Y-74958524D01*
X140326053Y-74957742D01*
X140310279Y-74955402D01*
X140294810Y-74951527D01*
X140279795Y-74946154D01*
X140265379Y-74939336D01*
X140251701Y-74931138D01*
X140238892Y-74921638D01*
X140227076Y-74910929D01*
X139555324Y-74239177D01*
X139544615Y-74227361D01*
X139535115Y-74214552D01*
X139526917Y-74200874D01*
X139520099Y-74186458D01*
X139514726Y-74171443D01*
X139510851Y-74155974D01*
X139508511Y-74140200D01*
X139507729Y-74124272D01*
X139508511Y-74108344D01*
X139510851Y-74092570D01*
X139514726Y-74077101D01*
X139520099Y-74062086D01*
X139526917Y-74047670D01*
X139535115Y-74033992D01*
X139544615Y-74021183D01*
X139555324Y-74009367D01*
X139785134Y-73779557D01*
X139796950Y-73768848D01*
X139809759Y-73759348D01*
X139823437Y-73751150D01*
X139837853Y-73744332D01*
X139852868Y-73738959D01*
X139868337Y-73735084D01*
X139884111Y-73732744D01*
X139900039Y-73731962D01*
X139915967Y-73732744D01*
X139915967Y-73732744D01*
G37*
D27*
X140121010Y-74345243D03*
D12*
G36*
X140269520Y-73379190D02*
X140285294Y-73381530D01*
X140300763Y-73385405D01*
X140315778Y-73390778D01*
X140330194Y-73397596D01*
X140343872Y-73405794D01*
X140356681Y-73415294D01*
X140368497Y-73426003D01*
X141040249Y-74097755D01*
X141050958Y-74109571D01*
X141060458Y-74122380D01*
X141068656Y-74136058D01*
X141075474Y-74150474D01*
X141080847Y-74165489D01*
X141084722Y-74180958D01*
X141087062Y-74196732D01*
X141087844Y-74212660D01*
X141087062Y-74228588D01*
X141084722Y-74244362D01*
X141080847Y-74259831D01*
X141075474Y-74274846D01*
X141068656Y-74289262D01*
X141060458Y-74302940D01*
X141050958Y-74315749D01*
X141040249Y-74327565D01*
X140810439Y-74557375D01*
X140798623Y-74568084D01*
X140785814Y-74577584D01*
X140772136Y-74585782D01*
X140757720Y-74592600D01*
X140742705Y-74597973D01*
X140727236Y-74601848D01*
X140711462Y-74604188D01*
X140695534Y-74604970D01*
X140679606Y-74604188D01*
X140663832Y-74601848D01*
X140648363Y-74597973D01*
X140633348Y-74592600D01*
X140618932Y-74585782D01*
X140605254Y-74577584D01*
X140592445Y-74568084D01*
X140580629Y-74557375D01*
X139908877Y-73885623D01*
X139898168Y-73873807D01*
X139888668Y-73860998D01*
X139880470Y-73847320D01*
X139873652Y-73832904D01*
X139868279Y-73817889D01*
X139864404Y-73802420D01*
X139862064Y-73786646D01*
X139861282Y-73770718D01*
X139862064Y-73754790D01*
X139864404Y-73739016D01*
X139868279Y-73723547D01*
X139873652Y-73708532D01*
X139880470Y-73694116D01*
X139888668Y-73680438D01*
X139898168Y-73667629D01*
X139908877Y-73655813D01*
X140138687Y-73426003D01*
X140150503Y-73415294D01*
X140163312Y-73405794D01*
X140176990Y-73397596D01*
X140191406Y-73390778D01*
X140206421Y-73385405D01*
X140221890Y-73381530D01*
X140237664Y-73379190D01*
X140253592Y-73378408D01*
X140269520Y-73379190D01*
X140269520Y-73379190D01*
G37*
D27*
X140474563Y-73991689D03*
D12*
G36*
X140623073Y-73025637D02*
X140638847Y-73027977D01*
X140654316Y-73031852D01*
X140669331Y-73037225D01*
X140683747Y-73044043D01*
X140697425Y-73052241D01*
X140710234Y-73061741D01*
X140722050Y-73072450D01*
X141393802Y-73744202D01*
X141404511Y-73756018D01*
X141414011Y-73768827D01*
X141422209Y-73782505D01*
X141429027Y-73796921D01*
X141434400Y-73811936D01*
X141438275Y-73827405D01*
X141440615Y-73843179D01*
X141441397Y-73859107D01*
X141440615Y-73875035D01*
X141438275Y-73890809D01*
X141434400Y-73906278D01*
X141429027Y-73921293D01*
X141422209Y-73935709D01*
X141414011Y-73949387D01*
X141404511Y-73962196D01*
X141393802Y-73974012D01*
X141163992Y-74203822D01*
X141152176Y-74214531D01*
X141139367Y-74224031D01*
X141125689Y-74232229D01*
X141111273Y-74239047D01*
X141096258Y-74244420D01*
X141080789Y-74248295D01*
X141065015Y-74250635D01*
X141049087Y-74251417D01*
X141033159Y-74250635D01*
X141017385Y-74248295D01*
X141001916Y-74244420D01*
X140986901Y-74239047D01*
X140972485Y-74232229D01*
X140958807Y-74224031D01*
X140945998Y-74214531D01*
X140934182Y-74203822D01*
X140262430Y-73532070D01*
X140251721Y-73520254D01*
X140242221Y-73507445D01*
X140234023Y-73493767D01*
X140227205Y-73479351D01*
X140221832Y-73464336D01*
X140217957Y-73448867D01*
X140215617Y-73433093D01*
X140214835Y-73417165D01*
X140215617Y-73401237D01*
X140217957Y-73385463D01*
X140221832Y-73369994D01*
X140227205Y-73354979D01*
X140234023Y-73340563D01*
X140242221Y-73326885D01*
X140251721Y-73314076D01*
X140262430Y-73302260D01*
X140492240Y-73072450D01*
X140504056Y-73061741D01*
X140516865Y-73052241D01*
X140530543Y-73044043D01*
X140544959Y-73037225D01*
X140559974Y-73031852D01*
X140575443Y-73027977D01*
X140591217Y-73025637D01*
X140607145Y-73024855D01*
X140623073Y-73025637D01*
X140623073Y-73025637D01*
G37*
D27*
X140828116Y-73638136D03*
G04 #@! TD*
D28*
G04 #@! TO.C,U2*
X175866000Y-90039000D03*
X175866000Y-90689000D03*
X175866000Y-91339000D03*
X175866000Y-91989000D03*
X175866000Y-92639000D03*
X175866000Y-93289000D03*
X175866000Y-93939000D03*
X175866000Y-94589000D03*
X175866000Y-95239000D03*
X175866000Y-95889000D03*
X181766000Y-95889000D03*
X181766000Y-95239000D03*
X181766000Y-94589000D03*
X181766000Y-93939000D03*
X181766000Y-93289000D03*
X181766000Y-92639000D03*
X181766000Y-91989000D03*
X181766000Y-91339000D03*
X181766000Y-90689000D03*
X181766000Y-90039000D03*
G04 #@! TD*
D12*
G04 #@! TO.C,U3*
G36*
X176782504Y-98180204D02*
X176806773Y-98183804D01*
X176830571Y-98189765D01*
X176853671Y-98198030D01*
X176875849Y-98208520D01*
X176896893Y-98221133D01*
X176916598Y-98235747D01*
X176934777Y-98252223D01*
X176951253Y-98270402D01*
X176965867Y-98290107D01*
X176978480Y-98311151D01*
X176988970Y-98333329D01*
X176997235Y-98356429D01*
X177003196Y-98380227D01*
X177006796Y-98404496D01*
X177008000Y-98429000D01*
X177008000Y-98929000D01*
X177006796Y-98953504D01*
X177003196Y-98977773D01*
X176997235Y-99001571D01*
X176988970Y-99024671D01*
X176978480Y-99046849D01*
X176965867Y-99067893D01*
X176951253Y-99087598D01*
X176934777Y-99105777D01*
X176916598Y-99122253D01*
X176896893Y-99136867D01*
X176875849Y-99149480D01*
X176853671Y-99159970D01*
X176830571Y-99168235D01*
X176806773Y-99174196D01*
X176782504Y-99177796D01*
X176758000Y-99179000D01*
X174908000Y-99179000D01*
X174883496Y-99177796D01*
X174859227Y-99174196D01*
X174835429Y-99168235D01*
X174812329Y-99159970D01*
X174790151Y-99149480D01*
X174769107Y-99136867D01*
X174749402Y-99122253D01*
X174731223Y-99105777D01*
X174714747Y-99087598D01*
X174700133Y-99067893D01*
X174687520Y-99046849D01*
X174677030Y-99024671D01*
X174668765Y-99001571D01*
X174662804Y-98977773D01*
X174659204Y-98953504D01*
X174658000Y-98929000D01*
X174658000Y-98429000D01*
X174659204Y-98404496D01*
X174662804Y-98380227D01*
X174668765Y-98356429D01*
X174677030Y-98333329D01*
X174687520Y-98311151D01*
X174700133Y-98290107D01*
X174714747Y-98270402D01*
X174731223Y-98252223D01*
X174749402Y-98235747D01*
X174769107Y-98221133D01*
X174790151Y-98208520D01*
X174812329Y-98198030D01*
X174835429Y-98189765D01*
X174859227Y-98183804D01*
X174883496Y-98180204D01*
X174908000Y-98179000D01*
X176758000Y-98179000D01*
X176782504Y-98180204D01*
X176782504Y-98180204D01*
G37*
D29*
X175833000Y-98679000D03*
D12*
G36*
X176782504Y-99450204D02*
X176806773Y-99453804D01*
X176830571Y-99459765D01*
X176853671Y-99468030D01*
X176875849Y-99478520D01*
X176896893Y-99491133D01*
X176916598Y-99505747D01*
X176934777Y-99522223D01*
X176951253Y-99540402D01*
X176965867Y-99560107D01*
X176978480Y-99581151D01*
X176988970Y-99603329D01*
X176997235Y-99626429D01*
X177003196Y-99650227D01*
X177006796Y-99674496D01*
X177008000Y-99699000D01*
X177008000Y-100199000D01*
X177006796Y-100223504D01*
X177003196Y-100247773D01*
X176997235Y-100271571D01*
X176988970Y-100294671D01*
X176978480Y-100316849D01*
X176965867Y-100337893D01*
X176951253Y-100357598D01*
X176934777Y-100375777D01*
X176916598Y-100392253D01*
X176896893Y-100406867D01*
X176875849Y-100419480D01*
X176853671Y-100429970D01*
X176830571Y-100438235D01*
X176806773Y-100444196D01*
X176782504Y-100447796D01*
X176758000Y-100449000D01*
X174908000Y-100449000D01*
X174883496Y-100447796D01*
X174859227Y-100444196D01*
X174835429Y-100438235D01*
X174812329Y-100429970D01*
X174790151Y-100419480D01*
X174769107Y-100406867D01*
X174749402Y-100392253D01*
X174731223Y-100375777D01*
X174714747Y-100357598D01*
X174700133Y-100337893D01*
X174687520Y-100316849D01*
X174677030Y-100294671D01*
X174668765Y-100271571D01*
X174662804Y-100247773D01*
X174659204Y-100223504D01*
X174658000Y-100199000D01*
X174658000Y-99699000D01*
X174659204Y-99674496D01*
X174662804Y-99650227D01*
X174668765Y-99626429D01*
X174677030Y-99603329D01*
X174687520Y-99581151D01*
X174700133Y-99560107D01*
X174714747Y-99540402D01*
X174731223Y-99522223D01*
X174749402Y-99505747D01*
X174769107Y-99491133D01*
X174790151Y-99478520D01*
X174812329Y-99468030D01*
X174835429Y-99459765D01*
X174859227Y-99453804D01*
X174883496Y-99450204D01*
X174908000Y-99449000D01*
X176758000Y-99449000D01*
X176782504Y-99450204D01*
X176782504Y-99450204D01*
G37*
D29*
X175833000Y-99949000D03*
D12*
G36*
X176782504Y-100720204D02*
X176806773Y-100723804D01*
X176830571Y-100729765D01*
X176853671Y-100738030D01*
X176875849Y-100748520D01*
X176896893Y-100761133D01*
X176916598Y-100775747D01*
X176934777Y-100792223D01*
X176951253Y-100810402D01*
X176965867Y-100830107D01*
X176978480Y-100851151D01*
X176988970Y-100873329D01*
X176997235Y-100896429D01*
X177003196Y-100920227D01*
X177006796Y-100944496D01*
X177008000Y-100969000D01*
X177008000Y-101469000D01*
X177006796Y-101493504D01*
X177003196Y-101517773D01*
X176997235Y-101541571D01*
X176988970Y-101564671D01*
X176978480Y-101586849D01*
X176965867Y-101607893D01*
X176951253Y-101627598D01*
X176934777Y-101645777D01*
X176916598Y-101662253D01*
X176896893Y-101676867D01*
X176875849Y-101689480D01*
X176853671Y-101699970D01*
X176830571Y-101708235D01*
X176806773Y-101714196D01*
X176782504Y-101717796D01*
X176758000Y-101719000D01*
X174908000Y-101719000D01*
X174883496Y-101717796D01*
X174859227Y-101714196D01*
X174835429Y-101708235D01*
X174812329Y-101699970D01*
X174790151Y-101689480D01*
X174769107Y-101676867D01*
X174749402Y-101662253D01*
X174731223Y-101645777D01*
X174714747Y-101627598D01*
X174700133Y-101607893D01*
X174687520Y-101586849D01*
X174677030Y-101564671D01*
X174668765Y-101541571D01*
X174662804Y-101517773D01*
X174659204Y-101493504D01*
X174658000Y-101469000D01*
X174658000Y-100969000D01*
X174659204Y-100944496D01*
X174662804Y-100920227D01*
X174668765Y-100896429D01*
X174677030Y-100873329D01*
X174687520Y-100851151D01*
X174700133Y-100830107D01*
X174714747Y-100810402D01*
X174731223Y-100792223D01*
X174749402Y-100775747D01*
X174769107Y-100761133D01*
X174790151Y-100748520D01*
X174812329Y-100738030D01*
X174835429Y-100729765D01*
X174859227Y-100723804D01*
X174883496Y-100720204D01*
X174908000Y-100719000D01*
X176758000Y-100719000D01*
X176782504Y-100720204D01*
X176782504Y-100720204D01*
G37*
D29*
X175833000Y-101219000D03*
D12*
G36*
X176782504Y-101990204D02*
X176806773Y-101993804D01*
X176830571Y-101999765D01*
X176853671Y-102008030D01*
X176875849Y-102018520D01*
X176896893Y-102031133D01*
X176916598Y-102045747D01*
X176934777Y-102062223D01*
X176951253Y-102080402D01*
X176965867Y-102100107D01*
X176978480Y-102121151D01*
X176988970Y-102143329D01*
X176997235Y-102166429D01*
X177003196Y-102190227D01*
X177006796Y-102214496D01*
X177008000Y-102239000D01*
X177008000Y-102739000D01*
X177006796Y-102763504D01*
X177003196Y-102787773D01*
X176997235Y-102811571D01*
X176988970Y-102834671D01*
X176978480Y-102856849D01*
X176965867Y-102877893D01*
X176951253Y-102897598D01*
X176934777Y-102915777D01*
X176916598Y-102932253D01*
X176896893Y-102946867D01*
X176875849Y-102959480D01*
X176853671Y-102969970D01*
X176830571Y-102978235D01*
X176806773Y-102984196D01*
X176782504Y-102987796D01*
X176758000Y-102989000D01*
X174908000Y-102989000D01*
X174883496Y-102987796D01*
X174859227Y-102984196D01*
X174835429Y-102978235D01*
X174812329Y-102969970D01*
X174790151Y-102959480D01*
X174769107Y-102946867D01*
X174749402Y-102932253D01*
X174731223Y-102915777D01*
X174714747Y-102897598D01*
X174700133Y-102877893D01*
X174687520Y-102856849D01*
X174677030Y-102834671D01*
X174668765Y-102811571D01*
X174662804Y-102787773D01*
X174659204Y-102763504D01*
X174658000Y-102739000D01*
X174658000Y-102239000D01*
X174659204Y-102214496D01*
X174662804Y-102190227D01*
X174668765Y-102166429D01*
X174677030Y-102143329D01*
X174687520Y-102121151D01*
X174700133Y-102100107D01*
X174714747Y-102080402D01*
X174731223Y-102062223D01*
X174749402Y-102045747D01*
X174769107Y-102031133D01*
X174790151Y-102018520D01*
X174812329Y-102008030D01*
X174835429Y-101999765D01*
X174859227Y-101993804D01*
X174883496Y-101990204D01*
X174908000Y-101989000D01*
X176758000Y-101989000D01*
X176782504Y-101990204D01*
X176782504Y-101990204D01*
G37*
D29*
X175833000Y-102489000D03*
D12*
G36*
X181732504Y-101990204D02*
X181756773Y-101993804D01*
X181780571Y-101999765D01*
X181803671Y-102008030D01*
X181825849Y-102018520D01*
X181846893Y-102031133D01*
X181866598Y-102045747D01*
X181884777Y-102062223D01*
X181901253Y-102080402D01*
X181915867Y-102100107D01*
X181928480Y-102121151D01*
X181938970Y-102143329D01*
X181947235Y-102166429D01*
X181953196Y-102190227D01*
X181956796Y-102214496D01*
X181958000Y-102239000D01*
X181958000Y-102739000D01*
X181956796Y-102763504D01*
X181953196Y-102787773D01*
X181947235Y-102811571D01*
X181938970Y-102834671D01*
X181928480Y-102856849D01*
X181915867Y-102877893D01*
X181901253Y-102897598D01*
X181884777Y-102915777D01*
X181866598Y-102932253D01*
X181846893Y-102946867D01*
X181825849Y-102959480D01*
X181803671Y-102969970D01*
X181780571Y-102978235D01*
X181756773Y-102984196D01*
X181732504Y-102987796D01*
X181708000Y-102989000D01*
X179858000Y-102989000D01*
X179833496Y-102987796D01*
X179809227Y-102984196D01*
X179785429Y-102978235D01*
X179762329Y-102969970D01*
X179740151Y-102959480D01*
X179719107Y-102946867D01*
X179699402Y-102932253D01*
X179681223Y-102915777D01*
X179664747Y-102897598D01*
X179650133Y-102877893D01*
X179637520Y-102856849D01*
X179627030Y-102834671D01*
X179618765Y-102811571D01*
X179612804Y-102787773D01*
X179609204Y-102763504D01*
X179608000Y-102739000D01*
X179608000Y-102239000D01*
X179609204Y-102214496D01*
X179612804Y-102190227D01*
X179618765Y-102166429D01*
X179627030Y-102143329D01*
X179637520Y-102121151D01*
X179650133Y-102100107D01*
X179664747Y-102080402D01*
X179681223Y-102062223D01*
X179699402Y-102045747D01*
X179719107Y-102031133D01*
X179740151Y-102018520D01*
X179762329Y-102008030D01*
X179785429Y-101999765D01*
X179809227Y-101993804D01*
X179833496Y-101990204D01*
X179858000Y-101989000D01*
X181708000Y-101989000D01*
X181732504Y-101990204D01*
X181732504Y-101990204D01*
G37*
D29*
X180783000Y-102489000D03*
D12*
G36*
X181732504Y-100720204D02*
X181756773Y-100723804D01*
X181780571Y-100729765D01*
X181803671Y-100738030D01*
X181825849Y-100748520D01*
X181846893Y-100761133D01*
X181866598Y-100775747D01*
X181884777Y-100792223D01*
X181901253Y-100810402D01*
X181915867Y-100830107D01*
X181928480Y-100851151D01*
X181938970Y-100873329D01*
X181947235Y-100896429D01*
X181953196Y-100920227D01*
X181956796Y-100944496D01*
X181958000Y-100969000D01*
X181958000Y-101469000D01*
X181956796Y-101493504D01*
X181953196Y-101517773D01*
X181947235Y-101541571D01*
X181938970Y-101564671D01*
X181928480Y-101586849D01*
X181915867Y-101607893D01*
X181901253Y-101627598D01*
X181884777Y-101645777D01*
X181866598Y-101662253D01*
X181846893Y-101676867D01*
X181825849Y-101689480D01*
X181803671Y-101699970D01*
X181780571Y-101708235D01*
X181756773Y-101714196D01*
X181732504Y-101717796D01*
X181708000Y-101719000D01*
X179858000Y-101719000D01*
X179833496Y-101717796D01*
X179809227Y-101714196D01*
X179785429Y-101708235D01*
X179762329Y-101699970D01*
X179740151Y-101689480D01*
X179719107Y-101676867D01*
X179699402Y-101662253D01*
X179681223Y-101645777D01*
X179664747Y-101627598D01*
X179650133Y-101607893D01*
X179637520Y-101586849D01*
X179627030Y-101564671D01*
X179618765Y-101541571D01*
X179612804Y-101517773D01*
X179609204Y-101493504D01*
X179608000Y-101469000D01*
X179608000Y-100969000D01*
X179609204Y-100944496D01*
X179612804Y-100920227D01*
X179618765Y-100896429D01*
X179627030Y-100873329D01*
X179637520Y-100851151D01*
X179650133Y-100830107D01*
X179664747Y-100810402D01*
X179681223Y-100792223D01*
X179699402Y-100775747D01*
X179719107Y-100761133D01*
X179740151Y-100748520D01*
X179762329Y-100738030D01*
X179785429Y-100729765D01*
X179809227Y-100723804D01*
X179833496Y-100720204D01*
X179858000Y-100719000D01*
X181708000Y-100719000D01*
X181732504Y-100720204D01*
X181732504Y-100720204D01*
G37*
D29*
X180783000Y-101219000D03*
D12*
G36*
X181732504Y-99450204D02*
X181756773Y-99453804D01*
X181780571Y-99459765D01*
X181803671Y-99468030D01*
X181825849Y-99478520D01*
X181846893Y-99491133D01*
X181866598Y-99505747D01*
X181884777Y-99522223D01*
X181901253Y-99540402D01*
X181915867Y-99560107D01*
X181928480Y-99581151D01*
X181938970Y-99603329D01*
X181947235Y-99626429D01*
X181953196Y-99650227D01*
X181956796Y-99674496D01*
X181958000Y-99699000D01*
X181958000Y-100199000D01*
X181956796Y-100223504D01*
X181953196Y-100247773D01*
X181947235Y-100271571D01*
X181938970Y-100294671D01*
X181928480Y-100316849D01*
X181915867Y-100337893D01*
X181901253Y-100357598D01*
X181884777Y-100375777D01*
X181866598Y-100392253D01*
X181846893Y-100406867D01*
X181825849Y-100419480D01*
X181803671Y-100429970D01*
X181780571Y-100438235D01*
X181756773Y-100444196D01*
X181732504Y-100447796D01*
X181708000Y-100449000D01*
X179858000Y-100449000D01*
X179833496Y-100447796D01*
X179809227Y-100444196D01*
X179785429Y-100438235D01*
X179762329Y-100429970D01*
X179740151Y-100419480D01*
X179719107Y-100406867D01*
X179699402Y-100392253D01*
X179681223Y-100375777D01*
X179664747Y-100357598D01*
X179650133Y-100337893D01*
X179637520Y-100316849D01*
X179627030Y-100294671D01*
X179618765Y-100271571D01*
X179612804Y-100247773D01*
X179609204Y-100223504D01*
X179608000Y-100199000D01*
X179608000Y-99699000D01*
X179609204Y-99674496D01*
X179612804Y-99650227D01*
X179618765Y-99626429D01*
X179627030Y-99603329D01*
X179637520Y-99581151D01*
X179650133Y-99560107D01*
X179664747Y-99540402D01*
X179681223Y-99522223D01*
X179699402Y-99505747D01*
X179719107Y-99491133D01*
X179740151Y-99478520D01*
X179762329Y-99468030D01*
X179785429Y-99459765D01*
X179809227Y-99453804D01*
X179833496Y-99450204D01*
X179858000Y-99449000D01*
X181708000Y-99449000D01*
X181732504Y-99450204D01*
X181732504Y-99450204D01*
G37*
D29*
X180783000Y-99949000D03*
D12*
G36*
X181732504Y-98180204D02*
X181756773Y-98183804D01*
X181780571Y-98189765D01*
X181803671Y-98198030D01*
X181825849Y-98208520D01*
X181846893Y-98221133D01*
X181866598Y-98235747D01*
X181884777Y-98252223D01*
X181901253Y-98270402D01*
X181915867Y-98290107D01*
X181928480Y-98311151D01*
X181938970Y-98333329D01*
X181947235Y-98356429D01*
X181953196Y-98380227D01*
X181956796Y-98404496D01*
X181958000Y-98429000D01*
X181958000Y-98929000D01*
X181956796Y-98953504D01*
X181953196Y-98977773D01*
X181947235Y-99001571D01*
X181938970Y-99024671D01*
X181928480Y-99046849D01*
X181915867Y-99067893D01*
X181901253Y-99087598D01*
X181884777Y-99105777D01*
X181866598Y-99122253D01*
X181846893Y-99136867D01*
X181825849Y-99149480D01*
X181803671Y-99159970D01*
X181780571Y-99168235D01*
X181756773Y-99174196D01*
X181732504Y-99177796D01*
X181708000Y-99179000D01*
X179858000Y-99179000D01*
X179833496Y-99177796D01*
X179809227Y-99174196D01*
X179785429Y-99168235D01*
X179762329Y-99159970D01*
X179740151Y-99149480D01*
X179719107Y-99136867D01*
X179699402Y-99122253D01*
X179681223Y-99105777D01*
X179664747Y-99087598D01*
X179650133Y-99067893D01*
X179637520Y-99046849D01*
X179627030Y-99024671D01*
X179618765Y-99001571D01*
X179612804Y-98977773D01*
X179609204Y-98953504D01*
X179608000Y-98929000D01*
X179608000Y-98429000D01*
X179609204Y-98404496D01*
X179612804Y-98380227D01*
X179618765Y-98356429D01*
X179627030Y-98333329D01*
X179637520Y-98311151D01*
X179650133Y-98290107D01*
X179664747Y-98270402D01*
X179681223Y-98252223D01*
X179699402Y-98235747D01*
X179719107Y-98221133D01*
X179740151Y-98208520D01*
X179762329Y-98198030D01*
X179785429Y-98189765D01*
X179809227Y-98183804D01*
X179833496Y-98180204D01*
X179858000Y-98179000D01*
X181708000Y-98179000D01*
X181732504Y-98180204D01*
X181732504Y-98180204D01*
G37*
D29*
X180783000Y-98679000D03*
G04 #@! TD*
D30*
G04 #@! TO.C,U4*
X127127000Y-86868000D03*
D31*
X133427000Y-86868000D03*
X133427000Y-84568000D03*
X133427000Y-89168000D03*
G04 #@! TD*
M02*
