M48
;DRILL file {KiCad (5.0.0)} date 11/15/19 12:31:35
;FORMAT={-:-/ absolute / inch / decimal}
FMAT,2
INCH,TZ
T1C0.0157
T2C0.0315
T3C0.0394
T4C0.0433
T5C0.0571
T6C0.0709
%
G90
G05
M72
T1
X5.0029Y-3.77
X5.0214Y-3.16
X5.0229Y-2.94
X5.0229Y-3.04
X5.025Y-2.85
X5.1252Y-2.8225
X5.172Y-3.769
X5.2Y-2.85
X5.2Y-2.975
X5.253Y-3.5106
X5.4402Y-2.6996
X6.16Y-2.892
X6.34Y-2.64
X6.34Y-2.892
X6.45Y-3.175
X6.52Y-2.82
X6.55Y-3.175
X6.925Y-3.85
X7.025Y-3.55
T2
X5.0049Y-3.5482
X5.12Y-3.42
X5.2697Y-3.6467
X5.4Y-2.88
X5.4Y-3.325
X5.45Y-3.375
X5.85Y-2.725
X6.65Y-3.175
X6.7717Y-3.5689
X6.8Y-3.225
X6.81Y-4.1722
X7.025Y-2.9
X7.05Y-2.7
X7.25Y-3.5
X7.4Y-5.075
X7.75Y-3.025
X7.825Y-3.025
X5.15Y-4.075
X5.3469Y-4.075
T3
X5.36Y-2.46
X5.36Y-2.56
X5.46Y-2.46
X5.46Y-2.56
X5.78Y-2.5
X5.78Y-3.1
X5.88Y-2.5
X5.88Y-3.1
X5.98Y-2.5
X5.98Y-3.1
X6.08Y-2.5
X6.08Y-3.1
X6.18Y-2.5
X6.18Y-3.1
X6.28Y-2.5
X6.28Y-3.1
X6.38Y-2.5
X6.38Y-3.1
X6.48Y-2.5
X6.48Y-3.1
X6.58Y-2.5
X6.58Y-3.1
X6.68Y-2.5
X6.68Y-3.1
X6.78Y-2.5
X6.78Y-3.1
X6.88Y-2.5
X6.88Y-3.1
X6.98Y-2.5
X6.98Y-3.1
X7.08Y-2.5
X7.08Y-3.1
X5.908Y-4.943
X5.908Y-5.043
X6.008Y-4.943
X6.008Y-5.043
X6.108Y-4.943
X6.108Y-5.043
X6.208Y-4.943
X6.208Y-5.043
X6.308Y-4.943
X6.308Y-5.043
X7.6Y-2.7
X7.6Y-2.8
X7.6Y-2.9
X7.7Y-2.7
X7.7Y-2.8
X7.7Y-2.9
T4
X5.975Y-3.85
X5.975Y-3.95
X5.975Y-4.05
X6.35Y-4.35
X6.35Y-4.45
X6.35Y-4.55
X5.975Y-4.35
X5.975Y-4.45
X5.975Y-4.55
X6.35Y-3.35
X6.35Y-3.45
X6.35Y-3.55
X6.35Y-3.85
X6.35Y-3.95
X6.35Y-4.05
X5.975Y-3.35
X5.975Y-3.45
X5.975Y-3.55
T5
X6.911Y-4.583
X6.911Y-4.7995
X7.0764Y-4.583
X7.0764Y-4.7995
X7.2417Y-4.583
X7.2417Y-4.7995
X7.4071Y-4.583
X7.4071Y-4.7995
T6
X5.025Y-4.575
X5.1904Y-4.575
X5.3557Y-4.575
X7.6443Y-4.575
X7.8096Y-4.575
X7.975Y-4.575
T0
M30
